<svg xmlns="http://www.w3.org/2000/svg" xmlns:xlink="http://www.w3.org/1999/xlink" width="1200" zoomAndPan="magnify" viewBox="0 0 900 52.499999" height="70" preserveAspectRatio="xMidYMid meet" version="1.0"><defs><g/><clipPath id="id1"><path d="M 4.246094 0 L 895.753906 0 L 895.753906 52.003906 L 4.246094 52.003906 Z M 4.246094 0 " clip-rule="nonzero"/></clipPath></defs><g clip-path="url(#id1)"><path fill="#ffffff" d="M 4.246094 0 L 895.753906 0 L 895.753906 59.433594 L 4.246094 59.433594 Z M 4.246094 0 " fill-opacity="1" fill-rule="nonzero"/><path fill="#ffffff" d="M 4.246094 0 L 895.753906 0 L 895.753906 52.003906 L 4.246094 52.003906 Z M 4.246094 0 " fill-opacity="1" fill-rule="nonzero"/><path fill="#ffffff" d="M 4.246094 0 L 895.753906 0 L 895.753906 52.003906 L 4.246094 52.003906 Z M 4.246094 0 " fill-opacity="1" fill-rule="nonzero"/><path fill="#ffffff" d="M 4.246094 0 L 895.753906 0 L 895.753906 52.003906 L 4.246094 52.003906 Z M 4.246094 0 " fill-opacity="1" fill-rule="nonzero"/></g><g fill="#333333" fill-opacity="1"><g transform="translate(468.492292, 41.291155)"><g><path d="M 6.484375 1.910156 C 6.261719 1.332031 6.441406 -2.976562 6.796875 -5.773438 C 7.683594 -13.015625 8.660156 -16.433594 12.882812 -27.140625 C 13.636719 -29.09375 14.257812 -30.871094 14.257812 -31.09375 C 14.257812 -31.269531 14.390625 -31.539062 14.480469 -31.625 C 14.96875 -32.027344 17.457031 -32.382812 25.007812 -33.136719 C 26.339844 -33.226562 26.5625 -33.492188 25.984375 -34.023438 C 25.808594 -34.203125 25.628906 -34.425781 25.628906 -34.558594 C 25.628906 -34.957031 25.050781 -35.136719 22.652344 -35.535156 C 20.03125 -35.980469 18.613281 -35.980469 15.503906 -35.625 C 10.75 -35.046875 5.417969 -33.667969 3.019531 -32.382812 C 1.867188 -31.757812 0.667969 -30.695312 0.445312 -30.027344 C 0.222656 -29.496094 0.710938 -28.5625 1.242188 -28.515625 C 1.464844 -28.472656 1.597656 -28.296875 1.644531 -28.027344 C 1.6875 -27.804688 1.910156 -27.496094 2.132812 -27.40625 C 2.53125 -27.183594 2.796875 -27.316406 7.242188 -29.273438 C 7.949219 -29.582031 8.574219 -29.804688 8.617188 -29.804688 C 8.617188 -29.804688 8.304688 -28.917969 7.863281 -27.851562 C 6.441406 -24.253906 4.351562 -17.058594 3.554688 -12.96875 C 2.488281 -7.683594 2.441406 -2.222656 3.375 -0.265625 C 3.910156 0.753906 5.019531 2 5.507812 2.085938 C 6.53125 2.265625 6.617188 2.222656 6.484375 1.910156 Z M 10.925781 -29.628906 C 11.726562 -31.226562 11.769531 -31.003906 11.015625 -29.316406 C 10.660156 -28.515625 9.996094 -26.875 9.503906 -25.585938 C 9.015625 -24.339844 8.304688 -22.296875 7.863281 -21.097656 C 7.460938 -19.855469 7.105469 -18.96875 7.105469 -19.101562 C 7.105469 -19.722656 9.90625 -27.449219 10.925781 -29.628906 Z M 6.929688 -18.476562 C 7.019531 -18.746094 7.0625 -18.789062 7.105469 -18.613281 C 7.105469 -18.433594 7.019531 -18.210938 6.929688 -18.035156 C 6.707031 -17.722656 6.707031 -17.988281 6.929688 -18.476562 Z M 6.085938 -15.367188 C 6.085938 -15.589844 6.128906 -15.636719 6.175781 -15.503906 C 6.21875 -15.367188 6.21875 -15.191406 6.175781 -15.148438 C 6.085938 -15.101562 6.039062 -15.191406 6.085938 -15.367188 Z M 4.085938 -2.441406 C 3.996094 -2.355469 3.953125 -2.488281 3.953125 -2.664062 C 3.996094 -2.886719 4.042969 -2.933594 4.085938 -2.796875 C 4.132812 -2.664062 4.132812 -2.488281 4.085938 -2.441406 Z M 4.574219 -3.640625 C 4.574219 -2.132812 4.574219 -0.886719 4.53125 -0.886719 C 4.398438 -0.886719 4.265625 -3.375 4.398438 -4.929688 C 4.574219 -8.085938 5.550781 -14.214844 5.820312 -13.949219 C 5.820312 -13.902344 5.773438 -13.371094 5.640625 -12.75 C 5.019531 -10.128906 4.621094 -6.308594 4.574219 -3.640625 Z M 5.820312 -10.75 C 5.730469 -10.351562 5.597656 -9.0625 5.417969 -7.90625 C 5.285156 -6.75 5.109375 -4.976562 5.019531 -3.953125 L 4.839844 -2.085938 L 4.929688 -4.265625 C 5.019531 -6.351562 5.597656 -11.195312 5.820312 -11.414062 C 5.863281 -11.460938 5.863281 -11.148438 5.820312 -10.75 Z M 5.90625 -11.859375 C 5.863281 -12.4375 6.886719 -16.433594 7.773438 -19.234375 C 9.015625 -23.230469 11.636719 -30.027344 12.257812 -30.871094 C 12.394531 -31.050781 12.039062 -30.027344 11.460938 -28.648438 C 10.261719 -25.761719 8.660156 -21.410156 7.816406 -18.789062 C 7.507812 -17.8125 6.929688 -15.769531 6.574219 -14.257812 C 6.21875 -12.75 5.90625 -11.636719 5.90625 -11.859375 Z M 5.90625 -11.859375 "/></g></g></g><g fill="#333333" fill-opacity="1"><g transform="translate(480.174008, 41.291155)"><g><path d="M 9.148438 -19.765625 C 7.0625 -19.144531 5.242188 -17.722656 3.421875 -15.457031 C 0.265625 -11.550781 -0.933594 -6.308594 0.53125 -3.242188 C 1.066406 -2.175781 2.175781 -1.15625 3.777344 -0.222656 C 5.109375 0.53125 5.242188 0.53125 6.351562 0.488281 C 7.105469 0.445312 7.816406 0.3125 8.21875 0.0898438 C 10.703125 -1.109375 14.835938 -7.152344 13.503906 -7.640625 C 13.324219 -7.730469 12.96875 -7.375 12.480469 -6.617188 C 12.039062 -5.996094 11.148438 -4.929688 10.484375 -4.21875 C 8.929688 -2.664062 6.972656 -1.644531 5.417969 -1.511719 L 4.398438 -1.464844 L 4.042969 -2.265625 C 3.730469 -2.976562 3.6875 -3.285156 3.777344 -4.886719 C 3.863281 -6.53125 4.484375 -9.0625 4.753906 -8.882812 C 6.839844 -7.730469 8.707031 -8.039062 10.792969 -9.859375 C 13.191406 -11.992188 14.792969 -16.433594 13.679688 -18.035156 C 13.457031 -18.34375 13.238281 -18.613281 13.191406 -18.613281 C 13.148438 -18.613281 12.75 -18.878906 12.304688 -19.277344 C 11.238281 -20.121094 10.570312 -20.210938 9.148438 -19.765625 Z M 1.464844 -7.640625 C 1.421875 -7.59375 1.378906 -7.683594 1.378906 -7.863281 C 1.378906 -8.039062 1.421875 -8.085938 1.464844 -7.949219 C 1.554688 -7.816406 1.511719 -7.683594 1.464844 -7.640625 Z M 1.554688 -8.617188 C 1.554688 -8.75 1.644531 -9.015625 1.730469 -9.195312 C 1.820312 -9.417969 1.867188 -9.460938 1.867188 -9.285156 C 1.867188 -9.148438 1.777344 -8.882812 1.730469 -8.707031 C 1.597656 -8.484375 1.554688 -8.441406 1.554688 -8.617188 Z M 1.644531 -6.664062 C 1.777344 -7.683594 2.132812 -9.195312 2.488281 -10.039062 C 2.886719 -11.058594 2.886719 -10.660156 2.441406 -9.285156 C 2.222656 -8.574219 1.953125 -7.507812 1.820312 -6.929688 C 1.597656 -5.90625 1.554688 -5.863281 1.644531 -6.664062 Z M 2.488281 -7.460938 C 2.441406 -7.417969 2.398438 -7.507812 2.398438 -7.683594 C 2.398438 -7.90625 2.441406 -7.90625 2.488281 -7.773438 C 2.53125 -7.683594 2.53125 -7.507812 2.488281 -7.460938 Z M 3.199219 -9.949219 C 3.199219 -9.816406 3.066406 -9.328125 2.886719 -8.839844 C 2.621094 -8.21875 2.578125 -8.128906 2.664062 -8.574219 C 2.796875 -9.238281 3.242188 -10.351562 3.199219 -9.949219 Z M 5.550781 -14.214844 C 5.820312 -14.4375 5.820312 -14.4375 5.640625 -14.167969 C 5.417969 -13.859375 5.285156 -13.769531 5.285156 -13.902344 C 5.285156 -13.949219 5.417969 -14.082031 5.550781 -14.214844 Z M 3.730469 -12.347656 C 3.640625 -12.125 3.507812 -11.992188 3.464844 -11.992188 C 3.421875 -11.992188 3.464844 -12.125 3.554688 -12.347656 C 3.6875 -12.527344 3.777344 -12.660156 3.820312 -12.660156 C 3.863281 -12.660156 3.820312 -12.527344 3.730469 -12.347656 Z M 4.664062 -12.703125 C 4.308594 -12.125 3.996094 -11.636719 3.953125 -11.636719 C 3.820312 -11.636719 4.796875 -13.324219 5.0625 -13.546875 C 5.195312 -13.636719 5.019531 -13.28125 4.664062 -12.703125 Z M 12.214844 -14.082031 C 12.214844 -13.992188 12.082031 -13.769531 11.949219 -13.59375 C 11.683594 -13.28125 11.683594 -13.28125 11.859375 -13.679688 C 12.125 -14.214844 12.214844 -14.304688 12.214844 -14.082031 Z M 11.816406 -17.367188 C 11.992188 -17.144531 11.460938 -15.28125 10.925781 -14.167969 C 10.128906 -12.570312 8.839844 -11.195312 7.550781 -10.617188 C 6.617188 -10.171875 5.285156 -9.949219 5.285156 -10.261719 C 5.285156 -10.527344 6.707031 -12.703125 7.683594 -13.992188 C 9.0625 -15.679688 11.503906 -17.679688 11.816406 -17.367188 Z M 11.816406 -17.367188 "/></g></g></g><g fill="#333333" fill-opacity="1"><g transform="translate(495.231433, 41.291155)"><g><path d="M 19.5 -25.007812 C 19.324219 -25.007812 18.746094 -25.71875 18.746094 -25.941406 C 18.699219 -26.25 18.078125 -26.386719 17.679688 -26.117188 C 17.5 -26.03125 16.480469 -24.785156 15.414062 -23.363281 C 11.859375 -18.65625 8.75 -15.367188 6.128906 -13.679688 C 5.640625 -13.371094 5.242188 -13.191406 5.195312 -13.28125 C 5.109375 -13.546875 5.953125 -16.566406 6.839844 -19.410156 C 8.796875 -25.363281 9.238281 -26.742188 10.394531 -29.628906 C 12.257812 -34.425781 12.4375 -35.269531 11.769531 -35.847656 C 11.550781 -36.023438 11.328125 -36.113281 11.238281 -36.066406 C 11.148438 -36.023438 11.105469 -36.066406 11.105469 -36.15625 C 11.105469 -36.289062 11.058594 -36.335938 11.015625 -36.289062 C 10.925781 -36.203125 10.75 -36.335938 10.617188 -36.511719 C 9.949219 -37.3125 9.105469 -36.558594 7.507812 -33.667969 C 6.484375 -31.9375 5.730469 -30.160156 4.265625 -26.164062 C 2.308594 -21.011719 1.332031 -17.679688 0.621094 -13.902344 C -0.3125 -9.238281 0.0898438 -3.242188 1.464844 -1.109375 C 2.085938 -0.175781 2.664062 0.175781 3.910156 0.355469 C 4.796875 0.445312 4.886719 0.445312 4.796875 0.132812 C 4.132812 -2 3.597656 -5.6875 3.910156 -5.6875 C 3.996094 -5.6875 4.929688 -4.839844 5.996094 -3.777344 C 7.105469 -2.753906 8.574219 -1.421875 9.238281 -0.886719 C 10.75 0.222656 13.238281 1.554688 14.304688 1.867188 C 15.324219 2.132812 16.347656 2.132812 16.789062 1.867188 C 17.234375 1.644531 18.035156 0.667969 18.035156 0.445312 C 18.035156 0.3125 17.769531 0.222656 17.457031 0.222656 C 16.257812 0.222656 13.105469 -1.6875 10.570312 -4.042969 C 8.972656 -5.464844 5.507812 -9.148438 5.507812 -9.417969 C 5.507812 -9.460938 5.953125 -9.640625 6.484375 -9.816406 C 7.730469 -10.261719 10.214844 -11.726562 11.636719 -12.882812 C 14.96875 -15.636719 19.144531 -20.878906 19.8125 -23.1875 C 20.03125 -23.898438 20.03125 -24.121094 19.855469 -24.519531 C 19.765625 -24.785156 19.589844 -25.007812 19.5 -25.007812 Z M 3.152344 -16.125 C 3.152344 -16.300781 3.199219 -16.347656 3.242188 -16.214844 C 3.332031 -16.078125 3.285156 -15.945312 3.242188 -15.902344 C 3.199219 -15.8125 3.152344 -15.945312 3.152344 -16.125 Z M 2.042969 -3.554688 C 1.953125 -3.421875 1.777344 -5.332031 1.820312 -6.617188 C 1.820312 -7.773438 1.867188 -7.683594 2 -5.773438 C 2.042969 -4.574219 2.085938 -3.554688 2.042969 -3.554688 Z M 2.222656 -2.753906 C 2.175781 -2.664062 2.175781 -2.753906 2.175781 -2.976562 C 2.175781 -3.199219 2.175781 -3.285156 2.222656 -3.199219 C 2.308594 -3.066406 2.308594 -2.886719 2.222656 -2.753906 Z M 2.308594 -12.214844 C 2.308594 -12.4375 2.355469 -12.4375 2.398438 -12.304688 C 2.441406 -12.214844 2.441406 -12.039062 2.398438 -11.992188 C 2.355469 -11.949219 2.308594 -12.039062 2.308594 -12.214844 Z M 2.578125 -3.375 C 2.441406 -3.242188 2.308594 -4.976562 2.308594 -6.261719 C 2.355469 -7.507812 2.355469 -7.417969 2.488281 -5.507812 C 2.578125 -4.351562 2.578125 -3.375 2.578125 -3.375 Z M 2.578125 -12.75 C 2.53125 -12.660156 2.488281 -12.75 2.488281 -12.96875 C 2.488281 -13.191406 2.53125 -13.28125 2.578125 -13.191406 C 2.621094 -13.058594 2.621094 -12.882812 2.578125 -12.75 Z M 2.753906 -13.679688 C 2.664062 -13.636719 2.664062 -13.726562 2.664062 -13.902344 C 2.664062 -14.125 2.710938 -14.167969 2.753906 -14.035156 C 2.796875 -13.902344 2.796875 -13.726562 2.753906 -13.679688 Z M 3.242188 -12.925781 C 3.152344 -12.394531 3.019531 -11.949219 2.933594 -11.859375 C 2.84375 -11.769531 2.976562 -12.703125 3.285156 -13.902344 C 3.507812 -14.878906 3.507812 -14.082031 3.242188 -12.925781 Z M 3.640625 -14.925781 C 3.464844 -14.480469 3.464844 -14.925781 3.640625 -15.503906 C 3.777344 -15.859375 3.777344 -15.859375 3.777344 -15.589844 C 3.777344 -15.414062 3.730469 -15.101562 3.640625 -14.925781 Z M 14.390625 0.578125 C 14.480469 0.578125 14.703125 0.667969 14.835938 0.753906 C 14.96875 0.84375 15.011719 0.886719 14.925781 0.886719 C 14.835938 0.886719 14.613281 0.84375 14.480469 0.753906 C 14.347656 0.667969 14.304688 0.578125 14.390625 0.578125 Z M 10.527344 -35.492188 C 10.570312 -35.492188 10.351562 -34.957031 9.996094 -34.292969 C 9.683594 -33.667969 9.0625 -32.335938 8.617188 -31.402344 C 8.21875 -30.425781 7.417969 -28.472656 6.839844 -27.007812 C 6.308594 -25.585938 5.863281 -24.476562 5.863281 -24.609375 C 5.820312 -25.40625 10.128906 -35.492188 10.527344 -35.492188 Z M 3.996094 -19.144531 C 3.996094 -19.367188 4.042969 -19.410156 4.085938 -19.277344 C 4.175781 -19.144531 4.132812 -19.011719 4.085938 -18.921875 C 4.042969 -18.878906 3.996094 -18.96875 3.996094 -19.144531 Z M 3.820312 -16.214844 C 3.820312 -16.835938 6.574219 -25.273438 7.90625 -28.605469 C 8.75 -30.695312 10.75 -35.179688 10.972656 -35.402344 C 11.148438 -35.578125 10.839844 -34.867188 10.082031 -33.136719 C 8.527344 -29.804688 7.152344 -26.207031 5.550781 -21.453125 C 5.242188 -20.476562 4.707031 -18.832031 4.398438 -17.8125 C 4.085938 -16.789062 3.820312 -16.078125 3.820312 -16.214844 Z M 7.375 -4.441406 C 7.152344 -4.707031 7.152344 -4.753906 7.417969 -4.53125 C 7.59375 -4.398438 7.730469 -4.265625 7.730469 -4.21875 C 7.730469 -4.085938 7.59375 -4.175781 7.375 -4.441406 Z M 8.839844 -3.109375 C 8.351562 -3.507812 8.21875 -3.730469 8.484375 -3.507812 C 8.75 -3.332031 9.148438 -2.976562 9.417969 -2.753906 C 10.039062 -2.085938 9.773438 -2.222656 8.839844 -3.109375 Z M 11.503906 -0.933594 C 10.972656 -1.289062 10.351562 -1.777344 10.171875 -2 L 9.816406 -2.398438 L 10.261719 -2.042969 C 10.484375 -1.820312 11.105469 -1.378906 11.636719 -1.023438 C 12.171875 -0.667969 12.613281 -0.355469 12.613281 -0.3125 C 12.613281 -0.222656 12.570312 -0.265625 11.503906 -0.933594 Z M 14.167969 0.488281 C 14.167969 0.621094 14.167969 0.621094 13.414062 0.222656 C 13.105469 0.0429688 12.792969 -0.132812 12.792969 -0.175781 C 12.792969 -0.222656 13.105469 -0.132812 13.457031 0.0898438 C 13.859375 0.265625 14.167969 0.445312 14.167969 0.488281 Z M 13.902344 -0.0898438 C 14.167969 0.175781 13.902344 0.0898438 13.191406 -0.355469 C 12.792969 -0.621094 12.4375 -0.84375 12.4375 -0.886719 C 12.4375 -0.976562 13.59375 -0.3125 13.902344 -0.0898438 Z M 10.925781 -2.042969 C 11.550781 -1.597656 12.125 -1.15625 12.214844 -1.109375 C 12.304688 -1.023438 12.304688 -0.933594 12.257812 -0.933594 C 11.683594 -0.933594 5.019531 -7.242188 4.484375 -8.21875 C 4.398438 -8.484375 4.621094 -8.261719 5.019531 -7.816406 C 6.261719 -6.351562 9.773438 -2.933594 10.925781 -2.042969 Z M 17.722656 -24.253906 C 17.8125 -24.296875 17.769531 -24.164062 17.632812 -23.898438 C 17.457031 -23.675781 17.277344 -23.453125 17.234375 -23.453125 C 17.144531 -23.453125 17.546875 -24.121094 17.722656 -24.253906 Z M 16.65625 -22.652344 C 16.921875 -22.832031 16.921875 -22.832031 16.703125 -22.566406 C 16.480469 -22.296875 16.347656 -22.210938 16.347656 -22.34375 C 16.347656 -22.386719 16.480469 -22.519531 16.65625 -22.652344 Z M 16.125 -21.941406 C 16.390625 -22.164062 16.433594 -22.164062 16.214844 -21.898438 C 15.992188 -21.632812 15.859375 -21.542969 15.859375 -21.675781 C 15.859375 -21.722656 15.992188 -21.855469 16.125 -21.941406 Z M 12.039062 -16.347656 C 12.214844 -16.523438 12.394531 -16.703125 12.4375 -16.703125 C 12.480469 -16.703125 12.394531 -16.523438 12.214844 -16.347656 C 12.039062 -16.167969 11.859375 -16.035156 11.816406 -16.035156 C 11.769531 -16.035156 11.859375 -16.167969 12.039062 -16.347656 Z M 16.878906 -21.097656 C 16.125 -19.945312 14.613281 -18.167969 13.324219 -16.789062 C 12.660156 -16.125 11.816406 -15.28125 11.414062 -14.925781 C 11.015625 -14.523438 11.503906 -15.101562 12.527344 -16.167969 C 13.546875 -17.234375 14.925781 -18.832031 15.636719 -19.722656 C 17.144531 -21.675781 17.589844 -22.121094 16.878906 -21.097656 Z M 18.078125 -22.875 C 17.988281 -22.699219 17.769531 -22.386719 17.632812 -22.210938 L 17.367188 -21.855469 L 17.5 -22.210938 C 17.589844 -22.386719 17.8125 -22.699219 17.945312 -22.875 L 18.210938 -23.230469 Z M 18.523438 -24.519531 C 17.234375 -22.386719 15.148438 -19.589844 13.546875 -17.8125 C 13.148438 -17.414062 12.703125 -17.011719 12.613281 -16.921875 C 12.480469 -16.835938 12.925781 -17.414062 13.59375 -18.121094 C 15.011719 -19.765625 16.480469 -21.675781 17.769531 -23.675781 C 18.746094 -25.140625 19.277344 -25.761719 18.523438 -24.519531 Z M 18.523438 -24.519531 "/></g></g></g><g fill="#333333" fill-opacity="1"><g transform="translate(512.332045, 41.291155)"><g><path d="M 10.75 -21.144531 C 10.394531 -21.367188 9.773438 -21.765625 9.371094 -22.03125 C 7.996094 -23.007812 6.21875 -22.609375 4.441406 -20.964844 C 3.066406 -19.675781 2.265625 -18.078125 2 -16.167969 C 1.777344 -14.167969 2.398438 -12.394531 4.398438 -9.503906 C 5.597656 -7.730469 5.90625 -6.839844 5.773438 -5.550781 C 5.597656 -3.6875 4.132812 -2.265625 2.175781 -2 C 1.242188 -1.867188 1.199219 -1.867188 0.53125 -2.441406 C 0.132812 -2.753906 -0.3125 -3.199219 -0.445312 -3.421875 C -0.578125 -3.6875 -0.753906 -3.863281 -0.84375 -3.820312 C -0.933594 -3.820312 -1.066406 -3.910156 -1.15625 -4.042969 C -1.242188 -4.21875 -1.378906 -4.132812 -1.6875 -3.730469 C -1.910156 -3.464844 -2.132812 -3.109375 -2.132812 -2.933594 C -2.132812 -2.132812 0.488281 -0.265625 2.441406 0.355469 C 2.933594 0.488281 3.730469 0.53125 4.707031 0.488281 C 7.105469 0.355469 8.75 -0.578125 9.640625 -2.398438 C 10.039062 -3.242188 10.082031 -3.464844 10.039062 -4.574219 C 9.949219 -5.953125 9.640625 -6.574219 7.949219 -9.285156 C 7.328125 -10.214844 6.664062 -11.414062 6.484375 -11.949219 C 5.730469 -13.902344 6.351562 -16.613281 7.949219 -18.390625 C 8.527344 -19.011719 9.328125 -19.589844 9.640625 -19.589844 C 9.726562 -19.589844 9.726562 -18.613281 9.640625 -17.457031 L 9.550781 -15.324219 L 10.082031 -15.101562 C 10.394531 -14.96875 10.570312 -14.835938 10.484375 -14.835938 C 10.394531 -14.835938 10.394531 -14.746094 10.527344 -14.660156 C 11.015625 -14.167969 11.90625 -15.324219 12.347656 -17.011719 C 12.570312 -17.902344 12.613281 -18.210938 12.4375 -18.878906 C 12.171875 -19.855469 11.636719 -20.609375 10.75 -21.144531 Z M 8.128906 -3.863281 C 8.261719 -4.175781 8.351562 -4.308594 8.351562 -4.175781 C 8.351562 -3.910156 7.863281 -2.976562 7.863281 -3.199219 C 7.863281 -3.242188 7.949219 -3.554688 8.128906 -3.863281 Z M 7.550781 -4.351562 C 7.773438 -5.417969 7.816406 -5.507812 7.863281 -4.839844 C 7.863281 -4.484375 7.730469 -4.085938 7.59375 -3.910156 C 7.417969 -3.597656 7.375 -3.640625 7.550781 -4.351562 Z M 7.285156 -5.0625 C 7.328125 -4.929688 7.328125 -4.753906 7.285156 -4.621094 C 7.242188 -4.53125 7.195312 -4.621094 7.195312 -4.839844 C 7.195312 -5.0625 7.242188 -5.195312 7.285156 -5.0625 Z M 3.730469 -16.566406 C 3.6875 -16.523438 3.640625 -16.613281 3.640625 -16.789062 C 3.640625 -17.011719 3.6875 -17.011719 3.730469 -16.878906 C 3.777344 -16.789062 3.777344 -16.613281 3.730469 -16.566406 Z M 4.132812 -15.859375 C 4.132812 -15.679688 4.085938 -15.503906 3.996094 -15.457031 C 3.730469 -15.28125 4.085938 -16.96875 4.441406 -17.679688 C 4.664062 -18.078125 4.839844 -18.390625 4.886719 -18.390625 C 4.929688 -18.390625 4.753906 -17.902344 4.53125 -17.277344 C 4.308594 -16.65625 4.132812 -16.035156 4.132812 -15.859375 Z M 5.550781 -18.078125 C 5.332031 -17.546875 5.019531 -16.878906 4.886719 -16.523438 L 4.664062 -15.945312 L 4.753906 -16.523438 C 4.839844 -17.191406 5.285156 -18.121094 5.730469 -18.65625 C 5.90625 -18.832031 5.820312 -18.566406 5.550781 -18.078125 Z M 10.839844 -16.746094 C 10.792969 -16.703125 10.75 -16.789062 10.75 -16.96875 C 10.75 -17.144531 10.792969 -17.191406 10.839844 -17.058594 C 10.882812 -16.96875 10.882812 -16.789062 10.839844 -16.746094 Z M 10.839844 -16.746094 "/></g></g></g><g fill="#333333" fill-opacity="1"><g transform="translate(524.902108, 41.291155)"><g><path d="M 2.355469 -25.984375 C 3.285156 -25.894531 4.085938 -25.808594 4.085938 -25.808594 C 4.085938 -25.761719 3.777344 -24.785156 3.375 -23.542969 C 0.800781 -15.902344 -0.398438 -8.882812 0.265625 -5.019531 C 0.667969 -2.710938 1.730469 -1.332031 4.042969 -0.132812 C 5.375 0.578125 6.175781 0.667969 6.308594 0.265625 C 6.351562 0.132812 6.039062 -0.0898438 5.597656 -0.3125 C 4.621094 -0.710938 4.21875 -1.464844 3.953125 -3.421875 C 3.507812 -6.617188 4.441406 -11.414062 7.683594 -22.386719 L 8.617188 -25.453125 L 11.328125 -25.453125 C 14.835938 -25.496094 15.457031 -25.585938 15.859375 -26.339844 C 16.035156 -26.652344 16.125 -26.960938 16.078125 -27.007812 C 15.992188 -27.183594 12.570312 -27.671875 10.570312 -27.804688 L 9.285156 -27.894531 L 9.59375 -29.140625 C 9.773438 -29.804688 9.90625 -30.695312 9.90625 -31.183594 C 9.949219 -31.9375 9.90625 -32.070312 9.460938 -32.382812 C 9.195312 -32.558594 8.796875 -32.914062 8.574219 -33.136719 C 8.085938 -33.582031 7.90625 -33.667969 7.550781 -33.402344 C 7.285156 -33.179688 6.261719 -31.136719 5.550781 -29.449219 C 5.109375 -28.25 5.0625 -28.207031 4.574219 -28.296875 C 4.308594 -28.339844 3.375 -28.429688 2.53125 -28.472656 C 0.933594 -28.605469 0.265625 -28.429688 0.265625 -27.941406 C 0.265625 -27.804688 0.0898438 -27.539062 -0.0898438 -27.363281 C -0.84375 -26.605469 -0.222656 -26.296875 2.355469 -25.984375 Z M 1.6875 -10.304688 C 1.644531 -10.261719 1.597656 -10.351562 1.597656 -10.527344 C 1.644531 -10.75 1.644531 -10.792969 1.730469 -10.660156 C 1.777344 -10.527344 1.777344 -10.394531 1.6875 -10.304688 Z M 1.867188 -8.039062 C 1.820312 -7.90625 1.820312 -7.996094 1.820312 -8.261719 C 1.820312 -8.484375 1.820312 -8.574219 1.867188 -8.441406 C 1.910156 -8.351562 1.910156 -8.128906 1.867188 -8.039062 Z M 3.242188 -17.902344 C 3.285156 -18.210938 3.421875 -18.65625 3.507812 -18.832031 C 3.597656 -19.054688 3.597656 -18.96875 3.507812 -18.566406 C 3.464844 -18.257812 3.375 -17.8125 3.285156 -17.632812 C 3.152344 -17.414062 3.152344 -17.5 3.242188 -17.902344 Z M 2.976562 -16.96875 C 2.976562 -17.191406 3.019531 -17.234375 3.066406 -17.058594 C 3.109375 -16.96875 3.109375 -16.789062 3.066406 -16.746094 C 3.019531 -16.703125 2.976562 -16.789062 2.976562 -16.96875 Z M 2.796875 -16.300781 C 2.796875 -16.480469 2.84375 -16.523438 2.886719 -16.390625 C 2.933594 -16.300781 2.933594 -16.125 2.886719 -16.078125 C 2.84375 -16.035156 2.796875 -16.125 2.796875 -16.300781 Z M 2.621094 -15.636719 C 2.621094 -15.8125 2.664062 -15.859375 2.753906 -15.722656 C 2.796875 -15.589844 2.796875 -15.457031 2.710938 -15.414062 C 2.664062 -15.324219 2.621094 -15.457031 2.621094 -15.636719 Z M 2.441406 -14.925781 C 2.488281 -15.148438 2.53125 -15.191406 2.578125 -15.058594 C 2.621094 -14.925781 2.621094 -14.792969 2.53125 -14.703125 C 2.488281 -14.660156 2.441406 -14.746094 2.441406 -14.925781 Z M 2.308594 -14.082031 C 2.308594 -14.304688 2.355469 -14.347656 2.398438 -14.214844 C 2.441406 -14.082031 2.441406 -13.949219 2.398438 -13.859375 C 2.308594 -13.8125 2.265625 -13.902344 2.308594 -14.082031 Z M 2.132812 -13.238281 C 2.222656 -13.679688 2.222656 -13.726562 2.222656 -13.324219 C 2.265625 -13.105469 2.175781 -12.703125 2.132812 -12.480469 C 2 -12.125 1.953125 -12.125 2 -12.394531 C 2 -12.570312 2.042969 -12.96875 2.132812 -13.238281 Z M 8.441406 -32.070312 C 8.617188 -32.25 8.527344 -31.9375 7.863281 -30.070312 C 7.242188 -28.25 7.019531 -27.804688 7.019531 -28.160156 C 7.019531 -28.339844 8.351562 -31.980469 8.441406 -32.070312 Z M 7.019531 -29.40625 C 7.105469 -29.539062 7.195312 -29.582031 7.195312 -29.496094 C 7.195312 -29.40625 7.105469 -29.226562 7.019531 -29.050781 C 6.929688 -28.917969 6.839844 -28.871094 6.839844 -28.960938 C 6.839844 -29.09375 6.929688 -29.273438 7.019531 -29.40625 Z M 5.730469 -23.808594 C 5.109375 -21.855469 3.507812 -16.347656 3.019531 -14.347656 C 2.886719 -13.636719 2.578125 -12.082031 2.355469 -10.882812 C 2.132812 -9.640625 1.953125 -8.882812 1.953125 -9.195312 C 1.953125 -9.816406 2.488281 -12.96875 2.933594 -14.878906 C 3.730469 -18.210938 5.863281 -25.230469 6.175781 -25.585938 C 6.394531 -25.808594 6.394531 -25.71875 5.730469 -23.808594 Z M 5.507812 -25.1875 C 5.597656 -25.320312 5.640625 -25.363281 5.640625 -25.273438 C 5.640625 -25.1875 5.597656 -24.964844 5.507812 -24.832031 C 5.417969 -24.695312 5.332031 -24.652344 5.332031 -24.742188 C 5.332031 -24.832031 5.417969 -25.050781 5.507812 -25.1875 Z M 5.242188 -24.296875 C 5.285156 -24.253906 4.929688 -23.097656 4.484375 -21.675781 C 4.042969 -20.300781 3.640625 -19.234375 3.640625 -19.367188 C 3.640625 -19.632812 5.152344 -24.386719 5.242188 -24.296875 Z M 5.242188 -24.296875 "/></g></g></g><g fill="#333333" fill-opacity="1"><g transform="translate(532.364193, 41.291155)"><g><path d="M 6.21875 -21.277344 C 5.996094 -21.1875 5.90625 -21.277344 5.90625 -21.410156 C 5.90625 -21.542969 5.773438 -21.585938 5.640625 -21.542969 C 5.507812 -21.5 5.375 -21.585938 5.285156 -21.808594 C 5.152344 -22.296875 4.707031 -22.476562 4.265625 -22.296875 C 3.152344 -21.898438 1.109375 -15.457031 0.398438 -10.171875 C -0.398438 -4.707031 0.710938 -1.511719 3.910156 0.132812 C 5.0625 0.710938 5.550781 0.621094 5.109375 -0.132812 C 4.484375 -1.289062 4.308594 -2 4.21875 -3.820312 C 4.132812 -6.308594 4.308594 -7.460938 5.820312 -13.769531 C 7.375 -20.34375 7.375 -20.433594 6.929688 -20.964844 C 6.707031 -21.230469 6.441406 -21.320312 6.21875 -21.277344 Z M 3.820312 -17.945312 C 3.863281 -17.855469 3.863281 -17.679688 3.777344 -17.632812 C 3.730469 -17.589844 3.6875 -17.679688 3.6875 -17.855469 C 3.6875 -18.035156 3.730469 -18.078125 3.820312 -17.945312 Z M 3.109375 -15.722656 C 3.152344 -16.035156 3.285156 -16.480469 3.375 -16.65625 C 3.464844 -16.878906 3.464844 -16.835938 3.421875 -16.390625 C 3.332031 -16.078125 3.242188 -15.679688 3.152344 -15.457031 C 3.066406 -15.234375 3.019531 -15.324219 3.109375 -15.722656 Z M 2.265625 -12.214844 C 2.441406 -13.191406 2.976562 -15.148438 2.976562 -14.925781 C 3.019531 -14.792969 2.84375 -14.035156 2.664062 -13.191406 C 2.308594 -11.726562 2.042969 -11.105469 2.265625 -12.214844 Z M 2.132812 -11.28125 C 2.132812 -11.105469 2.132812 -10.882812 2.085938 -10.792969 C 2.042969 -10.660156 2.042969 -10.792969 2.042969 -11.058594 C 2.042969 -11.371094 2.085938 -11.460938 2.132812 -11.28125 Z M 1.597656 -7.460938 C 1.511719 -7.417969 1.511719 -7.507812 1.511719 -7.683594 C 1.511719 -7.90625 1.554688 -7.949219 1.597656 -7.816406 C 1.644531 -7.683594 1.644531 -7.550781 1.597656 -7.460938 Z M 1.820312 -9.90625 C 1.910156 -10.4375 1.953125 -10.484375 1.953125 -10.039062 C 1.953125 -9.773438 1.910156 -9.328125 1.820312 -9.0625 C 1.644531 -8.351562 1.644531 -9.015625 1.820312 -9.90625 Z M 1.953125 -6.039062 C 1.910156 -5.90625 1.867188 -6.039062 1.867188 -6.351562 C 1.867188 -6.617188 1.910156 -6.707031 1.953125 -6.53125 C 2 -6.394531 2 -6.128906 1.953125 -6.039062 Z M 2.175781 -7.949219 C 2.042969 -6.929688 2.042969 -6.929688 2 -7.59375 C 1.953125 -9.148438 3.199219 -14.703125 4.484375 -18.832031 C 4.796875 -19.898438 5.152344 -20.789062 5.242188 -20.789062 C 5.332031 -20.789062 5.332031 -20.742188 5.285156 -20.65625 C 4.976562 -20.121094 3.152344 -13.191406 2.578125 -10.394531 C 2.441406 -9.640625 2.265625 -8.527344 2.175781 -7.949219 Z M 3.109375 -10.082031 C 3.066406 -9.996094 3.019531 -10.082031 3.019531 -10.304688 C 3.019531 -10.527344 3.066406 -10.660156 3.109375 -10.527344 C 3.152344 -10.394531 3.152344 -10.214844 3.109375 -10.082031 Z M 3.285156 -10.882812 C 3.242188 -10.792969 3.199219 -10.925781 3.199219 -11.105469 C 3.199219 -11.28125 3.242188 -11.328125 3.285156 -11.195312 C 3.332031 -11.058594 3.332031 -10.925781 3.285156 -10.882812 Z M 3.597656 -12.394531 C 3.554688 -12.347656 3.507812 -12.4375 3.507812 -12.613281 C 3.554688 -12.792969 3.597656 -12.835938 3.640625 -12.703125 C 3.6875 -12.570312 3.6875 -12.4375 3.597656 -12.394531 Z M 3.863281 -13.371094 C 3.730469 -13.015625 3.730469 -13.015625 3.730469 -13.28125 C 3.730469 -13.457031 3.777344 -13.8125 3.863281 -14.035156 C 3.953125 -14.390625 3.996094 -14.390625 3.996094 -14.125 C 3.996094 -13.949219 3.910156 -13.59375 3.863281 -13.371094 Z M 4.132812 -14.570312 C 4.085938 -14.523438 4.042969 -14.613281 4.042969 -14.792969 C 4.042969 -15.011719 4.085938 -15.058594 4.132812 -14.925781 C 4.175781 -14.792969 4.175781 -14.660156 4.132812 -14.570312 Z M 4.308594 -15.28125 C 4.21875 -15.191406 4.21875 -15.324219 4.21875 -15.503906 C 4.21875 -15.679688 4.265625 -15.722656 4.308594 -15.589844 C 4.351562 -15.457031 4.351562 -15.324219 4.308594 -15.28125 Z M 5.152344 -18.257812 C 4.796875 -17.191406 4.53125 -16.433594 4.53125 -16.523438 C 4.53125 -16.878906 5.597656 -20.523438 5.6875 -20.34375 C 5.6875 -20.253906 5.464844 -19.324219 5.152344 -18.257812 Z M 8.617188 -29.09375 C 7.996094 -29.09375 6.351562 -28.074219 4.976562 -26.828125 C 4.175781 -26.117188 4.175781 -26.074219 4.398438 -25.585938 C 4.53125 -25.230469 4.707031 -25.097656 4.886719 -25.140625 C 5.0625 -25.1875 5.195312 -25.097656 5.195312 -25.007812 C 5.195312 -24.917969 5.375 -24.964844 5.597656 -25.140625 C 5.820312 -25.320312 5.863281 -25.363281 5.773438 -25.230469 C 5.550781 -24.964844 5.464844 -24.339844 5.640625 -24.164062 C 5.863281 -23.941406 6.351562 -24.121094 6.617188 -24.5625 C 7.105469 -25.363281 8.617188 -26.742188 9.371094 -27.09375 C 9.773438 -27.273438 10.128906 -27.539062 10.128906 -27.671875 C 10.128906 -27.894531 8.882812 -29.09375 8.617188 -29.09375 Z M 8.617188 -29.09375 "/></g></g></g><g fill="#333333" fill-opacity="1"><g transform="translate(539.515359, 41.291155)"><g><path d="M 10.617188 -35.269531 C 10.394531 -35.445312 9.996094 -35.800781 9.726562 -36.066406 C 9.328125 -36.46875 9.195312 -36.511719 8.839844 -36.378906 C 8.617188 -36.289062 8.304688 -36.066406 8.171875 -35.890625 C 7.59375 -35.269531 6.617188 -33.492188 5.953125 -31.9375 C 4.484375 -28.5625 1.910156 -20.210938 1.023438 -16.125 C 0.222656 -12.4375 0.132812 -11.816406 0.132812 -8.171875 C 0.132812 -4.929688 0.175781 -4.484375 0.53125 -3.421875 C 1.199219 -1.199219 2.085938 -0.3125 4.042969 0.355469 C 5.285156 0.753906 5.953125 0.3125 5.0625 -0.355469 C 4.839844 -0.578125 4.441406 -1.199219 4.265625 -1.730469 C 3.910156 -2.664062 3.863281 -3.019531 3.863281 -5.863281 C 3.910156 -8.617188 3.953125 -9.285156 4.351562 -11.195312 C 5.109375 -14.746094 6.351562 -19.101562 8.707031 -26.296875 C 9.90625 -30.027344 10.925781 -33.449219 11.015625 -33.980469 C 11.058594 -34.824219 11.058594 -34.957031 10.617188 -35.269531 Z M 7.90625 -32.78125 C 8.039062 -33.046875 8.171875 -33.136719 8.171875 -33.046875 C 8.171875 -32.957031 8.039062 -32.691406 7.90625 -32.46875 C 7.773438 -32.25 7.683594 -32.113281 7.683594 -32.203125 C 7.683594 -32.292969 7.773438 -32.558594 7.90625 -32.78125 Z M 7.507812 -31.804688 C 7.59375 -31.9375 7.683594 -31.980469 7.683594 -31.847656 C 7.683594 -31.757812 7.59375 -31.582031 7.507812 -31.449219 C 7.417969 -31.316406 7.328125 -31.269531 7.328125 -31.359375 C 7.328125 -31.449219 7.417969 -31.625 7.507812 -31.804688 Z M 7.152344 -30.960938 C 7.242188 -31.09375 7.328125 -31.136719 7.328125 -31.003906 C 7.328125 -30.914062 7.242188 -30.738281 7.152344 -30.605469 C 7.0625 -30.472656 7.019531 -30.425781 7.019531 -30.515625 C 7.019531 -30.605469 7.0625 -30.78125 7.152344 -30.960938 Z M 6.839844 -30.070312 C 6.929688 -30.25 6.972656 -30.25 6.972656 -30.160156 C 6.972656 -30.070312 6.929688 -29.894531 6.839844 -29.761719 C 6.75 -29.628906 6.664062 -29.582031 6.664062 -29.671875 C 6.664062 -29.761719 6.75 -29.9375 6.839844 -30.070312 Z M 6.261719 -28.5625 C 6.308594 -28.785156 6.441406 -29.09375 6.53125 -29.226562 C 6.617188 -29.40625 6.617188 -29.359375 6.574219 -29.09375 C 6.484375 -28.828125 6.394531 -28.515625 6.308594 -28.382812 C 6.175781 -28.207031 6.175781 -28.296875 6.261719 -28.5625 Z M 5.820312 -27.316406 C 5.996094 -27.761719 6.128906 -28.027344 6.128906 -27.894531 C 6.128906 -27.761719 5.996094 -27.273438 5.820312 -26.785156 C 5.640625 -26.339844 5.507812 -26.074219 5.507812 -26.207031 C 5.507812 -26.339844 5.640625 -26.828125 5.820312 -27.316406 Z M 5.285156 -25.675781 C 5.375 -25.851562 5.464844 -25.851562 5.464844 -25.761719 C 5.417969 -25.453125 5.152344 -24.917969 5.152344 -25.1875 C 5.152344 -25.320312 5.195312 -25.539062 5.285156 -25.675781 Z M 1.378906 -6.441406 C 1.332031 -6.175781 1.289062 -6.394531 1.289062 -6.886719 C 1.289062 -7.417969 1.332031 -7.640625 1.378906 -7.375 C 1.421875 -7.105469 1.421875 -6.707031 1.378906 -6.441406 Z M 1.511719 -9.996094 C 1.464844 -9.816406 1.464844 -9.949219 1.464844 -10.261719 C 1.464844 -10.617188 1.464844 -10.75 1.511719 -10.570312 C 1.554688 -10.4375 1.554688 -10.171875 1.511719 -9.996094 Z M 1.6875 -11.683594 C 1.730469 -11.550781 1.730469 -11.371094 1.6875 -11.238281 C 1.644531 -11.148438 1.597656 -11.238281 1.597656 -11.460938 C 1.597656 -11.683594 1.644531 -11.816406 1.6875 -11.683594 Z M 2.488281 -9.371094 C 2.398438 -8.527344 2.355469 -7.816406 2.308594 -7.773438 C 2.222656 -7.640625 2.265625 -9.550781 2.398438 -10.214844 C 2.53125 -10.660156 2.53125 -10.394531 2.488281 -9.371094 Z M 6.484375 -25.1875 C 5.90625 -23.453125 5.0625 -20.566406 4.53125 -18.746094 C 3.996094 -16.921875 3.332031 -14.4375 3.066406 -13.148438 C 2.796875 -11.90625 2.621094 -11.28125 2.664062 -11.816406 C 2.796875 -12.882812 3.730469 -16.878906 4.398438 -19.054688 C 5.285156 -22.078125 7.375 -28.429688 7.417969 -28.382812 C 7.460938 -28.339844 7.019531 -26.875 6.484375 -25.1875 Z M 8.261719 -30.339844 C 7.816406 -29.183594 7.507812 -28.5625 7.773438 -29.40625 C 8.039062 -30.292969 8.574219 -31.625 8.617188 -31.582031 C 8.660156 -31.539062 8.484375 -31.003906 8.261719 -30.339844 Z M 9.195312 -32.78125 C 9.105469 -32.648438 9.015625 -32.605469 9.015625 -32.738281 C 9.015625 -32.824219 9.105469 -33.003906 9.195312 -33.136719 C 9.285156 -33.269531 9.371094 -33.3125 9.371094 -33.226562 C 9.371094 -33.136719 9.285156 -32.957031 9.195312 -32.78125 Z M 8.972656 -33.535156 C 7.90625 -31.09375 6.617188 -27.671875 5.597656 -24.339844 C 2.621094 -14.96875 1.867188 -11.328125 1.910156 -6.707031 C 1.910156 -5.332031 1.867188 -4.175781 1.820312 -4.175781 C 1.777344 -4.175781 1.730469 -4.53125 1.730469 -4.976562 C 1.730469 -5.417969 1.6875 -5.953125 1.644531 -6.128906 C 1.511719 -6.839844 1.953125 -11.28125 2.355469 -13.414062 C 2.796875 -15.546875 3.640625 -18.878906 4.53125 -21.722656 C 5.550781 -25.050781 6.664062 -28.472656 7.285156 -30.117188 C 8.039062 -32.070312 9.550781 -35.402344 9.640625 -35.269531 C 9.683594 -35.269531 9.371094 -34.46875 8.972656 -33.535156 Z M 8.972656 -33.535156 "/></g></g></g><g fill="#ff6666" fill-opacity="1"><g transform="translate(337.251036, 33.502248)"><g><path d="M 4.765625 0.125 C 3.953125 0.125 3.164062 0 2.40625 -0.25 C 1.65625 -0.507812 1.066406 -0.835938 0.640625 -1.234375 L 1.203125 -2.4375 C 1.617188 -2.070312 2.144531 -1.769531 2.78125 -1.53125 C 3.425781 -1.300781 4.085938 -1.1875 4.765625 -1.1875 C 5.660156 -1.1875 6.328125 -1.335938 6.765625 -1.640625 C 7.210938 -1.941406 7.4375 -2.347656 7.4375 -2.859375 C 7.4375 -3.222656 7.316406 -3.519531 7.078125 -3.75 C 6.835938 -3.988281 6.539062 -4.171875 6.1875 -4.296875 C 5.832031 -4.421875 5.328125 -4.554688 4.671875 -4.703125 C 3.859375 -4.898438 3.203125 -5.097656 2.703125 -5.296875 C 2.203125 -5.492188 1.773438 -5.796875 1.421875 -6.203125 C 1.066406 -6.609375 0.890625 -7.15625 0.890625 -7.84375 C 0.890625 -8.414062 1.039062 -8.929688 1.34375 -9.390625 C 1.65625 -9.859375 2.117188 -10.234375 2.734375 -10.515625 C 3.347656 -10.796875 4.113281 -10.9375 5.03125 -10.9375 C 5.664062 -10.9375 6.289062 -10.851562 6.90625 -10.6875 C 7.53125 -10.519531 8.0625 -10.28125 8.5 -9.96875 L 8 -8.734375 C 7.539062 -9.023438 7.054688 -9.242188 6.546875 -9.390625 C 6.035156 -9.546875 5.53125 -9.625 5.03125 -9.625 C 4.15625 -9.625 3.5 -9.460938 3.0625 -9.140625 C 2.625 -8.816406 2.40625 -8.40625 2.40625 -7.90625 C 2.40625 -7.53125 2.53125 -7.226562 2.78125 -7 C 3.03125 -6.769531 3.335938 -6.585938 3.703125 -6.453125 C 4.066406 -6.328125 4.5625 -6.191406 5.1875 -6.046875 C 6 -5.859375 6.648438 -5.664062 7.140625 -5.46875 C 7.640625 -5.269531 8.066406 -4.96875 8.421875 -4.5625 C 8.773438 -4.164062 8.953125 -3.628906 8.953125 -2.953125 C 8.953125 -2.378906 8.796875 -1.859375 8.484375 -1.390625 C 8.179688 -0.921875 7.710938 -0.550781 7.078125 -0.28125 C 6.453125 -0.0078125 5.679688 0.125 4.765625 0.125 Z M 4.765625 0.125 "/></g></g></g><g fill="#ff6666" fill-opacity="1"><g transform="translate(354.483857, 33.502248)"><g><path d="M 6.21875 -10.9375 C 7.289062 -10.9375 8.253906 -10.695312 9.109375 -10.21875 C 9.972656 -9.738281 10.648438 -9.078125 11.140625 -8.234375 C 11.628906 -7.398438 11.875 -6.460938 11.875 -5.421875 C 11.875 -4.367188 11.628906 -3.421875 11.140625 -2.578125 C 10.660156 -1.734375 10 -1.070312 9.15625 -0.59375 C 8.3125 -0.113281 7.363281 0.125 6.3125 0.125 C 5.25 0.125 4.296875 -0.113281 3.453125 -0.59375 C 2.609375 -1.082031 1.941406 -1.75 1.453125 -2.59375 C 0.972656 -3.445312 0.734375 -4.40625 0.734375 -5.46875 L 0.734375 -5.890625 L 10.3125 -5.890625 C 10.238281 -6.597656 10.015625 -7.226562 9.640625 -7.78125 C 9.265625 -8.332031 8.773438 -8.765625 8.171875 -9.078125 C 7.566406 -9.398438 6.910156 -9.5625 6.203125 -9.5625 C 5.546875 -9.5625 4.921875 -9.453125 4.328125 -9.234375 C 3.742188 -9.023438 3.238281 -8.710938 2.8125 -8.296875 L 1.890625 -9.359375 C 2.398438 -9.847656 3.03125 -10.234375 3.78125 -10.515625 C 4.53125 -10.796875 5.34375 -10.9375 6.21875 -10.9375 Z M 6.3125 -1.203125 C 7.375 -1.203125 8.257812 -1.507812 8.96875 -2.125 C 9.6875 -2.738281 10.125 -3.554688 10.28125 -4.578125 L 2.328125 -4.578125 C 2.492188 -3.554688 2.929688 -2.738281 3.640625 -2.125 C 4.359375 -1.507812 5.25 -1.203125 6.3125 -1.203125 Z M 6.3125 -1.203125 "/></g></g></g><g fill="#ff6666" fill-opacity="1"><g transform="translate(374.742928, 33.502248)"><g><path d="M 1.625 -10.8125 L 6.171875 -10.8125 C 7.316406 -10.8125 8.332031 -10.582031 9.21875 -10.125 C 10.101562 -9.675781 10.789062 -9.039062 11.28125 -8.21875 C 11.769531 -7.40625 12.015625 -6.46875 12.015625 -5.40625 C 12.015625 -4.34375 11.769531 -3.398438 11.28125 -2.578125 C 10.789062 -1.765625 10.101562 -1.128906 9.21875 -0.671875 C 8.332031 -0.222656 7.316406 0 6.171875 0 L 1.625 0 Z M 6.078125 -1.34375 C 6.953125 -1.34375 7.722656 -1.507812 8.390625 -1.84375 C 9.054688 -2.1875 9.566406 -2.664062 9.921875 -3.28125 C 10.285156 -3.894531 10.46875 -4.601562 10.46875 -5.40625 C 10.46875 -6.207031 10.285156 -6.910156 9.921875 -7.515625 C 9.566406 -8.128906 9.054688 -8.609375 8.390625 -8.953125 C 7.722656 -9.296875 6.953125 -9.46875 6.078125 -9.46875 L 3.171875 -9.46875 L 3.171875 -1.34375 Z M 6.078125 -1.34375 "/></g></g></g><g fill="#ff6666" fill-opacity="1"><g transform="translate(395.140962, 33.502248)"><g><path d="M 6.21875 -10.9375 C 7.289062 -10.9375 8.253906 -10.695312 9.109375 -10.21875 C 9.972656 -9.738281 10.648438 -9.078125 11.140625 -8.234375 C 11.628906 -7.398438 11.875 -6.460938 11.875 -5.421875 C 11.875 -4.367188 11.628906 -3.421875 11.140625 -2.578125 C 10.660156 -1.734375 10 -1.070312 9.15625 -0.59375 C 8.3125 -0.113281 7.363281 0.125 6.3125 0.125 C 5.25 0.125 4.296875 -0.113281 3.453125 -0.59375 C 2.609375 -1.082031 1.941406 -1.75 1.453125 -2.59375 C 0.972656 -3.445312 0.734375 -4.40625 0.734375 -5.46875 L 0.734375 -5.890625 L 10.3125 -5.890625 C 10.238281 -6.597656 10.015625 -7.226562 9.640625 -7.78125 C 9.265625 -8.332031 8.773438 -8.765625 8.171875 -9.078125 C 7.566406 -9.398438 6.910156 -9.5625 6.203125 -9.5625 C 5.546875 -9.5625 4.921875 -9.453125 4.328125 -9.234375 C 3.742188 -9.023438 3.238281 -8.710938 2.8125 -8.296875 L 1.890625 -9.359375 C 2.398438 -9.847656 3.03125 -10.234375 3.78125 -10.515625 C 4.53125 -10.796875 5.34375 -10.9375 6.21875 -10.9375 Z M 6.3125 -1.203125 C 7.375 -1.203125 8.257812 -1.507812 8.96875 -2.125 C 9.6875 -2.738281 10.125 -3.554688 10.28125 -4.578125 L 2.328125 -4.578125 C 2.492188 -3.554688 2.929688 -2.738281 3.640625 -2.125 C 4.359375 -1.507812 5.25 -1.203125 6.3125 -1.203125 Z M 6.3125 -1.203125 "/></g></g></g><g fill="#ff6666" fill-opacity="1"><g transform="translate(415.400034, 33.502248)"><g><path d="M 8.84375 0 L 6.515625 -3.3125 C 6.222656 -3.289062 5.992188 -3.28125 5.828125 -3.28125 L 3.171875 -3.28125 L 3.171875 0 L 1.625 0 L 1.625 -10.8125 L 5.828125 -10.8125 C 7.234375 -10.8125 8.335938 -10.472656 9.140625 -9.796875 C 9.941406 -9.128906 10.34375 -8.210938 10.34375 -7.046875 C 10.34375 -6.210938 10.132812 -5.5 9.71875 -4.90625 C 9.3125 -4.320312 8.726562 -3.894531 7.96875 -3.625 L 10.53125 0 Z M 5.796875 -4.59375 C 6.765625 -4.59375 7.503906 -4.800781 8.015625 -5.21875 C 8.535156 -5.644531 8.796875 -6.253906 8.796875 -7.046875 C 8.796875 -7.828125 8.535156 -8.425781 8.015625 -8.84375 C 7.503906 -9.257812 6.765625 -9.46875 5.796875 -9.46875 L 3.171875 -9.46875 L 3.171875 -4.59375 Z M 5.796875 -4.59375 "/></g></g></g><g fill="#ff6666" fill-opacity="1"><g transform="translate(434.269503, 33.502248)"><g><path d="M 6.21875 -10.9375 C 7.289062 -10.9375 8.253906 -10.695312 9.109375 -10.21875 C 9.972656 -9.738281 10.648438 -9.078125 11.140625 -8.234375 C 11.628906 -7.398438 11.875 -6.460938 11.875 -5.421875 C 11.875 -4.367188 11.628906 -3.421875 11.140625 -2.578125 C 10.660156 -1.734375 10 -1.070312 9.15625 -0.59375 C 8.3125 -0.113281 7.363281 0.125 6.3125 0.125 C 5.25 0.125 4.296875 -0.113281 3.453125 -0.59375 C 2.609375 -1.082031 1.941406 -1.75 1.453125 -2.59375 C 0.972656 -3.445312 0.734375 -4.40625 0.734375 -5.46875 L 0.734375 -5.890625 L 10.3125 -5.890625 C 10.238281 -6.597656 10.015625 -7.226562 9.640625 -7.78125 C 9.265625 -8.332031 8.773438 -8.765625 8.171875 -9.078125 C 7.566406 -9.398438 6.910156 -9.5625 6.203125 -9.5625 C 5.546875 -9.5625 4.921875 -9.453125 4.328125 -9.234375 C 3.742188 -9.023438 3.238281 -8.710938 2.8125 -8.296875 L 1.890625 -9.359375 C 2.398438 -9.847656 3.03125 -10.234375 3.78125 -10.515625 C 4.53125 -10.796875 5.34375 -10.9375 6.21875 -10.9375 Z M 6.3125 -1.203125 C 7.375 -1.203125 8.257812 -1.507812 8.96875 -2.125 C 9.6875 -2.738281 10.125 -3.554688 10.28125 -4.578125 L 2.328125 -4.578125 C 2.492188 -3.554688 2.929688 -2.738281 3.640625 -2.125 C 4.359375 -1.507812 5.25 -1.203125 6.3125 -1.203125 Z M 6.3125 -1.203125 "/></g></g></g><g fill="#ff6666" fill-opacity="1"><g transform="translate(454.528578, 33.502248)"><g><path d="M 5.140625 -4.796875 L 3.171875 -2.796875 L 3.171875 0 L 1.625 0 L 1.625 -10.8125 L 3.171875 -10.8125 L 3.171875 -4.765625 L 9.03125 -10.8125 L 10.796875 -10.8125 L 6.171875 -5.9375 L 11.078125 0 L 9.28125 0 Z M 5.140625 -4.796875 "/></g></g></g></svg>