<svg xmlns="http://www.w3.org/2000/svg" xmlns:xlink="http://www.w3.org/1999/xlink" width="1200" zoomAndPan="magnify" viewBox="0 0 900 44.999999" height="60" preserveAspectRatio="xMidYMid meet" version="1.0"><defs><g/></defs><rect x="-90" width="1080" fill="#ffffff" y="-4.5" height="53.999999" fill-opacity="1"/><rect x="-90" width="1080" fill="#ffffff" y="-4.5" height="53.999999" fill-opacity="1"/><rect x="-90" width="1080" fill="#ffffff" y="-4.5" height="53.999999" fill-opacity="1"/><rect x="-90" width="1080" fill="#ffffff" y="-4.5" height="53.999999" fill-opacity="1"/><g fill="#333333" fill-opacity="1"><g transform="translate(468.915716, 38.138844)"><g><path d="M 6.632812 1.953125 C 6.40625 1.363281 6.589844 -3.042969 6.953125 -5.90625 C 7.859375 -13.3125 8.859375 -16.8125 13.175781 -27.761719 C 13.949219 -29.761719 14.585938 -31.578125 14.585938 -31.804688 C 14.585938 -31.988281 14.722656 -32.257812 14.8125 -32.351562 C 15.3125 -32.757812 17.855469 -33.121094 25.582031 -33.894531 C 26.945312 -33.984375 27.171875 -34.257812 26.582031 -34.804688 C 26.398438 -34.984375 26.214844 -35.214844 26.214844 -35.347656 C 26.214844 -35.757812 25.625 -35.941406 23.171875 -36.347656 C 20.492188 -36.804688 19.039062 -36.804688 15.855469 -36.441406 C 10.996094 -35.847656 5.542969 -34.441406 3.089844 -33.121094 C 1.910156 -32.488281 0.679688 -31.394531 0.453125 -30.714844 C 0.226562 -30.167969 0.726562 -29.214844 1.273438 -29.171875 C 1.5 -29.125 1.636719 -28.941406 1.679688 -28.671875 C 1.726562 -28.441406 1.953125 -28.125 2.179688 -28.035156 C 2.589844 -27.808594 2.863281 -27.941406 7.40625 -29.941406 C 8.132812 -30.261719 8.769531 -30.488281 8.816406 -30.488281 C 8.816406 -30.488281 8.496094 -29.578125 8.042969 -28.488281 C 6.589844 -24.808594 4.453125 -17.449219 3.636719 -13.265625 C 2.542969 -7.859375 2.5 -2.273438 3.453125 -0.273438 C 4 0.773438 5.132812 2.042969 5.632812 2.136719 C 6.679688 2.316406 6.769531 2.273438 6.632812 1.953125 Z M 11.175781 -30.304688 C 11.996094 -31.941406 12.039062 -31.714844 11.269531 -29.988281 C 10.90625 -29.171875 10.222656 -27.488281 9.722656 -26.171875 C 9.222656 -24.898438 8.496094 -22.808594 8.042969 -21.582031 C 7.632812 -20.308594 7.269531 -19.402344 7.269531 -19.539062 C 7.269531 -20.171875 10.132812 -28.078125 11.175781 -30.304688 Z M 7.089844 -18.902344 C 7.179688 -19.175781 7.222656 -19.21875 7.269531 -19.039062 C 7.269531 -18.855469 7.179688 -18.628906 7.089844 -18.445312 C 6.859375 -18.128906 6.859375 -18.402344 7.089844 -18.902344 Z M 6.226562 -15.722656 C 6.226562 -15.949219 6.269531 -15.992188 6.316406 -15.855469 C 6.359375 -15.722656 6.359375 -15.539062 6.316406 -15.492188 C 6.226562 -15.449219 6.179688 -15.539062 6.226562 -15.722656 Z M 4.179688 -2.5 C 4.089844 -2.40625 4.042969 -2.542969 4.042969 -2.726562 C 4.089844 -2.953125 4.132812 -3 4.179688 -2.863281 C 4.226562 -2.726562 4.226562 -2.542969 4.179688 -2.5 Z M 4.679688 -3.726562 C 4.679688 -2.179688 4.679688 -0.910156 4.632812 -0.910156 C 4.5 -0.910156 4.363281 -3.453125 4.5 -5.042969 C 4.679688 -8.269531 5.679688 -14.539062 5.953125 -14.265625 C 5.953125 -14.222656 5.90625 -13.675781 5.769531 -13.039062 C 5.132812 -10.359375 4.726562 -6.453125 4.679688 -3.726562 Z M 5.953125 -10.996094 C 5.859375 -10.585938 5.726562 -9.269531 5.542969 -8.085938 C 5.40625 -6.90625 5.226562 -5.089844 5.132812 -4.042969 L 4.953125 -2.136719 L 5.042969 -4.363281 C 5.132812 -6.496094 5.726562 -11.449219 5.953125 -11.675781 C 5.996094 -11.722656 5.996094 -11.40625 5.953125 -10.996094 Z M 6.042969 -12.132812 C 5.996094 -12.722656 7.042969 -16.8125 7.953125 -19.671875 C 9.222656 -23.761719 11.902344 -30.714844 12.539062 -31.578125 C 12.675781 -31.761719 12.3125 -30.714844 11.722656 -29.304688 C 10.496094 -26.351562 8.859375 -21.898438 7.996094 -19.21875 C 7.679688 -18.21875 7.089844 -16.128906 6.722656 -14.585938 C 6.359375 -13.039062 6.042969 -11.902344 6.042969 -12.132812 Z M 6.042969 -12.132812 "/></g></g></g><g fill="#333333" fill-opacity="1"><g transform="translate(480.86489, 38.138844)"><g><path d="M 9.359375 -20.21875 C 7.222656 -19.582031 5.363281 -18.128906 3.5 -15.8125 C 0.273438 -11.8125 -0.953125 -6.453125 0.546875 -3.316406 C 1.089844 -2.226562 2.226562 -1.179688 3.863281 -0.226562 C 5.226562 0.546875 5.363281 0.546875 6.496094 0.5 C 7.269531 0.453125 7.996094 0.316406 8.40625 0.0898438 C 10.949219 -1.136719 15.175781 -7.316406 13.8125 -7.816406 C 13.628906 -7.90625 13.265625 -7.542969 12.765625 -6.769531 C 12.3125 -6.132812 11.40625 -5.042969 10.722656 -4.316406 C 9.132812 -2.726562 7.132812 -1.679688 5.542969 -1.542969 L 4.5 -1.5 L 4.132812 -2.316406 C 3.816406 -3.042969 3.769531 -3.363281 3.863281 -4.996094 C 3.953125 -6.679688 4.589844 -9.269531 4.863281 -9.085938 C 6.996094 -7.90625 8.90625 -8.222656 11.039062 -10.085938 C 13.496094 -12.269531 15.128906 -16.8125 13.996094 -18.445312 C 13.765625 -18.765625 13.539062 -19.039062 13.496094 -19.039062 C 13.449219 -19.039062 13.039062 -19.308594 12.585938 -19.71875 C 11.496094 -20.582031 10.8125 -20.671875 9.359375 -20.21875 Z M 1.5 -7.816406 C 1.453125 -7.769531 1.410156 -7.859375 1.410156 -8.042969 C 1.410156 -8.222656 1.453125 -8.269531 1.5 -8.132812 C 1.589844 -7.996094 1.542969 -7.859375 1.5 -7.816406 Z M 1.589844 -8.816406 C 1.589844 -8.949219 1.679688 -9.222656 1.773438 -9.40625 C 1.863281 -9.632812 1.910156 -9.679688 1.910156 -9.496094 C 1.910156 -9.359375 1.816406 -9.085938 1.773438 -8.90625 C 1.636719 -8.679688 1.589844 -8.632812 1.589844 -8.816406 Z M 1.679688 -6.816406 C 1.816406 -7.859375 2.179688 -9.40625 2.542969 -10.269531 C 2.953125 -11.3125 2.953125 -10.90625 2.5 -9.496094 C 2.273438 -8.769531 2 -7.679688 1.863281 -7.089844 C 1.636719 -6.042969 1.589844 -5.996094 1.679688 -6.816406 Z M 2.542969 -7.632812 C 2.5 -7.585938 2.453125 -7.679688 2.453125 -7.859375 C 2.453125 -8.085938 2.5 -8.085938 2.542969 -7.953125 C 2.589844 -7.859375 2.589844 -7.679688 2.542969 -7.632812 Z M 3.269531 -10.175781 C 3.269531 -10.042969 3.136719 -9.542969 2.953125 -9.042969 C 2.679688 -8.40625 2.636719 -8.316406 2.726562 -8.769531 C 2.863281 -9.449219 3.316406 -10.585938 3.269531 -10.175781 Z M 5.679688 -14.539062 C 5.953125 -14.765625 5.953125 -14.765625 5.769531 -14.492188 C 5.542969 -14.175781 5.40625 -14.085938 5.40625 -14.222656 C 5.40625 -14.265625 5.542969 -14.402344 5.679688 -14.539062 Z M 3.816406 -12.632812 C 3.726562 -12.402344 3.589844 -12.269531 3.542969 -12.269531 C 3.5 -12.269531 3.542969 -12.402344 3.636719 -12.632812 C 3.769531 -12.8125 3.863281 -12.949219 3.90625 -12.949219 C 3.953125 -12.949219 3.90625 -12.8125 3.816406 -12.632812 Z M 4.769531 -12.996094 C 4.40625 -12.402344 4.089844 -11.902344 4.042969 -11.902344 C 3.90625 -11.902344 4.90625 -13.628906 5.179688 -13.859375 C 5.316406 -13.949219 5.132812 -13.585938 4.769531 -12.996094 Z M 12.496094 -14.402344 C 12.496094 -14.3125 12.359375 -14.085938 12.222656 -13.902344 C 11.949219 -13.585938 11.949219 -13.585938 12.132812 -13.996094 C 12.402344 -14.539062 12.496094 -14.628906 12.496094 -14.402344 Z M 12.085938 -17.765625 C 12.269531 -17.539062 11.722656 -15.628906 11.175781 -14.492188 C 10.359375 -12.859375 9.042969 -11.449219 7.722656 -10.859375 C 6.769531 -10.40625 5.40625 -10.175781 5.40625 -10.496094 C 5.40625 -10.769531 6.859375 -12.996094 7.859375 -14.3125 C 9.269531 -16.039062 11.769531 -18.082031 12.085938 -17.765625 Z M 12.085938 -17.765625 "/></g></g></g><g fill="#333333" fill-opacity="1"><g transform="translate(496.267061, 38.138844)"><g><path d="M 19.945312 -25.582031 C 19.765625 -25.582031 19.175781 -26.308594 19.175781 -26.535156 C 19.128906 -26.851562 18.492188 -26.988281 18.082031 -26.714844 C 17.902344 -26.625 16.855469 -25.351562 15.765625 -23.898438 C 12.132812 -19.082031 8.949219 -15.722656 6.269531 -13.996094 C 5.769531 -13.675781 5.363281 -13.496094 5.316406 -13.585938 C 5.226562 -13.859375 6.089844 -16.949219 6.996094 -19.855469 C 8.996094 -25.945312 9.449219 -27.351562 10.632812 -30.304688 C 12.539062 -35.214844 12.722656 -36.078125 12.039062 -36.667969 C 11.8125 -36.847656 11.585938 -36.941406 11.496094 -36.894531 C 11.40625 -36.847656 11.359375 -36.894531 11.359375 -36.984375 C 11.359375 -37.121094 11.3125 -37.167969 11.269531 -37.121094 C 11.175781 -37.03125 10.996094 -37.167969 10.859375 -37.347656 C 10.175781 -38.167969 9.3125 -37.394531 7.679688 -34.441406 C 6.632812 -32.667969 5.859375 -30.851562 4.363281 -26.761719 C 2.363281 -21.492188 1.363281 -18.082031 0.636719 -14.222656 C -0.316406 -9.449219 0.0898438 -3.316406 1.5 -1.136719 C 2.136719 -0.183594 2.726562 0.183594 4 0.363281 C 4.90625 0.453125 4.996094 0.453125 4.90625 0.136719 C 4.226562 -2.042969 3.679688 -5.816406 4 -5.816406 C 4.089844 -5.816406 5.042969 -4.953125 6.132812 -3.863281 C 7.269531 -2.816406 8.769531 -1.453125 9.449219 -0.910156 C 10.996094 0.226562 13.539062 1.589844 14.628906 1.910156 C 15.675781 2.179688 16.71875 2.179688 17.175781 1.910156 C 17.628906 1.679688 18.445312 0.679688 18.445312 0.453125 C 18.445312 0.316406 18.175781 0.226562 17.855469 0.226562 C 16.628906 0.226562 13.402344 -1.726562 10.8125 -4.132812 C 9.179688 -5.589844 5.632812 -9.359375 5.632812 -9.632812 C 5.632812 -9.679688 6.089844 -9.859375 6.632812 -10.042969 C 7.90625 -10.496094 10.449219 -11.996094 11.902344 -13.175781 C 15.3125 -15.992188 19.582031 -21.355469 20.265625 -23.71875 C 20.492188 -24.445312 20.492188 -24.671875 20.308594 -25.082031 C 20.21875 -25.351562 20.039062 -25.582031 19.945312 -25.582031 Z M 3.226562 -16.492188 C 3.226562 -16.675781 3.269531 -16.71875 3.316406 -16.585938 C 3.40625 -16.449219 3.363281 -16.3125 3.316406 -16.265625 C 3.269531 -16.175781 3.226562 -16.3125 3.226562 -16.492188 Z M 2.089844 -3.636719 C 2 -3.5 1.816406 -5.453125 1.863281 -6.769531 C 1.863281 -7.953125 1.910156 -7.859375 2.042969 -5.90625 C 2.089844 -4.679688 2.136719 -3.636719 2.089844 -3.636719 Z M 2.273438 -2.816406 C 2.226562 -2.726562 2.226562 -2.816406 2.226562 -3.042969 C 2.226562 -3.269531 2.226562 -3.363281 2.273438 -3.269531 C 2.363281 -3.136719 2.363281 -2.953125 2.273438 -2.816406 Z M 2.363281 -12.496094 C 2.363281 -12.722656 2.40625 -12.722656 2.453125 -12.585938 C 2.5 -12.496094 2.5 -12.3125 2.453125 -12.269531 C 2.40625 -12.222656 2.363281 -12.3125 2.363281 -12.496094 Z M 2.636719 -3.453125 C 2.5 -3.316406 2.363281 -5.089844 2.363281 -6.40625 C 2.40625 -7.679688 2.40625 -7.585938 2.542969 -5.632812 C 2.636719 -4.453125 2.636719 -3.453125 2.636719 -3.453125 Z M 2.636719 -13.039062 C 2.589844 -12.949219 2.542969 -13.039062 2.542969 -13.265625 C 2.542969 -13.496094 2.589844 -13.585938 2.636719 -13.496094 C 2.679688 -13.359375 2.679688 -13.175781 2.636719 -13.039062 Z M 2.816406 -13.996094 C 2.726562 -13.949219 2.726562 -14.039062 2.726562 -14.222656 C 2.726562 -14.449219 2.773438 -14.492188 2.816406 -14.359375 C 2.863281 -14.222656 2.863281 -14.039062 2.816406 -13.996094 Z M 3.316406 -13.222656 C 3.226562 -12.675781 3.089844 -12.222656 3 -12.132812 C 2.90625 -12.039062 3.042969 -12.996094 3.363281 -14.222656 C 3.589844 -15.222656 3.589844 -14.402344 3.316406 -13.222656 Z M 3.726562 -15.265625 C 3.542969 -14.8125 3.542969 -15.265625 3.726562 -15.855469 C 3.863281 -16.21875 3.863281 -16.21875 3.863281 -15.949219 C 3.863281 -15.765625 3.816406 -15.449219 3.726562 -15.265625 Z M 14.722656 0.589844 C 14.8125 0.589844 15.039062 0.679688 15.175781 0.773438 C 15.3125 0.863281 15.355469 0.910156 15.265625 0.910156 C 15.175781 0.910156 14.949219 0.863281 14.8125 0.773438 C 14.675781 0.679688 14.628906 0.589844 14.722656 0.589844 Z M 10.769531 -36.304688 C 10.8125 -36.304688 10.585938 -35.757812 10.222656 -35.078125 C 9.90625 -34.441406 9.269531 -33.078125 8.816406 -32.125 C 8.40625 -31.125 7.585938 -29.125 6.996094 -27.625 C 6.453125 -26.171875 5.996094 -25.035156 5.996094 -25.171875 C 5.953125 -25.988281 10.359375 -36.304688 10.769531 -36.304688 Z M 4.089844 -19.582031 C 4.089844 -19.808594 4.132812 -19.855469 4.179688 -19.71875 C 4.269531 -19.582031 4.226562 -19.445312 4.179688 -19.355469 C 4.132812 -19.308594 4.089844 -19.402344 4.089844 -19.582031 Z M 3.90625 -16.585938 C 3.90625 -17.21875 6.722656 -25.851562 8.085938 -29.261719 C 8.949219 -31.394531 10.996094 -35.984375 11.222656 -36.210938 C 11.40625 -36.394531 11.085938 -35.667969 10.3125 -33.894531 C 8.722656 -30.488281 7.316406 -26.808594 5.679688 -21.945312 C 5.363281 -20.945312 4.816406 -19.265625 4.5 -18.21875 C 4.179688 -17.175781 3.90625 -16.449219 3.90625 -16.585938 Z M 7.542969 -4.542969 C 7.316406 -4.816406 7.316406 -4.863281 7.585938 -4.632812 C 7.769531 -4.5 7.90625 -4.363281 7.90625 -4.316406 C 7.90625 -4.179688 7.769531 -4.269531 7.542969 -4.542969 Z M 9.042969 -3.179688 C 8.542969 -3.589844 8.40625 -3.816406 8.679688 -3.589844 C 8.949219 -3.40625 9.359375 -3.042969 9.632812 -2.816406 C 10.269531 -2.136719 9.996094 -2.273438 9.042969 -3.179688 Z M 11.769531 -0.953125 C 11.222656 -1.316406 10.585938 -1.816406 10.40625 -2.042969 L 10.042969 -2.453125 L 10.496094 -2.089844 C 10.722656 -1.863281 11.359375 -1.410156 11.902344 -1.046875 C 12.449219 -0.679688 12.902344 -0.363281 12.902344 -0.316406 C 12.902344 -0.226562 12.859375 -0.273438 11.769531 -0.953125 Z M 14.492188 0.5 C 14.492188 0.636719 14.492188 0.636719 13.722656 0.226562 C 13.402344 0.046875 13.085938 -0.136719 13.085938 -0.183594 C 13.085938 -0.226562 13.402344 -0.136719 13.765625 0.0898438 C 14.175781 0.273438 14.492188 0.453125 14.492188 0.5 Z M 14.222656 -0.0898438 C 14.492188 0.183594 14.222656 0.0898438 13.496094 -0.363281 C 13.085938 -0.636719 12.722656 -0.863281 12.722656 -0.910156 C 12.722656 -1 13.902344 -0.316406 14.222656 -0.0898438 Z M 11.175781 -2.089844 C 11.8125 -1.636719 12.402344 -1.179688 12.496094 -1.136719 C 12.585938 -1.046875 12.585938 -0.953125 12.539062 -0.953125 C 11.949219 -0.953125 5.132812 -7.40625 4.589844 -8.40625 C 4.5 -8.679688 4.726562 -8.449219 5.132812 -7.996094 C 6.40625 -6.496094 9.996094 -3 11.175781 -2.089844 Z M 18.128906 -24.808594 C 18.21875 -24.855469 18.175781 -24.71875 18.039062 -24.445312 C 17.855469 -24.21875 17.675781 -23.992188 17.628906 -23.992188 C 17.539062 -23.992188 17.945312 -24.671875 18.128906 -24.808594 Z M 17.039062 -23.171875 C 17.3125 -23.355469 17.3125 -23.355469 17.082031 -23.082031 C 16.855469 -22.808594 16.71875 -22.71875 16.71875 -22.855469 C 16.71875 -22.898438 16.855469 -23.035156 17.039062 -23.171875 Z M 16.492188 -22.445312 C 16.765625 -22.671875 16.8125 -22.671875 16.585938 -22.398438 C 16.355469 -22.128906 16.21875 -22.035156 16.21875 -22.171875 C 16.21875 -22.21875 16.355469 -22.355469 16.492188 -22.445312 Z M 12.3125 -16.71875 C 12.496094 -16.902344 12.675781 -17.082031 12.722656 -17.082031 C 12.765625 -17.082031 12.675781 -16.902344 12.496094 -16.71875 C 12.3125 -16.539062 12.132812 -16.402344 12.085938 -16.402344 C 12.039062 -16.402344 12.132812 -16.539062 12.3125 -16.71875 Z M 17.265625 -21.582031 C 16.492188 -20.402344 14.949219 -18.582031 13.628906 -17.175781 C 12.949219 -16.492188 12.085938 -15.628906 11.675781 -15.265625 C 11.269531 -14.859375 11.769531 -15.449219 12.8125 -16.539062 C 13.859375 -17.628906 15.265625 -19.265625 15.992188 -20.171875 C 17.539062 -22.171875 17.992188 -22.628906 17.265625 -21.582031 Z M 18.492188 -23.398438 C 18.402344 -23.21875 18.175781 -22.898438 18.039062 -22.71875 L 17.765625 -22.355469 L 17.902344 -22.71875 C 17.992188 -22.898438 18.21875 -23.21875 18.355469 -23.398438 L 18.628906 -23.761719 Z M 18.945312 -25.082031 C 17.628906 -22.898438 15.492188 -20.039062 13.859375 -18.21875 C 13.449219 -17.8125 12.996094 -17.402344 12.902344 -17.3125 C 12.765625 -17.21875 13.222656 -17.8125 13.902344 -18.539062 C 15.355469 -20.21875 16.855469 -22.171875 18.175781 -24.21875 C 19.175781 -25.71875 19.71875 -26.351562 18.945312 -25.082031 Z M 18.945312 -25.082031 "/></g></g></g><g fill="#333333" fill-opacity="1"><g transform="translate(513.759201, 38.138844)"><g><path d="M 10.996094 -21.628906 C 10.632812 -21.855469 9.996094 -22.261719 9.585938 -22.535156 C 8.179688 -23.535156 6.359375 -23.128906 4.542969 -21.445312 C 3.136719 -20.128906 2.316406 -18.492188 2.042969 -16.539062 C 1.816406 -14.492188 2.453125 -12.675781 4.5 -9.722656 C 5.726562 -7.90625 6.042969 -6.996094 5.90625 -5.679688 C 5.726562 -3.769531 4.226562 -2.316406 2.226562 -2.042969 C 1.273438 -1.910156 1.226562 -1.910156 0.546875 -2.5 C 0.136719 -2.816406 -0.316406 -3.269531 -0.453125 -3.5 C -0.589844 -3.769531 -0.773438 -3.953125 -0.863281 -3.90625 C -0.953125 -3.90625 -1.089844 -4 -1.179688 -4.132812 C -1.273438 -4.316406 -1.410156 -4.226562 -1.726562 -3.816406 C -1.953125 -3.542969 -2.179688 -3.179688 -2.179688 -3 C -2.179688 -2.179688 0.5 -0.273438 2.5 0.363281 C 3 0.5 3.816406 0.546875 4.816406 0.5 C 7.269531 0.363281 8.949219 -0.589844 9.859375 -2.453125 C 10.269531 -3.316406 10.3125 -3.542969 10.269531 -4.679688 C 10.175781 -6.089844 9.859375 -6.722656 8.132812 -9.496094 C 7.496094 -10.449219 6.816406 -11.675781 6.632812 -12.222656 C 5.859375 -14.222656 6.496094 -16.992188 8.132812 -18.808594 C 8.722656 -19.445312 9.542969 -20.039062 9.859375 -20.039062 C 9.949219 -20.039062 9.949219 -19.039062 9.859375 -17.855469 L 9.769531 -15.675781 L 10.3125 -15.449219 C 10.632812 -15.3125 10.8125 -15.175781 10.722656 -15.175781 C 10.632812 -15.175781 10.632812 -15.085938 10.769531 -14.992188 C 11.269531 -14.492188 12.175781 -15.675781 12.632812 -17.402344 C 12.859375 -18.3125 12.902344 -18.628906 12.722656 -19.308594 C 12.449219 -20.308594 11.902344 -21.082031 10.996094 -21.628906 Z M 8.316406 -3.953125 C 8.449219 -4.269531 8.542969 -4.40625 8.542969 -4.269531 C 8.542969 -4 8.042969 -3.042969 8.042969 -3.269531 C 8.042969 -3.316406 8.132812 -3.636719 8.316406 -3.953125 Z M 7.722656 -4.453125 C 7.953125 -5.542969 7.996094 -5.632812 8.042969 -4.953125 C 8.042969 -4.589844 7.90625 -4.179688 7.769531 -4 C 7.585938 -3.679688 7.542969 -3.726562 7.722656 -4.453125 Z M 7.453125 -5.179688 C 7.496094 -5.042969 7.496094 -4.863281 7.453125 -4.726562 C 7.40625 -4.632812 7.359375 -4.726562 7.359375 -4.953125 C 7.359375 -5.179688 7.40625 -5.316406 7.453125 -5.179688 Z M 3.816406 -16.949219 C 3.769531 -16.902344 3.726562 -16.992188 3.726562 -17.175781 C 3.726562 -17.402344 3.769531 -17.402344 3.816406 -17.265625 C 3.863281 -17.175781 3.863281 -16.992188 3.816406 -16.949219 Z M 4.226562 -16.21875 C 4.226562 -16.039062 4.179688 -15.855469 4.089844 -15.8125 C 3.816406 -15.628906 4.179688 -17.355469 4.542969 -18.082031 C 4.769531 -18.492188 4.953125 -18.808594 4.996094 -18.808594 C 5.042969 -18.808594 4.863281 -18.3125 4.632812 -17.675781 C 4.40625 -17.039062 4.226562 -16.402344 4.226562 -16.21875 Z M 5.679688 -18.492188 C 5.453125 -17.945312 5.132812 -17.265625 4.996094 -16.902344 L 4.769531 -16.3125 L 4.863281 -16.902344 C 4.953125 -17.582031 5.40625 -18.539062 5.859375 -19.082031 C 6.042969 -19.265625 5.953125 -18.992188 5.679688 -18.492188 Z M 11.085938 -17.128906 C 11.039062 -17.082031 10.996094 -17.175781 10.996094 -17.355469 C 10.996094 -17.539062 11.039062 -17.582031 11.085938 -17.449219 C 11.132812 -17.355469 11.132812 -17.175781 11.085938 -17.128906 Z M 11.085938 -17.128906 "/></g></g></g><g fill="#333333" fill-opacity="1"><g transform="translate(526.617061, 38.138844)"><g><path d="M 2.40625 -26.582031 C 3.363281 -26.488281 4.179688 -26.398438 4.179688 -26.398438 C 4.179688 -26.351562 3.863281 -25.351562 3.453125 -24.082031 C 0.816406 -16.265625 -0.410156 -9.085938 0.273438 -5.132812 C 0.679688 -2.773438 1.773438 -1.363281 4.132812 -0.136719 C 5.496094 0.589844 6.316406 0.679688 6.453125 0.273438 C 6.496094 0.136719 6.179688 -0.0898438 5.726562 -0.316406 C 4.726562 -0.726562 4.316406 -1.5 4.042969 -3.5 C 3.589844 -6.769531 4.542969 -11.675781 7.859375 -22.898438 L 8.816406 -26.035156 L 11.585938 -26.035156 C 15.175781 -26.082031 15.8125 -26.171875 16.21875 -26.945312 C 16.402344 -27.261719 16.492188 -27.578125 16.449219 -27.625 C 16.355469 -27.808594 12.859375 -28.308594 10.8125 -28.441406 L 9.496094 -28.535156 L 9.8125 -29.804688 C 9.996094 -30.488281 10.132812 -31.394531 10.132812 -31.894531 C 10.175781 -32.667969 10.132812 -32.804688 9.679688 -33.121094 C 9.40625 -33.304688 8.996094 -33.667969 8.769531 -33.894531 C 8.269531 -34.351562 8.085938 -34.441406 7.722656 -34.167969 C 7.453125 -33.941406 6.40625 -31.851562 5.679688 -30.125 C 5.226562 -28.898438 5.179688 -28.851562 4.679688 -28.941406 C 4.40625 -28.988281 3.453125 -29.078125 2.589844 -29.125 C 0.953125 -29.261719 0.273438 -29.078125 0.273438 -28.578125 C 0.273438 -28.441406 0.0898438 -28.171875 -0.0898438 -27.988281 C -0.863281 -27.214844 -0.226562 -26.898438 2.40625 -26.582031 Z M 1.726562 -10.542969 C 1.679688 -10.496094 1.636719 -10.585938 1.636719 -10.769531 C 1.679688 -10.996094 1.679688 -11.039062 1.773438 -10.90625 C 1.816406 -10.769531 1.816406 -10.632812 1.726562 -10.542969 Z M 1.910156 -8.222656 C 1.863281 -8.085938 1.863281 -8.179688 1.863281 -8.449219 C 1.863281 -8.679688 1.863281 -8.769531 1.910156 -8.632812 C 1.953125 -8.542969 1.953125 -8.316406 1.910156 -8.222656 Z M 3.316406 -18.3125 C 3.363281 -18.628906 3.5 -19.082031 3.589844 -19.265625 C 3.679688 -19.492188 3.679688 -19.402344 3.589844 -18.992188 C 3.542969 -18.675781 3.453125 -18.21875 3.363281 -18.039062 C 3.226562 -17.8125 3.226562 -17.902344 3.316406 -18.3125 Z M 3.042969 -17.355469 C 3.042969 -17.582031 3.089844 -17.628906 3.136719 -17.449219 C 3.179688 -17.355469 3.179688 -17.175781 3.136719 -17.128906 C 3.089844 -17.082031 3.042969 -17.175781 3.042969 -17.355469 Z M 2.863281 -16.675781 C 2.863281 -16.855469 2.90625 -16.902344 2.953125 -16.765625 C 3 -16.675781 3 -16.492188 2.953125 -16.449219 C 2.90625 -16.402344 2.863281 -16.492188 2.863281 -16.675781 Z M 2.679688 -15.992188 C 2.679688 -16.175781 2.726562 -16.21875 2.816406 -16.085938 C 2.863281 -15.949219 2.863281 -15.8125 2.773438 -15.765625 C 2.726562 -15.675781 2.679688 -15.8125 2.679688 -15.992188 Z M 2.5 -15.265625 C 2.542969 -15.492188 2.589844 -15.539062 2.636719 -15.402344 C 2.679688 -15.265625 2.679688 -15.128906 2.589844 -15.039062 C 2.542969 -14.992188 2.5 -15.085938 2.5 -15.265625 Z M 2.363281 -14.402344 C 2.363281 -14.628906 2.40625 -14.675781 2.453125 -14.539062 C 2.5 -14.402344 2.5 -14.265625 2.453125 -14.175781 C 2.363281 -14.128906 2.316406 -14.222656 2.363281 -14.402344 Z M 2.179688 -13.539062 C 2.273438 -13.996094 2.273438 -14.039062 2.273438 -13.628906 C 2.316406 -13.402344 2.226562 -12.996094 2.179688 -12.765625 C 2.042969 -12.402344 2 -12.402344 2.042969 -12.675781 C 2.042969 -12.859375 2.089844 -13.265625 2.179688 -13.539062 Z M 8.632812 -32.804688 C 8.816406 -32.988281 8.722656 -32.667969 8.042969 -30.761719 C 7.40625 -28.898438 7.179688 -28.441406 7.179688 -28.804688 C 7.179688 -28.988281 8.542969 -32.714844 8.632812 -32.804688 Z M 7.179688 -30.078125 C 7.269531 -30.214844 7.359375 -30.261719 7.359375 -30.167969 C 7.359375 -30.078125 7.269531 -29.898438 7.179688 -29.714844 C 7.089844 -29.578125 6.996094 -29.535156 6.996094 -29.625 C 6.996094 -29.761719 7.089844 -29.941406 7.179688 -30.078125 Z M 5.859375 -24.355469 C 5.226562 -22.355469 3.589844 -16.71875 3.089844 -14.675781 C 2.953125 -13.949219 2.636719 -12.359375 2.40625 -11.132812 C 2.179688 -9.859375 2 -9.085938 2 -9.40625 C 2 -10.042969 2.542969 -13.265625 3 -15.222656 C 3.816406 -18.628906 5.996094 -25.808594 6.316406 -26.171875 C 6.542969 -26.398438 6.542969 -26.308594 5.859375 -24.355469 Z M 5.632812 -25.761719 C 5.726562 -25.898438 5.769531 -25.945312 5.769531 -25.851562 C 5.769531 -25.761719 5.726562 -25.535156 5.632812 -25.398438 C 5.542969 -25.261719 5.453125 -25.21875 5.453125 -25.308594 C 5.453125 -25.398438 5.542969 -25.625 5.632812 -25.761719 Z M 5.363281 -24.855469 C 5.40625 -24.808594 5.042969 -23.625 4.589844 -22.171875 C 4.132812 -20.765625 3.726562 -19.671875 3.726562 -19.808594 C 3.726562 -20.082031 5.269531 -24.945312 5.363281 -24.855469 Z M 5.363281 -24.855469 "/></g></g></g><g fill="#333333" fill-opacity="1"><g transform="translate(534.249994, 38.138844)"><g><path d="M 6.359375 -21.765625 C 6.132812 -21.671875 6.042969 -21.765625 6.042969 -21.898438 C 6.042969 -22.035156 5.90625 -22.082031 5.769531 -22.035156 C 5.632812 -21.992188 5.496094 -22.082031 5.40625 -22.308594 C 5.269531 -22.808594 4.816406 -22.992188 4.363281 -22.808594 C 3.226562 -22.398438 1.136719 -15.8125 0.410156 -10.40625 C -0.410156 -4.816406 0.726562 -1.542969 4 0.136719 C 5.179688 0.726562 5.679688 0.636719 5.226562 -0.136719 C 4.589844 -1.316406 4.40625 -2.042969 4.316406 -3.90625 C 4.226562 -6.453125 4.40625 -7.632812 5.953125 -14.085938 C 7.542969 -20.808594 7.542969 -20.902344 7.089844 -21.445312 C 6.859375 -21.71875 6.589844 -21.808594 6.359375 -21.765625 Z M 3.90625 -18.355469 C 3.953125 -18.265625 3.953125 -18.082031 3.863281 -18.039062 C 3.816406 -17.992188 3.769531 -18.082031 3.769531 -18.265625 C 3.769531 -18.445312 3.816406 -18.492188 3.90625 -18.355469 Z M 3.179688 -16.085938 C 3.226562 -16.402344 3.363281 -16.855469 3.453125 -17.039062 C 3.542969 -17.265625 3.542969 -17.21875 3.5 -16.765625 C 3.40625 -16.449219 3.316406 -16.039062 3.226562 -15.8125 C 3.136719 -15.585938 3.089844 -15.675781 3.179688 -16.085938 Z M 2.316406 -12.496094 C 2.5 -13.496094 3.042969 -15.492188 3.042969 -15.265625 C 3.089844 -15.128906 2.90625 -14.359375 2.726562 -13.496094 C 2.363281 -11.996094 2.089844 -11.359375 2.316406 -12.496094 Z M 2.179688 -11.539062 C 2.179688 -11.359375 2.179688 -11.132812 2.136719 -11.039062 C 2.089844 -10.90625 2.089844 -11.039062 2.089844 -11.3125 C 2.089844 -11.632812 2.136719 -11.722656 2.179688 -11.539062 Z M 1.636719 -7.632812 C 1.542969 -7.585938 1.542969 -7.679688 1.542969 -7.859375 C 1.542969 -8.085938 1.589844 -8.132812 1.636719 -7.996094 C 1.679688 -7.859375 1.679688 -7.722656 1.636719 -7.632812 Z M 1.863281 -10.132812 C 1.953125 -10.675781 2 -10.722656 2 -10.269531 C 2 -9.996094 1.953125 -9.542969 1.863281 -9.269531 C 1.679688 -8.542969 1.679688 -9.222656 1.863281 -10.132812 Z M 2 -6.179688 C 1.953125 -6.042969 1.910156 -6.179688 1.910156 -6.496094 C 1.910156 -6.769531 1.953125 -6.859375 2 -6.679688 C 2.042969 -6.542969 2.042969 -6.269531 2 -6.179688 Z M 2.226562 -8.132812 C 2.089844 -7.089844 2.089844 -7.089844 2.042969 -7.769531 C 2 -9.359375 3.269531 -15.039062 4.589844 -19.265625 C 4.90625 -20.355469 5.269531 -21.265625 5.363281 -21.265625 C 5.453125 -21.265625 5.453125 -21.21875 5.40625 -21.128906 C 5.089844 -20.582031 3.226562 -13.496094 2.636719 -10.632812 C 2.5 -9.859375 2.316406 -8.722656 2.226562 -8.132812 Z M 3.179688 -10.3125 C 3.136719 -10.222656 3.089844 -10.3125 3.089844 -10.542969 C 3.089844 -10.769531 3.136719 -10.90625 3.179688 -10.769531 C 3.226562 -10.632812 3.226562 -10.449219 3.179688 -10.3125 Z M 3.363281 -11.132812 C 3.316406 -11.039062 3.269531 -11.175781 3.269531 -11.359375 C 3.269531 -11.539062 3.316406 -11.585938 3.363281 -11.449219 C 3.40625 -11.3125 3.40625 -11.175781 3.363281 -11.132812 Z M 3.679688 -12.675781 C 3.636719 -12.632812 3.589844 -12.722656 3.589844 -12.902344 C 3.636719 -13.085938 3.679688 -13.132812 3.726562 -12.996094 C 3.769531 -12.859375 3.769531 -12.722656 3.679688 -12.675781 Z M 3.953125 -13.675781 C 3.816406 -13.3125 3.816406 -13.3125 3.816406 -13.585938 C 3.816406 -13.765625 3.863281 -14.128906 3.953125 -14.359375 C 4.042969 -14.722656 4.089844 -14.722656 4.089844 -14.449219 C 4.089844 -14.265625 4 -13.902344 3.953125 -13.675781 Z M 4.226562 -14.902344 C 4.179688 -14.859375 4.132812 -14.949219 4.132812 -15.128906 C 4.132812 -15.355469 4.179688 -15.402344 4.226562 -15.265625 C 4.269531 -15.128906 4.269531 -14.992188 4.226562 -14.902344 Z M 4.40625 -15.628906 C 4.316406 -15.539062 4.316406 -15.675781 4.316406 -15.855469 C 4.316406 -16.039062 4.363281 -16.085938 4.40625 -15.949219 C 4.453125 -15.8125 4.453125 -15.675781 4.40625 -15.628906 Z M 5.269531 -18.675781 C 4.90625 -17.582031 4.632812 -16.8125 4.632812 -16.902344 C 4.632812 -17.265625 5.726562 -20.992188 5.816406 -20.808594 C 5.816406 -20.71875 5.589844 -19.765625 5.269531 -18.675781 Z M 8.816406 -29.761719 C 8.179688 -29.761719 6.496094 -28.714844 5.089844 -27.445312 C 4.269531 -26.714844 4.269531 -26.671875 4.5 -26.171875 C 4.632812 -25.808594 4.816406 -25.671875 4.996094 -25.71875 C 5.179688 -25.761719 5.316406 -25.671875 5.316406 -25.582031 C 5.316406 -25.488281 5.496094 -25.535156 5.726562 -25.71875 C 5.953125 -25.898438 5.996094 -25.945312 5.90625 -25.808594 C 5.679688 -25.535156 5.589844 -24.898438 5.769531 -24.71875 C 5.996094 -24.488281 6.496094 -24.671875 6.769531 -25.125 C 7.269531 -25.945312 8.816406 -27.351562 9.585938 -27.714844 C 9.996094 -27.898438 10.359375 -28.171875 10.359375 -28.308594 C 10.359375 -28.535156 9.085938 -29.761719 8.816406 -29.761719 Z M 8.816406 -29.761719 "/></g></g></g><g fill="#333333" fill-opacity="1"><g transform="translate(541.56489, 38.138844)"><g><path d="M 10.859375 -36.078125 C 10.632812 -36.257812 10.222656 -36.621094 9.949219 -36.894531 C 9.542969 -37.304688 9.40625 -37.347656 9.042969 -37.210938 C 8.816406 -37.121094 8.496094 -36.894531 8.359375 -36.710938 C 7.769531 -36.078125 6.769531 -34.257812 6.089844 -32.667969 C 4.589844 -29.214844 1.953125 -20.671875 1.046875 -16.492188 C 0.226562 -12.722656 0.136719 -12.085938 0.136719 -8.359375 C 0.136719 -5.042969 0.183594 -4.589844 0.546875 -3.5 C 1.226562 -1.226562 2.136719 -0.316406 4.132812 0.363281 C 5.40625 0.773438 6.089844 0.316406 5.179688 -0.363281 C 4.953125 -0.589844 4.542969 -1.226562 4.363281 -1.773438 C 4 -2.726562 3.953125 -3.089844 3.953125 -5.996094 C 4 -8.816406 4.042969 -9.496094 4.453125 -11.449219 C 5.226562 -15.085938 6.496094 -19.539062 8.90625 -26.898438 C 10.132812 -30.714844 11.175781 -34.214844 11.269531 -34.757812 C 11.3125 -35.621094 11.3125 -35.757812 10.859375 -36.078125 Z M 8.085938 -33.53125 C 8.222656 -33.804688 8.359375 -33.894531 8.359375 -33.804688 C 8.359375 -33.714844 8.222656 -33.441406 8.085938 -33.214844 C 7.953125 -32.988281 7.859375 -32.851562 7.859375 -32.941406 C 7.859375 -33.03125 7.953125 -33.304688 8.085938 -33.53125 Z M 7.679688 -32.53125 C 7.769531 -32.667969 7.859375 -32.714844 7.859375 -32.578125 C 7.859375 -32.488281 7.769531 -32.304688 7.679688 -32.167969 C 7.585938 -32.03125 7.496094 -31.988281 7.496094 -32.078125 C 7.496094 -32.167969 7.585938 -32.351562 7.679688 -32.53125 Z M 7.316406 -31.667969 C 7.40625 -31.804688 7.496094 -31.851562 7.496094 -31.714844 C 7.496094 -31.625 7.40625 -31.441406 7.316406 -31.304688 C 7.222656 -31.167969 7.179688 -31.125 7.179688 -31.214844 C 7.179688 -31.304688 7.222656 -31.488281 7.316406 -31.667969 Z M 6.996094 -30.761719 C 7.089844 -30.941406 7.132812 -30.941406 7.132812 -30.851562 C 7.132812 -30.761719 7.089844 -30.578125 6.996094 -30.441406 C 6.90625 -30.304688 6.816406 -30.261719 6.816406 -30.351562 C 6.816406 -30.441406 6.90625 -30.625 6.996094 -30.761719 Z M 6.40625 -29.214844 C 6.453125 -29.441406 6.589844 -29.761719 6.679688 -29.898438 C 6.769531 -30.078125 6.769531 -30.035156 6.722656 -29.761719 C 6.632812 -29.488281 6.542969 -29.171875 6.453125 -29.035156 C 6.316406 -28.851562 6.316406 -28.941406 6.40625 -29.214844 Z M 5.953125 -27.941406 C 6.132812 -28.398438 6.269531 -28.671875 6.269531 -28.535156 C 6.269531 -28.398438 6.132812 -27.898438 5.953125 -27.398438 C 5.769531 -26.945312 5.632812 -26.671875 5.632812 -26.808594 C 5.632812 -26.945312 5.769531 -27.445312 5.953125 -27.941406 Z M 5.40625 -26.261719 C 5.496094 -26.445312 5.589844 -26.445312 5.589844 -26.351562 C 5.542969 -26.035156 5.269531 -25.488281 5.269531 -25.761719 C 5.269531 -25.898438 5.316406 -26.125 5.40625 -26.261719 Z M 1.410156 -6.589844 C 1.363281 -6.316406 1.316406 -6.542969 1.316406 -7.042969 C 1.316406 -7.585938 1.363281 -7.816406 1.410156 -7.542969 C 1.453125 -7.269531 1.453125 -6.859375 1.410156 -6.589844 Z M 1.542969 -10.222656 C 1.5 -10.042969 1.5 -10.175781 1.5 -10.496094 C 1.5 -10.859375 1.5 -10.996094 1.542969 -10.8125 C 1.589844 -10.675781 1.589844 -10.40625 1.542969 -10.222656 Z M 1.726562 -11.949219 C 1.773438 -11.8125 1.773438 -11.632812 1.726562 -11.496094 C 1.679688 -11.40625 1.636719 -11.496094 1.636719 -11.722656 C 1.636719 -11.949219 1.679688 -12.085938 1.726562 -11.949219 Z M 2.542969 -9.585938 C 2.453125 -8.722656 2.40625 -7.996094 2.363281 -7.953125 C 2.273438 -7.816406 2.316406 -9.769531 2.453125 -10.449219 C 2.589844 -10.90625 2.589844 -10.632812 2.542969 -9.585938 Z M 6.632812 -25.761719 C 6.042969 -23.992188 5.179688 -21.035156 4.632812 -19.175781 C 4.089844 -17.3125 3.40625 -14.765625 3.136719 -13.449219 C 2.863281 -12.175781 2.679688 -11.539062 2.726562 -12.085938 C 2.863281 -13.175781 3.816406 -17.265625 4.5 -19.492188 C 5.40625 -22.582031 7.542969 -29.078125 7.585938 -29.035156 C 7.632812 -28.988281 7.179688 -27.488281 6.632812 -25.761719 Z M 8.449219 -31.03125 C 7.996094 -29.851562 7.679688 -29.214844 7.953125 -30.078125 C 8.222656 -30.988281 8.769531 -32.351562 8.816406 -32.304688 C 8.859375 -32.257812 8.679688 -31.714844 8.449219 -31.03125 Z M 9.40625 -33.53125 C 9.3125 -33.394531 9.222656 -33.351562 9.222656 -33.488281 C 9.222656 -33.578125 9.3125 -33.757812 9.40625 -33.894531 C 9.496094 -34.03125 9.585938 -34.078125 9.585938 -33.984375 C 9.585938 -33.894531 9.496094 -33.714844 9.40625 -33.53125 Z M 9.179688 -34.304688 C 8.085938 -31.804688 6.769531 -28.308594 5.726562 -24.898438 C 2.679688 -15.3125 1.910156 -11.585938 1.953125 -6.859375 C 1.953125 -5.453125 1.910156 -4.269531 1.863281 -4.269531 C 1.816406 -4.269531 1.773438 -4.632812 1.773438 -5.089844 C 1.773438 -5.542969 1.726562 -6.089844 1.679688 -6.269531 C 1.542969 -6.996094 2 -11.539062 2.40625 -13.722656 C 2.863281 -15.902344 3.726562 -19.308594 4.632812 -22.21875 C 5.679688 -25.625 6.816406 -29.125 7.453125 -30.804688 C 8.222656 -32.804688 9.769531 -36.210938 9.859375 -36.078125 C 9.90625 -36.078125 9.585938 -35.257812 9.179688 -34.304688 Z M 9.179688 -34.304688 "/></g></g></g><g fill="#ff6666" fill-opacity="1"><g transform="translate(334.669589, 30.171604)"><g><path d="M 4.875 0.125 C 4.050781 0.125 3.25 0 2.46875 -0.25 C 1.695312 -0.507812 1.085938 -0.847656 0.640625 -1.265625 L 1.234375 -2.5 C 1.648438 -2.113281 2.1875 -1.800781 2.84375 -1.5625 C 3.507812 -1.332031 4.1875 -1.21875 4.875 -1.21875 C 5.789062 -1.21875 6.472656 -1.367188 6.921875 -1.671875 C 7.378906 -1.984375 7.609375 -2.398438 7.609375 -2.921875 C 7.609375 -3.296875 7.484375 -3.601562 7.234375 -3.84375 C 6.992188 -4.082031 6.691406 -4.265625 6.328125 -4.390625 C 5.960938 -4.515625 5.445312 -4.65625 4.78125 -4.8125 C 3.945312 -5.019531 3.273438 -5.222656 2.765625 -5.421875 C 2.253906 -5.617188 1.816406 -5.925781 1.453125 -6.34375 C 1.097656 -6.757812 0.921875 -7.320312 0.921875 -8.03125 C 0.921875 -8.613281 1.070312 -9.140625 1.375 -9.609375 C 1.6875 -10.085938 2.160156 -10.46875 2.796875 -10.75 C 3.429688 -11.039062 4.21875 -11.1875 5.15625 -11.1875 C 5.800781 -11.1875 6.441406 -11.097656 7.078125 -10.921875 C 7.710938 -10.753906 8.253906 -10.515625 8.703125 -10.203125 L 8.1875 -8.9375 C 7.71875 -9.238281 7.21875 -9.460938 6.6875 -9.609375 C 6.164062 -9.765625 5.65625 -9.84375 5.15625 -9.84375 C 4.257812 -9.84375 3.585938 -9.675781 3.140625 -9.34375 C 2.691406 -9.019531 2.46875 -8.601562 2.46875 -8.09375 C 2.46875 -7.707031 2.59375 -7.394531 2.84375 -7.15625 C 3.09375 -6.925781 3.40625 -6.742188 3.78125 -6.609375 C 4.15625 -6.472656 4.664062 -6.332031 5.3125 -6.1875 C 6.144531 -5.988281 6.8125 -5.789062 7.3125 -5.59375 C 7.820312 -5.394531 8.253906 -5.085938 8.609375 -4.671875 C 8.972656 -4.265625 9.15625 -3.710938 9.15625 -3.015625 C 9.15625 -2.429688 9 -1.898438 8.6875 -1.421875 C 8.375 -0.941406 7.894531 -0.5625 7.25 -0.28125 C 6.601562 -0.0078125 5.8125 0.125 4.875 0.125 Z M 4.875 0.125 "/></g></g></g><g fill="#ff6666" fill-opacity="1"><g transform="translate(352.296964, 30.171604)"><g><path d="M 6.359375 -11.1875 C 7.460938 -11.1875 8.453125 -10.941406 9.328125 -10.453125 C 10.203125 -9.960938 10.890625 -9.285156 11.390625 -8.421875 C 11.890625 -7.566406 12.140625 -6.609375 12.140625 -5.546875 C 12.140625 -4.472656 11.890625 -3.503906 11.390625 -2.640625 C 10.898438 -1.773438 10.222656 -1.097656 9.359375 -0.609375 C 8.503906 -0.117188 7.535156 0.125 6.453125 0.125 C 5.367188 0.125 4.394531 -0.117188 3.53125 -0.609375 C 2.675781 -1.109375 2 -1.789062 1.5 -2.65625 C 1.007812 -3.53125 0.765625 -4.507812 0.765625 -5.59375 L 0.765625 -6.03125 L 10.546875 -6.03125 C 10.472656 -6.75 10.242188 -7.390625 9.859375 -7.953125 C 9.472656 -8.523438 8.972656 -8.972656 8.359375 -9.296875 C 7.742188 -9.617188 7.070312 -9.78125 6.34375 -9.78125 C 5.675781 -9.78125 5.039062 -9.671875 4.4375 -9.453125 C 3.832031 -9.234375 3.3125 -8.910156 2.875 -8.484375 L 1.921875 -9.578125 C 2.453125 -10.078125 3.097656 -10.46875 3.859375 -10.75 C 4.628906 -11.039062 5.460938 -11.1875 6.359375 -11.1875 Z M 6.453125 -1.234375 C 7.546875 -1.234375 8.457031 -1.546875 9.1875 -2.171875 C 9.914062 -2.796875 10.359375 -3.632812 10.515625 -4.6875 L 2.390625 -4.6875 C 2.554688 -3.632812 3.003906 -2.796875 3.734375 -2.171875 C 4.460938 -1.546875 5.367188 -1.234375 6.453125 -1.234375 Z M 6.453125 -1.234375 "/></g></g></g><g fill="#ff6666" fill-opacity="1"><g transform="translate(373.019877, 30.171604)"><g><path d="M 1.65625 -11.0625 L 6.3125 -11.0625 C 7.488281 -11.0625 8.53125 -10.828125 9.4375 -10.359375 C 10.34375 -9.898438 11.046875 -9.25 11.546875 -8.40625 C 12.046875 -7.570312 12.296875 -6.613281 12.296875 -5.53125 C 12.296875 -4.445312 12.046875 -3.484375 11.546875 -2.640625 C 11.046875 -1.804688 10.34375 -1.15625 9.4375 -0.6875 C 8.53125 -0.226562 7.488281 0 6.3125 0 L 1.65625 0 Z M 6.21875 -1.375 C 7.113281 -1.375 7.898438 -1.546875 8.578125 -1.890625 C 9.265625 -2.242188 9.789062 -2.734375 10.15625 -3.359375 C 10.519531 -3.984375 10.703125 -4.707031 10.703125 -5.53125 C 10.703125 -6.351562 10.519531 -7.078125 10.15625 -7.703125 C 9.789062 -8.328125 9.265625 -8.8125 8.578125 -9.15625 C 7.898438 -9.507812 7.113281 -9.6875 6.21875 -9.6875 L 3.234375 -9.6875 L 3.234375 -1.375 Z M 6.21875 -1.375 "/></g></g></g><g fill="#ff6666" fill-opacity="1"><g transform="translate(393.884934, 30.171604)"><g><path d="M 6.359375 -11.1875 C 7.460938 -11.1875 8.453125 -10.941406 9.328125 -10.453125 C 10.203125 -9.960938 10.890625 -9.285156 11.390625 -8.421875 C 11.890625 -7.566406 12.140625 -6.609375 12.140625 -5.546875 C 12.140625 -4.472656 11.890625 -3.503906 11.390625 -2.640625 C 10.898438 -1.773438 10.222656 -1.097656 9.359375 -0.609375 C 8.503906 -0.117188 7.535156 0.125 6.453125 0.125 C 5.367188 0.125 4.394531 -0.117188 3.53125 -0.609375 C 2.675781 -1.109375 2 -1.789062 1.5 -2.65625 C 1.007812 -3.53125 0.765625 -4.507812 0.765625 -5.59375 L 0.765625 -6.03125 L 10.546875 -6.03125 C 10.472656 -6.75 10.242188 -7.390625 9.859375 -7.953125 C 9.472656 -8.523438 8.972656 -8.972656 8.359375 -9.296875 C 7.742188 -9.617188 7.070312 -9.78125 6.34375 -9.78125 C 5.675781 -9.78125 5.039062 -9.671875 4.4375 -9.453125 C 3.832031 -9.234375 3.3125 -8.910156 2.875 -8.484375 L 1.921875 -9.578125 C 2.453125 -10.078125 3.097656 -10.46875 3.859375 -10.75 C 4.628906 -11.039062 5.460938 -11.1875 6.359375 -11.1875 Z M 6.453125 -1.234375 C 7.546875 -1.234375 8.457031 -1.546875 9.1875 -2.171875 C 9.914062 -2.796875 10.359375 -3.632812 10.515625 -4.6875 L 2.390625 -4.6875 C 2.554688 -3.632812 3.003906 -2.796875 3.734375 -2.171875 C 4.460938 -1.546875 5.367188 -1.234375 6.453125 -1.234375 Z M 6.453125 -1.234375 "/></g></g></g><g fill="#ff6666" fill-opacity="1"><g transform="translate(414.607846, 30.171604)"><g><path d="M 9.046875 0 L 6.671875 -3.390625 C 6.367188 -3.367188 6.132812 -3.359375 5.96875 -3.359375 L 3.234375 -3.359375 L 3.234375 0 L 1.65625 0 L 1.65625 -11.0625 L 5.96875 -11.0625 C 7.40625 -11.0625 8.53125 -10.71875 9.34375 -10.03125 C 10.164062 -9.34375 10.578125 -8.398438 10.578125 -7.203125 C 10.578125 -6.347656 10.363281 -5.617188 9.9375 -5.015625 C 9.519531 -4.421875 8.925781 -3.988281 8.15625 -3.71875 L 10.78125 0 Z M 5.921875 -4.703125 C 6.921875 -4.703125 7.679688 -4.914062 8.203125 -5.34375 C 8.734375 -5.78125 9 -6.398438 9 -7.203125 C 9 -8.003906 8.734375 -8.617188 8.203125 -9.046875 C 7.679688 -9.472656 6.921875 -9.6875 5.921875 -9.6875 L 3.234375 -9.6875 L 3.234375 -4.703125 Z M 5.921875 -4.703125 "/></g></g></g><g fill="#ff6666" fill-opacity="1"><g transform="translate(433.909341, 30.171604)"><g><path d="M 6.359375 -11.1875 C 7.460938 -11.1875 8.453125 -10.941406 9.328125 -10.453125 C 10.203125 -9.960938 10.890625 -9.285156 11.390625 -8.421875 C 11.890625 -7.566406 12.140625 -6.609375 12.140625 -5.546875 C 12.140625 -4.472656 11.890625 -3.503906 11.390625 -2.640625 C 10.898438 -1.773438 10.222656 -1.097656 9.359375 -0.609375 C 8.503906 -0.117188 7.535156 0.125 6.453125 0.125 C 5.367188 0.125 4.394531 -0.117188 3.53125 -0.609375 C 2.675781 -1.109375 2 -1.789062 1.5 -2.65625 C 1.007812 -3.53125 0.765625 -4.507812 0.765625 -5.59375 L 0.765625 -6.03125 L 10.546875 -6.03125 C 10.472656 -6.75 10.242188 -7.390625 9.859375 -7.953125 C 9.472656 -8.523438 8.972656 -8.972656 8.359375 -9.296875 C 7.742188 -9.617188 7.070312 -9.78125 6.34375 -9.78125 C 5.675781 -9.78125 5.039062 -9.671875 4.4375 -9.453125 C 3.832031 -9.234375 3.3125 -8.910156 2.875 -8.484375 L 1.921875 -9.578125 C 2.453125 -10.078125 3.097656 -10.46875 3.859375 -10.75 C 4.628906 -11.039062 5.460938 -11.1875 6.359375 -11.1875 Z M 6.453125 -1.234375 C 7.546875 -1.234375 8.457031 -1.546875 9.1875 -2.171875 C 9.914062 -2.796875 10.359375 -3.632812 10.515625 -4.6875 L 2.390625 -4.6875 C 2.554688 -3.632812 3.003906 -2.796875 3.734375 -2.171875 C 4.460938 -1.546875 5.367188 -1.234375 6.453125 -1.234375 Z M 6.453125 -1.234375 "/></g></g></g><g fill="#ff6666" fill-opacity="1"><g transform="translate(454.632258, 30.171604)"><g><path d="M 5.265625 -4.90625 L 3.234375 -2.859375 L 3.234375 0 L 1.65625 0 L 1.65625 -11.0625 L 3.234375 -11.0625 L 3.234375 -4.875 L 9.234375 -11.0625 L 11.046875 -11.0625 L 6.3125 -6.078125 L 11.34375 0 L 9.5 0 Z M 5.265625 -4.90625 "/></g></g></g></svg>