<svg xmlns="http://www.w3.org/2000/svg" xmlns:xlink="http://www.w3.org/1999/xlink" width="800" zoomAndPan="magnify" viewBox="0 0 600 187.499995" height="250" preserveAspectRatio="xMidYMid meet" version="1.0"><defs><g/></defs><g fill="#ffffff" fill-opacity="1"><g transform="translate(35.554398, 115.642075)"><g><path d="M 22.148438 0.777344 C 31.316406 0.777344 40.332031 -5.128906 40.332031 -14.84375 C 40.332031 -23.625 32.25 -27.042969 23.625 -30.460938 C 17.019531 -33.183594 9.015625 -36.136719 9.015625 -43.441406 C 9.015625 -50.046875 14.375 -53.699219 20.671875 -53.699219 C 29.53125 -53.699219 34.96875 -48.878906 37.84375 -42.117188 L 38.621094 -42.351562 L 38.3125 -51.367188 C 35.28125 -53 30.230469 -54.941406 23.15625 -54.941406 C 11.734375 -54.941406 4.195312 -49.191406 4.195312 -40.097656 C 4.195312 -31.859375 10.023438 -28.597656 19.195312 -24.945312 C 25.722656 -22.304688 35.28125 -18.726562 35.28125 -10.957031 C 35.28125 -4.664062 29.917969 -0.621094 23.703125 -0.621094 C 12.898438 -0.621094 6.992188 -7.539062 3.964844 -15.699219 L 3.109375 -15.542969 L 3.496094 -4.742188 C 7.148438 -2.097656 13.988281 0.777344 22.148438 0.777344 Z M 22.148438 0.777344 "/></g></g></g><g fill="#ffffff" fill-opacity="1"><g transform="translate(78.366537, 115.642075)"><g><path d="M 18.652344 0.621094 C 29.53125 0.621094 39.089844 -8.082031 39.089844 -20.828125 C 39.089844 -32.484375 31.394531 -39.554688 21.527344 -39.554688 C 13.367188 -39.554688 6.917969 -34.035156 2.953125 -28.597656 L 3.652344 -27.898438 C 7.226562 -31.859375 11.8125 -34.8125 18.417969 -34.8125 C 27.820312 -34.8125 33.726562 -27.820312 33.726562 -16.863281 C 33.726562 -15.621094 33.648438 -14.375 33.414062 -13.132812 L 3.03125 -13.132812 C 3.265625 -5.75 8.9375 0.621094 18.652344 0.621094 Z M 9.246094 -12.121094 L 33.261719 -12.121094 C 31.9375 -5.75 27.820312 -0.699219 21.214844 -0.699219 C 14.144531 -0.777344 10.023438 -6.917969 9.246094 -12.121094 Z M 9.246094 -12.121094 "/></g></g></g><g fill="#ffffff" fill-opacity="1"><g transform="translate(120.79019, 115.642075)"><g><path d="M 19.972656 0.855469 C 25.488281 0.933594 30.308594 -2.796875 34.113281 -6.761719 L 34.113281 -2.332031 C 34.113281 -0.855469 34.96875 0 36.445312 0 L 43.285156 0 L 43.285156 -1.011719 C 40.875 -1.710938 40.175781 -3.496094 40.175781 -9.871094 L 40.175781 -62.246094 L 39.554688 -62.789062 L 31.007812 -59.058594 L 31.007812 -58.203125 C 33.105469 -57.273438 34.113281 -56.496094 34.113281 -51.054688 L 34.113281 -36.289062 C 31.394531 -38 27.820312 -39.320312 23.546875 -39.320312 C 10.179688 -39.242188 2.796875 -29.296875 2.796875 -18.496094 C 2.796875 -7.539062 10.335938 0.777344 19.972656 0.855469 Z M 8.625 -23.15625 C 8.625 -31.394531 12.898438 -37.84375 21.136719 -37.84375 C 27.664062 -37.84375 33.414062 -32.25 34.113281 -27.199219 L 34.113281 -8.160156 C 31.085938 -5.050781 27.507812 -2.953125 23.46875 -2.953125 C 12.898438 -2.953125 8.625 -14.066406 8.625 -23.15625 Z M 8.625 -23.15625 "/></g></g></g><g fill="#ffffff" fill-opacity="1"><g transform="translate(165.855602, 115.642075)"><g><path d="M 18.652344 0.621094 C 29.53125 0.621094 39.089844 -8.082031 39.089844 -20.828125 C 39.089844 -32.484375 31.394531 -39.554688 21.527344 -39.554688 C 13.367188 -39.554688 6.917969 -34.035156 2.953125 -28.597656 L 3.652344 -27.898438 C 7.226562 -31.859375 11.8125 -34.8125 18.417969 -34.8125 C 27.820312 -34.8125 33.726562 -27.820312 33.726562 -16.863281 C 33.726562 -15.621094 33.648438 -14.375 33.414062 -13.132812 L 3.03125 -13.132812 C 3.265625 -5.75 8.9375 0.621094 18.652344 0.621094 Z M 9.246094 -12.121094 L 33.261719 -12.121094 C 31.9375 -5.75 27.820312 -0.699219 21.214844 -0.699219 C 14.144531 -0.777344 10.023438 -6.917969 9.246094 -12.121094 Z M 9.246094 -12.121094 "/></g></g></g><g fill="#ffffff" fill-opacity="1"><g transform="translate(208.279254, 115.642075)"><g><path d="M 2.488281 0 L 14.765625 0 L 14.765625 -1.011719 C 12.355469 -1.710938 11.65625 -3.496094 11.65625 -9.871094 L 11.65625 -25.332031 L 11.734375 -25.332031 C 11.96875 -29.0625 14.765625 -33.414062 17.019531 -35.046875 C 21.601562 -33.726562 24.632812 -32.871094 26.730469 -32.871094 C 29.53125 -32.871094 31.238281 -35.589844 31.238281 -37.300781 C 31.238281 -38.621094 29.296875 -39.398438 26.1875 -39.398438 C 22.457031 -39.398438 19.738281 -38.390625 17.328125 -36.601562 C 15 -34.890625 12.898438 -32.25 11.65625 -29.21875 L 11.65625 -38.933594 L 10.957031 -39.476562 L 2.488281 -35.746094 L 2.488281 -34.890625 C 4.585938 -33.960938 5.59375 -33.183594 5.59375 -27.742188 L 5.59375 -9.871094 C 5.59375 -3.496094 4.894531 -1.710938 2.488281 -1.011719 Z M 2.488281 0 "/></g></g></g><g fill="#ffffff" fill-opacity="1"><g transform="translate(240.912845, 115.642075)"><g><path d="M 18.652344 0.621094 C 29.53125 0.621094 39.089844 -8.082031 39.089844 -20.828125 C 39.089844 -32.484375 31.394531 -39.554688 21.527344 -39.554688 C 13.367188 -39.554688 6.917969 -34.035156 2.953125 -28.597656 L 3.652344 -27.898438 C 7.226562 -31.859375 11.8125 -34.8125 18.417969 -34.8125 C 27.820312 -34.8125 33.726562 -27.820312 33.726562 -16.863281 C 33.726562 -15.621094 33.648438 -14.375 33.414062 -13.132812 L 3.03125 -13.132812 C 3.265625 -5.75 8.9375 0.621094 18.652344 0.621094 Z M 9.246094 -12.121094 L 33.261719 -12.121094 C 31.9375 -5.75 27.820312 -0.699219 21.214844 -0.699219 C 14.144531 -0.777344 10.023438 -6.917969 9.246094 -12.121094 Z M 9.246094 -12.121094 "/></g></g></g><g fill="#ffffff" fill-opacity="1"><g transform="translate(283.336485, 115.642075)"><g><path d="M 2.875 0 L 15.152344 0 L 15.152344 -1.011719 C 12.746094 -1.710938 12.046875 -3.496094 12.046875 -9.871094 L 12.046875 -15.464844 L 19.273438 -22.457031 L 26.34375 -9.324219 C 30.152344 -2.332031 32.714844 0 36.523438 0 L 41.574219 0 L 41.574219 -0.933594 C 38.078125 -1.164062 35.667969 -4.742188 32.636719 -10.179688 L 23.546875 -26.578125 L 29.140625 -32.015625 C 33.726562 -36.367188 36.289062 -37.144531 38.621094 -37.84375 L 38.621094 -38.855469 L 29.453125 -38.855469 L 29.453125 -38.3125 C 31.160156 -37.535156 30.617188 -34.8125 25.566406 -29.839844 L 12.046875 -16.863281 L 12.046875 -62.246094 L 11.34375 -62.789062 L 2.875 -59.058594 L 2.875 -58.203125 C 4.972656 -57.273438 5.984375 -56.496094 5.984375 -51.054688 L 5.984375 -9.871094 C 5.984375 -3.496094 5.285156 -1.710938 2.875 -1.011719 Z M 2.875 0 "/></g></g></g><g fill="#ffffff" fill-opacity="1"><g transform="translate(324.516951, 115.642075)"><g/></g></g><g fill="#ffffff" fill-opacity="1"><g transform="translate(340.833729, 115.642075)"><g><path d="M 15.464844 0 L 28.132812 0 L 28.132812 -1.011719 C 25.722656 -1.710938 25.023438 -3.496094 25.023438 -9.871094 L 25.023438 -53.152344 L 28.675781 -53.152344 C 35.667969 -53.152344 38.699219 -51.289062 41.34375 -45.695312 L 42.195312 -45.847656 L 41.730469 -54.398438 L 1.710938 -54.398438 L 1.242188 -45.847656 L 2.097656 -45.695312 C 4.742188 -51.289062 7.769531 -53.152344 14.765625 -53.152344 L 18.574219 -53.152344 L 18.574219 -9.871094 C 18.574219 -3.496094 17.875 -1.710938 15.464844 -1.011719 Z M 15.464844 0 "/></g></g></g><g fill="#ffffff" fill-opacity="1"><g transform="translate(384.34516, 115.642075)"><g><path d="M 21.214844 0.777344 C 29.53125 0.777344 35.589844 -4.742188 39.554688 -10.179688 L 38.855469 -10.878906 C 35.28125 -6.839844 31.007812 -4.117188 25.023438 -4.117188 C 14.921875 -4.117188 8.316406 -11.421875 8.316406 -22.070312 C 8.316406 -23.3125 8.394531 -24.480469 8.546875 -25.644531 L 38.933594 -25.644531 C 38.699219 -33.027344 33.027344 -39.398438 23.234375 -39.398438 C 12.355469 -39.398438 2.796875 -30.929688 2.796875 -18.261719 C 2.796875 -5.441406 12.667969 0.777344 21.214844 0.777344 Z M 8.78125 -26.65625 C 10.023438 -33.183594 14.066406 -38.078125 20.671875 -38 C 27.742188 -38 31.9375 -31.859375 32.714844 -26.65625 Z M 8.78125 -26.65625 "/></g></g></g><g fill="#ffffff" fill-opacity="1"><g transform="translate(426.069532, 115.642075)"><g><path d="M 2.875 0 L 15.152344 0 L 15.152344 -1.011719 C 12.746094 -1.710938 12.046875 -3.496094 12.046875 -9.871094 L 12.046875 -15.464844 L 19.273438 -22.457031 L 26.34375 -9.324219 C 30.152344 -2.332031 32.714844 0 36.523438 0 L 41.574219 0 L 41.574219 -0.933594 C 38.078125 -1.164062 35.667969 -4.742188 32.636719 -10.179688 L 23.546875 -26.578125 L 29.140625 -32.015625 C 33.726562 -36.367188 36.289062 -37.144531 38.621094 -37.84375 L 38.621094 -38.855469 L 29.453125 -38.855469 L 29.453125 -38.3125 C 31.160156 -37.535156 30.617188 -34.8125 25.566406 -29.839844 L 12.046875 -16.863281 L 12.046875 -62.246094 L 11.34375 -62.789062 L 2.875 -59.058594 L 2.875 -58.203125 C 4.972656 -57.273438 5.984375 -56.496094 5.984375 -51.054688 L 5.984375 -9.871094 C 5.984375 -3.496094 5.285156 -1.710938 2.875 -1.011719 Z M 2.875 0 "/></g></g></g><g fill="#ffffff" fill-opacity="1"><g transform="translate(467.249997, 115.642075)"><g><path d="M 17.5625 0.699219 C 26.886719 0.621094 31.785156 -4.894531 31.785156 -11.421875 C 31.785156 -19.195312 24.632812 -20.980469 18.726562 -22.925781 C 12.589844 -24.945312 7.617188 -26.964844 7.617188 -31.859375 C 7.617188 -35.824219 11.035156 -38.390625 16.320312 -38.390625 C 21.835938 -38.390625 26.808594 -34.8125 29.296875 -29.21875 L 30.074219 -29.375 L 29.761719 -37.300781 C 27.355469 -38.3125 22.769531 -39.398438 17.71875 -39.398438 C 8.703125 -39.398438 3.574219 -34.660156 3.574219 -28.519531 C 3.574219 -21.449219 8.859375 -19.425781 16.242188 -17.097656 C 22.226562 -15.152344 27.664062 -13.367188 27.664062 -7.769531 C 27.664062 -3.417969 24.089844 -0.542969 19.273438 -0.542969 C 12.199219 -0.621094 6.683594 -5.050781 3.417969 -12.433594 L 2.71875 -12.277344 L 3.417969 -2.875 C 5.984375 -1.164062 11.34375 0.699219 17.5625 0.699219 Z M 17.5625 0.699219 "/></g></g></g><g fill="#ffffff" fill-opacity="1"><g transform="translate(501.82602, 115.642075)"><g><path d="M 14.6875 0.777344 C 19.273438 0.777344 23.234375 -2.5625 26.578125 -6.371094 L 25.878906 -7.070312 C 23.3125 -4.039062 20.59375 -3.03125 18.417969 -3.03125 C 15.074219 -3.03125 12.898438 -5.050781 12.898438 -10.335938 L 12.898438 -37.765625 L 24.324219 -37.765625 L 24.710938 -38.855469 L 12.898438 -38.855469 L 12.898438 -48.414062 L 11.8125 -48.414062 L 1.863281 -38.855469 L 1.863281 -37.765625 L 6.839844 -37.765625 L 6.839844 -10.335938 C 6.839844 -2.253906 9.792969 0.777344 14.6875 0.777344 Z M 14.6875 0.777344 "/></g></g></g><g fill="#ffffff" fill-opacity="1"><g transform="translate(528.554471, 115.642075)"><g><path d="M 2.488281 0 L 14.765625 0 L 14.765625 -1.011719 C 12.433594 -1.710938 11.65625 -3.496094 11.65625 -9.871094 L 11.65625 -38.933594 L 11.035156 -39.476562 L 2.488281 -35.746094 L 2.488281 -34.890625 C 4.664062 -33.960938 5.59375 -33.183594 5.59375 -27.742188 L 5.59375 -9.871094 C 5.59375 -3.496094 4.894531 -1.710938 2.488281 -1.011719 Z M 3.886719 -48.492188 C 3.886719 -46.160156 5.75 -44.21875 8.160156 -44.21875 C 10.570312 -44.21875 12.433594 -46.160156 12.433594 -48.492188 C 12.433594 -50.976562 10.644531 -52.84375 8.160156 -52.84375 C 5.75 -52.84375 3.886719 -50.976562 3.886719 -48.492188 Z M 3.886719 -48.492188 "/></g></g></g><g fill="#ffffff" fill-opacity="1"><g transform="translate(546.036765, 115.642075)"><g><path d="M 2.953125 0 L 15.230469 0 L 15.230469 -1.011719 C 12.820312 -1.710938 12.121094 -3.496094 12.121094 -9.871094 L 12.121094 -62.246094 L 11.421875 -62.789062 L 2.953125 -59.058594 L 2.953125 -58.203125 C 5.050781 -57.273438 6.0625 -56.496094 6.0625 -51.054688 L 6.0625 -9.871094 C 6.0625 -3.496094 5.285156 -1.710938 2.953125 -1.011719 Z M 2.953125 0 "/></g></g></g></svg>