<svg xmlns="http://www.w3.org/2000/svg" xmlns:xlink="http://www.w3.org/1999/xlink" width="500" zoomAndPan="magnify" viewBox="0 0 375 374.999991" height="500" preserveAspectRatio="xMidYMid meet" version="1.0"><defs><g/></defs><g fill="rgb(23.919678%, 23.919678%, 23.919678%)" fill-opacity="1"><g transform="translate(207.865656, 203.999987)"><g><path d="M 7.140625 2.101562 C 6.894531 1.46875 7.089844 -3.277344 7.480469 -6.355469 C 8.460938 -14.328125 9.535156 -18.09375 14.179688 -29.878906 C 15.011719 -32.03125 15.695312 -33.984375 15.695312 -34.230469 C 15.695312 -34.425781 15.84375 -34.71875 15.941406 -34.816406 C 16.480469 -35.257812 19.21875 -35.648438 27.53125 -36.480469 C 28.996094 -36.578125 29.242188 -36.871094 28.605469 -37.457031 C 28.410156 -37.652344 28.214844 -37.898438 28.214844 -38.042969 C 28.214844 -38.484375 27.578125 -38.679688 24.9375 -39.121094 C 22.054688 -39.609375 20.488281 -39.609375 17.066406 -39.21875 C 11.832031 -38.582031 5.964844 -37.066406 3.324219 -35.648438 C 2.054688 -34.964844 0.734375 -33.789062 0.488281 -33.054688 C 0.246094 -32.46875 0.78125 -31.441406 1.371094 -31.394531 C 1.613281 -31.34375 1.761719 -31.148438 1.808594 -30.855469 C 1.859375 -30.613281 2.101562 -30.269531 2.347656 -30.171875 C 2.789062 -29.925781 3.082031 -30.074219 7.96875 -32.226562 C 8.753906 -32.566406 9.4375 -32.8125 9.488281 -32.8125 C 9.488281 -32.8125 9.144531 -31.832031 8.65625 -30.660156 C 7.089844 -26.699219 4.792969 -18.777344 3.910156 -14.277344 C 2.738281 -8.460938 2.691406 -2.445312 3.714844 -0.292969 C 4.304688 0.832031 5.527344 2.199219 6.0625 2.296875 C 7.1875 2.492188 7.285156 2.445312 7.140625 2.101562 Z M 12.03125 -32.617188 C 12.910156 -34.375 12.957031 -34.132812 12.128906 -32.273438 C 11.734375 -31.394531 11.003906 -29.585938 10.464844 -28.167969 C 9.925781 -26.796875 9.144531 -24.546875 8.65625 -23.226562 C 8.214844 -21.859375 7.824219 -20.878906 7.824219 -21.027344 C 7.824219 -21.710938 10.90625 -30.21875 12.03125 -32.617188 Z M 7.628906 -20.34375 C 7.726562 -20.636719 7.773438 -20.683594 7.824219 -20.488281 C 7.824219 -20.292969 7.726562 -20.050781 7.628906 -19.851562 C 7.382812 -19.511719 7.382812 -19.804688 7.628906 -20.34375 Z M 6.699219 -16.917969 C 6.699219 -17.164062 6.75 -17.210938 6.796875 -17.066406 C 6.847656 -16.917969 6.847656 -16.722656 6.796875 -16.675781 C 6.699219 -16.625 6.652344 -16.722656 6.699219 -16.917969 Z M 4.5 -2.691406 C 4.402344 -2.589844 4.351562 -2.738281 4.351562 -2.933594 C 4.402344 -3.179688 4.449219 -3.226562 4.5 -3.082031 C 4.546875 -2.933594 4.546875 -2.738281 4.5 -2.691406 Z M 5.035156 -4.011719 C 5.035156 -2.347656 5.035156 -0.976562 4.988281 -0.976562 C 4.839844 -0.976562 4.695312 -3.714844 4.839844 -5.429688 C 5.035156 -8.898438 6.113281 -15.648438 6.40625 -15.355469 C 6.40625 -15.304688 6.355469 -14.71875 6.210938 -14.035156 C 5.527344 -11.148438 5.085938 -6.945312 5.035156 -4.011719 Z M 6.40625 -11.832031 C 6.308594 -11.394531 6.160156 -9.976562 5.964844 -8.703125 C 5.820312 -7.433594 5.625 -5.476562 5.527344 -4.351562 L 5.332031 -2.296875 L 5.429688 -4.695312 C 5.527344 -6.992188 6.160156 -12.324219 6.40625 -12.566406 C 6.453125 -12.617188 6.453125 -12.273438 6.40625 -11.832031 Z M 6.503906 -13.054688 C 6.453125 -13.691406 7.578125 -18.09375 8.558594 -21.171875 C 9.925781 -25.574219 12.8125 -33.054688 13.496094 -33.984375 C 13.644531 -34.179688 13.25 -33.054688 12.617188 -31.539062 C 11.296875 -28.363281 9.535156 -23.570312 8.605469 -20.683594 C 8.265625 -19.609375 7.628906 -17.359375 7.238281 -15.695312 C 6.847656 -14.035156 6.503906 -12.8125 6.503906 -13.054688 Z M 6.503906 -13.054688 "/></g></g></g><g fill="rgb(23.919678%, 23.919678%, 23.919678%)" fill-opacity="1"><g transform="translate(220.723881, 203.999987)"><g><path d="M 10.074219 -21.761719 C 7.773438 -21.074219 5.769531 -19.511719 3.765625 -17.015625 C 0.292969 -12.714844 -1.027344 -6.945312 0.585938 -3.570312 C 1.171875 -2.394531 2.394531 -1.269531 4.15625 -0.246094 C 5.625 0.585938 5.769531 0.585938 6.992188 0.539062 C 7.824219 0.488281 8.605469 0.34375 9.046875 0.0976562 C 11.785156 -1.222656 16.332031 -7.871094 14.867188 -8.410156 C 14.671875 -8.507812 14.277344 -8.117188 13.742188 -7.285156 C 13.25 -6.601562 12.273438 -5.429688 11.539062 -4.644531 C 9.828125 -2.933594 7.675781 -1.808594 5.964844 -1.664062 L 4.839844 -1.613281 L 4.449219 -2.492188 C 4.109375 -3.277344 4.058594 -3.617188 4.15625 -5.378906 C 4.253906 -7.1875 4.9375 -9.976562 5.230469 -9.78125 C 7.53125 -8.507812 9.585938 -8.851562 11.882812 -10.855469 C 14.523438 -13.203125 16.285156 -18.09375 15.0625 -19.851562 C 14.816406 -20.195312 14.570312 -20.488281 14.523438 -20.488281 C 14.472656 -20.488281 14.035156 -20.78125 13.546875 -21.222656 C 12.371094 -22.152344 11.636719 -22.25 10.074219 -21.761719 Z M 1.613281 -8.410156 C 1.566406 -8.363281 1.515625 -8.460938 1.515625 -8.65625 C 1.515625 -8.851562 1.566406 -8.898438 1.613281 -8.753906 C 1.710938 -8.605469 1.664062 -8.460938 1.613281 -8.410156 Z M 1.710938 -9.488281 C 1.710938 -9.632812 1.808594 -9.925781 1.90625 -10.121094 C 2.003906 -10.367188 2.054688 -10.414062 2.054688 -10.21875 C 2.054688 -10.074219 1.957031 -9.78125 1.90625 -9.585938 C 1.761719 -9.339844 1.710938 -9.289062 1.710938 -9.488281 Z M 1.808594 -7.335938 C 1.957031 -8.460938 2.347656 -10.121094 2.738281 -11.050781 C 3.179688 -12.175781 3.179688 -11.734375 2.691406 -10.21875 C 2.445312 -9.4375 2.152344 -8.265625 2.003906 -7.628906 C 1.761719 -6.503906 1.710938 -6.453125 1.808594 -7.335938 Z M 2.738281 -8.214844 C 2.691406 -8.167969 2.640625 -8.265625 2.640625 -8.460938 C 2.640625 -8.703125 2.691406 -8.703125 2.738281 -8.558594 C 2.789062 -8.460938 2.789062 -8.265625 2.738281 -8.214844 Z M 3.519531 -10.953125 C 3.519531 -10.808594 3.375 -10.269531 3.179688 -9.730469 C 2.886719 -9.046875 2.835938 -8.949219 2.933594 -9.4375 C 3.082031 -10.171875 3.570312 -11.394531 3.519531 -10.953125 Z M 6.113281 -15.648438 C 6.40625 -15.890625 6.40625 -15.890625 6.210938 -15.597656 C 5.964844 -15.257812 5.820312 -15.160156 5.820312 -15.304688 C 5.820312 -15.355469 5.964844 -15.5 6.113281 -15.648438 Z M 4.109375 -13.59375 C 4.011719 -13.351562 3.863281 -13.203125 3.8125 -13.203125 C 3.765625 -13.203125 3.8125 -13.351562 3.910156 -13.59375 C 4.058594 -13.789062 4.15625 -13.9375 4.207031 -13.9375 C 4.253906 -13.9375 4.207031 -13.789062 4.109375 -13.59375 Z M 5.132812 -13.984375 C 4.742188 -13.351562 4.402344 -12.8125 4.351562 -12.8125 C 4.207031 -12.8125 5.28125 -14.671875 5.574219 -14.914062 C 5.722656 -15.011719 5.527344 -14.621094 5.132812 -13.984375 Z M 13.449219 -15.5 C 13.449219 -15.402344 13.300781 -15.160156 13.152344 -14.964844 C 12.859375 -14.621094 12.859375 -14.621094 13.054688 -15.0625 C 13.351562 -15.648438 13.449219 -15.746094 13.449219 -15.5 Z M 13.007812 -19.121094 C 13.203125 -18.875 12.617188 -16.820312 12.03125 -15.597656 C 11.148438 -13.839844 9.730469 -12.324219 8.3125 -11.6875 C 7.285156 -11.199219 5.820312 -10.953125 5.820312 -11.296875 C 5.820312 -11.589844 7.382812 -13.984375 8.460938 -15.402344 C 9.976562 -17.261719 12.664062 -19.460938 13.007812 -19.121094 Z M 13.007812 -19.121094 "/></g></g></g><g fill="rgb(23.919678%, 23.919678%, 23.919678%)" fill-opacity="1"><g transform="translate(237.297786, 203.999987)"><g><path d="M 21.46875 -27.53125 C 21.273438 -27.53125 20.636719 -28.3125 20.636719 -28.558594 C 20.585938 -28.898438 19.902344 -29.046875 19.460938 -28.753906 C 19.265625 -28.65625 18.140625 -27.285156 16.96875 -25.722656 C 13.054688 -20.539062 9.632812 -16.917969 6.75 -15.0625 C 6.210938 -14.71875 5.769531 -14.523438 5.722656 -14.621094 C 5.625 -14.914062 6.550781 -18.238281 7.53125 -21.371094 C 9.683594 -27.921875 10.171875 -29.4375 11.441406 -32.617188 C 13.496094 -37.898438 13.691406 -38.828125 12.957031 -39.460938 C 12.714844 -39.65625 12.46875 -39.753906 12.371094 -39.707031 C 12.273438 -39.65625 12.226562 -39.707031 12.226562 -39.804688 C 12.226562 -39.953125 12.175781 -40 12.128906 -39.953125 C 12.03125 -39.851562 11.832031 -40 11.6875 -40.195312 C 10.953125 -41.074219 10.023438 -40.246094 8.265625 -37.066406 C 7.140625 -35.160156 6.308594 -33.203125 4.695312 -28.800781 C 2.542969 -23.128906 1.46875 -19.460938 0.683594 -15.304688 C -0.34375 -10.171875 0.0976562 -3.570312 1.613281 -1.222656 C 2.296875 -0.195312 2.933594 0.195312 4.304688 0.390625 C 5.28125 0.488281 5.378906 0.488281 5.28125 0.148438 C 4.546875 -2.199219 3.960938 -6.257812 4.304688 -6.257812 C 4.402344 -6.257812 5.429688 -5.332031 6.601562 -4.15625 C 7.824219 -3.03125 9.4375 -1.566406 10.171875 -0.976562 C 11.832031 0.246094 14.570312 1.710938 15.746094 2.054688 C 16.871094 2.347656 17.996094 2.347656 18.484375 2.054688 C 18.972656 1.808594 19.851562 0.734375 19.851562 0.488281 C 19.851562 0.34375 19.558594 0.246094 19.21875 0.246094 C 17.898438 0.246094 14.425781 -1.859375 11.636719 -4.449219 C 9.878906 -6.015625 6.0625 -10.074219 6.0625 -10.367188 C 6.0625 -10.414062 6.550781 -10.609375 7.140625 -10.808594 C 8.507812 -11.296875 11.246094 -12.910156 12.8125 -14.179688 C 16.480469 -17.210938 21.074219 -22.984375 21.808594 -25.527344 C 22.054688 -26.308594 22.054688 -26.550781 21.859375 -26.992188 C 21.761719 -27.285156 21.566406 -27.53125 21.46875 -27.53125 Z M 3.472656 -17.75 C 3.472656 -17.945312 3.519531 -17.996094 3.570312 -17.847656 C 3.667969 -17.703125 3.617188 -17.554688 3.570312 -17.507812 C 3.519531 -17.410156 3.472656 -17.554688 3.472656 -17.75 Z M 2.25 -3.910156 C 2.152344 -3.765625 1.957031 -5.867188 2.003906 -7.285156 C 2.003906 -8.558594 2.054688 -8.460938 2.199219 -6.355469 C 2.25 -5.035156 2.296875 -3.910156 2.25 -3.910156 Z M 2.445312 -3.03125 C 2.394531 -2.933594 2.394531 -3.03125 2.394531 -3.277344 C 2.394531 -3.519531 2.394531 -3.617188 2.445312 -3.519531 C 2.542969 -3.375 2.542969 -3.179688 2.445312 -3.03125 Z M 2.542969 -13.449219 C 2.542969 -13.691406 2.589844 -13.691406 2.640625 -13.546875 C 2.691406 -13.449219 2.691406 -13.25 2.640625 -13.203125 C 2.589844 -13.152344 2.542969 -13.25 2.542969 -13.449219 Z M 2.835938 -3.714844 C 2.691406 -3.570312 2.542969 -5.476562 2.542969 -6.894531 C 2.589844 -8.265625 2.589844 -8.167969 2.738281 -6.0625 C 2.835938 -4.792969 2.835938 -3.714844 2.835938 -3.714844 Z M 2.835938 -14.035156 C 2.789062 -13.9375 2.738281 -14.035156 2.738281 -14.277344 C 2.738281 -14.523438 2.789062 -14.621094 2.835938 -14.523438 C 2.886719 -14.375 2.886719 -14.179688 2.835938 -14.035156 Z M 3.03125 -15.0625 C 2.933594 -15.011719 2.933594 -15.109375 2.933594 -15.304688 C 2.933594 -15.550781 2.984375 -15.597656 3.03125 -15.453125 C 3.082031 -15.304688 3.082031 -15.109375 3.03125 -15.0625 Z M 3.570312 -14.230469 C 3.472656 -13.644531 3.324219 -13.152344 3.226562 -13.054688 C 3.128906 -12.957031 3.277344 -13.984375 3.617188 -15.304688 C 3.863281 -16.382812 3.863281 -15.5 3.570312 -14.230469 Z M 4.011719 -16.429688 C 3.8125 -15.941406 3.8125 -16.429688 4.011719 -17.066406 C 4.15625 -17.457031 4.15625 -17.457031 4.15625 -17.164062 C 4.15625 -16.96875 4.109375 -16.625 4.011719 -16.429688 Z M 15.84375 0.636719 C 15.941406 0.636719 16.1875 0.734375 16.332031 0.832031 C 16.480469 0.929688 16.527344 0.976562 16.429688 0.976562 C 16.332031 0.976562 16.089844 0.929688 15.941406 0.832031 C 15.792969 0.734375 15.746094 0.636719 15.84375 0.636719 Z M 11.589844 -39.070312 C 11.636719 -39.070312 11.394531 -38.484375 11.003906 -37.75 C 10.660156 -37.066406 9.976562 -35.597656 9.488281 -34.574219 C 9.046875 -33.496094 8.167969 -31.34375 7.53125 -29.730469 C 6.945312 -28.167969 6.453125 -26.945312 6.453125 -27.089844 C 6.40625 -27.972656 11.148438 -39.070312 11.589844 -39.070312 Z M 4.402344 -21.074219 C 4.402344 -21.320312 4.449219 -21.371094 4.5 -21.222656 C 4.597656 -21.074219 4.546875 -20.929688 4.5 -20.832031 C 4.449219 -20.78125 4.402344 -20.878906 4.402344 -21.074219 Z M 4.207031 -17.847656 C 4.207031 -18.53125 7.238281 -27.824219 8.703125 -31.492188 C 9.632812 -33.789062 11.832031 -38.730469 12.078125 -38.972656 C 12.273438 -39.167969 11.929688 -38.386719 11.101562 -36.480469 C 9.390625 -32.8125 7.871094 -28.851562 6.113281 -23.617188 C 5.769531 -22.542969 5.183594 -20.734375 4.839844 -19.609375 C 4.5 -18.484375 4.207031 -17.703125 4.207031 -17.847656 Z M 8.117188 -4.890625 C 7.871094 -5.183594 7.871094 -5.230469 8.167969 -4.988281 C 8.363281 -4.839844 8.507812 -4.695312 8.507812 -4.644531 C 8.507812 -4.5 8.363281 -4.597656 8.117188 -4.890625 Z M 9.730469 -3.421875 C 9.191406 -3.863281 9.046875 -4.109375 9.339844 -3.863281 C 9.632812 -3.667969 10.074219 -3.277344 10.367188 -3.03125 C 11.050781 -2.296875 10.757812 -2.445312 9.730469 -3.421875 Z M 12.664062 -1.027344 C 12.078125 -1.417969 11.394531 -1.957031 11.199219 -2.199219 L 10.808594 -2.640625 L 11.296875 -2.25 C 11.539062 -2.003906 12.226562 -1.515625 12.8125 -1.125 C 13.398438 -0.734375 13.886719 -0.390625 13.886719 -0.34375 C 13.886719 -0.246094 13.839844 -0.292969 12.664062 -1.027344 Z M 15.597656 0.539062 C 15.597656 0.683594 15.597656 0.683594 14.769531 0.246094 C 14.425781 0.0507812 14.082031 -0.148438 14.082031 -0.195312 C 14.082031 -0.246094 14.425781 -0.148438 14.816406 0.0976562 C 15.257812 0.292969 15.597656 0.488281 15.597656 0.539062 Z M 15.304688 -0.0976562 C 15.597656 0.195312 15.304688 0.0976562 14.523438 -0.390625 C 14.082031 -0.683594 13.691406 -0.929688 13.691406 -0.976562 C 13.691406 -1.074219 14.964844 -0.34375 15.304688 -0.0976562 Z M 12.03125 -2.25 C 12.714844 -1.761719 13.351562 -1.269531 13.449219 -1.222656 C 13.546875 -1.125 13.546875 -1.027344 13.496094 -1.027344 C 12.859375 -1.027344 5.527344 -7.96875 4.9375 -9.046875 C 4.839844 -9.339844 5.085938 -9.09375 5.527344 -8.605469 C 6.894531 -6.992188 10.757812 -3.226562 12.03125 -2.25 Z M 19.511719 -26.699219 C 19.609375 -26.75 19.558594 -26.601562 19.414062 -26.308594 C 19.21875 -26.0625 19.023438 -25.820312 18.972656 -25.820312 C 18.875 -25.820312 19.316406 -26.550781 19.511719 -26.699219 Z M 18.335938 -24.9375 C 18.632812 -25.132812 18.632812 -25.132812 18.386719 -24.839844 C 18.140625 -24.546875 17.996094 -24.449219 17.996094 -24.597656 C 17.996094 -24.644531 18.140625 -24.792969 18.335938 -24.9375 Z M 17.75 -24.15625 C 18.042969 -24.402344 18.09375 -24.402344 17.847656 -24.109375 C 17.605469 -23.8125 17.457031 -23.714844 17.457031 -23.863281 C 17.457031 -23.910156 17.605469 -24.058594 17.75 -24.15625 Z M 13.25 -17.996094 C 13.449219 -18.191406 13.644531 -18.386719 13.691406 -18.386719 C 13.742188 -18.386719 13.644531 -18.191406 13.449219 -17.996094 C 13.25 -17.800781 13.054688 -17.652344 13.007812 -17.652344 C 12.957031 -17.652344 13.054688 -17.800781 13.25 -17.996094 Z M 18.582031 -23.226562 C 17.75 -21.957031 16.089844 -20 14.671875 -18.484375 C 13.9375 -17.75 13.007812 -16.820312 12.566406 -16.429688 C 12.128906 -15.992188 12.664062 -16.625 13.789062 -17.800781 C 14.914062 -18.972656 16.429688 -20.734375 17.210938 -21.710938 C 18.875 -23.863281 19.363281 -24.351562 18.582031 -23.226562 Z M 19.902344 -25.183594 C 19.804688 -24.988281 19.558594 -24.644531 19.414062 -24.449219 L 19.121094 -24.058594 L 19.265625 -24.449219 C 19.363281 -24.644531 19.609375 -24.988281 19.753906 -25.183594 L 20.050781 -25.574219 Z M 20.390625 -26.992188 C 18.972656 -24.644531 16.675781 -21.566406 14.914062 -19.609375 C 14.472656 -19.167969 13.984375 -18.730469 13.886719 -18.632812 C 13.742188 -18.53125 14.230469 -19.167969 14.964844 -19.953125 C 16.527344 -21.761719 18.140625 -23.863281 19.558594 -26.0625 C 20.636719 -27.675781 21.222656 -28.363281 20.390625 -26.992188 Z M 20.390625 -26.992188 "/></g></g></g><g fill="rgb(23.919678%, 23.919678%, 23.919678%)" fill-opacity="1"><g transform="translate(256.120661, 203.999987)"><g><path d="M 11.832031 -23.277344 C 11.441406 -23.519531 10.757812 -23.960938 10.316406 -24.253906 C 8.800781 -25.332031 6.847656 -24.890625 4.890625 -23.082031 C 3.375 -21.664062 2.492188 -19.902344 2.199219 -17.800781 C 1.957031 -15.597656 2.640625 -13.644531 4.839844 -10.464844 C 6.160156 -8.507812 6.503906 -7.53125 6.355469 -6.113281 C 6.160156 -4.058594 4.546875 -2.492188 2.394531 -2.199219 C 1.371094 -2.054688 1.320312 -2.054688 0.585938 -2.691406 C 0.148438 -3.03125 -0.34375 -3.519531 -0.488281 -3.765625 C -0.636719 -4.058594 -0.832031 -4.253906 -0.929688 -4.207031 C -1.027344 -4.207031 -1.171875 -4.304688 -1.269531 -4.449219 C -1.371094 -4.644531 -1.515625 -4.546875 -1.859375 -4.109375 C -2.101562 -3.8125 -2.347656 -3.421875 -2.347656 -3.226562 C -2.347656 -2.347656 0.539062 -0.292969 2.691406 0.390625 C 3.226562 0.539062 4.109375 0.585938 5.183594 0.539062 C 7.824219 0.390625 9.632812 -0.636719 10.609375 -2.640625 C 11.050781 -3.570312 11.101562 -3.8125 11.050781 -5.035156 C 10.953125 -6.550781 10.609375 -7.238281 8.753906 -10.21875 C 8.070312 -11.246094 7.335938 -12.566406 7.140625 -13.152344 C 6.308594 -15.304688 6.992188 -18.289062 8.753906 -20.246094 C 9.390625 -20.929688 10.269531 -21.566406 10.609375 -21.566406 C 10.710938 -21.566406 10.710938 -20.488281 10.609375 -19.21875 L 10.511719 -16.871094 L 11.101562 -16.625 C 11.441406 -16.480469 11.636719 -16.332031 11.539062 -16.332031 C 11.441406 -16.332031 11.441406 -16.234375 11.589844 -16.136719 C 12.128906 -15.597656 13.105469 -16.871094 13.59375 -18.730469 C 13.839844 -19.707031 13.886719 -20.050781 13.691406 -20.78125 C 13.398438 -21.859375 12.8125 -22.691406 11.832031 -23.277344 Z M 8.949219 -4.253906 C 9.09375 -4.597656 9.191406 -4.742188 9.191406 -4.597656 C 9.191406 -4.304688 8.65625 -3.277344 8.65625 -3.519531 C 8.65625 -3.570312 8.753906 -3.910156 8.949219 -4.253906 Z M 8.3125 -4.792969 C 8.558594 -5.964844 8.605469 -6.0625 8.65625 -5.332031 C 8.65625 -4.9375 8.507812 -4.5 8.363281 -4.304688 C 8.167969 -3.960938 8.117188 -4.011719 8.3125 -4.792969 Z M 8.019531 -5.574219 C 8.070312 -5.429688 8.070312 -5.230469 8.019531 -5.085938 C 7.96875 -4.988281 7.921875 -5.085938 7.921875 -5.332031 C 7.921875 -5.574219 7.96875 -5.722656 8.019531 -5.574219 Z M 4.109375 -18.238281 C 4.058594 -18.191406 4.011719 -18.289062 4.011719 -18.484375 C 4.011719 -18.730469 4.058594 -18.730469 4.109375 -18.582031 C 4.15625 -18.484375 4.15625 -18.289062 4.109375 -18.238281 Z M 4.546875 -17.457031 C 4.546875 -17.261719 4.5 -17.066406 4.402344 -17.015625 C 4.109375 -16.820312 4.5 -18.679688 4.890625 -19.460938 C 5.132812 -19.902344 5.332031 -20.246094 5.378906 -20.246094 C 5.429688 -20.246094 5.230469 -19.707031 4.988281 -19.023438 C 4.742188 -18.335938 4.546875 -17.652344 4.546875 -17.457031 Z M 6.113281 -19.902344 C 5.867188 -19.316406 5.527344 -18.582031 5.378906 -18.191406 L 5.132812 -17.554688 L 5.230469 -18.191406 C 5.332031 -18.925781 5.820312 -19.953125 6.308594 -20.539062 C 6.503906 -20.734375 6.40625 -20.441406 6.113281 -19.902344 Z M 11.929688 -18.433594 C 11.882812 -18.386719 11.832031 -18.484375 11.832031 -18.679688 C 11.832031 -18.875 11.882812 -18.925781 11.929688 -18.777344 C 11.980469 -18.679688 11.980469 -18.484375 11.929688 -18.433594 Z M 11.929688 -18.433594 "/></g></g></g><g fill="rgb(23.919678%, 23.919678%, 23.919678%)" fill-opacity="1"><g transform="translate(269.956693, 203.999987)"><g><path d="M 2.589844 -28.605469 C 3.617188 -28.507812 4.5 -28.410156 4.5 -28.410156 C 4.5 -28.363281 4.15625 -27.285156 3.714844 -25.917969 C 0.878906 -17.507812 -0.441406 -9.78125 0.292969 -5.527344 C 0.734375 -2.984375 1.90625 -1.46875 4.449219 -0.148438 C 5.917969 0.636719 6.796875 0.734375 6.945312 0.292969 C 6.992188 0.148438 6.652344 -0.0976562 6.160156 -0.34375 C 5.085938 -0.78125 4.644531 -1.613281 4.351562 -3.765625 C 3.863281 -7.285156 4.890625 -12.566406 8.460938 -24.644531 L 9.488281 -28.019531 L 12.46875 -28.019531 C 16.332031 -28.070312 17.015625 -28.167969 17.457031 -28.996094 C 17.652344 -29.339844 17.75 -29.683594 17.703125 -29.730469 C 17.605469 -29.925781 13.839844 -30.464844 11.636719 -30.613281 L 10.21875 -30.710938 L 10.5625 -32.078125 C 10.757812 -32.8125 10.90625 -33.789062 10.90625 -34.328125 C 10.953125 -35.160156 10.90625 -35.304688 10.414062 -35.648438 C 10.121094 -35.84375 9.683594 -36.234375 9.4375 -36.480469 C 8.898438 -36.96875 8.703125 -37.066406 8.3125 -36.773438 C 8.019531 -36.527344 6.894531 -34.277344 6.113281 -32.421875 C 5.625 -31.101562 5.574219 -31.050781 5.035156 -31.148438 C 4.742188 -31.199219 3.714844 -31.296875 2.789062 -31.34375 C 1.027344 -31.492188 0.292969 -31.296875 0.292969 -30.757812 C 0.292969 -30.613281 0.0976562 -30.316406 -0.0976562 -30.121094 C -0.929688 -29.292969 -0.246094 -28.949219 2.589844 -28.605469 Z M 1.859375 -11.34375 C 1.808594 -11.296875 1.761719 -11.394531 1.761719 -11.589844 C 1.808594 -11.832031 1.808594 -11.882812 1.90625 -11.734375 C 1.957031 -11.589844 1.957031 -11.441406 1.859375 -11.34375 Z M 2.054688 -8.851562 C 2.003906 -8.703125 2.003906 -8.800781 2.003906 -9.09375 C 2.003906 -9.339844 2.003906 -9.4375 2.054688 -9.289062 C 2.101562 -9.191406 2.101562 -8.949219 2.054688 -8.851562 Z M 3.570312 -19.707031 C 3.617188 -20.050781 3.765625 -20.539062 3.863281 -20.734375 C 3.960938 -20.976562 3.960938 -20.878906 3.863281 -20.441406 C 3.8125 -20.097656 3.714844 -19.609375 3.617188 -19.414062 C 3.472656 -19.167969 3.472656 -19.265625 3.570312 -19.707031 Z M 3.277344 -18.679688 C 3.277344 -18.925781 3.324219 -18.972656 3.375 -18.777344 C 3.421875 -18.679688 3.421875 -18.484375 3.375 -18.433594 C 3.324219 -18.386719 3.277344 -18.484375 3.277344 -18.679688 Z M 3.082031 -17.945312 C 3.082031 -18.140625 3.128906 -18.191406 3.179688 -18.042969 C 3.226562 -17.945312 3.226562 -17.75 3.179688 -17.703125 C 3.128906 -17.652344 3.082031 -17.75 3.082031 -17.945312 Z M 2.886719 -17.210938 C 2.886719 -17.410156 2.933594 -17.457031 3.03125 -17.3125 C 3.082031 -17.164062 3.082031 -17.015625 2.984375 -16.96875 C 2.933594 -16.871094 2.886719 -17.015625 2.886719 -17.210938 Z M 2.691406 -16.429688 C 2.738281 -16.675781 2.789062 -16.722656 2.835938 -16.578125 C 2.886719 -16.429688 2.886719 -16.285156 2.789062 -16.1875 C 2.738281 -16.136719 2.691406 -16.234375 2.691406 -16.429688 Z M 2.542969 -15.5 C 2.542969 -15.746094 2.589844 -15.792969 2.640625 -15.648438 C 2.691406 -15.5 2.691406 -15.355469 2.640625 -15.257812 C 2.542969 -15.207031 2.492188 -15.304688 2.542969 -15.5 Z M 2.347656 -14.570312 C 2.445312 -15.0625 2.445312 -15.109375 2.445312 -14.671875 C 2.492188 -14.425781 2.394531 -13.984375 2.347656 -13.742188 C 2.199219 -13.351562 2.152344 -13.351562 2.199219 -13.644531 C 2.199219 -13.839844 2.25 -14.277344 2.347656 -14.570312 Z M 9.289062 -35.304688 C 9.488281 -35.5 9.390625 -35.160156 8.65625 -33.105469 C 7.96875 -31.101562 7.726562 -30.613281 7.726562 -31.003906 C 7.726562 -31.199219 9.191406 -35.207031 9.289062 -35.304688 Z M 7.726562 -32.371094 C 7.824219 -32.519531 7.921875 -32.566406 7.921875 -32.46875 C 7.921875 -32.371094 7.824219 -32.175781 7.726562 -31.980469 C 7.628906 -31.832031 7.53125 -31.785156 7.53125 -31.882812 C 7.53125 -32.03125 7.628906 -32.226562 7.726562 -32.371094 Z M 6.308594 -26.210938 C 5.625 -24.058594 3.863281 -17.996094 3.324219 -15.792969 C 3.179688 -15.011719 2.835938 -13.300781 2.589844 -11.980469 C 2.347656 -10.609375 2.152344 -9.78125 2.152344 -10.121094 C 2.152344 -10.808594 2.738281 -14.277344 3.226562 -16.382812 C 4.109375 -20.050781 6.453125 -27.773438 6.796875 -28.167969 C 7.042969 -28.410156 7.042969 -28.3125 6.308594 -26.210938 Z M 6.0625 -27.726562 C 6.160156 -27.871094 6.210938 -27.921875 6.210938 -27.824219 C 6.210938 -27.726562 6.160156 -27.480469 6.0625 -27.335938 C 5.964844 -27.1875 5.867188 -27.140625 5.867188 -27.238281 C 5.867188 -27.335938 5.964844 -27.578125 6.0625 -27.726562 Z M 5.769531 -26.75 C 5.820312 -26.699219 5.429688 -25.429688 4.9375 -23.863281 C 4.449219 -22.347656 4.011719 -21.171875 4.011719 -21.320312 C 4.011719 -21.613281 5.671875 -26.847656 5.769531 -26.75 Z M 5.769531 -26.75 "/></g></g></g><g fill="rgb(23.919678%, 23.919678%, 23.919678%)" fill-opacity="1"><g transform="translate(278.170312, 203.999987)"><g><path d="M 6.847656 -23.421875 C 6.601562 -23.324219 6.503906 -23.421875 6.503906 -23.570312 C 6.503906 -23.714844 6.355469 -23.765625 6.210938 -23.714844 C 6.0625 -23.667969 5.917969 -23.765625 5.820312 -24.011719 C 5.671875 -24.546875 5.183594 -24.742188 4.695312 -24.546875 C 3.472656 -24.109375 1.222656 -17.015625 0.441406 -11.199219 C -0.441406 -5.183594 0.78125 -1.664062 4.304688 0.148438 C 5.574219 0.78125 6.113281 0.683594 5.625 -0.148438 C 4.9375 -1.417969 4.742188 -2.199219 4.644531 -4.207031 C 4.546875 -6.945312 4.742188 -8.214844 6.40625 -15.160156 C 8.117188 -22.394531 8.117188 -22.492188 7.628906 -23.082031 C 7.382812 -23.375 7.089844 -23.472656 6.847656 -23.421875 Z M 4.207031 -19.753906 C 4.253906 -19.65625 4.253906 -19.460938 4.15625 -19.414062 C 4.109375 -19.363281 4.058594 -19.460938 4.058594 -19.65625 C 4.058594 -19.851562 4.109375 -19.902344 4.207031 -19.753906 Z M 3.421875 -17.3125 C 3.472656 -17.652344 3.617188 -18.140625 3.714844 -18.335938 C 3.8125 -18.582031 3.8125 -18.53125 3.765625 -18.042969 C 3.667969 -17.703125 3.570312 -17.261719 3.472656 -17.015625 C 3.375 -16.773438 3.324219 -16.871094 3.421875 -17.3125 Z M 2.492188 -13.449219 C 2.691406 -14.523438 3.277344 -16.675781 3.277344 -16.429688 C 3.324219 -16.285156 3.128906 -15.453125 2.933594 -14.523438 C 2.542969 -12.910156 2.25 -12.226562 2.492188 -13.449219 Z M 2.347656 -12.421875 C 2.347656 -12.226562 2.347656 -11.980469 2.296875 -11.882812 C 2.25 -11.734375 2.25 -11.882812 2.25 -12.175781 C 2.25 -12.519531 2.296875 -12.617188 2.347656 -12.421875 Z M 1.761719 -8.214844 C 1.664062 -8.167969 1.664062 -8.265625 1.664062 -8.460938 C 1.664062 -8.703125 1.710938 -8.753906 1.761719 -8.605469 C 1.808594 -8.460938 1.808594 -8.3125 1.761719 -8.214844 Z M 2.003906 -10.90625 C 2.101562 -11.492188 2.152344 -11.539062 2.152344 -11.050781 C 2.152344 -10.757812 2.101562 -10.269531 2.003906 -9.976562 C 1.808594 -9.191406 1.808594 -9.925781 2.003906 -10.90625 Z M 2.152344 -6.652344 C 2.101562 -6.503906 2.054688 -6.652344 2.054688 -6.992188 C 2.054688 -7.285156 2.101562 -7.382812 2.152344 -7.1875 C 2.199219 -7.042969 2.199219 -6.75 2.152344 -6.652344 Z M 2.394531 -8.753906 C 2.25 -7.628906 2.25 -7.628906 2.199219 -8.363281 C 2.152344 -10.074219 3.519531 -16.1875 4.9375 -20.734375 C 5.28125 -21.90625 5.671875 -22.886719 5.769531 -22.886719 C 5.867188 -22.886719 5.867188 -22.835938 5.820312 -22.738281 C 5.476562 -22.152344 3.472656 -14.523438 2.835938 -11.441406 C 2.691406 -10.609375 2.492188 -9.390625 2.394531 -8.753906 Z M 3.421875 -11.101562 C 3.375 -11.003906 3.324219 -11.101562 3.324219 -11.34375 C 3.324219 -11.589844 3.375 -11.734375 3.421875 -11.589844 C 3.472656 -11.441406 3.472656 -11.246094 3.421875 -11.101562 Z M 3.617188 -11.980469 C 3.570312 -11.882812 3.519531 -12.03125 3.519531 -12.226562 C 3.519531 -12.421875 3.570312 -12.46875 3.617188 -12.324219 C 3.667969 -12.175781 3.667969 -12.03125 3.617188 -11.980469 Z M 3.960938 -13.644531 C 3.910156 -13.59375 3.863281 -13.691406 3.863281 -13.886719 C 3.910156 -14.082031 3.960938 -14.132812 4.011719 -13.984375 C 4.058594 -13.839844 4.058594 -13.691406 3.960938 -13.644531 Z M 4.253906 -14.71875 C 4.109375 -14.328125 4.109375 -14.328125 4.109375 -14.621094 C 4.109375 -14.816406 4.15625 -15.207031 4.253906 -15.453125 C 4.351562 -15.84375 4.402344 -15.84375 4.402344 -15.550781 C 4.402344 -15.355469 4.304688 -14.964844 4.253906 -14.71875 Z M 4.546875 -16.039062 C 4.5 -15.992188 4.449219 -16.089844 4.449219 -16.285156 C 4.449219 -16.527344 4.5 -16.578125 4.546875 -16.429688 C 4.597656 -16.285156 4.597656 -16.136719 4.546875 -16.039062 Z M 4.742188 -16.820312 C 4.644531 -16.722656 4.644531 -16.871094 4.644531 -17.066406 C 4.644531 -17.261719 4.695312 -17.3125 4.742188 -17.164062 C 4.792969 -17.015625 4.792969 -16.871094 4.742188 -16.820312 Z M 5.671875 -20.097656 C 5.28125 -18.925781 4.988281 -18.09375 4.988281 -18.191406 C 4.988281 -18.582031 6.160156 -22.59375 6.257812 -22.394531 C 6.257812 -22.296875 6.015625 -21.273438 5.671875 -20.097656 Z M 9.488281 -32.03125 C 8.800781 -32.03125 6.992188 -30.90625 5.476562 -29.535156 C 4.597656 -28.753906 4.597656 -28.703125 4.839844 -28.167969 C 4.988281 -27.773438 5.183594 -27.628906 5.378906 -27.675781 C 5.574219 -27.726562 5.722656 -27.628906 5.722656 -27.53125 C 5.722656 -27.433594 5.917969 -27.480469 6.160156 -27.675781 C 6.40625 -27.871094 6.453125 -27.921875 6.355469 -27.773438 C 6.113281 -27.480469 6.015625 -26.796875 6.210938 -26.601562 C 6.453125 -26.355469 6.992188 -26.550781 7.285156 -27.042969 C 7.824219 -27.921875 9.488281 -29.4375 10.316406 -29.828125 C 10.757812 -30.023438 11.148438 -30.316406 11.148438 -30.464844 C 11.148438 -30.710938 9.78125 -32.03125 9.488281 -32.03125 Z M 9.488281 -32.03125 "/></g></g></g><g fill="rgb(23.919678%, 23.919678%, 23.919678%)" fill-opacity="1"><g transform="translate(286.041695, 203.999987)"><g><path d="M 11.6875 -38.828125 C 11.441406 -39.023438 11.003906 -39.414062 10.710938 -39.707031 C 10.269531 -40.148438 10.121094 -40.195312 9.730469 -40.050781 C 9.488281 -39.953125 9.144531 -39.707031 8.996094 -39.511719 C 8.363281 -38.828125 7.285156 -36.871094 6.550781 -35.160156 C 4.9375 -31.441406 2.101562 -22.25 1.125 -17.75 C 0.246094 -13.691406 0.148438 -13.007812 0.148438 -8.996094 C 0.148438 -5.429688 0.195312 -4.9375 0.585938 -3.765625 C 1.320312 -1.320312 2.296875 -0.34375 4.449219 0.390625 C 5.820312 0.832031 6.550781 0.34375 5.574219 -0.390625 C 5.332031 -0.636719 4.890625 -1.320312 4.695312 -1.90625 C 4.304688 -2.933594 4.253906 -3.324219 4.253906 -6.453125 C 4.304688 -9.488281 4.351562 -10.21875 4.792969 -12.324219 C 5.625 -16.234375 6.992188 -21.027344 9.585938 -28.949219 C 10.90625 -33.054688 12.03125 -36.820312 12.128906 -37.410156 C 12.175781 -38.335938 12.175781 -38.484375 11.6875 -38.828125 Z M 8.703125 -36.089844 C 8.851562 -36.382812 8.996094 -36.480469 8.996094 -36.382812 C 8.996094 -36.285156 8.851562 -35.992188 8.703125 -35.746094 C 8.558594 -35.5 8.460938 -35.355469 8.460938 -35.453125 C 8.460938 -35.550781 8.558594 -35.84375 8.703125 -36.089844 Z M 8.265625 -35.011719 C 8.363281 -35.160156 8.460938 -35.207031 8.460938 -35.0625 C 8.460938 -34.964844 8.363281 -34.769531 8.265625 -34.621094 C 8.167969 -34.472656 8.070312 -34.425781 8.070312 -34.523438 C 8.070312 -34.621094 8.167969 -34.816406 8.265625 -35.011719 Z M 7.871094 -34.082031 C 7.96875 -34.230469 8.070312 -34.277344 8.070312 -34.132812 C 8.070312 -34.035156 7.96875 -33.839844 7.871094 -33.691406 C 7.773438 -33.546875 7.726562 -33.496094 7.726562 -33.59375 C 7.726562 -33.691406 7.773438 -33.886719 7.871094 -34.082031 Z M 7.53125 -33.105469 C 7.628906 -33.300781 7.675781 -33.300781 7.675781 -33.203125 C 7.675781 -33.105469 7.628906 -32.910156 7.53125 -32.761719 C 7.433594 -32.617188 7.335938 -32.566406 7.335938 -32.664062 C 7.335938 -32.761719 7.433594 -32.957031 7.53125 -33.105469 Z M 6.894531 -31.441406 C 6.945312 -31.6875 7.089844 -32.03125 7.1875 -32.175781 C 7.285156 -32.371094 7.285156 -32.324219 7.238281 -32.03125 C 7.140625 -31.734375 7.042969 -31.394531 6.945312 -31.246094 C 6.796875 -31.050781 6.796875 -31.148438 6.894531 -31.441406 Z M 6.40625 -30.074219 C 6.601562 -30.5625 6.75 -30.855469 6.75 -30.710938 C 6.75 -30.5625 6.601562 -30.023438 6.40625 -29.488281 C 6.210938 -28.996094 6.0625 -28.703125 6.0625 -28.851562 C 6.0625 -28.996094 6.210938 -29.535156 6.40625 -30.074219 Z M 5.820312 -28.265625 C 5.917969 -28.460938 6.015625 -28.460938 6.015625 -28.363281 C 5.964844 -28.019531 5.671875 -27.433594 5.671875 -27.726562 C 5.671875 -27.871094 5.722656 -28.117188 5.820312 -28.265625 Z M 1.515625 -7.089844 C 1.46875 -6.796875 1.417969 -7.042969 1.417969 -7.578125 C 1.417969 -8.167969 1.46875 -8.410156 1.515625 -8.117188 C 1.566406 -7.824219 1.566406 -7.382812 1.515625 -7.089844 Z M 1.664062 -11.003906 C 1.613281 -10.808594 1.613281 -10.953125 1.613281 -11.296875 C 1.613281 -11.6875 1.613281 -11.832031 1.664062 -11.636719 C 1.710938 -11.492188 1.710938 -11.199219 1.664062 -11.003906 Z M 1.859375 -12.859375 C 1.90625 -12.714844 1.90625 -12.519531 1.859375 -12.371094 C 1.808594 -12.273438 1.761719 -12.371094 1.761719 -12.617188 C 1.761719 -12.859375 1.808594 -13.007812 1.859375 -12.859375 Z M 2.738281 -10.316406 C 2.640625 -9.390625 2.589844 -8.605469 2.542969 -8.558594 C 2.445312 -8.410156 2.492188 -10.511719 2.640625 -11.246094 C 2.789062 -11.734375 2.789062 -11.441406 2.738281 -10.316406 Z M 7.140625 -27.726562 C 6.503906 -25.820312 5.574219 -22.640625 4.988281 -20.636719 C 4.402344 -18.632812 3.667969 -15.890625 3.375 -14.472656 C 3.082031 -13.105469 2.886719 -12.421875 2.933594 -13.007812 C 3.082031 -14.179688 4.109375 -18.582031 4.839844 -20.976562 C 5.820312 -24.304688 8.117188 -31.296875 8.167969 -31.246094 C 8.214844 -31.199219 7.726562 -29.585938 7.140625 -27.726562 Z M 9.09375 -33.398438 C 8.605469 -32.128906 8.265625 -31.441406 8.558594 -32.371094 C 8.851562 -33.351562 9.4375 -34.816406 9.488281 -34.769531 C 9.535156 -34.71875 9.339844 -34.132812 9.09375 -33.398438 Z M 10.121094 -36.089844 C 10.023438 -35.941406 9.925781 -35.894531 9.925781 -36.039062 C 9.925781 -36.136719 10.023438 -36.332031 10.121094 -36.480469 C 10.21875 -36.625 10.316406 -36.675781 10.316406 -36.578125 C 10.316406 -36.480469 10.21875 -36.285156 10.121094 -36.089844 Z M 9.878906 -36.917969 C 8.703125 -34.230469 7.285156 -30.464844 6.160156 -26.796875 C 2.886719 -16.480469 2.054688 -12.46875 2.101562 -7.382812 C 2.101562 -5.867188 2.054688 -4.597656 2.003906 -4.597656 C 1.957031 -4.597656 1.90625 -4.988281 1.90625 -5.476562 C 1.90625 -5.964844 1.859375 -6.550781 1.808594 -6.75 C 1.664062 -7.53125 2.152344 -12.421875 2.589844 -14.769531 C 3.082031 -17.113281 4.011719 -20.78125 4.988281 -23.910156 C 6.113281 -27.578125 7.335938 -31.34375 8.019531 -33.152344 C 8.851562 -35.304688 10.511719 -38.972656 10.609375 -38.828125 C 10.660156 -38.828125 10.316406 -37.945312 9.878906 -36.917969 Z M 9.878906 -36.917969 "/></g></g></g><g fill="rgb(58.039856%, 49.798584%, 34.118652%)" fill-opacity="1"><g transform="translate(63.386213, 195.870148)"><g><path d="M 5.25 0.140625 C 4.351562 0.140625 3.488281 0 2.65625 -0.28125 C 1.820312 -0.5625 1.171875 -0.921875 0.703125 -1.359375 L 1.328125 -2.6875 C 1.773438 -2.28125 2.351562 -1.945312 3.0625 -1.6875 C 3.769531 -1.4375 4.5 -1.3125 5.25 -1.3125 C 6.238281 -1.3125 6.972656 -1.476562 7.453125 -1.8125 C 7.941406 -2.144531 8.1875 -2.585938 8.1875 -3.140625 C 8.1875 -3.546875 8.050781 -3.875 7.78125 -4.125 C 7.519531 -4.382812 7.191406 -4.582031 6.796875 -4.71875 C 6.410156 -4.863281 5.863281 -5.019531 5.15625 -5.1875 C 4.257812 -5.40625 3.535156 -5.617188 2.984375 -5.828125 C 2.429688 -6.046875 1.957031 -6.378906 1.5625 -6.828125 C 1.175781 -7.273438 0.984375 -7.878906 0.984375 -8.640625 C 0.984375 -9.273438 1.148438 -9.847656 1.484375 -10.359375 C 1.816406 -10.867188 2.320312 -11.273438 3 -11.578125 C 3.6875 -11.878906 4.535156 -12.03125 5.546875 -12.03125 C 6.242188 -12.03125 6.929688 -11.9375 7.609375 -11.75 C 8.296875 -11.570312 8.878906 -11.316406 9.359375 -10.984375 L 8.8125 -9.625 C 8.3125 -9.9375 7.773438 -10.175781 7.203125 -10.34375 C 6.640625 -10.507812 6.085938 -10.59375 5.546875 -10.59375 C 4.578125 -10.59375 3.851562 -10.414062 3.375 -10.0625 C 2.894531 -9.707031 2.65625 -9.253906 2.65625 -8.703125 C 2.65625 -8.296875 2.789062 -7.960938 3.0625 -7.703125 C 3.332031 -7.453125 3.664062 -7.253906 4.0625 -7.109375 C 4.46875 -6.972656 5.019531 -6.820312 5.71875 -6.65625 C 6.613281 -6.445312 7.332031 -6.234375 7.875 -6.015625 C 8.414062 -5.796875 8.878906 -5.46875 9.265625 -5.03125 C 9.660156 -4.59375 9.859375 -4 9.859375 -3.25 C 9.859375 -2.625 9.6875 -2.050781 9.34375 -1.53125 C 9.007812 -1.019531 8.492188 -0.613281 7.796875 -0.3125 C 7.109375 -0.0078125 6.257812 0.140625 5.25 0.140625 Z M 5.25 0.140625 "/></g></g></g><g fill="rgb(58.039856%, 49.798584%, 34.118652%)" fill-opacity="1"><g transform="translate(82.353426, 195.870148)"><g><path d="M 6.84375 -12.03125 C 8.03125 -12.03125 9.09375 -11.765625 10.03125 -11.234375 C 10.976562 -10.710938 11.722656 -9.988281 12.265625 -9.0625 C 12.804688 -8.144531 13.078125 -7.113281 13.078125 -5.96875 C 13.078125 -4.8125 12.804688 -3.765625 12.265625 -2.828125 C 11.734375 -1.898438 11.003906 -1.171875 10.078125 -0.640625 C 9.148438 -0.117188 8.109375 0.140625 6.953125 0.140625 C 5.785156 0.140625 4.734375 -0.125 3.796875 -0.65625 C 2.867188 -1.195312 2.140625 -1.929688 1.609375 -2.859375 C 1.078125 -3.796875 0.8125 -4.847656 0.8125 -6.015625 L 0.8125 -6.5 L 11.359375 -6.5 C 11.273438 -7.269531 11.023438 -7.957031 10.609375 -8.5625 C 10.203125 -9.175781 9.664062 -9.65625 9 -10 C 8.332031 -10.34375 7.609375 -10.515625 6.828125 -10.515625 C 6.109375 -10.515625 5.425781 -10.398438 4.78125 -10.171875 C 4.132812 -9.941406 3.570312 -9.59375 3.09375 -9.125 L 2.078125 -10.296875 C 2.640625 -10.847656 3.332031 -11.273438 4.15625 -11.578125 C 4.988281 -11.878906 5.882812 -12.03125 6.84375 -12.03125 Z M 6.953125 -1.328125 C 8.117188 -1.328125 9.09375 -1.660156 9.875 -2.328125 C 10.664062 -3.003906 11.148438 -3.910156 11.328125 -5.046875 L 2.5625 -5.046875 C 2.75 -3.910156 3.234375 -3.003906 4.015625 -2.328125 C 4.804688 -1.660156 5.785156 -1.328125 6.953125 -1.328125 Z M 6.953125 -1.328125 "/></g></g></g><g fill="rgb(58.039856%, 49.798584%, 34.118652%)" fill-opacity="1"><g transform="translate(104.651099, 195.870148)"><g><path d="M 1.78125 -11.90625 L 6.796875 -11.90625 C 8.054688 -11.90625 9.171875 -11.65625 10.140625 -11.15625 C 11.117188 -10.65625 11.875 -9.953125 12.40625 -9.046875 C 12.945312 -8.148438 13.21875 -7.117188 13.21875 -5.953125 C 13.21875 -4.785156 12.945312 -3.75 12.40625 -2.84375 C 11.875 -1.945312 11.117188 -1.25 10.140625 -0.75 C 9.171875 -0.25 8.054688 0 6.796875 0 L 1.78125 0 Z M 6.703125 -1.484375 C 7.660156 -1.484375 8.503906 -1.664062 9.234375 -2.03125 C 9.972656 -2.40625 10.539062 -2.929688 10.9375 -3.609375 C 11.332031 -4.285156 11.53125 -5.066406 11.53125 -5.953125 C 11.53125 -6.835938 11.332031 -7.613281 10.9375 -8.28125 C 10.539062 -8.957031 9.972656 -9.484375 9.234375 -9.859375 C 8.503906 -10.234375 7.660156 -10.421875 6.703125 -10.421875 L 3.484375 -10.421875 L 3.484375 -1.484375 Z M 6.703125 -1.484375 "/></g></g></g><g fill="rgb(58.039856%, 49.798584%, 34.118652%)" fill-opacity="1"><g transform="translate(127.101698, 195.870148)"><g><path d="M 6.84375 -12.03125 C 8.03125 -12.03125 9.09375 -11.765625 10.03125 -11.234375 C 10.976562 -10.710938 11.722656 -9.988281 12.265625 -9.0625 C 12.804688 -8.144531 13.078125 -7.113281 13.078125 -5.96875 C 13.078125 -4.8125 12.804688 -3.765625 12.265625 -2.828125 C 11.734375 -1.898438 11.003906 -1.171875 10.078125 -0.640625 C 9.148438 -0.117188 8.109375 0.140625 6.953125 0.140625 C 5.785156 0.140625 4.734375 -0.125 3.796875 -0.65625 C 2.867188 -1.195312 2.140625 -1.929688 1.609375 -2.859375 C 1.078125 -3.796875 0.8125 -4.847656 0.8125 -6.015625 L 0.8125 -6.5 L 11.359375 -6.5 C 11.273438 -7.269531 11.023438 -7.957031 10.609375 -8.5625 C 10.203125 -9.175781 9.664062 -9.65625 9 -10 C 8.332031 -10.34375 7.609375 -10.515625 6.828125 -10.515625 C 6.109375 -10.515625 5.425781 -10.398438 4.78125 -10.171875 C 4.132812 -9.941406 3.570312 -9.59375 3.09375 -9.125 L 2.078125 -10.296875 C 2.640625 -10.847656 3.332031 -11.273438 4.15625 -11.578125 C 4.988281 -11.878906 5.882812 -12.03125 6.84375 -12.03125 Z M 6.953125 -1.328125 C 8.117188 -1.328125 9.09375 -1.660156 9.875 -2.328125 C 10.664062 -3.003906 11.148438 -3.910156 11.328125 -5.046875 L 2.5625 -5.046875 C 2.75 -3.910156 3.234375 -3.003906 4.015625 -2.328125 C 4.804688 -1.660156 5.785156 -1.328125 6.953125 -1.328125 Z M 6.953125 -1.328125 "/></g></g></g><g fill="rgb(58.039856%, 49.798584%, 34.118652%)" fill-opacity="1"><g transform="translate(149.399371, 195.870148)"><g><path d="M 9.734375 0 L 7.171875 -3.65625 C 6.859375 -3.632812 6.609375 -3.625 6.421875 -3.625 L 3.484375 -3.625 L 3.484375 0 L 1.78125 0 L 1.78125 -11.90625 L 6.421875 -11.90625 C 7.960938 -11.90625 9.175781 -11.535156 10.0625 -10.796875 C 10.945312 -10.054688 11.390625 -9.039062 11.390625 -7.75 C 11.390625 -6.832031 11.160156 -6.050781 10.703125 -5.40625 C 10.253906 -4.757812 9.609375 -4.289062 8.765625 -4 L 11.59375 0 Z M 6.375 -5.0625 C 7.445312 -5.0625 8.265625 -5.289062 8.828125 -5.75 C 9.398438 -6.21875 9.6875 -6.882812 9.6875 -7.75 C 9.6875 -8.613281 9.398438 -9.273438 8.828125 -9.734375 C 8.265625 -10.191406 7.445312 -10.421875 6.375 -10.421875 L 3.484375 -10.421875 L 3.484375 -5.0625 Z M 6.375 -5.0625 "/></g></g></g><g fill="rgb(58.039856%, 49.798584%, 34.118652%)" fill-opacity="1"><g transform="translate(170.167752, 195.870148)"><g><path d="M 6.84375 -12.03125 C 8.03125 -12.03125 9.09375 -11.765625 10.03125 -11.234375 C 10.976562 -10.710938 11.722656 -9.988281 12.265625 -9.0625 C 12.804688 -8.144531 13.078125 -7.113281 13.078125 -5.96875 C 13.078125 -4.8125 12.804688 -3.765625 12.265625 -2.828125 C 11.734375 -1.898438 11.003906 -1.171875 10.078125 -0.640625 C 9.148438 -0.117188 8.109375 0.140625 6.953125 0.140625 C 5.785156 0.140625 4.734375 -0.125 3.796875 -0.65625 C 2.867188 -1.195312 2.140625 -1.929688 1.609375 -2.859375 C 1.078125 -3.796875 0.8125 -4.847656 0.8125 -6.015625 L 0.8125 -6.5 L 11.359375 -6.5 C 11.273438 -7.269531 11.023438 -7.957031 10.609375 -8.5625 C 10.203125 -9.175781 9.664062 -9.65625 9 -10 C 8.332031 -10.34375 7.609375 -10.515625 6.828125 -10.515625 C 6.109375 -10.515625 5.425781 -10.398438 4.78125 -10.171875 C 4.132812 -9.941406 3.570312 -9.59375 3.09375 -9.125 L 2.078125 -10.296875 C 2.640625 -10.847656 3.332031 -11.273438 4.15625 -11.578125 C 4.988281 -11.878906 5.882812 -12.03125 6.84375 -12.03125 Z M 6.953125 -1.328125 C 8.117188 -1.328125 9.09375 -1.660156 9.875 -2.328125 C 10.664062 -3.003906 11.148438 -3.910156 11.328125 -5.046875 L 2.5625 -5.046875 C 2.75 -3.910156 3.234375 -3.003906 4.015625 -2.328125 C 4.804688 -1.660156 5.785156 -1.328125 6.953125 -1.328125 Z M 6.953125 -1.328125 "/></g></g></g><g fill="rgb(58.039856%, 49.798584%, 34.118652%)" fill-opacity="1"><g transform="translate(192.46542, 195.870148)"><g><path d="M 5.65625 -5.28125 L 3.484375 -3.078125 L 3.484375 0 L 1.78125 0 L 1.78125 -11.90625 L 3.484375 -11.90625 L 3.484375 -5.25 L 9.9375 -11.90625 L 11.890625 -11.90625 L 6.796875 -6.546875 L 12.203125 0 L 10.21875 0 Z M 5.65625 -5.28125 "/></g></g></g></svg>