<svg xmlns="http://www.w3.org/2000/svg" xmlns:xlink="http://www.w3.org/1999/xlink" width="1500" zoomAndPan="magnify" viewBox="0 0 1125 112.499997" height="150" preserveAspectRatio="xMidYMid meet" version="1.0"><defs><g/><clipPath id="id1"><path d="M 2.488281 0 L 1122.511719 0 L 1122.511719 112.003906 L 2.488281 112.003906 Z M 2.488281 0 " clip-rule="nonzero"/></clipPath><clipPath id="id2"><path d="M 709 12.597656 L 796 12.597656 L 796 99.210938 L 709 99.210938 Z M 709 12.597656 " clip-rule="nonzero"/></clipPath></defs><g clip-path="url(#id1)"><path fill="rgb(100%, 100%, 100%)" d="M 2.488281 0 L 1122.511719 0 L 1122.511719 119.46875 L 2.488281 119.46875 Z M 2.488281 0 " fill-opacity="1" fill-rule="nonzero"/><path fill="rgb(100%, 79.60968%, 39.608765%)" d="M 2.488281 0 L 1122.511719 0 L 1122.511719 112.003906 L 2.488281 112.003906 Z M 2.488281 0 " fill-opacity="1" fill-rule="nonzero"/><path fill="rgb(100%, 100%, 100%)" d="M 2.488281 0 L 1122.511719 0 L 1122.511719 112.003906 L 2.488281 112.003906 Z M 2.488281 0 " fill-opacity="1" fill-rule="nonzero"/><path fill="rgb(100%, 79.60968%, 39.608765%)" d="M 2.488281 0 L 1122.511719 0 L 1122.511719 112.003906 L 2.488281 112.003906 Z M 2.488281 0 " fill-opacity="1" fill-rule="nonzero"/></g><g clip-path="url(#id2)"><path fill="rgb(46.269226%, 23.529053%, 0%)" d="M 793.683594 54.714844 C 791.667969 51.867188 788.398438 49.964844 786.992188 49.230469 C 790.574219 42.664062 790.554688 28.308594 789.570312 24.316406 C 788.484375 19.929688 784.652344 15.839844 780.261719 14.371094 C 776.984375 13.277344 774.222656 14.457031 773.1875 15.03125 C 772.230469 14.316406 769.671875 12.597656 767.3125 12.597656 C 764.636719 12.597656 760.910156 13.75 758.335938 19.265625 C 756.90625 22.34375 757.132812 26.488281 757.316406 29.816406 C 757.433594 31.933594 757.546875 33.925781 757.152344 34.792969 C 756.230469 36.820312 754.296875 36.847656 754.222656 36.847656 C 754.222656 36.847656 754.222656 36.847656 754.214844 36.847656 C 753.941406 36.847656 753.6875 37.011719 753.582031 37.273438 C 753.472656 37.535156 753.535156 37.832031 753.742188 38.03125 C 753.835938 38.125 756.164062 40.347656 758.886719 39.949219 C 760.054688 39.777344 760.882812 39.21875 761.4375 38.621094 C 761.890625 41.289062 762.773438 43.25 764.085938 44.480469 C 762.945312 46.011719 759.746094 50.464844 759.148438 53.132812 C 758.769531 54.839844 758.914062 56.46875 759.15625 57.648438 C 758.761719 57.292969 758.382812 56.832031 758.179688 56.28125 C 757.964844 55.738281 758.09375 54.308594 758.207031 53.042969 C 758.445312 50.355469 758.695312 47.570312 756.746094 47.285156 C 755.449219 47.082031 754.160156 48.6875 751.136719 52.660156 L 751.011719 52.183594 C 750.769531 51.269531 749.972656 50.660156 749.078125 50.605469 L 749.078125 38.105469 C 749.078125 34.222656 739.316406 32.125 730.136719 32.125 C 720.953125 32.125 711.199219 34.222656 711.199219 38.105469 L 711.199219 71.261719 C 710.476562 73.40625 709.164062 77.785156 709.164062 81.339844 C 709.164062 84.753906 710.183594 88.265625 710.789062 90.0625 C 711.0625 90.867188 711.199219 91.703125 711.199219 92.5625 L 711.199219 98.523438 C 711.199219 98.902344 711.503906 99.210938 711.886719 99.210938 L 790.292969 99.210938 C 790.585938 99.210938 790.855469 99.019531 790.945312 98.738281 C 790.972656 98.660156 791.535156 96.886719 791.535156 94.820312 C 791.535156 93.121094 790.800781 91.195312 790.5 90.453125 C 792.039062 87.53125 793.144531 84.199219 793.902344 81.59375 C 793.917969 81.550781 793.929688 81.511719 793.9375 81.46875 C 794.191406 80.625 794.398438 79.859375 794.578125 79.222656 L 794.761719 78.554688 C 794.769531 78.535156 794.769531 78.519531 794.777344 78.5 C 794.789062 78.449219 794.804688 78.402344 794.8125 78.355469 C 795.875 74.1875 796.875 59.222656 793.683594 54.714844 Z M 792.5625 55.511719 C 795.265625 59.328125 794.570312 72.984375 793.59375 77.550781 C 789.859375 77.605469 786.21875 76.882812 782.246094 75.296875 C 782.910156 72.292969 783.421875 69.035156 783.785156 65.464844 C 783.828125 65.085938 783.550781 64.75 783.171875 64.710938 C 782.800781 64.667969 782.457031 64.941406 782.417969 65.320312 C 782.03125 69.066406 781.488281 72.464844 780.757812 75.578125 C 780.523438 76.617188 780.261719 77.625 779.980469 78.601562 C 779.652344 79.765625 779.285156 80.878906 778.902344 81.949219 C 778.722656 81.796875 778.53125 81.648438 778.335938 81.496094 C 776.007812 79.695312 774.253906 78.972656 773.308594 78.683594 C 773.378906 78.339844 773.414062 77.992188 773.414062 77.625 C 773.414062 77.171875 773.359375 76.730469 773.253906 76.3125 L 774.617188 75.617188 C 774.960938 75.445312 775.089844 75.035156 774.917969 74.699219 C 774.746094 74.355469 774.335938 74.222656 773.992188 74.394531 L 772.757812 75.027344 C 772.210938 74.011719 771.34375 73.183594 770.296875 72.683594 L 771.425781 69.933594 C 771.570312 69.582031 771.398438 69.175781 771.046875 69.035156 C 770.703125 68.894531 770.296875 69.0625 770.152344 69.410156 L 769.546875 70.875 C 769.308594 69.664062 769.058594 68.105469 769.058594 66.714844 C 769.058594 65.128906 769.5 63.3125 769.863281 62.082031 C 770.867188 63.671875 772.015625 64.613281 772.042969 64.632812 C 772.167969 64.738281 772.320312 64.792969 772.46875 64.785156 C 772.585938 64.785156 772.703125 64.757812 772.808594 64.703125 C 773.054688 64.566406 773.191406 64.289062 773.160156 64.015625 C 773.152344 63.972656 772.644531 59.738281 774.507812 57.746094 C 775.289062 56.90625 776.445312 56.453125 777.910156 55.882812 C 780.023438 55.050781 782.65625 54.011719 785.492188 51.277344 C 785.757812 51.015625 786.011719 50.726562 786.246094 50.398438 C 787.484375 51.035156 790.671875 52.851562 792.5625 55.511719 Z M 768.199219 80.136719 C 768.007812 79.804688 767.585938 79.703125 767.257812 79.894531 C 766.933594 80.09375 766.832031 80.511719 767.023438 80.84375 L 767.546875 81.714844 C 767.121094 81.683594 766.707031 81.578125 766.328125 81.421875 C 766.320312 81.414062 766.320312 81.414062 766.320312 81.414062 C 765.488281 81.0625 764.792969 80.445312 764.347656 79.667969 C 764.332031 79.632812 764.3125 79.605469 764.292969 79.570312 C 763.984375 78.992188 763.804688 78.328125 763.804688 77.625 C 763.804688 77.191406 763.871094 76.773438 763.996094 76.382812 L 764.863281 76.925781 C 764.980469 76.992188 765.105469 77.027344 765.226562 77.027344 C 765.453125 77.027344 765.683594 76.917969 765.8125 76.703125 C 766.011719 76.390625 765.914062 75.960938 765.59375 75.761719 L 764.628906 75.160156 C 765.117188 74.503906 765.800781 74.011719 766.582031 73.742188 C 767.003906 73.589844 767.449219 73.515625 767.917969 73.515625 C 768.097656 73.515625 768.273438 73.527344 768.445312 73.550781 L 767.46875 75.929688 C 767.324219 76.285156 767.496094 76.683594 767.847656 76.828125 C 767.929688 76.863281 768.019531 76.882812 768.109375 76.882812 C 768.378906 76.882812 768.632812 76.71875 768.742188 76.449219 L 769.765625 73.957031 C 770.515625 74.332031 771.128906 74.925781 771.535156 75.652344 L 770.585938 76.132812 C 770.25 76.304688 770.117188 76.726562 770.289062 77.0625 C 770.40625 77.296875 770.648438 77.433594 770.902344 77.433594 C 771.003906 77.433594 771.117188 77.414062 771.210938 77.359375 L 771.980469 76.964844 C 772.015625 77.179688 772.039062 77.398438 772.039062 77.625 C 772.039062 78.105469 771.953125 78.5625 771.804688 78.988281 C 771.363281 80.238281 770.339844 81.207031 769.058594 81.570312 Z M 762.257812 82.980469 C 762.574219 82.15625 763.007812 81.488281 763.570312 80.96875 C 763.941406 81.449219 764.390625 81.867188 764.890625 82.199219 C 764.304688 82.835938 763.878906 83.578125 763.625 84.402344 C 763.019531 83.773438 762.539062 83.277344 762.257812 82.980469 Z M 759.699219 81.570312 C 759.664062 81.558594 759.636719 81.542969 759.601562 81.53125 C 758.027344 80.753906 755.964844 79.660156 754.863281 78.699219 C 753.335938 77.363281 751.507812 74.65625 750.785156 73.550781 C 750.585938 73.234375 750.472656 72.882812 750.46875 72.53125 C 750.46875 72.140625 750.53125 71.597656 750.824219 71.191406 C 751.066406 70.867188 751.449219 70.566406 751.953125 70.3125 C 752.703125 69.941406 753.226562 69.253906 753.390625 68.429688 C 753.492188 67.917969 753.679688 67.492188 753.933594 67.199219 C 754.359375 66.695312 755.234375 66.578125 755.730469 66.566406 L 757.484375 68.320312 C 757.75 68.585938 758.183594 68.585938 758.453125 68.320312 C 758.722656 68.050781 758.722656 67.609375 758.453125 67.34375 L 756.140625 65.03125 C 755.765625 64.660156 755.757812 64.0625 756.121094 63.679688 C 756.484375 63.285156 757.097656 63.265625 757.488281 63.625 L 759.90625 65.824219 L 759.953125 65.871094 L 760.371094 66.25 C 760.570312 66.441406 760.722656 66.683594 760.792969 66.949219 L 761.246094 68.695312 C 761.328125 69.003906 761.601562 69.210938 761.914062 69.210938 C 761.96875 69.210938 762.023438 69.207031 762.085938 69.183594 C 762.449219 69.089844 762.667969 68.71875 762.574219 68.347656 L 762.125 66.605469 C 761.980469 66.078125 761.699219 65.601562 761.300781 65.238281 L 760.882812 64.855469 L 760.867188 64.839844 C 760.703125 64.695312 760.667969 64.511719 760.660156 64.371094 C 760.660156 64.160156 760.742188 63.941406 760.902344 63.789062 C 761.054688 63.636719 761.253906 63.5625 761.464844 63.5625 C 761.679688 63.5625 761.871094 63.652344 762.015625 63.808594 C 762.75 64.625 763.757812 65.84375 764.320312 66.972656 C 765.105469 68.53125 765.449219 71.515625 765.558594 72.675781 C 764.71875 73.074219 763.996094 73.679688 763.46875 74.429688 L 761.058594 72.917969 C 760.742188 72.71875 760.316406 72.8125 760.109375 73.128906 C 759.910156 73.453125 760.007812 73.878906 760.332031 74.078125 L 762.808594 75.632812 C 762.558594 76.25 762.429688 76.925781 762.429688 77.625 C 762.429688 78.382812 762.578125 79.105469 762.863281 79.757812 C 762.105469 80.394531 761.507812 81.222656 761.082031 82.226562 C 760.722656 82.058594 760.242188 81.839844 759.699219 81.570312 Z M 766.488281 45.796875 C 766.933594 45.921875 767.394531 45.984375 767.855469 45.996094 C 767.347656 48.039062 766.203125 49.855469 764.484375 51.386719 C 764.355469 51.503906 764.1875 51.558594 764.03125 51.558594 C 763.839844 51.558594 763.652344 51.484375 763.515625 51.332031 C 763.261719 51.042969 763.289062 50.609375 763.570312 50.355469 C 765.050781 49.042969 766.027344 47.515625 766.488281 45.796875 Z M 784.609375 36.722656 C 784.515625 40.671875 783.8125 44.246094 782.617188 46.800781 C 782.5 47.050781 782.25 47.195312 781.996094 47.195312 C 781.902344 47.195312 781.796875 47.171875 781.707031 47.132812 C 781.355469 46.972656 781.210938 46.5625 781.371094 46.21875 C 782.328125 44.164062 782.953125 41.378906 783.167969 38.25 C 783.714844 37.851562 784.210938 37.335938 784.609375 36.722656 Z M 782.636719 29.257812 C 782.421875 28.167969 782.160156 27.128906 781.84375 26.160156 C 781.730469 25.800781 781.929688 25.410156 782.292969 25.292969 C 782.65625 25.175781 783.042969 25.375 783.160156 25.738281 C 783.605469 27.136719 783.957031 28.660156 784.210938 30.285156 C 783.757812 29.773438 783.214844 29.425781 782.636719 29.257812 Z M 780.097656 29.671875 C 779.761719 27.023438 779.375 25.128906 779.371094 25.105469 C 779.292969 24.734375 779.535156 24.371094 779.90625 24.296875 C 780.277344 24.21875 780.640625 24.460938 780.71875 24.832031 C 780.730469 24.914062 781.089844 26.648438 781.417969 29.167969 C 780.972656 29.238281 780.523438 29.425781 780.097656 29.671875 Z M 768.425781 72.160156 C 768.261719 72.148438 768.089844 72.140625 767.917969 72.140625 C 767.566406 72.140625 767.230469 72.175781 766.898438 72.238281 C 766.753906 70.828125 766.375 68.003906 765.550781 66.351562 C 764.917969 65.085938 763.832031 63.773438 763.035156 62.886719 C 762.65625 62.46875 762.140625 62.222656 761.582031 62.195312 C 762.222656 60.832031 763.117188 59.726562 764.257812 58.886719 C 764.566406 58.660156 764.636719 58.226562 764.410156 57.925781 C 764.183594 57.617188 763.757812 57.554688 763.445312 57.773438 C 762.386719 58.558594 761.507812 59.527344 760.824219 60.6875 C 760.847656 60.242188 760.902344 59.792969 760.992188 59.375 C 761.09375 58.902344 761.238281 58.46875 761.457031 58.109375 C 762.179688 56.941406 764.085938 55.457031 765.769531 54.144531 C 766.066406 53.917969 766.347656 53.691406 766.625 53.46875 C 767.148438 54.109375 767.847656 54.605469 768.722656 54.960938 C 768.101562 57.003906 768.378906 58.847656 768.976562 60.359375 C 768.675781 61.203125 767.683594 64.152344 767.683594 66.714844 C 767.683594 68.675781 768.125 70.867188 768.425781 72.160156 Z M 769.21875 53.667969 C 768.5625 53.414062 768.0625 53.058594 767.691406 52.605469 C 768.097656 52.261719 768.460938 51.9375 768.761719 51.621094 C 769.105469 51.929688 769.511719 52.164062 769.988281 52.328125 C 769.710938 52.722656 769.449219 53.160156 769.21875 53.667969 Z M 762.550781 36.46875 C 762.441406 35 762.441406 33.328125 762.546875 31.457031 C 762.828125 26.34375 764.230469 22.777344 766.292969 21.902344 C 768.101562 21.132812 770.804688 23.015625 771.695312 23.808594 C 771.859375 23.953125 772.085938 24.007812 772.292969 23.964844 C 772.394531 23.945312 774.941406 23.472656 776.742188 26.308594 C 778.605469 29.246094 776.75 33.082031 776.734375 33.117188 C 776.570312 33.445312 776.695312 33.835938 777.003906 34.015625 C 777.320312 34.203125 777.71875 34.105469 777.917969 33.804688 C 778.386719 33.109375 779.71875 31.371094 780.964844 30.738281 C 780.972656 30.738281 780.980469 30.730469 780.984375 30.730469 C 781.054688 30.695312 781.125 30.667969 781.191406 30.640625 C 781.417969 30.550781 781.640625 30.503906 781.851562 30.511719 C 782.375 30.523438 782.78125 30.792969 783.078125 31.085938 C 783.179688 31.183594 783.261719 31.285156 783.339844 31.382812 C 784.011719 32.277344 784.292969 33.632812 784.019531 34.691406 C 783.882812 35.226562 783.65625 35.699219 783.359375 36.113281 C 782.726562 37.007812 781.804688 37.597656 780.964844 37.851562 C 780.863281 37.878906 780.765625 37.90625 780.667969 37.925781 C 779.679688 38.140625 778.316406 37.316406 777.875 36.980469 C 777.574219 36.753906 777.140625 36.808594 776.90625 37.109375 C 776.679688 37.410156 776.734375 37.839844 777.039062 38.070312 C 777.230469 38.222656 778.824219 39.40625 780.46875 39.328125 C 780.269531 41.796875 779.78125 43.6875 779.003906 44.964844 C 777.414062 47.585938 775.640625 48.464844 773.9375 49.324219 C 772.929688 49.828125 771.90625 50.335938 770.984375 51.1875 C 770.386719 51.070312 769.917969 50.84375 769.582031 50.507812 C 770.394531 48.960938 770.449219 46.734375 770.421875 45.6875 C 773.886719 44.761719 776.878906 42.105469 777.058594 41.949219 C 777.339844 41.695312 777.367188 41.261719 777.113281 40.980469 C 776.859375 40.699219 776.425781 40.671875 776.144531 40.925781 C 776.101562 40.960938 772.925781 43.777344 769.59375 44.480469 C 769.566406 44.484375 769.546875 44.484375 769.527344 44.492188 C 768.824219 44.636719 768.117188 44.683594 767.4375 44.589844 C 767.121094 44.546875 766.816406 44.472656 766.515625 44.367188 C 766.136719 44.238281 765.785156 44.050781 765.460938 43.824219 C 763.8125 42.644531 762.839844 40.183594 762.550781 36.46875 Z M 749.675781 52.527344 L 750.152344 54.328125 L 750.164062 54.382812 L 750.929688 57.300781 C 750.976562 57.492188 750.949219 57.691406 750.847656 57.863281 C 750.75 58.035156 750.585938 58.160156 750.390625 58.214844 C 750.289062 58.242188 750.1875 58.242188 750.082031 58.226562 C 749.800781 58.179688 749.558594 57.972656 749.476562 57.675781 L 748.355469 53.386719 C 748.347656 53.375 748.347656 53.367188 748.347656 53.359375 L 748.230469 52.914062 C 748.175781 52.714844 748.203125 52.515625 748.308594 52.34375 C 748.382812 52.210938 748.492188 52.109375 748.625 52.046875 C 748.636719 52.046875 748.652344 52.039062 748.660156 52.035156 C 748.691406 52.019531 748.726562 52.007812 748.769531 52 C 748.832031 51.976562 748.890625 51.972656 748.953125 51.972656 C 749.285156 51.972656 749.585938 52.199219 749.675781 52.527344 Z M 748.191406 59.820312 C 748.148438 59.761719 748.09375 59.703125 748.027344 59.671875 C 747.976562 59.609375 747.9375 59.546875 747.910156 59.472656 L 746.636719 56.316406 L 746.066406 54.898438 C 745.988281 54.714844 745.996094 54.515625 746.074219 54.328125 C 746.148438 54.144531 746.300781 54.007812 746.476562 53.929688 C 746.679688 53.855469 746.890625 53.863281 747.078125 53.953125 L 748.148438 58.027344 C 748.316406 58.660156 748.753906 59.15625 749.3125 59.417969 C 749.25 59.621094 749.097656 59.800781 748.878906 59.890625 C 748.636719 59.988281 748.382812 59.945312 748.191406 59.820312 Z M 746.582031 61.167969 C 746.574219 61.175781 746.566406 61.175781 746.5625 61.175781 C 746.527344 61.191406 746.5 61.203125 746.464844 61.21875 C 746.464844 61.21875 746.464844 61.21875 746.457031 61.21875 C 746.132812 61.3125 745.785156 61.175781 745.613281 60.894531 C 745.597656 60.878906 745.589844 60.867188 745.585938 60.851562 C 745.570312 60.832031 745.5625 60.804688 745.550781 60.777344 L 744.441406 58.027344 C 744.375 57.847656 744.375 57.644531 744.449219 57.457031 C 744.53125 57.277344 744.675781 57.132812 744.863281 57.058594 C 745.054688 56.984375 745.273438 56.988281 745.460938 57.085938 L 746.628906 59.988281 C 746.71875 60.207031 746.84375 60.40625 746.988281 60.578125 C 746.960938 60.824219 746.808594 61.050781 746.582031 61.167969 Z M 721.234375 76.917969 C 720.746094 75.839844 719.859375 72.992188 721.53125 69.0625 C 723.726562 63.917969 729.050781 60.136719 729.105469 60.097656 C 729.414062 59.882812 729.488281 59.449219 729.269531 59.140625 C 729.050781 58.832031 728.621094 58.757812 728.304688 58.976562 C 728.078125 59.132812 722.617188 63.019531 720.265625 68.523438 C 718.449219 72.773438 719.335938 75.96875 719.929688 77.363281 C 719.53125 77.480469 719.171875 77.578125 718.855469 77.640625 C 716.660156 78.085938 715.019531 77.878906 713.980469 77.035156 C 712.574219 75.878906 712.574219 73.777344 712.574219 73.035156 C 712.574219 72.511719 712.570312 71.652344 712.960938 70.441406 C 713.582031 68.488281 715.21875 65.617188 719.488281 61.734375 C 722.054688 59.394531 726.550781 56.617188 731.3125 53.675781 C 731.523438 53.546875 731.738281 53.414062 731.953125 53.277344 C 738.429688 49.269531 744.953125 45.179688 747.703125 41.480469 L 747.703125 43.40625 C 746.753906 46.601562 744.539062 48.546875 741.972656 50.796875 C 739.984375 52.535156 737.929688 54.335938 736.203125 56.949219 C 735.996094 57.265625 736.085938 57.691406 736.402344 57.898438 C 736.519531 57.972656 736.648438 58.015625 736.78125 58.015625 C 737 58.015625 737.21875 57.902344 737.351562 57.703125 C 738.972656 55.25 740.960938 53.511719 742.882812 51.828125 C 744.703125 50.230469 746.457031 48.691406 747.703125 46.699219 L 747.703125 51.007812 C 747.46875 51.175781 747.269531 51.394531 747.117188 51.648438 C 746.964844 51.917969 746.871094 52.207031 746.84375 52.5 C 746.546875 52.492188 746.25 52.542969 745.96875 52.652344 C 745.441406 52.863281 745.027344 53.269531 744.808594 53.785156 C 744.585938 54.308594 744.578125 54.886719 744.792969 55.414062 L 744.890625 55.648438 C 744.703125 55.667969 744.523438 55.71875 744.347656 55.785156 C 743.824219 55.992188 743.410156 56.398438 743.183594 56.921875 C 742.964844 57.445312 742.957031 58.019531 743.171875 58.542969 L 744.207031 61.128906 C 742.433594 63.058594 740.699219 64.714844 738.933594 66.199219 C 732.714844 71.410156 725.5625 75.296875 721.234375 76.917969 Z M 712.574219 40.464844 C 713.800781 41.425781 715.753906 42.203125 718.125 42.789062 C 718.132812 42.792969 718.148438 42.792969 718.15625 42.792969 C 718.203125 42.808594 718.257812 42.820312 718.304688 42.835938 C 718.304688 42.835938 718.304688 42.835938 718.3125 42.835938 C 721.738281 43.660156 725.996094 44.085938 730.136719 44.085938 C 736.105469 44.085938 742.316406 43.199219 745.933594 41.515625 C 743.039062 44.738281 737.019531 48.519531 731.367188 52.019531 C 728.113281 52.019531 724.9375 51.945312 721.757812 51.222656 C 721.394531 51.132812 721.023438 51.367188 720.941406 51.738281 C 720.851562 52.109375 721.085938 52.472656 721.457031 52.5625 C 724.015625 53.148438 726.636719 53.324219 729.179688 53.375 C 724.902344 56.035156 720.96875 58.535156 718.566406 60.714844 C 715.417969 63.582031 713.609375 65.96875 712.574219 67.886719 Z M 730.136719 33.5 C 741.023438 33.5 747.703125 36.179688 747.703125 38.105469 C 747.703125 39.988281 741.257812 42.617188 730.714844 42.703125 C 730.519531 42.710938 730.328125 42.710938 730.136719 42.710938 C 725.457031 42.710938 721.566406 42.21875 718.636719 41.496094 C 717.636719 40.882812 715.828125 39.417969 716.277344 38.585938 C 717.164062 36.945312 722.605469 35.886719 730.136719 35.886719 C 737.578125 35.886719 741.417969 37.554688 741.417969 38.265625 C 741.417969 38.699219 740 39.480469 737.21875 40.03125 C 737.496094 39.460938 737.558594 38.828125 737.144531 38.203125 C 736.421875 37.128906 734.460938 36.710938 730.136719 36.710938 C 727.417969 36.710938 722.824219 37.28125 722.824219 39.40625 C 722.824219 41.949219 730.066406 42.019531 730.136719 42.019531 C 730.328125 42.019531 730.515625 42.019531 730.707031 42.011719 C 736.636719 41.941406 742.792969 40.757812 742.792969 38.265625 C 742.792969 35.6875 736.230469 34.511719 730.136719 34.511719 C 725.199219 34.511719 716.675781 34.957031 715.066406 37.941406 C 714.589844 38.820312 714.875 39.707031 715.421875 40.476562 C 713.574219 39.699219 712.574219 38.839844 712.574219 38.105469 C 712.574219 36.179688 719.253906 33.5 730.136719 33.5 Z M 712.09375 89.621094 C 711.511719 87.910156 710.539062 84.554688 710.539062 81.339844 C 710.539062 79.433594 710.960938 77.226562 711.449219 75.300781 C 711.738281 76.492188 712.292969 77.425781 713.113281 78.09375 C 714.046875 78.855469 715.277344 79.242188 716.800781 79.242188 C 717.515625 79.242188 718.292969 79.160156 719.132812 78.988281 C 719.667969 78.878906 720.3125 78.691406 721.0625 78.429688 C 721.105469 78.417969 721.140625 78.402344 721.179688 78.390625 C 725.609375 76.820312 733.25 72.753906 739.820312 67.253906 C 741.574219 65.789062 743.285156 64.140625 745.039062 62.25 C 745.269531 62.398438 745.527344 62.515625 745.796875 62.566406 C 745.34375 63.679688 744.636719 64.804688 743.6875 65.917969 C 743.4375 66.214844 743.472656 66.648438 743.761719 66.886719 C 743.890625 67 744.050781 67.054688 744.207031 67.054688 C 744.402344 67.054688 744.601562 66.972656 744.730469 66.8125 C 745.988281 65.328125 746.871094 63.816406 747.34375 62.308594 C 747.742188 62.078125 748.046875 61.707031 748.210938 61.277344 C 748.34375 61.300781 748.472656 61.3125 748.605469 61.3125 C 748.863281 61.3125 749.132812 61.265625 749.386719 61.164062 C 750.097656 60.878906 750.578125 60.261719 750.695312 59.546875 C 750.707031 59.546875 750.722656 59.546875 750.734375 59.539062 L 750.742188 59.539062 C 751.292969 59.394531 751.746094 59.050781 752.035156 58.558594 C 752.132812 58.390625 752.207031 58.21875 752.25 58.042969 C 752.351562 57.691406 752.351562 57.3125 752.257812 56.949219 L 751.574219 54.34375 L 752.160156 53.578125 C 753.921875 51.277344 755.90625 48.664062 756.546875 48.636719 C 757.207031 48.742188 756.953125 51.566406 756.835938 52.925781 C 756.691406 54.535156 756.570312 55.929688 756.890625 56.777344 C 757.460938 58.261719 758.816406 59.203125 759.554688 59.617188 C 759.320312 61.140625 759.476562 62.6875 759.558594 63.300781 C 759.511719 63.382812 759.476562 63.464844 759.445312 63.546875 L 758.417969 62.605469 C 757.476562 61.746094 755.996094 61.800781 755.125 62.730469 C 754.441406 63.453125 754.296875 64.46875 754.691406 65.3125 C 754.078125 65.445312 753.382812 65.726562 752.890625 66.304688 C 752.484375 66.785156 752.195312 67.410156 752.042969 68.152344 C 751.960938 68.558594 751.707031 68.902344 751.339844 69.082031 C 750.632812 69.4375 750.089844 69.871094 749.71875 70.375 C 749.304688 70.9375 749.09375 71.6875 749.09375 72.539062 C 749.097656 73.152344 749.285156 73.761719 749.636719 74.300781 C 750.378906 75.453125 752.296875 78.292969 753.960938 79.738281 C 755.144531 80.765625 757.230469 81.886719 758.851562 82.683594 C 759.222656 83.722656 760.585938 87.683594 760.777344 90.632812 C 760.949219 93.304688 760.859375 96.488281 760.804688 97.835938 L 712.574219 97.835938 L 712.574219 92.5625 C 712.574219 91.554688 712.410156 90.5625 712.09375 89.621094 Z M 762.1875 97.835938 C 762.234375 96.441406 762.324219 93.277344 762.152344 90.542969 C 762.003906 88.15625 761.15625 85.25 760.585938 83.503906 C 760.792969 83.601562 760.957031 83.667969 761.058594 83.714844 C 761.363281 84.039062 762.277344 84.996094 763.488281 86.238281 C 764.679688 87.464844 766.164062 88.96875 767.640625 90.410156 C 767.195312 92.875 767.078125 95.367188 767.3125 97.835938 Z M 790.160156 94.820312 C 790.160156 96.070312 789.925781 97.21875 789.769531 97.835938 L 768.703125 97.835938 C 768.488281 95.753906 768.535156 93.65625 768.847656 91.582031 C 770.777344 93.429688 772.566406 95.023438 773.535156 95.59375 C 775.269531 96.605469 777.828125 97.492188 780.546875 97.492188 C 781.878906 97.492188 783.242188 97.28125 784.5625 96.769531 C 786.570312 95.992188 788.234375 94.207031 789.605469 92.007812 C 789.878906 92.8125 790.160156 93.875 790.160156 94.820312 Z M 789.136719 90.0625 C 787.773438 92.585938 786.097656 94.703125 784.066406 95.484375 C 780.503906 96.859375 776.542969 95.765625 774.238281 94.40625 C 773.199219 93.792969 771.054688 91.820312 768.839844 89.65625 C 767.414062 88.265625 765.964844 86.804688 764.765625 85.578125 C 764.925781 84.472656 765.398438 83.566406 766.191406 82.828125 C 766.734375 83.015625 767.3125 83.113281 767.917969 83.113281 C 768.070312 83.113281 768.21875 83.105469 768.371094 83.089844 L 769.65625 85.230469 C 769.789062 85.449219 770.015625 85.566406 770.25 85.566406 C 770.367188 85.566406 770.488281 85.53125 770.601562 85.46875 C 770.921875 85.269531 771.03125 84.851562 770.832031 84.527344 L 769.789062 82.78125 C 771.148438 82.292969 772.257812 81.277344 772.875 79.992188 C 773.640625 80.21875 775.269531 80.863281 777.5 82.582031 C 777.925781 82.914062 778.316406 83.257812 778.679688 83.605469 C 778.703125 83.632812 778.730469 83.660156 778.757812 83.683594 C 781.054688 85.929688 782.058594 88.335938 782.074219 88.355469 C 782.175781 88.625 782.4375 88.789062 782.707031 88.789062 C 782.792969 88.789062 782.878906 88.769531 782.964844 88.734375 C 783.316406 88.589844 783.484375 88.191406 783.34375 87.839844 C 783.296875 87.722656 782.300781 85.324219 779.988281 82.96875 C 780.378906 81.929688 780.746094 80.851562 781.082031 79.730469 C 784.472656 81.289062 788 82.085938 791.585938 82.085938 C 791.832031 82.085938 792.074219 82.082031 792.320312 82.074219 C 791.578125 84.515625 790.519531 87.496094 789.136719 90.0625 Z M 789.136719 90.0625 " fill-opacity="1" fill-rule="nonzero"/></g><path fill="rgb(46.269226%, 23.529053%, 0%)" d="M 743.699219 76.601562 C 743.898438 76.601562 744.097656 76.519531 744.234375 76.355469 C 746.03125 74.175781 747.625 72.03125 749.015625 69.90625 C 752.140625 65.148438 754.257812 60.488281 755.449219 55.8125 C 755.542969 55.449219 755.316406 55.070312 754.953125 54.976562 C 754.585938 54.886719 754.210938 55.105469 754.113281 55.476562 C 753.867188 56.445312 753.578125 57.414062 753.238281 58.386719 C 751.339844 63.972656 748.027344 69.597656 743.171875 75.472656 C 742.929688 75.769531 742.96875 76.203125 743.265625 76.445312 C 743.390625 76.554688 743.546875 76.601562 743.699219 76.601562 Z M 743.699219 76.601562 " fill-opacity="1" fill-rule="nonzero"/><path fill="rgb(46.269226%, 23.529053%, 0%)" d="M 741.058594 93.933594 C 740.832031 94.234375 740.886719 94.660156 741.1875 94.894531 C 741.3125 94.984375 741.464844 95.03125 741.609375 95.03125 C 741.816406 95.03125 742.019531 94.933594 742.152344 94.757812 C 744.105469 92.191406 746.671875 90.101562 749.78125 88.5625 C 750.117188 88.390625 750.253906 87.980469 750.089844 87.640625 C 749.917969 87.296875 749.503906 87.160156 749.167969 87.332031 C 745.867188 88.96875 743.136719 91.1875 741.058594 93.933594 Z M 741.058594 93.933594 " fill-opacity="1" fill-rule="nonzero"/><path fill="rgb(46.269226%, 23.529053%, 0%)" d="M 741.855469 58.867188 C 742.152344 58.632812 742.207031 58.199219 741.964844 57.898438 C 741.730469 57.601562 741.300781 57.554688 741.003906 57.792969 C 739.058594 59.332031 737.378906 61.203125 736.003906 63.339844 C 735.796875 63.664062 735.894531 64.082031 736.210938 64.289062 C 736.328125 64.367188 736.457031 64.398438 736.582031 64.398438 C 736.808594 64.398438 737.027344 64.289062 737.160156 64.082031 C 738.453125 62.078125 740.035156 60.316406 741.855469 58.867188 Z M 741.855469 58.867188 " fill-opacity="1" fill-rule="nonzero"/><path fill="rgb(46.269226%, 23.529053%, 0%)" d="M 718.1875 96.847656 C 718.242188 96.847656 718.304688 96.839844 718.359375 96.824219 C 726.902344 94.585938 735.523438 90.328125 743.976562 84.183594 C 744.285156 83.964844 744.351562 83.53125 744.125 83.230469 C 743.90625 82.917969 743.472656 82.851562 743.171875 83.070312 C 734.847656 89.121094 726.386719 93.300781 718.011719 95.492188 C 717.644531 95.589844 717.425781 95.964844 717.523438 96.335938 C 717.605469 96.640625 717.878906 96.847656 718.1875 96.847656 Z M 718.1875 96.847656 " fill-opacity="1" fill-rule="nonzero"/><g fill="rgb(46.269226%, 23.529053%, 0%)" fill-opacity="1"><g transform="translate(478.371615, 79.245648)"><g><path d="M 10.058594 2.960938 C 9.714844 2.066406 9.988281 -4.617188 10.539062 -8.957031 C 11.917969 -20.183594 13.433594 -25.488281 19.976562 -42.089844 C 21.148438 -45.121094 22.113281 -47.878906 22.113281 -48.222656 C 22.113281 -48.496094 22.320312 -48.910156 22.457031 -49.046875 C 23.214844 -49.667969 27.074219 -50.21875 38.785156 -51.390625 C 40.851562 -51.527344 41.195312 -51.941406 40.300781 -52.769531 C 40.023438 -53.042969 39.75 -53.386719 39.75 -53.59375 C 39.75 -54.214844 38.851562 -54.492188 35.132812 -55.109375 C 31.070312 -55.800781 28.863281 -55.800781 24.042969 -55.25 C 16.671875 -54.351562 8.40625 -52.21875 4.683594 -50.21875 C 2.894531 -49.253906 1.035156 -47.601562 0.6875 -46.570312 C 0.34375 -45.742188 1.101562 -44.296875 1.929688 -44.226562 C 2.273438 -44.15625 2.480469 -43.882812 2.550781 -43.46875 C 2.617188 -43.125 2.960938 -42.640625 3.308594 -42.503906 C 3.925781 -42.160156 4.339844 -42.367188 11.230469 -45.398438 C 12.332031 -45.878906 13.296875 -46.222656 13.363281 -46.222656 C 13.363281 -46.222656 12.882812 -44.847656 12.191406 -43.191406 C 9.988281 -37.613281 6.75 -26.453125 5.511719 -20.117188 C 3.859375 -11.917969 3.789062 -3.445312 5.234375 -0.414062 C 6.0625 1.171875 7.785156 3.101562 8.542969 3.238281 C 10.125 3.511719 10.265625 3.445312 10.058594 2.960938 Z M 16.945312 -45.949219 C 18.1875 -48.429688 18.253906 -48.085938 17.085938 -45.464844 C 16.535156 -44.226562 15.5 -41.675781 14.742188 -39.679688 C 13.984375 -37.75 12.882812 -34.582031 12.191406 -32.722656 C 11.574219 -30.792969 11.023438 -29.414062 11.023438 -29.621094 C 11.023438 -30.585938 15.363281 -42.574219 16.945312 -45.949219 Z M 10.746094 -28.65625 C 10.882812 -29.070312 10.953125 -29.140625 11.023438 -28.863281 C 11.023438 -28.589844 10.882812 -28.246094 10.746094 -27.96875 C 10.402344 -27.488281 10.402344 -27.898438 10.746094 -28.65625 Z M 9.4375 -23.835938 C 9.4375 -24.179688 9.507812 -24.25 9.574219 -24.042969 C 9.644531 -23.835938 9.644531 -23.558594 9.574219 -23.492188 C 9.4375 -23.421875 9.367188 -23.558594 9.4375 -23.835938 Z M 6.335938 -3.789062 C 6.199219 -3.652344 6.132812 -3.859375 6.132812 -4.132812 C 6.199219 -4.476562 6.269531 -4.546875 6.335938 -4.339844 C 6.40625 -4.132812 6.40625 -3.859375 6.335938 -3.789062 Z M 7.09375 -5.648438 C 7.09375 -3.308594 7.09375 -1.378906 7.027344 -1.378906 C 6.820312 -1.378906 6.613281 -5.234375 6.820312 -7.648438 C 7.09375 -12.539062 8.609375 -22.042969 9.023438 -21.632812 C 9.023438 -21.5625 8.957031 -20.734375 8.75 -19.769531 C 7.785156 -15.707031 7.164062 -9.78125 7.09375 -5.648438 Z M 9.023438 -16.671875 C 8.886719 -16.050781 8.679688 -14.054688 8.40625 -12.261719 C 8.199219 -10.472656 7.921875 -7.714844 7.785156 -6.132812 L 7.507812 -3.238281 L 7.648438 -6.613281 C 7.785156 -9.851562 8.679688 -17.359375 9.023438 -17.703125 C 9.09375 -17.773438 9.09375 -17.289062 9.023438 -16.671875 Z M 9.164062 -18.394531 C 9.09375 -19.289062 10.675781 -25.488281 12.054688 -29.828125 C 13.984375 -36.027344 18.046875 -46.570312 19.011719 -47.878906 C 19.21875 -48.152344 18.667969 -46.570312 17.773438 -44.433594 C 15.914062 -39.957031 13.433594 -33.203125 12.125 -29.140625 C 11.640625 -27.625 10.746094 -24.457031 10.195312 -22.113281 C 9.644531 -19.769531 9.164062 -18.046875 9.164062 -18.394531 Z M 9.164062 -18.394531 "/></g></g></g><g fill="rgb(46.269226%, 23.529053%, 0%)" fill-opacity="1"><g transform="translate(496.485776, 79.245648)"><g><path d="M 14.191406 -30.65625 C 10.953125 -29.691406 8.128906 -27.488281 5.304688 -23.972656 C 0.414062 -17.910156 -1.445312 -9.78125 0.828125 -5.027344 C 1.652344 -3.375 3.375 -1.792969 5.855469 -0.34375 C 7.921875 0.828125 8.128906 0.828125 9.851562 0.757812 C 11.023438 0.6875 12.125 0.480469 12.746094 0.136719 C 16.601562 -1.722656 23.007812 -11.089844 20.941406 -11.847656 C 20.667969 -11.988281 20.117188 -11.433594 19.359375 -10.265625 C 18.667969 -9.300781 17.289062 -7.648438 16.257812 -6.542969 C 13.847656 -4.132812 10.816406 -2.550781 8.40625 -2.34375 L 6.820312 -2.273438 L 6.269531 -3.511719 C 5.785156 -4.617188 5.71875 -5.097656 5.855469 -7.578125 C 5.992188 -10.125 6.957031 -14.054688 7.371094 -13.777344 C 10.609375 -11.988281 13.503906 -12.46875 16.738281 -15.292969 C 20.460938 -18.601562 22.941406 -25.488281 21.21875 -27.96875 C 20.875 -28.449219 20.527344 -28.863281 20.460938 -28.863281 C 20.390625 -28.863281 19.769531 -29.277344 19.082031 -29.898438 C 17.429688 -31.207031 16.394531 -31.34375 14.191406 -30.65625 Z M 2.273438 -11.847656 C 2.203125 -11.78125 2.136719 -11.917969 2.136719 -12.191406 C 2.136719 -12.46875 2.203125 -12.539062 2.273438 -12.332031 C 2.410156 -12.125 2.34375 -11.917969 2.273438 -11.847656 Z M 2.410156 -13.363281 C 2.410156 -13.570312 2.550781 -13.984375 2.6875 -14.261719 C 2.824219 -14.605469 2.894531 -14.671875 2.894531 -14.398438 C 2.894531 -14.191406 2.753906 -13.777344 2.6875 -13.503906 C 2.480469 -13.15625 2.410156 -13.089844 2.410156 -13.363281 Z M 2.550781 -10.332031 C 2.753906 -11.917969 3.308594 -14.261719 3.859375 -15.570312 C 4.476562 -17.152344 4.476562 -16.535156 3.789062 -14.398438 C 3.445312 -13.296875 3.03125 -11.640625 2.824219 -10.746094 C 2.480469 -9.164062 2.410156 -9.09375 2.550781 -10.332031 Z M 3.859375 -11.574219 C 3.789062 -11.503906 3.71875 -11.640625 3.71875 -11.917969 C 3.71875 -12.261719 3.789062 -12.261719 3.859375 -12.054688 C 3.925781 -11.917969 3.925781 -11.640625 3.859375 -11.574219 Z M 4.960938 -15.429688 C 4.960938 -15.222656 4.753906 -14.464844 4.476562 -13.707031 C 4.0625 -12.746094 3.996094 -12.605469 4.132812 -13.296875 C 4.339844 -14.328125 5.027344 -16.050781 4.960938 -15.429688 Z M 8.609375 -22.042969 C 9.023438 -22.390625 9.023438 -22.390625 8.75 -21.976562 C 8.40625 -21.492188 8.199219 -21.355469 8.199219 -21.5625 C 8.199219 -21.632812 8.40625 -21.835938 8.609375 -22.042969 Z M 5.785156 -19.152344 C 5.648438 -18.804688 5.441406 -18.601562 5.375 -18.601562 C 5.304688 -18.601562 5.375 -18.804688 5.511719 -19.152344 C 5.71875 -19.425781 5.855469 -19.632812 5.925781 -19.632812 C 5.992188 -19.632812 5.925781 -19.425781 5.785156 -19.152344 Z M 7.234375 -19.703125 C 6.683594 -18.804688 6.199219 -18.046875 6.132812 -18.046875 C 5.925781 -18.046875 7.441406 -20.667969 7.851562 -21.011719 C 8.058594 -21.148438 7.785156 -20.597656 7.234375 -19.703125 Z M 18.945312 -21.835938 C 18.945312 -21.699219 18.738281 -21.355469 18.53125 -21.078125 C 18.117188 -20.597656 18.117188 -20.597656 18.394531 -21.21875 C 18.804688 -22.042969 18.945312 -22.183594 18.945312 -21.835938 Z M 18.324219 -26.933594 C 18.601562 -26.589844 17.773438 -23.699219 16.945312 -21.976562 C 15.707031 -19.496094 13.707031 -17.359375 11.710938 -16.464844 C 10.265625 -15.777344 8.199219 -15.429688 8.199219 -15.914062 C 8.199219 -16.328125 10.402344 -19.703125 11.917969 -21.699219 C 14.054688 -24.316406 17.84375 -27.417969 18.324219 -26.933594 Z M 18.324219 -26.933594 "/></g></g></g><g fill="rgb(46.269226%, 23.529053%, 0%)" fill-opacity="1"><g transform="translate(519.834438, 79.245648)"><g><path d="M 30.242188 -38.785156 C 29.964844 -38.785156 29.070312 -39.886719 29.070312 -40.230469 C 29.003906 -40.714844 28.039062 -40.917969 27.417969 -40.507812 C 27.140625 -40.367188 25.558594 -38.441406 23.902344 -36.234375 C 18.394531 -28.933594 13.570312 -23.835938 9.507812 -21.21875 C 8.75 -20.734375 8.128906 -20.460938 8.058594 -20.597656 C 7.921875 -21.011719 9.230469 -25.695312 10.609375 -30.105469 C 13.640625 -39.335938 14.328125 -41.472656 16.121094 -45.949219 C 19.011719 -53.386719 19.289062 -54.699219 18.253906 -55.59375 C 17.910156 -55.867188 17.566406 -56.007812 17.429688 -55.9375 C 17.289062 -55.867188 17.222656 -55.9375 17.222656 -56.074219 C 17.222656 -56.28125 17.152344 -56.351562 17.085938 -56.28125 C 16.945312 -56.144531 16.671875 -56.351562 16.464844 -56.625 C 15.429688 -57.867188 14.121094 -56.695312 11.640625 -52.21875 C 10.058594 -49.53125 8.886719 -46.773438 6.613281 -40.574219 C 3.582031 -32.585938 2.066406 -27.417969 0.964844 -21.5625 C -0.480469 -14.328125 0.136719 -5.027344 2.273438 -1.722656 C 3.238281 -0.277344 4.132812 0.277344 6.0625 0.550781 C 7.441406 0.6875 7.578125 0.6875 7.441406 0.207031 C 6.40625 -3.101562 5.578125 -8.816406 6.0625 -8.816406 C 6.199219 -8.816406 7.648438 -7.507812 9.300781 -5.855469 C 11.023438 -4.269531 13.296875 -2.203125 14.328125 -1.378906 C 16.671875 0.34375 20.527344 2.410156 22.183594 2.894531 C 23.765625 3.308594 25.351562 3.308594 26.039062 2.894531 C 26.730469 2.550781 27.96875 1.035156 27.96875 0.6875 C 27.96875 0.480469 27.554688 0.34375 27.074219 0.34375 C 25.214844 0.34375 20.320312 -2.617188 16.394531 -6.269531 C 13.914062 -8.472656 8.542969 -14.191406 8.542969 -14.605469 C 8.542969 -14.671875 9.230469 -14.949219 10.058594 -15.222656 C 11.988281 -15.914062 15.84375 -18.1875 18.046875 -19.976562 C 23.214844 -24.25 29.691406 -32.378906 30.722656 -35.960938 C 31.070312 -37.0625 31.070312 -37.40625 30.792969 -38.027344 C 30.65625 -38.441406 30.378906 -38.785156 30.242188 -38.785156 Z M 4.890625 -25.007812 C 4.890625 -25.28125 4.960938 -25.351562 5.027344 -25.144531 C 5.167969 -24.9375 5.097656 -24.730469 5.027344 -24.660156 C 4.960938 -24.523438 4.890625 -24.730469 4.890625 -25.007812 Z M 3.167969 -5.511719 C 3.03125 -5.304688 2.753906 -8.265625 2.824219 -10.265625 C 2.824219 -12.054688 2.894531 -11.917969 3.101562 -8.957031 C 3.167969 -7.09375 3.238281 -5.511719 3.167969 -5.511719 Z M 3.445312 -4.269531 C 3.375 -4.132812 3.375 -4.269531 3.375 -4.617188 C 3.375 -4.960938 3.375 -5.097656 3.445312 -4.960938 C 3.582031 -4.753906 3.582031 -4.476562 3.445312 -4.269531 Z M 3.582031 -18.945312 C 3.582031 -19.289062 3.652344 -19.289062 3.71875 -19.082031 C 3.789062 -18.945312 3.789062 -18.667969 3.71875 -18.601562 C 3.652344 -18.53125 3.582031 -18.667969 3.582031 -18.945312 Z M 3.996094 -5.234375 C 3.789062 -5.027344 3.582031 -7.714844 3.582031 -9.714844 C 3.652344 -11.640625 3.652344 -11.503906 3.859375 -8.542969 C 3.996094 -6.75 3.996094 -5.234375 3.996094 -5.234375 Z M 3.996094 -19.769531 C 3.925781 -19.632812 3.859375 -19.769531 3.859375 -20.117188 C 3.859375 -20.460938 3.925781 -20.597656 3.996094 -20.460938 C 4.0625 -20.253906 4.0625 -19.976562 3.996094 -19.769531 Z M 4.269531 -21.21875 C 4.132812 -21.148438 4.132812 -21.285156 4.132812 -21.5625 C 4.132812 -21.90625 4.203125 -21.976562 4.269531 -21.769531 C 4.339844 -21.5625 4.339844 -21.285156 4.269531 -21.21875 Z M 5.027344 -20.046875 C 4.890625 -19.21875 4.683594 -18.53125 4.546875 -18.394531 C 4.410156 -18.253906 4.617188 -19.703125 5.097656 -21.5625 C 5.441406 -23.078125 5.441406 -21.835938 5.027344 -20.046875 Z M 5.648438 -23.148438 C 5.375 -22.457031 5.375 -23.148438 5.648438 -24.042969 C 5.855469 -24.59375 5.855469 -24.59375 5.855469 -24.179688 C 5.855469 -23.902344 5.785156 -23.421875 5.648438 -23.148438 Z M 22.320312 0.894531 C 22.457031 0.894531 22.800781 1.035156 23.007812 1.171875 C 23.214844 1.308594 23.285156 1.378906 23.148438 1.378906 C 23.007812 1.378906 22.664062 1.308594 22.457031 1.171875 C 22.25 1.035156 22.183594 0.894531 22.320312 0.894531 Z M 16.328125 -55.042969 C 16.394531 -55.042969 16.050781 -54.214844 15.5 -53.183594 C 15.019531 -52.21875 14.054688 -50.152344 13.363281 -48.703125 C 12.746094 -47.1875 11.503906 -44.15625 10.609375 -41.882812 C 9.78125 -39.679688 9.09375 -37.957031 9.09375 -38.164062 C 9.023438 -39.402344 15.707031 -55.042969 16.328125 -55.042969 Z M 6.199219 -29.691406 C 6.199219 -30.035156 6.269531 -30.105469 6.335938 -29.898438 C 6.476562 -29.691406 6.40625 -29.484375 6.335938 -29.347656 C 6.269531 -29.277344 6.199219 -29.414062 6.199219 -29.691406 Z M 5.925781 -25.144531 C 5.925781 -26.109375 10.195312 -39.199219 12.261719 -44.363281 C 13.570312 -47.601562 16.671875 -54.558594 17.015625 -54.902344 C 17.289062 -55.179688 16.808594 -54.078125 15.636719 -51.390625 C 13.226562 -46.222656 11.089844 -40.644531 8.609375 -33.273438 C 8.128906 -31.757812 7.300781 -29.207031 6.820312 -27.625 C 6.335938 -26.039062 5.925781 -24.9375 5.925781 -25.144531 Z M 11.433594 -6.890625 C 11.089844 -7.300781 11.089844 -7.371094 11.503906 -7.027344 C 11.78125 -6.820312 11.988281 -6.613281 11.988281 -6.542969 C 11.988281 -6.335938 11.78125 -6.476562 11.433594 -6.890625 Z M 13.707031 -4.820312 C 12.949219 -5.441406 12.746094 -5.785156 13.15625 -5.441406 C 13.570312 -5.167969 14.191406 -4.617188 14.605469 -4.269531 C 15.570312 -3.238281 15.15625 -3.445312 13.707031 -4.820312 Z M 17.84375 -1.445312 C 17.015625 -1.996094 16.050781 -2.753906 15.777344 -3.101562 L 15.222656 -3.71875 L 15.914062 -3.167969 C 16.257812 -2.824219 17.222656 -2.136719 18.046875 -1.585938 C 18.875 -1.035156 19.5625 -0.550781 19.5625 -0.480469 C 19.5625 -0.34375 19.496094 -0.414062 17.84375 -1.445312 Z M 21.976562 0.757812 C 21.976562 0.964844 21.976562 0.964844 20.804688 0.34375 C 20.320312 0.0703125 19.839844 -0.207031 19.839844 -0.277344 C 19.839844 -0.34375 20.320312 -0.207031 20.875 0.136719 C 21.492188 0.414062 21.976562 0.6875 21.976562 0.757812 Z M 21.5625 -0.136719 C 21.976562 0.277344 21.5625 0.136719 20.460938 -0.550781 C 19.839844 -0.964844 19.289062 -1.308594 19.289062 -1.378906 C 19.289062 -1.515625 21.078125 -0.480469 21.5625 -0.136719 Z M 16.945312 -3.167969 C 17.910156 -2.480469 18.804688 -1.792969 18.945312 -1.722656 C 19.082031 -1.585938 19.082031 -1.445312 19.011719 -1.445312 C 18.117188 -1.445312 7.785156 -11.230469 6.957031 -12.746094 C 6.820312 -13.15625 7.164062 -12.8125 7.785156 -12.125 C 9.714844 -9.851562 15.15625 -4.546875 16.945312 -3.167969 Z M 27.488281 -37.613281 C 27.625 -37.683594 27.554688 -37.476562 27.347656 -37.0625 C 27.074219 -36.71875 26.796875 -36.375 26.730469 -36.375 C 26.589844 -36.375 27.210938 -37.40625 27.488281 -37.613281 Z M 25.832031 -35.132812 C 26.246094 -35.410156 26.246094 -35.410156 25.902344 -34.996094 C 25.558594 -34.582031 25.351562 -34.445312 25.351562 -34.652344 C 25.351562 -34.71875 25.558594 -34.925781 25.832031 -35.132812 Z M 25.007812 -34.03125 C 25.417969 -34.375 25.488281 -34.375 25.144531 -33.960938 C 24.800781 -33.546875 24.59375 -33.410156 24.59375 -33.617188 C 24.59375 -33.6875 24.800781 -33.894531 25.007812 -34.03125 Z M 18.667969 -25.351562 C 18.945312 -25.625 19.21875 -25.902344 19.289062 -25.902344 C 19.359375 -25.902344 19.21875 -25.625 18.945312 -25.351562 C 18.667969 -25.074219 18.394531 -24.867188 18.324219 -24.867188 C 18.253906 -24.867188 18.394531 -25.074219 18.667969 -25.351562 Z M 26.175781 -32.722656 C 25.007812 -30.929688 22.664062 -28.175781 20.667969 -26.039062 C 19.632812 -25.007812 18.324219 -23.699219 17.703125 -23.148438 C 17.085938 -22.527344 17.84375 -23.421875 19.425781 -25.074219 C 21.011719 -26.730469 23.148438 -29.207031 24.25 -30.585938 C 26.589844 -33.617188 27.28125 -34.304688 26.175781 -32.722656 Z M 28.039062 -35.476562 C 27.898438 -35.203125 27.554688 -34.71875 27.347656 -34.445312 L 26.933594 -33.894531 L 27.140625 -34.445312 C 27.28125 -34.71875 27.625 -35.203125 27.832031 -35.476562 L 28.246094 -36.027344 Z M 28.726562 -38.027344 C 26.730469 -34.71875 23.492188 -30.378906 21.011719 -27.625 C 20.390625 -27.003906 19.703125 -26.382812 19.5625 -26.246094 C 19.359375 -26.109375 20.046875 -27.003906 21.078125 -28.105469 C 23.285156 -30.65625 25.558594 -33.617188 27.554688 -36.71875 C 29.070312 -38.992188 29.898438 -39.957031 28.726562 -38.027344 Z M 28.726562 -38.027344 "/></g></g></g><g fill="rgb(46.269226%, 23.529053%, 0%)" fill-opacity="1"><g transform="translate(546.35136, 79.245648)"><g><path d="M 16.671875 -32.789062 C 16.121094 -33.136719 15.15625 -33.753906 14.535156 -34.167969 C 12.398438 -35.683594 9.644531 -35.0625 6.890625 -32.515625 C 4.753906 -30.515625 3.511719 -28.039062 3.101562 -25.074219 C 2.753906 -21.976562 3.71875 -19.21875 6.820312 -14.742188 C 8.679688 -11.988281 9.164062 -10.609375 8.957031 -8.609375 C 8.679688 -5.71875 6.40625 -3.511719 3.375 -3.101562 C 1.929688 -2.894531 1.859375 -2.894531 0.828125 -3.789062 C 0.207031 -4.269531 -0.480469 -4.960938 -0.6875 -5.304688 C -0.894531 -5.71875 -1.171875 -5.992188 -1.308594 -5.925781 C -1.445312 -5.925781 -1.652344 -6.0625 -1.792969 -6.269531 C -1.929688 -6.542969 -2.136719 -6.40625 -2.617188 -5.785156 C -2.960938 -5.375 -3.308594 -4.820312 -3.308594 -4.546875 C -3.308594 -3.308594 0.757812 -0.414062 3.789062 0.550781 C 4.546875 0.757812 5.785156 0.828125 7.300781 0.757812 C 11.023438 0.550781 13.570312 -0.894531 14.949219 -3.71875 C 15.570312 -5.027344 15.636719 -5.375 15.570312 -7.09375 C 15.429688 -9.230469 14.949219 -10.195312 12.332031 -14.398438 C 11.367188 -15.84375 10.332031 -17.703125 10.058594 -18.53125 C 8.886719 -21.5625 9.851562 -25.765625 12.332031 -28.519531 C 13.226562 -29.484375 14.464844 -30.378906 14.949219 -30.378906 C 15.085938 -30.378906 15.085938 -28.863281 14.949219 -27.074219 L 14.8125 -23.765625 L 15.636719 -23.421875 C 16.121094 -23.214844 16.394531 -23.007812 16.257812 -23.007812 C 16.121094 -23.007812 16.121094 -22.871094 16.328125 -22.734375 C 17.085938 -21.976562 18.460938 -23.765625 19.152344 -26.382812 C 19.496094 -27.761719 19.5625 -28.246094 19.289062 -29.277344 C 18.875 -30.792969 18.046875 -31.964844 16.671875 -32.789062 Z M 12.605469 -5.992188 C 12.8125 -6.476562 12.949219 -6.683594 12.949219 -6.476562 C 12.949219 -6.0625 12.191406 -4.617188 12.191406 -4.960938 C 12.191406 -5.027344 12.332031 -5.511719 12.605469 -5.992188 Z M 11.710938 -6.75 C 12.054688 -8.40625 12.125 -8.542969 12.191406 -7.507812 C 12.191406 -6.957031 11.988281 -6.335938 11.78125 -6.0625 C 11.503906 -5.578125 11.433594 -5.648438 11.710938 -6.75 Z M 11.296875 -7.851562 C 11.367188 -7.648438 11.367188 -7.371094 11.296875 -7.164062 C 11.230469 -7.027344 11.160156 -7.164062 11.160156 -7.507812 C 11.160156 -7.851562 11.230469 -8.058594 11.296875 -7.851562 Z M 5.785156 -25.695312 C 5.71875 -25.625 5.648438 -25.765625 5.648438 -26.039062 C 5.648438 -26.382812 5.71875 -26.382812 5.785156 -26.175781 C 5.855469 -26.039062 5.855469 -25.765625 5.785156 -25.695312 Z M 6.40625 -24.59375 C 6.40625 -24.316406 6.335938 -24.042969 6.199219 -23.972656 C 5.785156 -23.699219 6.335938 -26.316406 6.890625 -27.417969 C 7.234375 -28.039062 7.507812 -28.519531 7.578125 -28.519531 C 7.648438 -28.519531 7.371094 -27.761719 7.027344 -26.796875 C 6.683594 -25.832031 6.40625 -24.867188 6.40625 -24.59375 Z M 8.609375 -28.039062 C 8.265625 -27.210938 7.785156 -26.175781 7.578125 -25.625 L 7.234375 -24.730469 L 7.371094 -25.625 C 7.507812 -26.660156 8.199219 -28.105469 8.886719 -28.933594 C 9.164062 -29.207031 9.023438 -28.796875 8.609375 -28.039062 Z M 16.808594 -25.972656 C 16.738281 -25.902344 16.671875 -26.039062 16.671875 -26.316406 C 16.671875 -26.589844 16.738281 -26.660156 16.808594 -26.453125 C 16.878906 -26.316406 16.878906 -26.039062 16.808594 -25.972656 Z M 16.808594 -25.972656 "/></g></g></g><g fill="rgb(46.269226%, 23.529053%, 0%)" fill-opacity="1"><g transform="translate(565.843016, 79.245648)"><g><path d="M 3.652344 -40.300781 C 5.097656 -40.160156 6.335938 -40.023438 6.335938 -40.023438 C 6.335938 -39.957031 5.855469 -38.441406 5.234375 -36.511719 C 1.238281 -24.660156 -0.621094 -13.777344 0.414062 -7.785156 C 1.035156 -4.203125 2.6875 -2.066406 6.269531 -0.207031 C 8.335938 0.894531 9.574219 1.035156 9.78125 0.414062 C 9.851562 0.207031 9.367188 -0.136719 8.679688 -0.480469 C 7.164062 -1.101562 6.542969 -2.273438 6.132812 -5.304688 C 5.441406 -10.265625 6.890625 -17.703125 11.917969 -34.71875 L 13.363281 -39.472656 L 17.566406 -39.472656 C 23.007812 -39.542969 23.972656 -39.679688 24.59375 -40.851562 C 24.867188 -41.332031 25.007812 -41.816406 24.9375 -41.882812 C 24.800781 -42.160156 19.496094 -42.917969 16.394531 -43.125 L 14.398438 -43.261719 L 14.878906 -45.191406 C 15.15625 -46.222656 15.363281 -47.601562 15.363281 -48.359375 C 15.429688 -49.53125 15.363281 -49.738281 14.671875 -50.21875 C 14.261719 -50.496094 13.640625 -51.046875 13.296875 -51.390625 C 12.539062 -52.078125 12.261719 -52.21875 11.710938 -51.804688 C 11.296875 -51.460938 9.714844 -48.289062 8.609375 -45.671875 C 7.921875 -43.8125 7.851562 -43.742188 7.09375 -43.882812 C 6.683594 -43.949219 5.234375 -44.089844 3.925781 -44.15625 C 1.445312 -44.363281 0.414062 -44.089844 0.414062 -43.332031 C 0.414062 -43.125 0.136719 -42.710938 -0.136719 -42.433594 C -1.308594 -41.265625 -0.34375 -40.78125 3.652344 -40.300781 Z M 2.617188 -15.980469 C 2.550781 -15.914062 2.480469 -16.050781 2.480469 -16.328125 C 2.550781 -16.671875 2.550781 -16.738281 2.6875 -16.535156 C 2.753906 -16.328125 2.753906 -16.121094 2.617188 -15.980469 Z M 2.894531 -12.46875 C 2.824219 -12.261719 2.824219 -12.398438 2.824219 -12.8125 C 2.824219 -13.15625 2.824219 -13.296875 2.894531 -13.089844 C 2.960938 -12.949219 2.960938 -12.605469 2.894531 -12.46875 Z M 5.027344 -27.761719 C 5.097656 -28.246094 5.304688 -28.933594 5.441406 -29.207031 C 5.578125 -29.554688 5.578125 -29.414062 5.441406 -28.796875 C 5.375 -28.3125 5.234375 -27.625 5.097656 -27.347656 C 4.890625 -27.003906 4.890625 -27.140625 5.027344 -27.761719 Z M 4.617188 -26.316406 C 4.617188 -26.660156 4.683594 -26.730469 4.753906 -26.453125 C 4.820312 -26.316406 4.820312 -26.039062 4.753906 -25.972656 C 4.683594 -25.902344 4.617188 -26.039062 4.617188 -26.316406 Z M 4.339844 -25.28125 C 4.339844 -25.558594 4.410156 -25.625 4.476562 -25.417969 C 4.546875 -25.28125 4.546875 -25.007812 4.476562 -24.9375 C 4.410156 -24.867188 4.339844 -25.007812 4.339844 -25.28125 Z M 4.0625 -24.25 C 4.0625 -24.523438 4.132812 -24.59375 4.269531 -24.386719 C 4.339844 -24.179688 4.339844 -23.972656 4.203125 -23.902344 C 4.132812 -23.765625 4.0625 -23.972656 4.0625 -24.25 Z M 3.789062 -23.148438 C 3.859375 -23.492188 3.925781 -23.558594 3.996094 -23.351562 C 4.0625 -23.148438 4.0625 -22.941406 3.925781 -22.800781 C 3.859375 -22.734375 3.789062 -22.871094 3.789062 -23.148438 Z M 3.582031 -21.835938 C 3.582031 -22.183594 3.652344 -22.25 3.71875 -22.042969 C 3.789062 -21.835938 3.789062 -21.632812 3.71875 -21.492188 C 3.582031 -21.425781 3.511719 -21.5625 3.582031 -21.835938 Z M 3.308594 -20.527344 C 3.445312 -21.21875 3.445312 -21.285156 3.445312 -20.667969 C 3.511719 -20.320312 3.375 -19.703125 3.308594 -19.359375 C 3.101562 -18.804688 3.03125 -18.804688 3.101562 -19.21875 C 3.101562 -19.496094 3.167969 -20.117188 3.308594 -20.527344 Z M 13.089844 -49.738281 C 13.363281 -50.011719 13.226562 -49.53125 12.191406 -46.636719 C 11.230469 -43.8125 10.882812 -43.125 10.882812 -43.675781 C 10.882812 -43.949219 12.949219 -49.601562 13.089844 -49.738281 Z M 10.882812 -45.605469 C 11.023438 -45.8125 11.160156 -45.878906 11.160156 -45.742188 C 11.160156 -45.605469 11.023438 -45.328125 10.882812 -45.054688 C 10.746094 -44.847656 10.609375 -44.777344 10.609375 -44.914062 C 10.609375 -45.121094 10.746094 -45.398438 10.882812 -45.605469 Z M 8.886719 -36.925781 C 7.921875 -33.894531 5.441406 -25.351562 4.683594 -22.25 C 4.476562 -21.148438 3.996094 -18.738281 3.652344 -16.878906 C 3.308594 -14.949219 3.03125 -13.777344 3.03125 -14.261719 C 3.03125 -15.222656 3.859375 -20.117188 4.546875 -23.078125 C 5.785156 -28.246094 9.09375 -39.128906 9.574219 -39.679688 C 9.921875 -40.023438 9.921875 -39.886719 8.886719 -36.925781 Z M 8.542969 -39.058594 C 8.679688 -39.265625 8.75 -39.335938 8.75 -39.199219 C 8.75 -39.058594 8.679688 -38.714844 8.542969 -38.507812 C 8.40625 -38.300781 8.265625 -38.234375 8.265625 -38.371094 C 8.265625 -38.507812 8.40625 -38.851562 8.542969 -39.058594 Z M 8.128906 -37.683594 C 8.199219 -37.613281 7.648438 -35.820312 6.957031 -33.617188 C 6.269531 -31.480469 5.648438 -29.828125 5.648438 -30.035156 C 5.648438 -30.449219 7.992188 -37.820312 8.128906 -37.683594 Z M 8.128906 -37.683594 "/></g></g></g><g fill="rgb(46.269226%, 23.529053%, 0%)" fill-opacity="1"><g transform="translate(577.414037, 79.245648)"><g><path d="M 9.644531 -32.996094 C 9.300781 -32.859375 9.164062 -32.996094 9.164062 -33.203125 C 9.164062 -33.410156 8.957031 -33.480469 8.75 -33.410156 C 8.542969 -33.34375 8.335938 -33.480469 8.199219 -33.824219 C 7.992188 -34.582031 7.300781 -34.859375 6.613281 -34.582031 C 4.890625 -33.960938 1.722656 -23.972656 0.621094 -15.777344 C -0.621094 -7.300781 1.101562 -2.34375 6.0625 0.207031 C 7.851562 1.101562 8.609375 0.964844 7.921875 -0.207031 C 6.957031 -1.996094 6.683594 -3.101562 6.542969 -5.925781 C 6.40625 -9.78125 6.683594 -11.574219 9.023438 -21.355469 C 11.433594 -31.550781 11.433594 -31.6875 10.746094 -32.515625 C 10.402344 -32.929688 9.988281 -33.066406 9.644531 -32.996094 Z M 5.925781 -27.832031 C 5.992188 -27.691406 5.992188 -27.417969 5.855469 -27.347656 C 5.785156 -27.28125 5.71875 -27.417969 5.71875 -27.691406 C 5.71875 -27.96875 5.785156 -28.039062 5.925781 -27.832031 Z M 4.820312 -24.386719 C 4.890625 -24.867188 5.097656 -25.558594 5.234375 -25.832031 C 5.375 -26.175781 5.375 -26.109375 5.304688 -25.417969 C 5.167969 -24.9375 5.027344 -24.316406 4.890625 -23.972656 C 4.753906 -23.628906 4.683594 -23.765625 4.820312 -24.386719 Z M 3.511719 -18.945312 C 3.789062 -20.460938 4.617188 -23.492188 4.617188 -23.148438 C 4.683594 -22.941406 4.410156 -21.769531 4.132812 -20.460938 C 3.582031 -18.1875 3.167969 -17.222656 3.511719 -18.945312 Z M 3.308594 -17.496094 C 3.308594 -17.222656 3.308594 -16.878906 3.238281 -16.738281 C 3.167969 -16.535156 3.167969 -16.738281 3.167969 -17.152344 C 3.167969 -17.636719 3.238281 -17.773438 3.308594 -17.496094 Z M 2.480469 -11.574219 C 2.34375 -11.503906 2.34375 -11.640625 2.34375 -11.917969 C 2.34375 -12.261719 2.410156 -12.332031 2.480469 -12.125 C 2.550781 -11.917969 2.550781 -11.710938 2.480469 -11.574219 Z M 2.824219 -15.363281 C 2.960938 -16.1875 3.03125 -16.257812 3.03125 -15.570312 C 3.03125 -15.15625 2.960938 -14.464844 2.824219 -14.054688 C 2.550781 -12.949219 2.550781 -13.984375 2.824219 -15.363281 Z M 3.03125 -9.367188 C 2.960938 -9.164062 2.894531 -9.367188 2.894531 -9.851562 C 2.894531 -10.265625 2.960938 -10.402344 3.03125 -10.125 C 3.101562 -9.921875 3.101562 -9.507812 3.03125 -9.367188 Z M 3.375 -12.332031 C 3.167969 -10.746094 3.167969 -10.746094 3.101562 -11.78125 C 3.03125 -14.191406 4.960938 -22.800781 6.957031 -29.207031 C 7.441406 -30.863281 7.992188 -32.238281 8.128906 -32.238281 C 8.265625 -32.238281 8.265625 -32.171875 8.199219 -32.03125 C 7.714844 -31.207031 4.890625 -20.460938 3.996094 -16.121094 C 3.789062 -14.949219 3.511719 -13.226562 3.375 -12.332031 Z M 4.820312 -15.636719 C 4.753906 -15.5 4.683594 -15.636719 4.683594 -15.980469 C 4.683594 -16.328125 4.753906 -16.535156 4.820312 -16.328125 C 4.890625 -16.121094 4.890625 -15.84375 4.820312 -15.636719 Z M 5.097656 -16.878906 C 5.027344 -16.738281 4.960938 -16.945312 4.960938 -17.222656 C 4.960938 -17.496094 5.027344 -17.566406 5.097656 -17.359375 C 5.167969 -17.152344 5.167969 -16.945312 5.097656 -16.878906 Z M 5.578125 -19.21875 C 5.511719 -19.152344 5.441406 -19.289062 5.441406 -19.5625 C 5.511719 -19.839844 5.578125 -19.910156 5.648438 -19.703125 C 5.71875 -19.496094 5.71875 -19.289062 5.578125 -19.21875 Z M 5.992188 -20.734375 C 5.785156 -20.183594 5.785156 -20.183594 5.785156 -20.597656 C 5.785156 -20.875 5.855469 -21.425781 5.992188 -21.769531 C 6.132812 -22.320312 6.199219 -22.320312 6.199219 -21.90625 C 6.199219 -21.632812 6.0625 -21.078125 5.992188 -20.734375 Z M 6.40625 -22.59375 C 6.335938 -22.527344 6.269531 -22.664062 6.269531 -22.941406 C 6.269531 -23.285156 6.335938 -23.351562 6.40625 -23.148438 C 6.476562 -22.941406 6.476562 -22.734375 6.40625 -22.59375 Z M 6.683594 -23.699219 C 6.542969 -23.558594 6.542969 -23.765625 6.542969 -24.042969 C 6.542969 -24.316406 6.613281 -24.386719 6.683594 -24.179688 C 6.75 -23.972656 6.75 -23.765625 6.683594 -23.699219 Z M 7.992188 -28.3125 C 7.441406 -26.660156 7.027344 -25.488281 7.027344 -25.625 C 7.027344 -26.175781 8.679688 -31.828125 8.816406 -31.550781 C 8.816406 -31.414062 8.472656 -29.964844 7.992188 -28.3125 Z M 13.363281 -45.121094 C 12.398438 -45.121094 9.851562 -43.539062 7.714844 -41.609375 C 6.476562 -40.507812 6.476562 -40.4375 6.820312 -39.679688 C 7.027344 -39.128906 7.300781 -38.921875 7.578125 -38.992188 C 7.851562 -39.058594 8.058594 -38.921875 8.058594 -38.785156 C 8.058594 -38.644531 8.335938 -38.714844 8.679688 -38.992188 C 9.023438 -39.265625 9.09375 -39.335938 8.957031 -39.128906 C 8.609375 -38.714844 8.472656 -37.75 8.75 -37.476562 C 9.09375 -37.128906 9.851562 -37.40625 10.265625 -38.09375 C 11.023438 -39.335938 13.363281 -41.472656 14.535156 -42.023438 C 15.15625 -42.296875 15.707031 -42.710938 15.707031 -42.917969 C 15.707031 -43.261719 13.777344 -45.121094 13.363281 -45.121094 Z M 13.363281 -45.121094 "/></g></g></g><g fill="rgb(46.269226%, 23.529053%, 0%)" fill-opacity="1"><g transform="translate(588.502931, 79.245648)"><g><path d="M 16.464844 -54.699219 C 16.121094 -54.972656 15.5 -55.523438 15.085938 -55.9375 C 14.464844 -56.558594 14.261719 -56.625 13.707031 -56.417969 C 13.363281 -56.28125 12.882812 -55.9375 12.675781 -55.660156 C 11.78125 -54.699219 10.265625 -51.941406 9.230469 -49.53125 C 6.957031 -44.296875 2.960938 -31.34375 1.585938 -25.007812 C 0.34375 -19.289062 0.207031 -18.324219 0.207031 -12.675781 C 0.207031 -7.648438 0.277344 -6.957031 0.828125 -5.304688 C 1.859375 -1.859375 3.238281 -0.480469 6.269531 0.550781 C 8.199219 1.171875 9.230469 0.480469 7.851562 -0.550781 C 7.507812 -0.894531 6.890625 -1.859375 6.613281 -2.6875 C 6.0625 -4.132812 5.992188 -4.683594 5.992188 -9.09375 C 6.0625 -13.363281 6.132812 -14.398438 6.75 -17.359375 C 7.921875 -22.871094 9.851562 -29.621094 13.503906 -40.78125 C 15.363281 -46.570312 16.945312 -51.871094 17.085938 -52.699219 C 17.152344 -54.007812 17.152344 -54.214844 16.464844 -54.699219 Z M 12.261719 -50.839844 C 12.46875 -51.253906 12.675781 -51.390625 12.675781 -51.253906 C 12.675781 -51.113281 12.46875 -50.703125 12.261719 -50.355469 C 12.054688 -50.011719 11.917969 -49.804688 11.917969 -49.945312 C 11.917969 -50.082031 12.054688 -50.496094 12.261719 -50.839844 Z M 11.640625 -49.324219 C 11.78125 -49.53125 11.917969 -49.601562 11.917969 -49.394531 C 11.917969 -49.253906 11.78125 -48.980469 11.640625 -48.773438 C 11.503906 -48.566406 11.367188 -48.496094 11.367188 -48.636719 C 11.367188 -48.773438 11.503906 -49.046875 11.640625 -49.324219 Z M 11.089844 -48.015625 C 11.230469 -48.222656 11.367188 -48.289062 11.367188 -48.085938 C 11.367188 -47.945312 11.230469 -47.671875 11.089844 -47.464844 C 10.953125 -47.257812 10.882812 -47.1875 10.882812 -47.328125 C 10.882812 -47.464844 10.953125 -47.738281 11.089844 -48.015625 Z M 10.609375 -46.636719 C 10.746094 -46.914062 10.816406 -46.914062 10.816406 -46.773438 C 10.816406 -46.636719 10.746094 -46.363281 10.609375 -46.15625 C 10.472656 -45.949219 10.332031 -45.878906 10.332031 -46.015625 C 10.332031 -46.15625 10.472656 -46.429688 10.609375 -46.636719 Z M 9.714844 -44.296875 C 9.78125 -44.640625 9.988281 -45.121094 10.125 -45.328125 C 10.265625 -45.605469 10.265625 -45.535156 10.195312 -45.121094 C 10.058594 -44.707031 9.921875 -44.226562 9.78125 -44.019531 C 9.574219 -43.742188 9.574219 -43.882812 9.714844 -44.296875 Z M 9.023438 -42.367188 C 9.300781 -43.054688 9.507812 -43.46875 9.507812 -43.261719 C 9.507812 -43.054688 9.300781 -42.296875 9.023438 -41.539062 C 8.75 -40.851562 8.542969 -40.4375 8.542969 -40.644531 C 8.542969 -40.851562 8.75 -41.609375 9.023438 -42.367188 Z M 8.199219 -39.816406 C 8.335938 -40.09375 8.472656 -40.09375 8.472656 -39.957031 C 8.40625 -39.472656 7.992188 -38.644531 7.992188 -39.058594 C 7.992188 -39.265625 8.058594 -39.609375 8.199219 -39.816406 Z M 2.136719 -9.988281 C 2.066406 -9.574219 1.996094 -9.921875 1.996094 -10.675781 C 1.996094 -11.503906 2.066406 -11.847656 2.136719 -11.433594 C 2.203125 -11.023438 2.203125 -10.402344 2.136719 -9.988281 Z M 2.34375 -15.5 C 2.273438 -15.222656 2.273438 -15.429688 2.273438 -15.914062 C 2.273438 -16.464844 2.273438 -16.671875 2.34375 -16.394531 C 2.410156 -16.1875 2.410156 -15.777344 2.34375 -15.5 Z M 2.617188 -18.117188 C 2.6875 -17.910156 2.6875 -17.636719 2.617188 -17.429688 C 2.550781 -17.289062 2.480469 -17.429688 2.480469 -17.773438 C 2.480469 -18.117188 2.550781 -18.324219 2.617188 -18.117188 Z M 3.859375 -14.535156 C 3.71875 -13.226562 3.652344 -12.125 3.582031 -12.054688 C 3.445312 -11.847656 3.511719 -14.8125 3.71875 -15.84375 C 3.925781 -16.535156 3.925781 -16.121094 3.859375 -14.535156 Z M 10.058594 -39.058594 C 9.164062 -36.375 7.851562 -31.894531 7.027344 -29.070312 C 6.199219 -26.246094 5.167969 -22.390625 4.753906 -20.390625 C 4.339844 -18.460938 4.0625 -17.496094 4.132812 -18.324219 C 4.339844 -19.976562 5.785156 -26.175781 6.820312 -29.554688 C 8.199219 -34.238281 11.433594 -44.089844 11.503906 -44.019531 C 11.574219 -43.949219 10.882812 -41.675781 10.058594 -39.058594 Z M 12.8125 -47.050781 C 12.125 -45.257812 11.640625 -44.296875 12.054688 -45.605469 C 12.46875 -46.980469 13.296875 -49.046875 13.363281 -48.980469 C 13.433594 -48.910156 13.15625 -48.085938 12.8125 -47.050781 Z M 14.261719 -50.839844 C 14.121094 -50.632812 13.984375 -50.5625 13.984375 -50.769531 C 13.984375 -50.910156 14.121094 -51.183594 14.261719 -51.390625 C 14.398438 -51.597656 14.535156 -51.667969 14.535156 -51.527344 C 14.535156 -51.390625 14.398438 -51.113281 14.261719 -50.839844 Z M 13.914062 -52.011719 C 12.261719 -48.222656 10.265625 -42.917969 8.679688 -37.75 C 4.0625 -23.214844 2.894531 -17.566406 2.960938 -10.402344 C 2.960938 -8.265625 2.894531 -6.476562 2.824219 -6.476562 C 2.753906 -6.476562 2.6875 -7.027344 2.6875 -7.714844 C 2.6875 -8.40625 2.617188 -9.230469 2.550781 -9.507812 C 2.34375 -10.609375 3.03125 -17.496094 3.652344 -20.804688 C 4.339844 -24.109375 5.648438 -29.277344 7.027344 -33.6875 C 8.609375 -38.851562 10.332031 -44.15625 11.296875 -46.707031 C 12.46875 -49.738281 14.8125 -54.902344 14.949219 -54.699219 C 15.019531 -54.699219 14.535156 -53.457031 13.914062 -52.011719 Z M 13.914062 -52.011719 "/></g></g></g><g fill="rgb(80.389404%, 38.819885%, 0.389099%)" fill-opacity="1"><g transform="translate(274.834681, 67.792666)"><g><path d="M 7.390625 0.1875 C 6.128906 0.1875 4.910156 -0.00390625 3.734375 -0.390625 C 2.566406 -0.785156 1.648438 -1.296875 0.984375 -1.921875 L 1.859375 -3.78125 C 2.503906 -3.207031 3.320312 -2.738281 4.3125 -2.375 C 5.3125 -2.019531 6.335938 -1.84375 7.390625 -1.84375 C 8.785156 -1.84375 9.820312 -2.078125 10.5 -2.546875 C 11.1875 -3.015625 11.53125 -3.640625 11.53125 -4.421875 C 11.53125 -5.003906 11.34375 -5.472656 10.96875 -5.828125 C 10.59375 -6.191406 10.128906 -6.46875 9.578125 -6.65625 C 9.035156 -6.84375 8.257812 -7.054688 7.25 -7.296875 C 5.988281 -7.597656 4.972656 -7.898438 4.203125 -8.203125 C 3.429688 -8.515625 2.769531 -8.984375 2.21875 -9.609375 C 1.664062 -10.242188 1.390625 -11.09375 1.390625 -12.15625 C 1.390625 -13.050781 1.625 -13.859375 2.09375 -14.578125 C 2.5625 -15.296875 3.273438 -15.867188 4.234375 -16.296875 C 5.191406 -16.734375 6.378906 -16.953125 7.796875 -16.953125 C 8.785156 -16.953125 9.757812 -16.820312 10.71875 -16.5625 C 11.675781 -16.3125 12.5 -15.945312 13.1875 -15.46875 L 12.40625 -13.546875 C 11.695312 -13.992188 10.941406 -14.332031 10.140625 -14.5625 C 9.347656 -14.789062 8.566406 -14.90625 7.796875 -14.90625 C 6.441406 -14.90625 5.425781 -14.65625 4.75 -14.15625 C 4.070312 -13.664062 3.734375 -13.03125 3.734375 -12.25 C 3.734375 -11.675781 3.925781 -11.207031 4.3125 -10.84375 C 4.695312 -10.488281 5.171875 -10.210938 5.734375 -10.015625 C 6.296875 -9.816406 7.066406 -9.609375 8.046875 -9.390625 C 9.304688 -9.078125 10.316406 -8.769531 11.078125 -8.46875 C 11.847656 -8.164062 12.507812 -7.703125 13.0625 -7.078125 C 13.613281 -6.460938 13.890625 -5.628906 13.890625 -4.578125 C 13.890625 -3.691406 13.648438 -2.882812 13.171875 -2.15625 C 12.691406 -1.4375 11.960938 -0.863281 10.984375 -0.4375 C 10.015625 -0.0195312 8.816406 0.1875 7.390625 0.1875 Z M 7.390625 0.1875 "/></g></g></g><g fill="rgb(80.389404%, 38.819885%, 0.389099%)" fill-opacity="1"><g transform="translate(301.554941, 67.792666)"><g><path d="M 9.640625 -16.953125 C 11.304688 -16.953125 12.804688 -16.578125 14.140625 -15.828125 C 15.472656 -15.085938 16.515625 -14.066406 17.265625 -12.765625 C 18.023438 -11.460938 18.40625 -10.007812 18.40625 -8.40625 C 18.40625 -6.769531 18.03125 -5.296875 17.28125 -3.984375 C 16.53125 -2.679688 15.5 -1.660156 14.1875 -0.921875 C 12.882812 -0.179688 11.421875 0.1875 9.796875 0.1875 C 8.148438 0.1875 6.671875 -0.1875 5.359375 -0.9375 C 4.054688 -1.6875 3.03125 -2.71875 2.28125 -4.03125 C 1.53125 -5.351562 1.15625 -6.832031 1.15625 -8.46875 L 1.15625 -9.140625 L 15.984375 -9.140625 C 15.878906 -10.222656 15.535156 -11.195312 14.953125 -12.0625 C 14.367188 -12.925781 13.609375 -13.597656 12.671875 -14.078125 C 11.742188 -14.566406 10.726562 -14.8125 9.625 -14.8125 C 8.601562 -14.8125 7.632812 -14.644531 6.71875 -14.3125 C 5.8125 -13.988281 5.023438 -13.503906 4.359375 -12.859375 L 2.921875 -14.5 C 3.722656 -15.269531 4.703125 -15.867188 5.859375 -16.296875 C 7.023438 -16.734375 8.285156 -16.953125 9.640625 -16.953125 Z M 9.796875 -1.859375 C 11.429688 -1.859375 12.800781 -2.332031 13.90625 -3.28125 C 15.019531 -4.238281 15.695312 -5.515625 15.9375 -7.109375 L 3.609375 -7.109375 C 3.867188 -5.515625 4.550781 -4.238281 5.65625 -3.28125 C 6.769531 -2.332031 8.148438 -1.859375 9.796875 -1.859375 Z M 9.796875 -1.859375 "/></g></g></g><g fill="rgb(80.389404%, 38.819885%, 0.389099%)" fill-opacity="1"><g transform="translate(332.967022, 67.792666)"><g><path d="M 2.515625 -16.75 L 9.578125 -16.75 C 11.347656 -16.75 12.914062 -16.398438 14.28125 -15.703125 C 15.65625 -15.003906 16.722656 -14.019531 17.484375 -12.75 C 18.242188 -11.476562 18.625 -10.019531 18.625 -8.375 C 18.625 -6.726562 18.242188 -5.269531 17.484375 -4 C 16.722656 -2.738281 15.65625 -1.753906 14.28125 -1.046875 C 12.914062 -0.347656 11.347656 0 9.578125 0 L 2.515625 0 Z M 9.4375 -2.078125 C 10.789062 -2.078125 11.976562 -2.335938 13 -2.859375 C 14.03125 -3.390625 14.828125 -4.128906 15.390625 -5.078125 C 15.953125 -6.035156 16.234375 -7.132812 16.234375 -8.375 C 16.234375 -9.625 15.953125 -10.722656 15.390625 -11.671875 C 14.828125 -12.617188 14.03125 -13.351562 13 -13.875 C 11.976562 -14.40625 10.789062 -14.671875 9.4375 -14.671875 L 4.90625 -14.671875 L 4.90625 -2.078125 Z M 9.4375 -2.078125 "/></g></g></g><g fill="rgb(80.389404%, 38.819885%, 0.389099%)" fill-opacity="1"><g transform="translate(364.59454, 67.792666)"><g><path d="M 9.640625 -16.953125 C 11.304688 -16.953125 12.804688 -16.578125 14.140625 -15.828125 C 15.472656 -15.085938 16.515625 -14.066406 17.265625 -12.765625 C 18.023438 -11.460938 18.40625 -10.007812 18.40625 -8.40625 C 18.40625 -6.769531 18.03125 -5.296875 17.28125 -3.984375 C 16.53125 -2.679688 15.5 -1.660156 14.1875 -0.921875 C 12.882812 -0.179688 11.421875 0.1875 9.796875 0.1875 C 8.148438 0.1875 6.671875 -0.1875 5.359375 -0.9375 C 4.054688 -1.6875 3.03125 -2.71875 2.28125 -4.03125 C 1.53125 -5.351562 1.15625 -6.832031 1.15625 -8.46875 L 1.15625 -9.140625 L 15.984375 -9.140625 C 15.878906 -10.222656 15.535156 -11.195312 14.953125 -12.0625 C 14.367188 -12.925781 13.609375 -13.597656 12.671875 -14.078125 C 11.742188 -14.566406 10.726562 -14.8125 9.625 -14.8125 C 8.601562 -14.8125 7.632812 -14.644531 6.71875 -14.3125 C 5.8125 -13.988281 5.023438 -13.503906 4.359375 -12.859375 L 2.921875 -14.5 C 3.722656 -15.269531 4.703125 -15.867188 5.859375 -16.296875 C 7.023438 -16.734375 8.285156 -16.953125 9.640625 -16.953125 Z M 9.796875 -1.859375 C 11.429688 -1.859375 12.800781 -2.332031 13.90625 -3.28125 C 15.019531 -4.238281 15.695312 -5.515625 15.9375 -7.109375 L 3.609375 -7.109375 C 3.867188 -5.515625 4.550781 -4.238281 5.65625 -3.28125 C 6.769531 -2.332031 8.148438 -1.859375 9.796875 -1.859375 Z M 9.796875 -1.859375 "/></g></g></g><g fill="rgb(80.389404%, 38.819885%, 0.389099%)" fill-opacity="1"><g transform="translate(396.00662, 67.792666)"><g><path d="M 13.71875 0 L 10.109375 -5.140625 C 9.660156 -5.109375 9.304688 -5.09375 9.046875 -5.09375 L 4.90625 -5.09375 L 4.90625 0 L 2.515625 0 L 2.515625 -16.75 L 9.046875 -16.75 C 11.210938 -16.75 12.914062 -16.226562 14.15625 -15.1875 C 15.40625 -14.15625 16.03125 -12.734375 16.03125 -10.921875 C 16.03125 -9.617188 15.710938 -8.515625 15.078125 -7.609375 C 14.441406 -6.703125 13.535156 -6.039062 12.359375 -5.625 L 16.328125 0 Z M 8.96875 -7.140625 C 10.488281 -7.140625 11.644531 -7.460938 12.4375 -8.109375 C 13.238281 -8.765625 13.640625 -9.703125 13.640625 -10.921875 C 13.640625 -12.128906 13.238281 -13.054688 12.4375 -13.703125 C 11.644531 -14.347656 10.488281 -14.671875 8.96875 -14.671875 L 4.90625 -14.671875 L 4.90625 -7.140625 Z M 8.96875 -7.140625 "/></g></g></g><g fill="rgb(80.389404%, 38.819885%, 0.389099%)" fill-opacity="1"><g transform="translate(425.264295, 67.792666)"><g><path d="M 9.640625 -16.953125 C 11.304688 -16.953125 12.804688 -16.578125 14.140625 -15.828125 C 15.472656 -15.085938 16.515625 -14.066406 17.265625 -12.765625 C 18.023438 -11.460938 18.40625 -10.007812 18.40625 -8.40625 C 18.40625 -6.769531 18.03125 -5.296875 17.28125 -3.984375 C 16.53125 -2.679688 15.5 -1.660156 14.1875 -0.921875 C 12.882812 -0.179688 11.421875 0.1875 9.796875 0.1875 C 8.148438 0.1875 6.671875 -0.1875 5.359375 -0.9375 C 4.054688 -1.6875 3.03125 -2.71875 2.28125 -4.03125 C 1.53125 -5.351562 1.15625 -6.832031 1.15625 -8.46875 L 1.15625 -9.140625 L 15.984375 -9.140625 C 15.878906 -10.222656 15.535156 -11.195312 14.953125 -12.0625 C 14.367188 -12.925781 13.609375 -13.597656 12.671875 -14.078125 C 11.742188 -14.566406 10.726562 -14.8125 9.625 -14.8125 C 8.601562 -14.8125 7.632812 -14.644531 6.71875 -14.3125 C 5.8125 -13.988281 5.023438 -13.503906 4.359375 -12.859375 L 2.921875 -14.5 C 3.722656 -15.269531 4.703125 -15.867188 5.859375 -16.296875 C 7.023438 -16.734375 8.285156 -16.953125 9.640625 -16.953125 Z M 9.796875 -1.859375 C 11.429688 -1.859375 12.800781 -2.332031 13.90625 -3.28125 C 15.019531 -4.238281 15.695312 -5.515625 15.9375 -7.109375 L 3.609375 -7.109375 C 3.867188 -5.515625 4.550781 -4.238281 5.65625 -3.28125 C 6.769531 -2.332031 8.148438 -1.859375 9.796875 -1.859375 Z M 9.796875 -1.859375 "/></g></g></g><g fill="rgb(80.389404%, 38.819885%, 0.389099%)" fill-opacity="1"><g transform="translate(456.676368, 67.792666)"><g><path d="M 7.96875 -7.4375 L 4.90625 -4.328125 L 4.90625 0 L 2.515625 0 L 2.515625 -16.75 L 4.90625 -16.75 L 4.90625 -7.390625 L 14 -16.75 L 16.734375 -16.75 L 9.578125 -9.21875 L 17.1875 0 L 14.390625 0 Z M 7.96875 -7.4375 "/></g></g></g></svg>