<svg xmlns="http://www.w3.org/2000/svg" xmlns:xlink="http://www.w3.org/1999/xlink" width="400" zoomAndPan="magnify" viewBox="0 0 300 74.999997" height="100" preserveAspectRatio="xMidYMid meet" version="1.0"><defs><g/></defs><g fill="rgb(23.919678%, 23.919678%, 23.919678%)" fill-opacity="1"><g transform="translate(173.054283, 56.178282)"><g><path d="M 8.082031 2.378906 C 7.804688 1.660156 8.027344 -3.707031 8.46875 -7.195312 C 9.578125 -16.21875 10.792969 -20.480469 16.054688 -33.824219 C 16.996094 -36.257812 17.769531 -38.472656 17.769531 -38.75 C 17.769531 -38.96875 17.933594 -39.300781 18.046875 -39.414062 C 18.65625 -39.910156 21.753906 -40.355469 31.164062 -41.296875 C 32.824219 -41.40625 33.101562 -41.738281 32.382812 -42.402344 C 32.160156 -42.625 31.941406 -42.902344 31.941406 -43.066406 C 31.941406 -43.566406 31.21875 -43.785156 28.230469 -44.285156 C 24.964844 -44.839844 23.195312 -44.839844 19.320312 -44.394531 C 13.394531 -43.675781 6.753906 -41.960938 3.765625 -40.355469 C 2.324219 -39.578125 0.832031 -38.25 0.554688 -37.421875 C 0.277344 -36.757812 0.886719 -35.59375 1.550781 -35.539062 C 1.828125 -35.484375 1.992188 -35.261719 2.046875 -34.929688 C 2.101562 -34.652344 2.378906 -34.265625 2.65625 -34.15625 C 3.15625 -33.878906 3.488281 -34.042969 9.023438 -36.480469 C 9.910156 -36.867188 10.683594 -37.144531 10.738281 -37.144531 C 10.738281 -37.144531 10.351562 -36.035156 9.796875 -34.707031 C 8.027344 -30.222656 5.425781 -21.257812 4.429688 -16.164062 C 3.101562 -9.578125 3.042969 -2.769531 4.207031 -0.332031 C 4.871094 0.941406 6.253906 2.492188 6.863281 2.601562 C 8.136719 2.824219 8.246094 2.769531 8.082031 2.378906 Z M 13.617188 -36.921875 C 14.613281 -38.914062 14.667969 -38.636719 13.726562 -36.535156 C 13.285156 -35.539062 12.453125 -33.488281 11.847656 -31.886719 C 11.238281 -30.335938 10.351562 -27.789062 9.796875 -26.292969 C 9.300781 -24.742188 8.855469 -23.636719 8.855469 -23.804688 C 8.855469 -24.578125 12.34375 -34.210938 13.617188 -36.921875 Z M 8.636719 -23.027344 C 8.746094 -23.359375 8.800781 -23.414062 8.855469 -23.195312 C 8.855469 -22.972656 8.746094 -22.695312 8.636719 -22.472656 C 8.359375 -22.085938 8.359375 -22.417969 8.636719 -23.027344 Z M 7.582031 -19.152344 C 7.582031 -19.429688 7.640625 -19.484375 7.695312 -19.320312 C 7.75 -19.152344 7.75 -18.929688 7.695312 -18.875 C 7.582031 -18.820312 7.527344 -18.929688 7.582031 -19.152344 Z M 5.09375 -3.042969 C 4.980469 -2.933594 4.925781 -3.101562 4.925781 -3.320312 C 4.980469 -3.597656 5.039062 -3.652344 5.09375 -3.488281 C 5.148438 -3.320312 5.148438 -3.101562 5.09375 -3.042969 Z M 5.703125 -4.539062 C 5.703125 -2.65625 5.703125 -1.105469 5.644531 -1.105469 C 5.480469 -1.105469 5.3125 -4.207031 5.480469 -6.144531 C 5.703125 -10.074219 6.917969 -17.714844 7.25 -17.382812 C 7.25 -17.328125 7.195312 -16.660156 7.03125 -15.886719 C 6.253906 -12.621094 5.757812 -7.859375 5.703125 -4.539062 Z M 7.25 -13.394531 C 7.140625 -12.898438 6.976562 -11.292969 6.753906 -9.851562 C 6.585938 -8.414062 6.367188 -6.199219 6.253906 -4.925781 L 6.035156 -2.601562 L 6.144531 -5.3125 C 6.253906 -7.914062 6.976562 -13.949219 7.25 -14.226562 C 7.308594 -14.28125 7.308594 -13.894531 7.25 -13.394531 Z M 7.363281 -14.78125 C 7.308594 -15.5 8.582031 -20.480469 9.6875 -23.96875 C 11.238281 -28.949219 14.503906 -37.421875 15.277344 -38.472656 C 15.445312 -38.695312 15 -37.421875 14.28125 -35.703125 C 12.789062 -32.105469 10.792969 -26.679688 9.742188 -23.414062 C 9.355469 -22.199219 8.636719 -19.652344 8.191406 -17.769531 C 7.75 -15.886719 7.363281 -14.503906 7.363281 -14.78125 Z M 7.363281 -14.78125 "/></g></g></g><g fill="rgb(23.919678%, 23.919678%, 23.919678%)" fill-opacity="1"><g transform="translate(187.610018, 56.178282)"><g><path d="M 11.402344 -24.632812 C 8.800781 -23.859375 6.53125 -22.085938 4.261719 -19.265625 C 0.332031 -14.390625 -1.164062 -7.859375 0.664062 -4.039062 C 1.328125 -2.710938 2.710938 -1.4375 4.707031 -0.277344 C 6.367188 0.664062 6.53125 0.664062 7.914062 0.609375 C 8.855469 0.554688 9.742188 0.386719 10.242188 0.109375 C 13.339844 -1.382812 18.488281 -8.914062 16.828125 -9.519531 C 16.605469 -9.632812 16.164062 -9.1875 15.554688 -8.246094 C 15 -7.472656 13.894531 -6.144531 13.0625 -5.257812 C 11.125 -3.320312 8.691406 -2.046875 6.753906 -1.882812 L 5.480469 -1.828125 L 5.039062 -2.824219 C 4.648438 -3.707031 4.59375 -4.097656 4.707031 -6.089844 C 4.816406 -8.136719 5.589844 -11.292969 5.921875 -11.070312 C 8.523438 -9.632812 10.851562 -10.019531 13.453125 -12.289062 C 16.441406 -14.945312 18.433594 -20.480469 17.050781 -22.472656 C 16.773438 -22.863281 16.496094 -23.195312 16.441406 -23.195312 C 16.386719 -23.195312 15.886719 -23.527344 15.332031 -24.023438 C 14.003906 -25.074219 13.175781 -25.1875 11.402344 -24.632812 Z M 1.828125 -9.519531 C 1.769531 -9.464844 1.714844 -9.578125 1.714844 -9.796875 C 1.714844 -10.019531 1.769531 -10.074219 1.828125 -9.910156 C 1.9375 -9.742188 1.882812 -9.578125 1.828125 -9.519531 Z M 1.9375 -10.738281 C 1.9375 -10.90625 2.046875 -11.238281 2.160156 -11.457031 C 2.269531 -11.734375 2.324219 -11.789062 2.324219 -11.570312 C 2.324219 -11.402344 2.214844 -11.070312 2.160156 -10.851562 C 1.992188 -10.574219 1.9375 -10.515625 1.9375 -10.738281 Z M 2.046875 -8.304688 C 2.214844 -9.578125 2.65625 -11.457031 3.101562 -12.511719 C 3.597656 -13.785156 3.597656 -13.285156 3.042969 -11.570312 C 2.769531 -10.683594 2.4375 -9.355469 2.269531 -8.636719 C 1.992188 -7.363281 1.9375 -7.308594 2.046875 -8.304688 Z M 3.101562 -9.300781 C 3.042969 -9.246094 2.988281 -9.355469 2.988281 -9.578125 C 2.988281 -9.851562 3.042969 -9.851562 3.101562 -9.6875 C 3.15625 -9.578125 3.15625 -9.355469 3.101562 -9.300781 Z M 3.984375 -12.398438 C 3.984375 -12.234375 3.820312 -11.625 3.597656 -11.015625 C 3.265625 -10.242188 3.210938 -10.128906 3.320312 -10.683594 C 3.488281 -11.515625 4.039062 -12.898438 3.984375 -12.398438 Z M 6.917969 -17.714844 C 7.25 -17.992188 7.25 -17.992188 7.03125 -17.660156 C 6.753906 -17.269531 6.585938 -17.160156 6.585938 -17.328125 C 6.585938 -17.382812 6.753906 -17.546875 6.917969 -17.714844 Z M 4.648438 -15.390625 C 4.539062 -15.113281 4.375 -14.945312 4.316406 -14.945312 C 4.261719 -14.945312 4.316406 -15.113281 4.429688 -15.390625 C 4.59375 -15.609375 4.707031 -15.777344 4.761719 -15.777344 C 4.816406 -15.777344 4.761719 -15.609375 4.648438 -15.390625 Z M 5.8125 -15.832031 C 5.371094 -15.113281 4.980469 -14.503906 4.925781 -14.503906 C 4.761719 -14.503906 5.976562 -16.605469 6.308594 -16.882812 C 6.476562 -16.996094 6.253906 -16.550781 5.8125 -15.832031 Z M 15.222656 -17.546875 C 15.222656 -17.4375 15.058594 -17.160156 14.890625 -16.9375 C 14.558594 -16.550781 14.558594 -16.550781 14.78125 -17.050781 C 15.113281 -17.714844 15.222656 -17.824219 15.222656 -17.546875 Z M 14.722656 -21.644531 C 14.945312 -21.367188 14.28125 -19.042969 13.617188 -17.660156 C 12.621094 -15.664062 11.015625 -13.949219 9.410156 -13.230469 C 8.246094 -12.675781 6.585938 -12.398438 6.585938 -12.789062 C 6.585938 -13.121094 8.359375 -15.832031 9.578125 -17.4375 C 11.292969 -19.539062 14.335938 -22.03125 14.722656 -21.644531 Z M 14.722656 -21.644531 "/></g></g></g><g fill="rgb(23.919678%, 23.919678%, 23.919678%)" fill-opacity="1"><g transform="translate(206.371965, 56.178282)"><g><path d="M 24.300781 -31.164062 C 24.078125 -31.164062 23.359375 -32.050781 23.359375 -32.328125 C 23.304688 -32.714844 22.53125 -32.882812 22.03125 -32.550781 C 21.808594 -32.4375 20.535156 -30.886719 19.207031 -29.117188 C 14.78125 -23.25 10.90625 -19.152344 7.640625 -17.050781 C 7.03125 -16.660156 6.53125 -16.441406 6.476562 -16.550781 C 6.367188 -16.882812 7.417969 -20.648438 8.523438 -24.191406 C 10.960938 -31.609375 11.515625 -33.324219 12.953125 -36.921875 C 15.277344 -42.902344 15.5 -43.953125 14.667969 -44.671875 C 14.390625 -44.894531 14.117188 -45.003906 14.003906 -44.949219 C 13.894531 -44.894531 13.839844 -44.949219 13.839844 -45.058594 C 13.839844 -45.226562 13.785156 -45.28125 13.726562 -45.226562 C 13.617188 -45.113281 13.394531 -45.28125 13.230469 -45.503906 C 12.398438 -46.5 11.347656 -45.558594 9.355469 -41.960938 C 8.082031 -39.800781 7.140625 -37.585938 5.3125 -32.605469 C 2.878906 -26.183594 1.660156 -22.03125 0.773438 -17.328125 C -0.386719 -11.515625 0.109375 -4.039062 1.828125 -1.382812 C 2.601562 -0.222656 3.320312 0.222656 4.871094 0.441406 C 5.976562 0.554688 6.089844 0.554688 5.976562 0.167969 C 5.148438 -2.492188 4.484375 -7.085938 4.871094 -7.085938 C 4.980469 -7.085938 6.144531 -6.035156 7.472656 -4.707031 C 8.855469 -3.433594 10.683594 -1.769531 11.515625 -1.105469 C 13.394531 0.277344 16.496094 1.9375 17.824219 2.324219 C 19.097656 2.65625 20.371094 2.65625 20.925781 2.324219 C 21.476562 2.046875 22.472656 0.832031 22.472656 0.554688 C 22.472656 0.386719 22.140625 0.277344 21.753906 0.277344 C 20.261719 0.277344 16.328125 -2.101562 13.175781 -5.039062 C 11.183594 -6.808594 6.863281 -11.402344 6.863281 -11.734375 C 6.863281 -11.789062 7.417969 -12.011719 8.082031 -12.234375 C 9.632812 -12.789062 12.730469 -14.613281 14.503906 -16.054688 C 18.65625 -19.484375 23.859375 -26.015625 24.6875 -28.894531 C 24.964844 -29.78125 24.964844 -30.058594 24.742188 -30.554688 C 24.632812 -30.886719 24.410156 -31.164062 24.300781 -31.164062 Z M 3.929688 -20.09375 C 3.929688 -20.316406 3.984375 -20.371094 4.039062 -20.203125 C 4.152344 -20.039062 4.097656 -19.871094 4.039062 -19.816406 C 3.984375 -19.707031 3.929688 -19.871094 3.929688 -20.09375 Z M 2.546875 -4.429688 C 2.4375 -4.261719 2.214844 -6.644531 2.269531 -8.246094 C 2.269531 -9.6875 2.324219 -9.578125 2.492188 -7.195312 C 2.546875 -5.703125 2.601562 -4.429688 2.546875 -4.429688 Z M 2.769531 -3.433594 C 2.710938 -3.320312 2.710938 -3.433594 2.710938 -3.707031 C 2.710938 -3.984375 2.710938 -4.097656 2.769531 -3.984375 C 2.878906 -3.820312 2.878906 -3.597656 2.769531 -3.433594 Z M 2.878906 -15.222656 C 2.878906 -15.5 2.933594 -15.5 2.988281 -15.332031 C 3.042969 -15.222656 3.042969 -15 2.988281 -14.945312 C 2.933594 -14.890625 2.878906 -15 2.878906 -15.222656 Z M 3.210938 -4.207031 C 3.042969 -4.039062 2.878906 -6.199219 2.878906 -7.804688 C 2.933594 -9.355469 2.933594 -9.246094 3.101562 -6.863281 C 3.210938 -5.425781 3.210938 -4.207031 3.210938 -4.207031 Z M 3.210938 -15.886719 C 3.15625 -15.777344 3.101562 -15.886719 3.101562 -16.164062 C 3.101562 -16.441406 3.15625 -16.550781 3.210938 -16.441406 C 3.265625 -16.273438 3.265625 -16.054688 3.210938 -15.886719 Z M 3.433594 -17.050781 C 3.320312 -16.996094 3.320312 -17.105469 3.320312 -17.328125 C 3.320312 -17.601562 3.375 -17.660156 3.433594 -17.492188 C 3.488281 -17.328125 3.488281 -17.105469 3.433594 -17.050781 Z M 4.039062 -16.109375 C 3.929688 -15.445312 3.765625 -14.890625 3.652344 -14.78125 C 3.542969 -14.667969 3.707031 -15.832031 4.097656 -17.328125 C 4.375 -18.542969 4.375 -17.546875 4.039062 -16.109375 Z M 4.539062 -18.597656 C 4.316406 -18.046875 4.316406 -18.597656 4.539062 -19.320312 C 4.707031 -19.761719 4.707031 -19.761719 4.707031 -19.429688 C 4.707031 -19.207031 4.648438 -18.820312 4.539062 -18.597656 Z M 17.933594 0.71875 C 18.046875 0.71875 18.324219 0.832031 18.488281 0.941406 C 18.65625 1.050781 18.710938 1.105469 18.597656 1.105469 C 18.488281 1.105469 18.210938 1.050781 18.046875 0.941406 C 17.878906 0.832031 17.824219 0.71875 17.933594 0.71875 Z M 13.121094 -44.230469 C 13.175781 -44.230469 12.898438 -43.566406 12.453125 -42.734375 C 12.066406 -41.960938 11.292969 -40.300781 10.738281 -39.136719 C 10.242188 -37.917969 9.246094 -35.484375 8.523438 -33.65625 C 7.859375 -31.886719 7.308594 -30.5 7.308594 -30.667969 C 7.25 -31.664062 12.621094 -44.230469 13.121094 -44.230469 Z M 4.980469 -23.859375 C 4.980469 -24.136719 5.039062 -24.191406 5.09375 -24.023438 C 5.203125 -23.859375 5.148438 -23.691406 5.09375 -23.582031 C 5.039062 -23.527344 4.980469 -23.636719 4.980469 -23.859375 Z M 4.761719 -20.203125 C 4.761719 -20.980469 8.191406 -31.496094 9.851562 -35.648438 C 10.90625 -38.25 13.394531 -43.839844 13.671875 -44.117188 C 13.894531 -44.339844 13.507812 -43.453125 12.566406 -41.296875 C 10.628906 -37.144531 8.914062 -32.660156 6.917969 -26.738281 C 6.53125 -25.519531 5.867188 -23.472656 5.480469 -22.199219 C 5.09375 -20.925781 4.761719 -20.039062 4.761719 -20.203125 Z M 9.1875 -5.535156 C 8.914062 -5.867188 8.914062 -5.921875 9.246094 -5.644531 C 9.464844 -5.480469 9.632812 -5.3125 9.632812 -5.257812 C 9.632812 -5.09375 9.464844 -5.203125 9.1875 -5.535156 Z M 11.015625 -3.875 C 10.40625 -4.375 10.242188 -4.648438 10.574219 -4.375 C 10.90625 -4.152344 11.402344 -3.707031 11.734375 -3.433594 C 12.511719 -2.601562 12.179688 -2.769531 11.015625 -3.875 Z M 14.335938 -1.164062 C 13.671875 -1.605469 12.898438 -2.214844 12.675781 -2.492188 L 12.234375 -2.988281 L 12.789062 -2.546875 C 13.0625 -2.269531 13.839844 -1.714844 14.503906 -1.273438 C 15.167969 -0.832031 15.722656 -0.441406 15.722656 -0.386719 C 15.722656 -0.277344 15.664062 -0.332031 14.335938 -1.164062 Z M 17.660156 0.609375 C 17.660156 0.773438 17.660156 0.773438 16.71875 0.277344 C 16.328125 0.0546875 15.941406 -0.167969 15.941406 -0.222656 C 15.941406 -0.277344 16.328125 -0.167969 16.773438 0.109375 C 17.269531 0.332031 17.660156 0.554688 17.660156 0.609375 Z M 17.328125 -0.109375 C 17.660156 0.222656 17.328125 0.109375 16.441406 -0.441406 C 15.941406 -0.773438 15.5 -1.050781 15.5 -1.105469 C 15.5 -1.21875 16.9375 -0.386719 17.328125 -0.109375 Z M 13.617188 -2.546875 C 14.390625 -1.992188 15.113281 -1.4375 15.222656 -1.382812 C 15.332031 -1.273438 15.332031 -1.164062 15.277344 -1.164062 C 14.558594 -1.164062 6.253906 -9.023438 5.589844 -10.242188 C 5.480469 -10.574219 5.757812 -10.296875 6.253906 -9.742188 C 7.804688 -7.914062 12.179688 -3.652344 13.617188 -2.546875 Z M 22.085938 -30.222656 C 22.199219 -30.28125 22.140625 -30.113281 21.976562 -29.78125 C 21.753906 -29.503906 21.535156 -29.226562 21.476562 -29.226562 C 21.367188 -29.226562 21.867188 -30.058594 22.085938 -30.222656 Z M 20.757812 -28.230469 C 21.089844 -28.453125 21.089844 -28.453125 20.8125 -28.121094 C 20.535156 -27.789062 20.371094 -27.679688 20.371094 -27.84375 C 20.371094 -27.898438 20.535156 -28.066406 20.757812 -28.230469 Z M 20.09375 -27.34375 C 20.425781 -27.621094 20.480469 -27.621094 20.203125 -27.289062 C 19.929688 -26.957031 19.761719 -26.847656 19.761719 -27.011719 C 19.761719 -27.070312 19.929688 -27.234375 20.09375 -27.34375 Z M 15 -20.371094 C 15.222656 -20.59375 15.445312 -20.8125 15.5 -20.8125 C 15.554688 -20.8125 15.445312 -20.59375 15.222656 -20.371094 C 15 -20.148438 14.78125 -19.984375 14.722656 -19.984375 C 14.667969 -19.984375 14.78125 -20.148438 15 -20.371094 Z M 21.035156 -26.292969 C 20.09375 -24.855469 18.210938 -22.640625 16.605469 -20.925781 C 15.777344 -20.09375 14.722656 -19.042969 14.226562 -18.597656 C 13.726562 -18.101562 14.335938 -18.820312 15.609375 -20.148438 C 16.882812 -21.476562 18.597656 -23.472656 19.484375 -24.578125 C 21.367188 -27.011719 21.921875 -27.566406 21.035156 -26.292969 Z M 22.53125 -28.507812 C 22.417969 -28.285156 22.140625 -27.898438 21.976562 -27.679688 L 21.644531 -27.234375 L 21.808594 -27.679688 C 21.921875 -27.898438 22.199219 -28.285156 22.363281 -28.507812 L 22.695312 -28.949219 Z M 23.082031 -30.554688 C 21.476562 -27.898438 18.875 -24.410156 16.882812 -22.199219 C 16.386719 -21.699219 15.832031 -21.203125 15.722656 -21.089844 C 15.554688 -20.980469 16.109375 -21.699219 16.9375 -22.585938 C 18.710938 -24.632812 20.535156 -27.011719 22.140625 -29.503906 C 23.359375 -31.332031 24.023438 -32.105469 23.082031 -30.554688 Z M 23.082031 -30.554688 "/></g></g></g><g fill="rgb(23.919678%, 23.919678%, 23.919678%)" fill-opacity="1"><g transform="translate(227.679786, 56.178282)"><g><path d="M 13.394531 -26.347656 C 12.953125 -26.625 12.179688 -27.125 11.679688 -27.457031 C 9.964844 -28.675781 7.75 -28.175781 5.535156 -26.128906 C 3.820312 -24.523438 2.824219 -22.53125 2.492188 -20.148438 C 2.214844 -17.660156 2.988281 -15.445312 5.480469 -11.847656 C 6.976562 -9.632812 7.363281 -8.523438 7.195312 -6.917969 C 6.976562 -4.59375 5.148438 -2.824219 2.710938 -2.492188 C 1.550781 -2.324219 1.496094 -2.324219 0.664062 -3.042969 C 0.167969 -3.433594 -0.386719 -3.984375 -0.554688 -4.261719 C -0.71875 -4.59375 -0.941406 -4.816406 -1.050781 -4.761719 C -1.164062 -4.761719 -1.328125 -4.871094 -1.4375 -5.039062 C -1.550781 -5.257812 -1.714844 -5.148438 -2.101562 -4.648438 C -2.378906 -4.316406 -2.65625 -3.875 -2.65625 -3.652344 C -2.65625 -2.65625 0.609375 -0.332031 3.042969 0.441406 C 3.652344 0.609375 4.648438 0.664062 5.867188 0.609375 C 8.855469 0.441406 10.90625 -0.71875 12.011719 -2.988281 C 12.511719 -4.039062 12.566406 -4.316406 12.511719 -5.703125 C 12.398438 -7.417969 12.011719 -8.191406 9.910156 -11.570312 C 9.132812 -12.730469 8.304688 -14.226562 8.082031 -14.890625 C 7.140625 -17.328125 7.914062 -20.703125 9.910156 -22.917969 C 10.628906 -23.691406 11.625 -24.410156 12.011719 -24.410156 C 12.121094 -24.410156 12.121094 -23.195312 12.011719 -21.753906 L 11.902344 -19.097656 L 12.566406 -18.820312 C 12.953125 -18.65625 13.175781 -18.488281 13.0625 -18.488281 C 12.953125 -18.488281 12.953125 -18.378906 13.121094 -18.265625 C 13.726562 -17.660156 14.835938 -19.097656 15.390625 -21.203125 C 15.664062 -22.308594 15.722656 -22.695312 15.5 -23.527344 C 15.167969 -24.742188 14.503906 -25.683594 13.394531 -26.347656 Z M 10.128906 -4.816406 C 10.296875 -5.203125 10.40625 -5.371094 10.40625 -5.203125 C 10.40625 -4.871094 9.796875 -3.707031 9.796875 -3.984375 C 9.796875 -4.039062 9.910156 -4.429688 10.128906 -4.816406 Z M 9.410156 -5.425781 C 9.6875 -6.753906 9.742188 -6.863281 9.796875 -6.035156 C 9.796875 -5.589844 9.632812 -5.09375 9.464844 -4.871094 C 9.246094 -4.484375 9.1875 -4.539062 9.410156 -5.425781 Z M 9.078125 -6.308594 C 9.132812 -6.144531 9.132812 -5.921875 9.078125 -5.757812 C 9.023438 -5.644531 8.96875 -5.757812 8.96875 -6.035156 C 8.96875 -6.308594 9.023438 -6.476562 9.078125 -6.308594 Z M 4.648438 -20.648438 C 4.59375 -20.59375 4.539062 -20.703125 4.539062 -20.925781 C 4.539062 -21.203125 4.59375 -21.203125 4.648438 -21.035156 C 4.707031 -20.925781 4.707031 -20.703125 4.648438 -20.648438 Z M 5.148438 -19.761719 C 5.148438 -19.539062 5.09375 -19.320312 4.980469 -19.265625 C 4.648438 -19.042969 5.09375 -21.144531 5.535156 -22.03125 C 5.8125 -22.53125 6.035156 -22.917969 6.089844 -22.917969 C 6.144531 -22.917969 5.921875 -22.308594 5.644531 -21.535156 C 5.371094 -20.757812 5.148438 -19.984375 5.148438 -19.761719 Z M 6.917969 -22.53125 C 6.644531 -21.867188 6.253906 -21.035156 6.089844 -20.59375 L 5.8125 -19.871094 L 5.921875 -20.59375 C 6.035156 -21.421875 6.585938 -22.585938 7.140625 -23.25 C 7.363281 -23.472656 7.25 -23.136719 6.917969 -22.53125 Z M 13.507812 -20.867188 C 13.453125 -20.8125 13.394531 -20.925781 13.394531 -21.144531 C 13.394531 -21.367188 13.453125 -21.421875 13.507812 -21.257812 C 13.5625 -21.144531 13.5625 -20.925781 13.507812 -20.867188 Z M 13.507812 -20.867188 "/></g></g></g><g fill="rgb(23.919678%, 23.919678%, 23.919678%)" fill-opacity="1"><g transform="translate(243.342415, 56.178282)"><g><path d="M 2.933594 -32.382812 C 4.097656 -32.273438 5.09375 -32.160156 5.09375 -32.160156 C 5.09375 -32.105469 4.707031 -30.886719 4.207031 -29.339844 C 0.996094 -19.816406 -0.5 -11.070312 0.332031 -6.253906 C 0.832031 -3.375 2.160156 -1.660156 5.039062 -0.167969 C 6.699219 0.71875 7.695312 0.832031 7.859375 0.332031 C 7.914062 0.167969 7.527344 -0.109375 6.976562 -0.386719 C 5.757812 -0.886719 5.257812 -1.828125 4.925781 -4.261719 C 4.375 -8.246094 5.535156 -14.226562 9.578125 -27.898438 L 10.738281 -31.71875 L 14.117188 -31.71875 C 18.488281 -31.773438 19.265625 -31.886719 19.761719 -32.824219 C 19.984375 -33.214844 20.09375 -33.601562 20.039062 -33.65625 C 19.929688 -33.878906 15.664062 -34.488281 13.175781 -34.652344 L 11.570312 -34.761719 L 11.957031 -36.3125 C 12.179688 -37.144531 12.34375 -38.25 12.34375 -38.859375 C 12.398438 -39.800781 12.34375 -39.964844 11.789062 -40.355469 C 11.457031 -40.574219 10.960938 -41.019531 10.683594 -41.296875 C 10.074219 -41.847656 9.851562 -41.960938 9.410156 -41.628906 C 9.078125 -41.351562 7.804688 -38.804688 6.917969 -36.699219 C 6.367188 -35.207031 6.308594 -35.152344 5.703125 -35.261719 C 5.371094 -35.316406 4.207031 -35.425781 3.15625 -35.484375 C 1.164062 -35.648438 0.332031 -35.425781 0.332031 -34.820312 C 0.332031 -34.652344 0.109375 -34.320312 -0.109375 -34.097656 C -1.050781 -33.15625 -0.277344 -32.769531 2.933594 -32.382812 Z M 2.101562 -12.84375 C 2.046875 -12.789062 1.992188 -12.898438 1.992188 -13.121094 C 2.046875 -13.394531 2.046875 -13.453125 2.160156 -13.285156 C 2.214844 -13.121094 2.214844 -12.953125 2.101562 -12.84375 Z M 2.324219 -10.019531 C 2.269531 -9.851562 2.269531 -9.964844 2.269531 -10.296875 C 2.269531 -10.574219 2.269531 -10.683594 2.324219 -10.515625 C 2.378906 -10.40625 2.378906 -10.128906 2.324219 -10.019531 Z M 4.039062 -22.308594 C 4.097656 -22.695312 4.261719 -23.25 4.375 -23.472656 C 4.484375 -23.746094 4.484375 -23.636719 4.375 -23.136719 C 4.316406 -22.75 4.207031 -22.199219 4.097656 -21.976562 C 3.929688 -21.699219 3.929688 -21.808594 4.039062 -22.308594 Z M 3.707031 -21.144531 C 3.707031 -21.421875 3.765625 -21.476562 3.820312 -21.257812 C 3.875 -21.144531 3.875 -20.925781 3.820312 -20.867188 C 3.765625 -20.8125 3.707031 -20.925781 3.707031 -21.144531 Z M 3.488281 -20.316406 C 3.488281 -20.535156 3.542969 -20.59375 3.597656 -20.425781 C 3.652344 -20.316406 3.652344 -20.09375 3.597656 -20.039062 C 3.542969 -19.984375 3.488281 -20.09375 3.488281 -20.316406 Z M 3.265625 -19.484375 C 3.265625 -19.707031 3.320312 -19.761719 3.433594 -19.597656 C 3.488281 -19.429688 3.488281 -19.265625 3.375 -19.207031 C 3.320312 -19.097656 3.265625 -19.265625 3.265625 -19.484375 Z M 3.042969 -18.597656 C 3.101562 -18.875 3.15625 -18.929688 3.210938 -18.765625 C 3.265625 -18.597656 3.265625 -18.433594 3.15625 -18.324219 C 3.101562 -18.265625 3.042969 -18.378906 3.042969 -18.597656 Z M 2.878906 -17.546875 C 2.878906 -17.824219 2.933594 -17.878906 2.988281 -17.714844 C 3.042969 -17.546875 3.042969 -17.382812 2.988281 -17.269531 C 2.878906 -17.214844 2.824219 -17.328125 2.878906 -17.546875 Z M 2.65625 -16.496094 C 2.769531 -17.050781 2.769531 -17.105469 2.769531 -16.605469 C 2.824219 -16.328125 2.710938 -15.832031 2.65625 -15.554688 C 2.492188 -15.113281 2.4375 -15.113281 2.492188 -15.445312 C 2.492188 -15.664062 2.546875 -16.164062 2.65625 -16.496094 Z M 10.515625 -39.964844 C 10.738281 -40.1875 10.628906 -39.800781 9.796875 -37.476562 C 9.023438 -35.207031 8.746094 -34.652344 8.746094 -35.09375 C 8.746094 -35.316406 10.40625 -39.855469 10.515625 -39.964844 Z M 8.746094 -36.644531 C 8.855469 -36.8125 8.96875 -36.867188 8.96875 -36.757812 C 8.96875 -36.644531 8.855469 -36.425781 8.746094 -36.203125 C 8.636719 -36.035156 8.523438 -35.980469 8.523438 -36.09375 C 8.523438 -36.257812 8.636719 -36.480469 8.746094 -36.644531 Z M 7.140625 -29.671875 C 6.367188 -27.234375 4.375 -20.371094 3.765625 -17.878906 C 3.597656 -16.996094 3.210938 -15.058594 2.933594 -13.5625 C 2.65625 -12.011719 2.4375 -11.070312 2.4375 -11.457031 C 2.4375 -12.234375 3.101562 -16.164062 3.652344 -18.542969 C 4.648438 -22.695312 7.308594 -31.441406 7.695312 -31.886719 C 7.972656 -32.160156 7.972656 -32.050781 7.140625 -29.671875 Z M 6.863281 -31.386719 C 6.976562 -31.550781 7.03125 -31.609375 7.03125 -31.496094 C 7.03125 -31.386719 6.976562 -31.109375 6.863281 -30.945312 C 6.753906 -30.777344 6.644531 -30.722656 6.644531 -30.832031 C 6.644531 -30.945312 6.753906 -31.21875 6.863281 -31.386719 Z M 6.53125 -30.28125 C 6.585938 -30.222656 6.144531 -28.785156 5.589844 -27.011719 C 5.039062 -25.296875 4.539062 -23.96875 4.539062 -24.136719 C 4.539062 -24.46875 6.421875 -30.390625 6.53125 -30.28125 Z M 6.53125 -30.28125 "/></g></g></g><g fill="rgb(23.919678%, 23.919678%, 23.919678%)" fill-opacity="1"><g transform="translate(252.640374, 56.178282)"><g><path d="M 7.75 -26.515625 C 7.472656 -26.40625 7.363281 -26.515625 7.363281 -26.679688 C 7.363281 -26.847656 7.195312 -26.902344 7.03125 -26.847656 C 6.863281 -26.792969 6.699219 -26.902344 6.585938 -27.179688 C 6.421875 -27.789062 5.867188 -28.011719 5.3125 -27.789062 C 3.929688 -27.289062 1.382812 -19.265625 0.5 -12.675781 C -0.5 -5.867188 0.886719 -1.882812 4.871094 0.167969 C 6.308594 0.886719 6.917969 0.773438 6.367188 -0.167969 C 5.589844 -1.605469 5.371094 -2.492188 5.257812 -4.761719 C 5.148438 -7.859375 5.371094 -9.300781 7.25 -17.160156 C 9.1875 -25.351562 9.1875 -25.464844 8.636719 -26.128906 C 8.359375 -26.460938 8.027344 -26.570312 7.75 -26.515625 Z M 4.761719 -22.363281 C 4.816406 -22.253906 4.816406 -22.03125 4.707031 -21.976562 C 4.648438 -21.921875 4.59375 -22.03125 4.59375 -22.253906 C 4.59375 -22.472656 4.648438 -22.53125 4.761719 -22.363281 Z M 3.875 -19.597656 C 3.929688 -19.984375 4.097656 -20.535156 4.207031 -20.757812 C 4.316406 -21.035156 4.316406 -20.980469 4.261719 -20.425781 C 4.152344 -20.039062 4.039062 -19.539062 3.929688 -19.265625 C 3.820312 -18.988281 3.765625 -19.097656 3.875 -19.597656 Z M 2.824219 -15.222656 C 3.042969 -16.441406 3.707031 -18.875 3.707031 -18.597656 C 3.765625 -18.433594 3.542969 -17.492188 3.320312 -16.441406 C 2.878906 -14.613281 2.546875 -13.839844 2.824219 -15.222656 Z M 2.65625 -14.058594 C 2.65625 -13.839844 2.65625 -13.5625 2.601562 -13.453125 C 2.546875 -13.285156 2.546875 -13.453125 2.546875 -13.785156 C 2.546875 -14.171875 2.601562 -14.28125 2.65625 -14.058594 Z M 1.992188 -9.300781 C 1.882812 -9.246094 1.882812 -9.355469 1.882812 -9.578125 C 1.882812 -9.851562 1.9375 -9.910156 1.992188 -9.742188 C 2.046875 -9.578125 2.046875 -9.410156 1.992188 -9.300781 Z M 2.269531 -12.34375 C 2.378906 -13.007812 2.4375 -13.0625 2.4375 -12.511719 C 2.4375 -12.179688 2.378906 -11.625 2.269531 -11.292969 C 2.046875 -10.40625 2.046875 -11.238281 2.269531 -12.34375 Z M 2.4375 -7.527344 C 2.378906 -7.363281 2.324219 -7.527344 2.324219 -7.914062 C 2.324219 -8.246094 2.378906 -8.359375 2.4375 -8.136719 C 2.492188 -7.972656 2.492188 -7.640625 2.4375 -7.527344 Z M 2.710938 -9.910156 C 2.546875 -8.636719 2.546875 -8.636719 2.492188 -9.464844 C 2.4375 -11.402344 3.984375 -18.324219 5.589844 -23.472656 C 5.976562 -24.800781 6.421875 -25.90625 6.53125 -25.90625 C 6.644531 -25.90625 6.644531 -25.851562 6.585938 -25.742188 C 6.199219 -25.074219 3.929688 -16.441406 3.210938 -12.953125 C 3.042969 -12.011719 2.824219 -10.628906 2.710938 -9.910156 Z M 3.875 -12.566406 C 3.820312 -12.453125 3.765625 -12.566406 3.765625 -12.84375 C 3.765625 -13.121094 3.820312 -13.285156 3.875 -13.121094 C 3.929688 -12.953125 3.929688 -12.730469 3.875 -12.566406 Z M 4.097656 -13.5625 C 4.039062 -13.453125 3.984375 -13.617188 3.984375 -13.839844 C 3.984375 -14.058594 4.039062 -14.117188 4.097656 -13.949219 C 4.152344 -13.785156 4.152344 -13.617188 4.097656 -13.5625 Z M 4.484375 -15.445312 C 4.429688 -15.390625 4.375 -15.5 4.375 -15.722656 C 4.429688 -15.941406 4.484375 -15.996094 4.539062 -15.832031 C 4.59375 -15.664062 4.59375 -15.5 4.484375 -15.445312 Z M 4.816406 -16.660156 C 4.648438 -16.21875 4.648438 -16.21875 4.648438 -16.550781 C 4.648438 -16.773438 4.707031 -17.214844 4.816406 -17.492188 C 4.925781 -17.933594 4.980469 -17.933594 4.980469 -17.601562 C 4.980469 -17.382812 4.871094 -16.9375 4.816406 -16.660156 Z M 5.148438 -18.15625 C 5.09375 -18.101562 5.039062 -18.210938 5.039062 -18.433594 C 5.039062 -18.710938 5.09375 -18.765625 5.148438 -18.597656 C 5.203125 -18.433594 5.203125 -18.265625 5.148438 -18.15625 Z M 5.371094 -19.042969 C 5.257812 -18.929688 5.257812 -19.097656 5.257812 -19.320312 C 5.257812 -19.539062 5.3125 -19.597656 5.371094 -19.429688 C 5.425781 -19.265625 5.425781 -19.097656 5.371094 -19.042969 Z M 6.421875 -22.75 C 5.976562 -21.421875 5.644531 -20.480469 5.644531 -20.59375 C 5.644531 -21.035156 6.976562 -25.574219 7.085938 -25.351562 C 7.085938 -25.242188 6.808594 -24.078125 6.421875 -22.75 Z M 10.738281 -36.257812 C 9.964844 -36.257812 7.914062 -34.984375 6.199219 -33.433594 C 5.203125 -32.550781 5.203125 -32.492188 5.480469 -31.886719 C 5.644531 -31.441406 5.867188 -31.277344 6.089844 -31.332031 C 6.308594 -31.386719 6.476562 -31.277344 6.476562 -31.164062 C 6.476562 -31.054688 6.699219 -31.109375 6.976562 -31.332031 C 7.25 -31.550781 7.308594 -31.609375 7.195312 -31.441406 C 6.917969 -31.109375 6.808594 -30.335938 7.03125 -30.113281 C 7.308594 -29.835938 7.914062 -30.058594 8.246094 -30.613281 C 8.855469 -31.609375 10.738281 -33.324219 11.679688 -33.765625 C 12.179688 -33.988281 12.621094 -34.320312 12.621094 -34.488281 C 12.621094 -34.761719 11.070312 -36.257812 10.738281 -36.257812 Z M 10.738281 -36.257812 "/></g></g></g><g fill="rgb(23.919678%, 23.919678%, 23.919678%)" fill-opacity="1"><g transform="translate(261.550916, 56.178282)"><g><path d="M 13.230469 -43.953125 C 12.953125 -44.171875 12.453125 -44.617188 12.121094 -44.949219 C 11.625 -45.445312 11.457031 -45.503906 11.015625 -45.335938 C 10.738281 -45.226562 10.351562 -44.949219 10.183594 -44.726562 C 9.464844 -43.953125 8.246094 -41.738281 7.417969 -39.800781 C 5.589844 -35.59375 2.378906 -25.1875 1.273438 -20.09375 C 0.277344 -15.5 0.167969 -14.722656 0.167969 -10.183594 C 0.167969 -6.144531 0.222656 -5.589844 0.664062 -4.261719 C 1.496094 -1.496094 2.601562 -0.386719 5.039062 0.441406 C 6.585938 0.941406 7.417969 0.386719 6.308594 -0.441406 C 6.035156 -0.71875 5.535156 -1.496094 5.3125 -2.160156 C 4.871094 -3.320312 4.816406 -3.765625 4.816406 -7.308594 C 4.871094 -10.738281 4.925781 -11.570312 5.425781 -13.949219 C 6.367188 -18.378906 7.914062 -23.804688 10.851562 -32.769531 C 12.34375 -37.421875 13.617188 -41.683594 13.726562 -42.347656 C 13.785156 -43.398438 13.785156 -43.566406 13.230469 -43.953125 Z M 9.851562 -40.851562 C 10.019531 -41.183594 10.183594 -41.296875 10.183594 -41.183594 C 10.183594 -41.074219 10.019531 -40.742188 9.851562 -40.464844 C 9.6875 -40.1875 9.578125 -40.023438 9.578125 -40.132812 C 9.578125 -40.242188 9.6875 -40.574219 9.851562 -40.851562 Z M 9.355469 -39.632812 C 9.464844 -39.800781 9.578125 -39.855469 9.578125 -39.691406 C 9.578125 -39.578125 9.464844 -39.359375 9.355469 -39.191406 C 9.246094 -39.027344 9.132812 -38.96875 9.132812 -39.082031 C 9.132812 -39.191406 9.246094 -39.414062 9.355469 -39.632812 Z M 8.914062 -38.582031 C 9.023438 -38.75 9.132812 -38.804688 9.132812 -38.636719 C 9.132812 -38.527344 9.023438 -38.304688 8.914062 -38.140625 C 8.800781 -37.972656 8.746094 -37.917969 8.746094 -38.03125 C 8.746094 -38.140625 8.800781 -38.363281 8.914062 -38.582031 Z M 8.523438 -37.476562 C 8.636719 -37.695312 8.691406 -37.695312 8.691406 -37.585938 C 8.691406 -37.476562 8.636719 -37.253906 8.523438 -37.089844 C 8.414062 -36.921875 8.304688 -36.867188 8.304688 -36.976562 C 8.304688 -37.089844 8.414062 -37.308594 8.523438 -37.476562 Z M 7.804688 -35.59375 C 7.859375 -35.871094 8.027344 -36.257812 8.136719 -36.425781 C 8.246094 -36.644531 8.246094 -36.589844 8.191406 -36.257812 C 8.082031 -35.925781 7.972656 -35.539062 7.859375 -35.371094 C 7.695312 -35.152344 7.695312 -35.261719 7.804688 -35.59375 Z M 7.25 -34.042969 C 7.472656 -34.597656 7.640625 -34.929688 7.640625 -34.761719 C 7.640625 -34.597656 7.472656 -33.988281 7.25 -33.378906 C 7.03125 -32.824219 6.863281 -32.492188 6.863281 -32.660156 C 6.863281 -32.824219 7.03125 -33.433594 7.25 -34.042969 Z M 6.585938 -31.996094 C 6.699219 -32.21875 6.808594 -32.21875 6.808594 -32.105469 C 6.753906 -31.71875 6.421875 -31.054688 6.421875 -31.386719 C 6.421875 -31.550781 6.476562 -31.828125 6.585938 -31.996094 Z M 1.714844 -8.027344 C 1.660156 -7.695312 1.605469 -7.972656 1.605469 -8.582031 C 1.605469 -9.246094 1.660156 -9.519531 1.714844 -9.1875 C 1.769531 -8.855469 1.769531 -8.359375 1.714844 -8.027344 Z M 1.882812 -12.453125 C 1.828125 -12.234375 1.828125 -12.398438 1.828125 -12.789062 C 1.828125 -13.230469 1.828125 -13.394531 1.882812 -13.175781 C 1.9375 -13.007812 1.9375 -12.675781 1.882812 -12.453125 Z M 2.101562 -14.558594 C 2.160156 -14.390625 2.160156 -14.171875 2.101562 -14.003906 C 2.046875 -13.894531 1.992188 -14.003906 1.992188 -14.28125 C 1.992188 -14.558594 2.046875 -14.722656 2.101562 -14.558594 Z M 3.101562 -11.679688 C 2.988281 -10.628906 2.933594 -9.742188 2.878906 -9.6875 C 2.769531 -9.519531 2.824219 -11.902344 2.988281 -12.730469 C 3.15625 -13.285156 3.15625 -12.953125 3.101562 -11.679688 Z M 8.082031 -31.386719 C 7.363281 -29.226562 6.308594 -25.628906 5.644531 -23.359375 C 4.980469 -21.089844 4.152344 -17.992188 3.820312 -16.386719 C 3.488281 -14.835938 3.265625 -14.058594 3.320312 -14.722656 C 3.488281 -16.054688 4.648438 -21.035156 5.480469 -23.746094 C 6.585938 -27.511719 9.1875 -35.425781 9.246094 -35.371094 C 9.300781 -35.316406 8.746094 -33.488281 8.082031 -31.386719 Z M 10.296875 -37.808594 C 9.742188 -36.367188 9.355469 -35.59375 9.6875 -36.644531 C 10.019531 -37.753906 10.683594 -39.414062 10.738281 -39.359375 C 10.792969 -39.300781 10.574219 -38.636719 10.296875 -37.808594 Z M 11.457031 -40.851562 C 11.347656 -40.6875 11.238281 -40.632812 11.238281 -40.796875 C 11.238281 -40.90625 11.347656 -41.128906 11.457031 -41.296875 C 11.570312 -41.460938 11.679688 -41.515625 11.679688 -41.40625 C 11.679688 -41.296875 11.570312 -41.074219 11.457031 -40.851562 Z M 11.183594 -41.792969 C 9.851562 -38.75 8.246094 -34.488281 6.976562 -30.335938 C 3.265625 -18.65625 2.324219 -14.117188 2.378906 -8.359375 C 2.378906 -6.644531 2.324219 -5.203125 2.269531 -5.203125 C 2.214844 -5.203125 2.160156 -5.644531 2.160156 -6.199219 C 2.160156 -6.753906 2.101562 -7.417969 2.046875 -7.640625 C 1.882812 -8.523438 2.4375 -14.058594 2.933594 -16.71875 C 3.488281 -19.375 4.539062 -23.527344 5.644531 -27.070312 C 6.917969 -31.21875 8.304688 -35.484375 9.078125 -37.53125 C 10.019531 -39.964844 11.902344 -44.117188 12.011719 -43.953125 C 12.066406 -43.953125 11.679688 -42.957031 11.183594 -41.792969 Z M 11.183594 -41.792969 "/></g></g></g><g fill="rgb(58.039856%, 49.798584%, 34.118652%)" fill-opacity="1"><g transform="translate(9.501048, 46.975174)"><g><path d="M 5.9375 0.15625 C 4.925781 0.15625 3.945312 0 3 -0.3125 C 2.0625 -0.625 1.320312 -1.03125 0.78125 -1.53125 L 1.5 -3.03125 C 2.007812 -2.570312 2.664062 -2.195312 3.46875 -1.90625 C 4.269531 -1.625 5.09375 -1.484375 5.9375 -1.484375 C 7.050781 -1.484375 7.882812 -1.671875 8.4375 -2.046875 C 8.988281 -2.421875 9.265625 -2.925781 9.265625 -3.5625 C 9.265625 -4.019531 9.113281 -4.390625 8.8125 -4.671875 C 8.507812 -4.960938 8.140625 -5.1875 7.703125 -5.34375 C 7.265625 -5.5 6.640625 -5.671875 5.828125 -5.859375 C 4.816406 -6.109375 4 -6.351562 3.375 -6.59375 C 2.75 -6.84375 2.210938 -7.21875 1.765625 -7.71875 C 1.328125 -8.226562 1.109375 -8.910156 1.109375 -9.765625 C 1.109375 -10.484375 1.296875 -11.128906 1.671875 -11.703125 C 2.054688 -12.285156 2.632812 -12.75 3.40625 -13.09375 C 4.175781 -13.445312 5.128906 -13.625 6.265625 -13.625 C 7.066406 -13.625 7.847656 -13.519531 8.609375 -13.3125 C 9.378906 -13.101562 10.039062 -12.804688 10.59375 -12.421875 L 9.96875 -10.890625 C 9.394531 -11.242188 8.785156 -11.515625 8.140625 -11.703125 C 7.503906 -11.890625 6.878906 -11.984375 6.265625 -11.984375 C 5.179688 -11.984375 4.363281 -11.785156 3.8125 -11.390625 C 3.269531 -10.992188 3 -10.476562 3 -9.84375 C 3 -9.382812 3.148438 -9.007812 3.453125 -8.71875 C 3.765625 -8.4375 4.148438 -8.210938 4.609375 -8.046875 C 5.066406 -7.890625 5.6875 -7.722656 6.46875 -7.546875 C 7.476562 -7.296875 8.289062 -7.046875 8.90625 -6.796875 C 9.519531 -6.554688 10.046875 -6.1875 10.484375 -5.6875 C 10.929688 -5.1875 11.15625 -4.515625 11.15625 -3.671875 C 11.15625 -2.960938 10.960938 -2.316406 10.578125 -1.734375 C 10.191406 -1.148438 9.609375 -0.6875 8.828125 -0.34375 C 8.046875 -0.0078125 7.082031 0.15625 5.9375 0.15625 Z M 5.9375 0.15625 "/></g></g></g><g fill="rgb(58.039856%, 49.798584%, 34.118652%)" fill-opacity="1"><g transform="translate(30.972262, 46.975174)"><g><path d="M 7.75 -13.625 C 9.082031 -13.625 10.285156 -13.320312 11.359375 -12.71875 C 12.429688 -12.125 13.269531 -11.300781 13.875 -10.25 C 14.488281 -9.207031 14.796875 -8.039062 14.796875 -6.75 C 14.796875 -5.445312 14.492188 -4.269531 13.890625 -3.21875 C 13.285156 -2.164062 12.457031 -1.335938 11.40625 -0.734375 C 10.351562 -0.140625 9.171875 0.15625 7.859375 0.15625 C 6.546875 0.15625 5.363281 -0.144531 4.3125 -0.75 C 3.257812 -1.351562 2.429688 -2.179688 1.828125 -3.234375 C 1.222656 -4.296875 0.921875 -5.488281 0.921875 -6.8125 L 0.921875 -7.34375 L 12.84375 -7.34375 C 12.757812 -8.21875 12.484375 -9 12.015625 -9.6875 C 11.546875 -10.382812 10.9375 -10.925781 10.1875 -11.3125 C 9.4375 -11.707031 8.617188 -11.90625 7.734375 -11.90625 C 6.910156 -11.90625 6.132812 -11.773438 5.40625 -11.515625 C 4.675781 -11.253906 4.039062 -10.859375 3.5 -10.328125 L 2.34375 -11.65625 C 2.988281 -12.269531 3.773438 -12.75 4.703125 -13.09375 C 5.640625 -13.445312 6.65625 -13.625 7.75 -13.625 Z M 7.859375 -1.5 C 9.179688 -1.5 10.285156 -1.878906 11.171875 -2.640625 C 12.066406 -3.410156 12.613281 -4.4375 12.8125 -5.71875 L 2.90625 -5.71875 C 3.113281 -4.4375 3.660156 -3.410156 4.546875 -2.640625 C 5.441406 -1.878906 6.546875 -1.5 7.859375 -1.5 Z M 7.859375 -1.5 "/></g></g></g><g fill="rgb(58.039856%, 49.798584%, 34.118652%)" fill-opacity="1"><g transform="translate(56.213614, 46.975174)"><g><path d="M 2.015625 -13.46875 L 7.6875 -13.46875 C 9.113281 -13.46875 10.378906 -13.179688 11.484375 -12.609375 C 12.585938 -12.046875 13.441406 -11.253906 14.046875 -10.234375 C 14.660156 -9.222656 14.96875 -8.054688 14.96875 -6.734375 C 14.96875 -5.410156 14.660156 -4.238281 14.046875 -3.21875 C 13.441406 -2.195312 12.585938 -1.40625 11.484375 -0.84375 C 10.378906 -0.28125 9.113281 0 7.6875 0 L 2.015625 0 Z M 7.578125 -1.671875 C 8.671875 -1.671875 9.628906 -1.878906 10.453125 -2.296875 C 11.273438 -2.722656 11.910156 -3.316406 12.359375 -4.078125 C 12.816406 -4.847656 13.046875 -5.734375 13.046875 -6.734375 C 13.046875 -7.734375 12.816406 -8.613281 12.359375 -9.375 C 11.910156 -10.132812 11.273438 -10.726562 10.453125 -11.15625 C 9.628906 -11.582031 8.671875 -11.796875 7.578125 -11.796875 L 3.9375 -11.796875 L 3.9375 -1.671875 Z M 7.578125 -1.671875 "/></g></g></g><g fill="rgb(58.039856%, 49.798584%, 34.118652%)" fill-opacity="1"><g transform="translate(81.628083, 46.975174)"><g><path d="M 7.75 -13.625 C 9.082031 -13.625 10.285156 -13.320312 11.359375 -12.71875 C 12.429688 -12.125 13.269531 -11.300781 13.875 -10.25 C 14.488281 -9.207031 14.796875 -8.039062 14.796875 -6.75 C 14.796875 -5.445312 14.492188 -4.269531 13.890625 -3.21875 C 13.285156 -2.164062 12.457031 -1.335938 11.40625 -0.734375 C 10.351562 -0.140625 9.171875 0.15625 7.859375 0.15625 C 6.546875 0.15625 5.363281 -0.144531 4.3125 -0.75 C 3.257812 -1.351562 2.429688 -2.179688 1.828125 -3.234375 C 1.222656 -4.296875 0.921875 -5.488281 0.921875 -6.8125 L 0.921875 -7.34375 L 12.84375 -7.34375 C 12.757812 -8.21875 12.484375 -9 12.015625 -9.6875 C 11.546875 -10.382812 10.9375 -10.925781 10.1875 -11.3125 C 9.4375 -11.707031 8.617188 -11.90625 7.734375 -11.90625 C 6.910156 -11.90625 6.132812 -11.773438 5.40625 -11.515625 C 4.675781 -11.253906 4.039062 -10.859375 3.5 -10.328125 L 2.34375 -11.65625 C 2.988281 -12.269531 3.773438 -12.75 4.703125 -13.09375 C 5.640625 -13.445312 6.65625 -13.625 7.75 -13.625 Z M 7.859375 -1.5 C 9.179688 -1.5 10.285156 -1.878906 11.171875 -2.640625 C 12.066406 -3.410156 12.613281 -4.4375 12.8125 -5.71875 L 2.90625 -5.71875 C 3.113281 -4.4375 3.660156 -3.410156 4.546875 -2.640625 C 5.441406 -1.878906 6.546875 -1.5 7.859375 -1.5 Z M 7.859375 -1.5 "/></g></g></g><g fill="rgb(58.039856%, 49.798584%, 34.118652%)" fill-opacity="1"><g transform="translate(106.869435, 46.975174)"><g><path d="M 11.015625 0 L 8.109375 -4.140625 C 7.753906 -4.109375 7.472656 -4.09375 7.265625 -4.09375 L 3.9375 -4.09375 L 3.9375 0 L 2.015625 0 L 2.015625 -13.46875 L 7.265625 -13.46875 C 9.015625 -13.46875 10.390625 -13.050781 11.390625 -12.21875 C 12.390625 -11.382812 12.890625 -10.234375 12.890625 -8.765625 C 12.890625 -7.734375 12.628906 -6.847656 12.109375 -6.109375 C 11.597656 -5.378906 10.867188 -4.847656 9.921875 -4.515625 L 13.125 0 Z M 7.21875 -5.734375 C 8.4375 -5.734375 9.363281 -5.992188 10 -6.515625 C 10.644531 -7.046875 10.96875 -7.796875 10.96875 -8.765625 C 10.96875 -9.742188 10.644531 -10.492188 10 -11.015625 C 9.363281 -11.535156 8.4375 -11.796875 7.21875 -11.796875 L 3.9375 -11.796875 L 3.9375 -5.734375 Z M 7.21875 -5.734375 "/></g></g></g><g fill="rgb(58.039856%, 49.798584%, 34.118652%)" fill-opacity="1"><g transform="translate(130.379604, 46.975174)"><g><path d="M 7.75 -13.625 C 9.082031 -13.625 10.285156 -13.320312 11.359375 -12.71875 C 12.429688 -12.125 13.269531 -11.300781 13.875 -10.25 C 14.488281 -9.207031 14.796875 -8.039062 14.796875 -6.75 C 14.796875 -5.445312 14.492188 -4.269531 13.890625 -3.21875 C 13.285156 -2.164062 12.457031 -1.335938 11.40625 -0.734375 C 10.351562 -0.140625 9.171875 0.15625 7.859375 0.15625 C 6.546875 0.15625 5.363281 -0.144531 4.3125 -0.75 C 3.257812 -1.351562 2.429688 -2.179688 1.828125 -3.234375 C 1.222656 -4.296875 0.921875 -5.488281 0.921875 -6.8125 L 0.921875 -7.34375 L 12.84375 -7.34375 C 12.757812 -8.21875 12.484375 -9 12.015625 -9.6875 C 11.546875 -10.382812 10.9375 -10.925781 10.1875 -11.3125 C 9.4375 -11.707031 8.617188 -11.90625 7.734375 -11.90625 C 6.910156 -11.90625 6.132812 -11.773438 5.40625 -11.515625 C 4.675781 -11.253906 4.039062 -10.859375 3.5 -10.328125 L 2.34375 -11.65625 C 2.988281 -12.269531 3.773438 -12.75 4.703125 -13.09375 C 5.640625 -13.445312 6.65625 -13.625 7.75 -13.625 Z M 7.859375 -1.5 C 9.179688 -1.5 10.285156 -1.878906 11.171875 -2.640625 C 12.066406 -3.410156 12.613281 -4.4375 12.8125 -5.71875 L 2.90625 -5.71875 C 3.113281 -4.4375 3.660156 -3.410156 4.546875 -2.640625 C 5.441406 -1.878906 6.546875 -1.5 7.859375 -1.5 Z M 7.859375 -1.5 "/></g></g></g><g fill="rgb(58.039856%, 49.798584%, 34.118652%)" fill-opacity="1"><g transform="translate(155.62095, 46.975174)"><g><path d="M 6.40625 -5.984375 L 3.9375 -3.484375 L 3.9375 0 L 2.015625 0 L 2.015625 -13.46875 L 3.9375 -13.46875 L 3.9375 -5.9375 L 11.25 -13.46875 L 13.4375 -13.46875 L 7.6875 -7.40625 L 13.8125 0 L 11.5625 0 Z M 6.40625 -5.984375 "/></g></g></g></svg>