<svg xmlns="http://www.w3.org/2000/svg" xmlns:xlink="http://www.w3.org/1999/xlink" width="800" zoomAndPan="magnify" viewBox="0 0 600 187.499995" height="250" preserveAspectRatio="xMidYMid meet" version="1.0"><defs><g/></defs><g fill="#ffffff" fill-opacity="1"><g transform="translate(126.484723, 108.053832)"><g><path d="M 14.53125 0.511719 C 20.546875 0.511719 26.460938 -3.363281 26.460938 -9.738281 C 26.460938 -15.5 21.160156 -17.742188 15.5 -19.984375 C 11.164062 -21.769531 5.914062 -23.707031 5.914062 -28.5 C 5.914062 -32.832031 9.433594 -35.230469 13.5625 -35.230469 C 19.375 -35.230469 22.941406 -32.070312 24.828125 -27.632812 L 25.339844 -27.785156 L 25.136719 -33.699219 C 23.148438 -34.769531 19.832031 -36.046875 15.191406 -36.046875 C 7.699219 -36.046875 2.753906 -32.273438 2.753906 -26.308594 C 2.753906 -20.902344 6.578125 -18.761719 12.59375 -16.367188 C 16.875 -14.632812 23.148438 -12.289062 23.148438 -7.1875 C 23.148438 -3.058594 19.628906 -0.40625 15.550781 -0.40625 C 8.464844 -0.40625 4.589844 -4.945312 2.601562 -10.296875 L 2.039062 -10.195312 L 2.292969 -3.109375 C 4.691406 -1.375 9.175781 0.511719 14.53125 0.511719 Z M 14.53125 0.511719 "/></g></g></g><g fill="#ffffff" fill-opacity="1"><g transform="translate(154.575381, 108.053832)"><g><path d="M 12.234375 0.40625 C 19.375 0.40625 25.644531 -5.300781 25.644531 -13.664062 C 25.644531 -21.3125 20.597656 -25.949219 14.121094 -25.949219 C 8.769531 -25.949219 4.539062 -22.332031 1.9375 -18.761719 L 2.394531 -18.304688 C 4.742188 -20.902344 7.75 -22.839844 12.082031 -22.839844 C 18.253906 -22.839844 22.128906 -18.253906 22.128906 -11.0625 C 22.128906 -10.246094 22.074219 -9.433594 21.921875 -8.617188 L 1.988281 -8.617188 C 2.140625 -3.773438 5.863281 0.40625 12.234375 0.40625 Z M 6.066406 -7.953125 L 21.820312 -7.953125 C 20.953125 -3.773438 18.253906 -0.457031 13.917969 -0.457031 C 9.277344 -0.511719 6.578125 -4.539062 6.066406 -7.953125 Z M 6.066406 -7.953125 "/></g></g></g><g fill="#ffffff" fill-opacity="1"><g transform="translate(182.411128, 108.053832)"><g><path d="M 13.101562 0.5625 C 16.722656 0.613281 19.882812 -1.835938 22.382812 -4.4375 L 22.382812 -1.53125 C 22.382812 -0.5625 22.941406 0 23.910156 0 L 28.398438 0 L 28.398438 -0.664062 C 26.816406 -1.121094 26.359375 -2.292969 26.359375 -6.476562 L 26.359375 -40.839844 L 25.949219 -41.195312 L 20.34375 -38.746094 L 20.34375 -38.1875 C 21.71875 -37.574219 22.382812 -37.066406 22.382812 -33.496094 L 22.382812 -23.808594 C 20.597656 -24.929688 18.253906 -25.796875 15.449219 -25.796875 C 6.679688 -25.746094 1.835938 -19.222656 1.835938 -12.132812 C 1.835938 -4.945312 6.78125 0.511719 13.101562 0.5625 Z M 5.660156 -15.191406 C 5.660156 -20.597656 8.464844 -24.828125 13.867188 -24.828125 C 18.148438 -24.828125 21.921875 -21.160156 22.382812 -17.84375 L 22.382812 -5.351562 C 20.394531 -3.3125 18.046875 -1.9375 15.398438 -1.9375 C 8.464844 -1.9375 5.660156 -9.226562 5.660156 -15.191406 Z M 5.660156 -15.191406 "/></g></g></g><g fill="#ffffff" fill-opacity="1"><g transform="translate(211.980243, 108.053832)"><g><path d="M 12.234375 0.40625 C 19.375 0.40625 25.644531 -5.300781 25.644531 -13.664062 C 25.644531 -21.3125 20.597656 -25.949219 14.121094 -25.949219 C 8.769531 -25.949219 4.539062 -22.332031 1.9375 -18.761719 L 2.394531 -18.304688 C 4.742188 -20.902344 7.75 -22.839844 12.082031 -22.839844 C 18.253906 -22.839844 22.128906 -18.253906 22.128906 -11.0625 C 22.128906 -10.246094 22.074219 -9.433594 21.921875 -8.617188 L 1.988281 -8.617188 C 2.140625 -3.773438 5.863281 0.40625 12.234375 0.40625 Z M 6.066406 -7.953125 L 21.820312 -7.953125 C 20.953125 -3.773438 18.253906 -0.457031 13.917969 -0.457031 C 9.277344 -0.511719 6.578125 -4.539062 6.066406 -7.953125 Z M 6.066406 -7.953125 "/></g></g></g><g fill="#ffffff" fill-opacity="1"><g transform="translate(239.81599, 108.053832)"><g><path d="M 1.632812 0 L 9.6875 0 L 9.6875 -0.664062 C 8.105469 -1.121094 7.648438 -2.292969 7.648438 -6.476562 L 7.648438 -16.621094 L 7.699219 -16.621094 C 7.851562 -19.066406 9.6875 -21.921875 11.164062 -22.992188 C 14.171875 -22.128906 16.160156 -21.566406 17.539062 -21.566406 C 19.375 -21.566406 20.496094 -23.351562 20.496094 -24.472656 C 20.496094 -25.339844 19.222656 -25.847656 17.179688 -25.847656 C 14.734375 -25.847656 12.949219 -25.1875 11.371094 -24.011719 C 9.839844 -22.890625 8.464844 -21.160156 7.648438 -19.171875 L 7.648438 -25.542969 L 7.1875 -25.898438 L 1.632812 -23.453125 L 1.632812 -22.890625 C 3.007812 -22.28125 3.671875 -21.769531 3.671875 -18.203125 L 3.671875 -6.476562 C 3.671875 -2.292969 3.210938 -1.121094 1.632812 -0.664062 Z M 1.632812 0 "/></g></g></g><g fill="#ffffff" fill-opacity="1"><g transform="translate(261.228109, 108.053832)"><g><path d="M 12.234375 0.40625 C 19.375 0.40625 25.644531 -5.300781 25.644531 -13.664062 C 25.644531 -21.3125 20.597656 -25.949219 14.121094 -25.949219 C 8.769531 -25.949219 4.539062 -22.332031 1.9375 -18.761719 L 2.394531 -18.304688 C 4.742188 -20.902344 7.75 -22.839844 12.082031 -22.839844 C 18.253906 -22.839844 22.128906 -18.253906 22.128906 -11.0625 C 22.128906 -10.246094 22.074219 -9.433594 21.921875 -8.617188 L 1.988281 -8.617188 C 2.140625 -3.773438 5.863281 0.40625 12.234375 0.40625 Z M 6.066406 -7.953125 L 21.820312 -7.953125 C 20.953125 -3.773438 18.253906 -0.457031 13.917969 -0.457031 C 9.277344 -0.511719 6.578125 -4.539062 6.066406 -7.953125 Z M 6.066406 -7.953125 "/></g></g></g><g fill="#ffffff" fill-opacity="1"><g transform="translate(289.063855, 108.053832)"><g><path d="M 1.886719 0 L 9.941406 0 L 9.941406 -0.664062 C 8.363281 -1.121094 7.902344 -2.292969 7.902344 -6.476562 L 7.902344 -10.144531 L 12.644531 -14.734375 L 17.285156 -6.117188 C 19.78125 -1.53125 21.464844 0 23.960938 0 L 27.277344 0 L 27.277344 -0.613281 C 24.980469 -0.765625 23.402344 -3.109375 21.414062 -6.679688 L 15.449219 -17.4375 L 19.117188 -21.003906 C 22.128906 -23.859375 23.808594 -24.371094 25.339844 -24.828125 L 25.339844 -25.492188 L 19.324219 -25.492188 L 19.324219 -25.136719 C 20.445312 -24.625 20.085938 -22.839844 16.773438 -19.578125 L 7.902344 -11.0625 L 7.902344 -40.839844 L 7.445312 -41.195312 L 1.886719 -38.746094 L 1.886719 -38.1875 C 3.261719 -37.574219 3.925781 -37.066406 3.925781 -33.496094 L 3.925781 -6.476562 C 3.925781 -2.292969 3.46875 -1.121094 1.886719 -0.664062 Z M 1.886719 0 "/></g></g></g><g fill="#ffffff" fill-opacity="1"><g transform="translate(316.083902, 108.053832)"><g/></g></g><g fill="#ffffff" fill-opacity="1"><g transform="translate(326.789956, 108.053832)"><g><path d="M 10.144531 0 L 18.457031 0 L 18.457031 -0.664062 C 16.875 -1.121094 16.417969 -2.292969 16.417969 -6.476562 L 16.417969 -34.875 L 18.8125 -34.875 C 23.402344 -34.875 25.390625 -33.648438 27.125 -29.980469 L 27.683594 -30.082031 L 27.378906 -35.6875 L 1.121094 -35.6875 L 0.816406 -30.082031 L 1.375 -29.980469 C 3.109375 -33.648438 5.097656 -34.875 9.6875 -34.875 L 12.183594 -34.875 L 12.183594 -6.476562 C 12.183594 -2.292969 11.726562 -1.121094 10.144531 -0.664062 Z M 10.144531 0 "/></g></g></g><g fill="#ffffff" fill-opacity="1"><g transform="translate(355.339455, 108.053832)"><g><path d="M 13.917969 0.511719 C 19.375 0.511719 23.351562 -3.109375 25.949219 -6.679688 L 25.492188 -7.136719 C 23.148438 -4.488281 20.34375 -2.703125 16.417969 -2.703125 C 9.789062 -2.703125 5.457031 -7.496094 5.457031 -14.480469 C 5.457031 -15.296875 5.507812 -16.058594 5.609375 -16.824219 L 25.542969 -16.824219 C 25.390625 -21.667969 21.667969 -25.847656 15.246094 -25.847656 C 8.105469 -25.847656 1.835938 -20.292969 1.835938 -11.980469 C 1.835938 -3.570312 8.308594 0.511719 13.917969 0.511719 Z M 5.761719 -17.488281 C 6.578125 -21.769531 9.226562 -24.980469 13.5625 -24.929688 C 18.203125 -24.929688 20.953125 -20.902344 21.464844 -17.488281 Z M 5.761719 -17.488281 "/></g></g></g><g fill="#ffffff" fill-opacity="1"><g transform="translate(382.716384, 108.053832)"><g><path d="M 1.886719 0 L 9.941406 0 L 9.941406 -0.664062 C 8.363281 -1.121094 7.902344 -2.292969 7.902344 -6.476562 L 7.902344 -10.144531 L 12.644531 -14.734375 L 17.285156 -6.117188 C 19.78125 -1.53125 21.464844 0 23.960938 0 L 27.277344 0 L 27.277344 -0.613281 C 24.980469 -0.765625 23.402344 -3.109375 21.414062 -6.679688 L 15.449219 -17.4375 L 19.117188 -21.003906 C 22.128906 -23.859375 23.808594 -24.371094 25.339844 -24.828125 L 25.339844 -25.492188 L 19.324219 -25.492188 L 19.324219 -25.136719 C 20.445312 -24.625 20.085938 -22.839844 16.773438 -19.578125 L 7.902344 -11.0625 L 7.902344 -40.839844 L 7.445312 -41.195312 L 1.886719 -38.746094 L 1.886719 -38.1875 C 3.261719 -37.574219 3.925781 -37.066406 3.925781 -33.496094 L 3.925781 -6.476562 C 3.925781 -2.292969 3.46875 -1.121094 1.886719 -0.664062 Z M 1.886719 0 "/></g></g></g><g fill="#ffffff" fill-opacity="1"><g transform="translate(409.736431, 108.053832)"><g><path d="M 11.523438 0.457031 C 17.640625 0.40625 20.851562 -3.210938 20.851562 -7.496094 C 20.851562 -12.59375 16.160156 -13.765625 12.289062 -15.039062 C 8.257812 -16.367188 4.996094 -17.691406 4.996094 -20.902344 C 4.996094 -23.503906 7.238281 -25.1875 10.707031 -25.1875 C 14.328125 -25.1875 17.589844 -22.839844 19.222656 -19.171875 L 19.730469 -19.273438 L 19.527344 -24.472656 C 17.945312 -25.136719 14.9375 -25.847656 11.625 -25.847656 C 5.710938 -25.847656 2.34375 -22.738281 2.34375 -18.710938 C 2.34375 -14.070312 5.8125 -12.746094 10.65625 -11.214844 C 14.582031 -9.941406 18.148438 -8.769531 18.148438 -5.097656 C 18.148438 -2.242188 15.804688 -0.355469 12.644531 -0.355469 C 8.003906 -0.40625 4.382812 -3.3125 2.242188 -8.15625 L 1.785156 -8.054688 L 2.242188 -1.886719 C 3.925781 -0.765625 7.445312 0.457031 11.523438 0.457031 Z M 11.523438 0.457031 "/></g></g></g><g fill="#ffffff" fill-opacity="1"><g transform="translate(432.423079, 108.053832)"><g><path d="M 9.636719 0.511719 C 12.644531 0.511719 15.246094 -1.683594 17.4375 -4.179688 L 16.976562 -4.640625 C 15.296875 -2.652344 13.511719 -1.988281 12.082031 -1.988281 C 9.890625 -1.988281 8.464844 -3.3125 8.464844 -6.78125 L 8.464844 -24.777344 L 15.957031 -24.777344 L 16.214844 -25.492188 L 8.464844 -25.492188 L 8.464844 -31.761719 L 7.75 -31.761719 L 1.222656 -25.492188 L 1.222656 -24.777344 L 4.488281 -24.777344 L 4.488281 -6.78125 C 4.488281 -1.480469 6.425781 0.511719 9.636719 0.511719 Z M 9.636719 0.511719 "/></g></g></g><g fill="#ffffff" fill-opacity="1"><g transform="translate(449.960616, 108.053832)"><g><path d="M 1.632812 0 L 9.6875 0 L 9.6875 -0.664062 C 8.15625 -1.121094 7.648438 -2.292969 7.648438 -6.476562 L 7.648438 -25.542969 L 7.238281 -25.898438 L 1.632812 -23.453125 L 1.632812 -22.890625 C 3.058594 -22.28125 3.671875 -21.769531 3.671875 -18.203125 L 3.671875 -6.476562 C 3.671875 -2.292969 3.210938 -1.121094 1.632812 -0.664062 Z M 2.550781 -31.8125 C 2.550781 -30.285156 3.773438 -29.011719 5.351562 -29.011719 C 6.933594 -29.011719 8.15625 -30.285156 8.15625 -31.8125 C 8.15625 -33.445312 6.984375 -34.667969 5.351562 -34.667969 C 3.773438 -34.667969 2.550781 -33.445312 2.550781 -31.8125 Z M 2.550781 -31.8125 "/></g></g></g><g fill="#ffffff" fill-opacity="1"><g transform="translate(461.431384, 108.053832)"><g><path d="M 1.9375 0 L 9.992188 0 L 9.992188 -0.664062 C 8.414062 -1.121094 7.953125 -2.292969 7.953125 -6.476562 L 7.953125 -40.839844 L 7.496094 -41.195312 L 1.9375 -38.746094 L 1.9375 -38.1875 C 3.3125 -37.574219 3.976562 -37.066406 3.976562 -33.496094 L 3.976562 -6.476562 C 3.976562 -2.292969 3.46875 -1.121094 1.9375 -0.664062 Z M 1.9375 0 "/></g></g></g></svg>