<svg xmlns="http://www.w3.org/2000/svg" xmlns:xlink="http://www.w3.org/1999/xlink" width="1200" zoomAndPan="magnify" viewBox="0 0 900 74.999997" height="100" preserveAspectRatio="xMidYMid meet" version="1.0"><defs><g/><clipPath id="id1"><path d="M 567.6875 2.621094 L 638 2.621094 L 638 72.371094 L 567.6875 72.371094 Z M 567.6875 2.621094 " clip-rule="nonzero"/></clipPath></defs><rect x="-90" width="1080" fill="rgb(100%, 100%, 100%)" y="-7.5" height="89.999996" fill-opacity="1"/><rect x="-90" width="1080" fill="rgb(100%, 79.60968%, 39.608765%)" y="-7.5" height="89.999996" fill-opacity="1"/><rect x="-90" width="1080" fill="rgb(100%, 100%, 100%)" y="-7.5" height="89.999996" fill-opacity="1"/><rect x="-90" width="1080" fill="rgb(100%, 79.60968%, 39.608765%)" y="-7.5" height="89.999996" fill-opacity="1"/><g clip-path="url(#id1)"><path fill="rgb(46.269226%, 23.529053%, 0%)" d="M 636.203125 36.539062 C 634.570312 34.246094 631.929688 32.714844 630.789062 32.121094 C 633.6875 26.835938 633.671875 15.277344 632.875 12.058594 C 631.996094 8.527344 628.898438 5.234375 625.351562 4.050781 C 622.695312 3.167969 620.464844 4.121094 619.625 4.582031 C 618.851562 4.003906 616.785156 2.621094 614.875 2.621094 C 612.710938 2.621094 609.699219 3.550781 607.617188 7.992188 C 606.460938 10.472656 606.644531 13.808594 606.792969 16.488281 C 606.890625 18.195312 606.976562 19.800781 606.660156 20.496094 C 605.914062 22.128906 604.351562 22.152344 604.292969 22.152344 C 604.292969 22.152344 604.292969 22.152344 604.285156 22.152344 C 604.0625 22.152344 603.859375 22.285156 603.773438 22.496094 C 603.683594 22.707031 603.734375 22.941406 603.902344 23.105469 C 603.980469 23.179688 605.859375 24.96875 608.0625 24.648438 C 609.007812 24.511719 609.675781 24.0625 610.125 23.578125 C 610.492188 25.726562 611.207031 27.304688 612.269531 28.296875 C 611.34375 29.53125 608.757812 33.117188 608.273438 35.265625 C 607.96875 36.636719 608.085938 37.949219 608.28125 38.902344 C 607.960938 38.613281 607.65625 38.242188 607.488281 37.800781 C 607.316406 37.363281 607.421875 36.210938 607.511719 35.195312 C 607.707031 33.027344 607.90625 30.789062 606.332031 30.554688 C 605.28125 30.394531 604.242188 31.683594 601.792969 34.882812 L 601.695312 34.5 C 601.5 33.765625 600.855469 33.273438 600.128906 33.230469 L 600.128906 23.164062 C 600.128906 20.035156 592.238281 18.347656 584.8125 18.347656 C 577.386719 18.347656 569.5 20.035156 569.5 23.164062 L 569.5 49.863281 C 568.914062 51.589844 567.851562 55.117188 567.851562 57.980469 C 567.851562 60.730469 568.675781 63.558594 569.164062 65.003906 C 569.386719 65.652344 569.5 66.328125 569.5 67.019531 L 569.5 71.816406 C 569.5 72.121094 569.746094 72.371094 570.054688 72.371094 L 633.460938 72.371094 C 633.699219 72.371094 633.914062 72.214844 633.988281 71.988281 C 634.011719 71.929688 634.464844 70.5 634.464844 68.835938 C 634.464844 67.46875 633.871094 65.917969 633.625 65.320312 C 634.871094 62.964844 635.769531 60.28125 636.378906 58.183594 C 636.390625 58.148438 636.402344 58.117188 636.40625 58.082031 C 636.613281 57.402344 636.78125 56.789062 636.925781 56.273438 L 637.074219 55.738281 C 637.082031 55.71875 637.082031 55.710938 637.085938 55.691406 C 637.097656 55.652344 637.109375 55.613281 637.113281 55.578125 C 637.976562 52.222656 638.78125 40.171875 636.203125 36.539062 Z M 635.296875 37.179688 C 637.480469 40.253906 636.917969 51.253906 636.128906 54.929688 C 633.109375 54.972656 630.167969 54.390625 626.953125 53.113281 C 627.492188 50.695312 627.902344 48.070312 628.199219 45.195312 C 628.230469 44.890625 628.007812 44.621094 627.703125 44.585938 C 627.402344 44.554688 627.125 44.777344 627.089844 45.082031 C 626.78125 48.097656 626.339844 50.832031 625.75 53.339844 C 625.5625 54.175781 625.351562 54.988281 625.121094 55.777344 C 624.855469 56.710938 624.558594 57.609375 624.25 58.472656 C 624.105469 58.351562 623.949219 58.226562 623.792969 58.105469 C 621.90625 56.65625 620.488281 56.074219 619.726562 55.84375 C 619.78125 55.566406 619.808594 55.28125 619.808594 54.988281 C 619.808594 54.625 619.765625 54.269531 619.683594 53.933594 L 620.785156 53.371094 C 621.0625 53.234375 621.167969 52.902344 621.027344 52.632812 C 620.890625 52.355469 620.554688 52.25 620.277344 52.386719 L 619.28125 52.898438 C 618.835938 52.078125 618.136719 51.414062 617.289062 51.007812 L 618.203125 48.796875 C 618.320312 48.511719 618.179688 48.1875 617.898438 48.070312 C 617.617188 47.960938 617.289062 48.09375 617.171875 48.375 L 616.683594 49.554688 C 616.488281 48.578125 616.289062 47.324219 616.289062 46.203125 C 616.289062 44.925781 616.644531 43.464844 616.941406 42.472656 C 617.753906 43.753906 618.679688 44.511719 618.703125 44.527344 C 618.804688 44.609375 618.925781 44.652344 619.046875 44.648438 C 619.140625 44.648438 619.238281 44.625 619.320312 44.582031 C 619.519531 44.472656 619.632812 44.25 619.605469 44.027344 C 619.597656 43.996094 619.1875 40.585938 620.695312 38.980469 C 621.328125 38.304688 622.261719 37.941406 623.449219 37.480469 C 625.15625 36.808594 627.285156 35.972656 629.578125 33.769531 C 629.792969 33.5625 630 33.328125 630.1875 33.0625 C 631.191406 33.578125 633.765625 35.039062 635.296875 37.179688 Z M 615.59375 57.011719 C 615.4375 56.746094 615.097656 56.660156 614.832031 56.816406 C 614.570312 56.976562 614.488281 57.316406 614.644531 57.582031 L 615.066406 58.285156 C 614.71875 58.253906 614.386719 58.171875 614.082031 58.046875 C 614.074219 58.039062 614.074219 58.039062 614.074219 58.039062 C 613.402344 57.757812 612.839844 57.257812 612.480469 56.632812 C 612.46875 56.605469 612.453125 56.582031 612.433594 56.554688 C 612.183594 56.089844 612.039062 55.554688 612.039062 54.988281 C 612.039062 54.640625 612.09375 54.304688 612.195312 53.988281 L 612.894531 54.425781 C 612.992188 54.480469 613.089844 54.507812 613.191406 54.507812 C 613.375 54.507812 613.558594 54.417969 613.664062 54.246094 C 613.824219 53.992188 613.746094 53.648438 613.484375 53.488281 L 612.707031 53.003906 C 613.101562 52.476562 613.652344 52.078125 614.285156 51.863281 C 614.625 51.738281 614.988281 51.679688 615.367188 51.679688 C 615.511719 51.679688 615.65625 51.691406 615.792969 51.707031 L 615.003906 53.621094 C 614.886719 53.910156 615.027344 54.230469 615.308594 54.347656 C 615.375 54.375 615.449219 54.390625 615.523438 54.390625 C 615.738281 54.390625 615.945312 54.257812 616.035156 54.042969 L 616.863281 52.035156 C 617.46875 52.335938 617.964844 52.8125 618.292969 53.402344 L 617.523438 53.789062 C 617.25 53.925781 617.144531 54.265625 617.285156 54.535156 C 617.378906 54.722656 617.574219 54.835938 617.78125 54.835938 C 617.863281 54.835938 617.953125 54.816406 618.03125 54.773438 L 618.652344 54.457031 C 618.679688 54.628906 618.699219 54.808594 618.699219 54.988281 C 618.699219 55.378906 618.628906 55.742188 618.507812 56.085938 C 618.152344 57.09375 617.324219 57.875 616.289062 58.167969 Z M 610.789062 59.300781 C 611.042969 58.636719 611.394531 58.101562 611.851562 57.679688 C 612.152344 58.066406 612.511719 58.40625 612.917969 58.671875 C 612.445312 59.183594 612.101562 59.785156 611.894531 60.449219 C 611.40625 59.9375 611.015625 59.539062 610.789062 59.300781 Z M 608.71875 58.167969 C 608.691406 58.15625 608.667969 58.144531 608.640625 58.132812 C 607.367188 57.507812 605.699219 56.628906 604.808594 55.851562 C 603.574219 54.777344 602.09375 52.597656 601.511719 51.707031 C 601.347656 51.453125 601.261719 51.167969 601.253906 50.886719 C 601.253906 50.570312 601.304688 50.132812 601.542969 49.808594 C 601.738281 49.546875 602.050781 49.304688 602.457031 49.097656 C 603.0625 48.800781 603.484375 48.246094 603.617188 47.582031 C 603.703125 47.171875 603.851562 46.828125 604.058594 46.589844 C 604.402344 46.1875 605.109375 46.09375 605.507812 46.082031 L 606.929688 47.492188 C 607.144531 47.710938 607.496094 47.710938 607.710938 47.492188 C 607.929688 47.277344 607.929688 46.925781 607.710938 46.707031 L 606.15625 45.15625 L 605.84375 44.847656 C 605.539062 44.550781 605.53125 44.066406 605.828125 43.757812 C 606.121094 43.441406 606.617188 43.425781 606.933594 43.714844 L 608.886719 45.484375 L 608.925781 45.523438 L 609.265625 45.828125 C 609.425781 45.984375 609.546875 46.175781 609.601562 46.390625 L 609.96875 47.796875 C 610.039062 48.046875 610.257812 48.214844 610.511719 48.214844 C 610.554688 48.214844 610.597656 48.207031 610.648438 48.191406 C 610.945312 48.113281 611.121094 47.816406 611.042969 47.515625 L 610.683594 46.117188 C 610.566406 45.691406 610.335938 45.308594 610.015625 45.015625 L 609.675781 44.703125 L 609.664062 44.691406 C 609.53125 44.578125 609.503906 44.425781 609.496094 44.316406 C 609.496094 44.144531 609.5625 43.96875 609.691406 43.847656 C 609.816406 43.722656 609.976562 43.664062 610.148438 43.664062 C 610.320312 43.664062 610.476562 43.734375 610.59375 43.863281 C 611.1875 44.519531 612 45.5 612.457031 46.410156 C 613.089844 47.664062 613.367188 50.066406 613.457031 51.003906 C 612.78125 51.324219 612.195312 51.8125 611.765625 52.414062 L 609.820312 51.199219 C 609.5625 51.035156 609.21875 51.113281 609.050781 51.367188 C 608.890625 51.628906 608.96875 51.972656 609.230469 52.132812 L 611.234375 53.382812 C 611.03125 53.882812 610.925781 54.425781 610.925781 54.988281 C 610.925781 55.597656 611.050781 56.179688 611.277344 56.707031 C 610.664062 57.21875 610.183594 57.882812 609.835938 58.691406 C 609.546875 58.558594 609.160156 58.382812 608.71875 58.167969 Z M 614.207031 29.359375 C 614.570312 29.457031 614.941406 29.507812 615.316406 29.519531 C 614.902344 31.164062 613.980469 32.625 612.589844 33.859375 C 612.484375 33.953125 612.351562 33.996094 612.222656 33.996094 C 612.066406 33.996094 611.917969 33.9375 611.804688 33.816406 C 611.601562 33.582031 611.621094 33.234375 611.851562 33.027344 C 613.046875 31.972656 613.835938 30.742188 614.207031 29.359375 Z M 628.867188 22.050781 C 628.789062 25.230469 628.21875 28.109375 627.253906 30.167969 C 627.15625 30.367188 626.957031 30.484375 626.75 30.484375 C 626.675781 30.484375 626.589844 30.464844 626.519531 30.433594 C 626.234375 30.304688 626.117188 29.972656 626.246094 29.695312 C 627.019531 28.042969 627.523438 25.800781 627.699219 23.28125 C 628.140625 22.960938 628.542969 22.542969 628.867188 22.050781 Z M 627.269531 16.039062 C 627.097656 15.160156 626.886719 14.324219 626.628906 13.542969 C 626.535156 13.253906 626.695312 12.941406 626.992188 12.847656 C 627.285156 12.753906 627.597656 12.914062 627.691406 13.207031 C 628.054688 14.328125 628.335938 15.558594 628.542969 16.863281 C 628.175781 16.457031 627.734375 16.171875 627.269531 16.039062 Z M 625.214844 16.371094 C 624.945312 14.242188 624.632812 12.714844 624.625 12.695312 C 624.566406 12.398438 624.761719 12.105469 625.0625 12.042969 C 625.359375 11.984375 625.65625 12.175781 625.71875 12.476562 C 625.726562 12.542969 626.015625 13.9375 626.285156 15.96875 C 625.921875 16.023438 625.5625 16.171875 625.214844 16.371094 Z M 615.777344 50.589844 C 615.644531 50.578125 615.503906 50.570312 615.367188 50.570312 C 615.082031 50.570312 614.808594 50.601562 614.542969 50.648438 C 614.425781 49.515625 614.121094 47.238281 613.453125 45.910156 C 612.941406 44.890625 612.0625 43.835938 611.417969 43.121094 C 611.109375 42.785156 610.695312 42.582031 610.242188 42.5625 C 610.761719 41.464844 611.484375 40.574219 612.40625 39.898438 C 612.65625 39.714844 612.710938 39.367188 612.527344 39.125 C 612.34375 38.875 612 38.824219 611.75 39.003906 C 610.894531 39.632812 610.183594 40.414062 609.632812 41.347656 C 609.648438 40.988281 609.691406 40.628906 609.765625 40.292969 C 609.847656 39.910156 609.964844 39.5625 610.144531 39.273438 C 610.726562 38.332031 612.269531 37.136719 613.628906 36.078125 C 613.871094 35.898438 614.097656 35.714844 614.320312 35.535156 C 614.742188 36.050781 615.308594 36.449219 616.015625 36.738281 C 615.515625 38.382812 615.738281 39.867188 616.222656 41.082031 C 615.976562 41.765625 615.175781 44.140625 615.175781 46.203125 C 615.175781 47.78125 615.53125 49.546875 615.777344 50.589844 Z M 616.417969 35.699219 C 615.886719 35.492188 615.484375 35.203125 615.183594 34.839844 C 615.511719 34.5625 615.804688 34.300781 616.050781 34.046875 C 616.328125 34.296875 616.65625 34.484375 617.039062 34.617188 C 616.816406 34.933594 616.605469 35.289062 616.417969 35.699219 Z M 611.027344 21.847656 C 610.9375 20.664062 610.9375 19.316406 611.023438 17.8125 C 611.25 13.691406 612.382812 10.820312 614.054688 10.117188 C 615.515625 9.496094 617.703125 11.015625 618.417969 11.648438 C 618.554688 11.765625 618.738281 11.8125 618.902344 11.777344 C 618.988281 11.761719 621.042969 11.378906 622.503906 13.664062 C 624.007812 16.027344 622.507812 19.117188 622.496094 19.144531 C 622.363281 19.410156 622.464844 19.726562 622.714844 19.871094 C 622.96875 20.019531 623.292969 19.941406 623.453125 19.699219 C 623.832031 19.140625 624.910156 17.738281 625.917969 17.230469 C 625.921875 17.230469 625.929688 17.226562 625.933594 17.226562 C 625.988281 17.195312 626.046875 17.175781 626.101562 17.152344 C 626.285156 17.082031 626.460938 17.042969 626.636719 17.046875 C 627.058594 17.058594 627.386719 17.273438 627.625 17.511719 C 627.707031 17.589844 627.773438 17.671875 627.835938 17.75 C 628.382812 18.46875 628.609375 19.5625 628.386719 20.414062 C 628.277344 20.84375 628.09375 21.226562 627.851562 21.558594 C 627.339844 22.277344 626.597656 22.753906 625.917969 22.960938 C 625.832031 22.980469 625.757812 23.003906 625.679688 23.019531 C 624.878906 23.191406 623.777344 22.527344 623.417969 22.257812 C 623.175781 22.074219 622.824219 22.117188 622.636719 22.363281 C 622.453125 22.605469 622.496094 22.949219 622.742188 23.136719 C 622.898438 23.257812 624.1875 24.210938 625.515625 24.148438 C 625.355469 26.136719 624.960938 27.660156 624.332031 28.6875 C 623.046875 30.796875 621.613281 31.507812 620.234375 32.199219 C 619.421875 32.601562 618.59375 33.011719 617.847656 33.699219 C 617.363281 33.605469 616.984375 33.421875 616.710938 33.152344 C 617.367188 31.90625 617.414062 30.113281 617.390625 29.269531 C 620.195312 28.523438 622.613281 26.386719 622.757812 26.257812 C 622.984375 26.054688 623.007812 25.707031 622.800781 25.480469 C 622.597656 25.25 622.246094 25.230469 622.019531 25.433594 C 621.984375 25.460938 619.414062 27.730469 616.722656 28.296875 C 616.699219 28.300781 616.683594 28.300781 616.667969 28.308594 C 616.101562 28.421875 615.527344 28.460938 614.976562 28.386719 C 614.71875 28.351562 614.476562 28.289062 614.230469 28.207031 C 613.925781 28.101562 613.640625 27.953125 613.378906 27.769531 C 612.046875 26.816406 611.261719 24.835938 611.027344 21.847656 Z M 600.613281 34.777344 L 601 36.230469 L 601.007812 36.273438 L 601.628906 38.621094 C 601.664062 38.773438 601.644531 38.9375 601.558594 39.074219 C 601.484375 39.210938 601.347656 39.3125 601.191406 39.355469 C 601.109375 39.378906 601.027344 39.378906 600.941406 39.367188 C 600.714844 39.328125 600.519531 39.164062 600.453125 38.925781 L 599.546875 35.46875 C 599.542969 35.460938 599.542969 35.453125 599.542969 35.449219 L 599.445312 35.089844 C 599.402344 34.929688 599.425781 34.765625 599.507812 34.628906 C 599.570312 34.523438 599.65625 34.441406 599.765625 34.390625 C 599.773438 34.390625 599.785156 34.386719 599.792969 34.378906 C 599.820312 34.367188 599.847656 34.359375 599.878906 34.351562 C 599.929688 34.335938 599.980469 34.332031 600.03125 34.332031 C 600.296875 34.332031 600.542969 34.511719 600.613281 34.777344 Z M 599.414062 40.652344 C 599.378906 40.601562 599.335938 40.558594 599.28125 40.53125 C 599.242188 40.480469 599.207031 40.429688 599.183594 40.371094 L 598.15625 37.828125 L 597.695312 36.6875 C 597.632812 36.539062 597.640625 36.378906 597.699219 36.230469 C 597.761719 36.078125 597.882812 35.96875 598.027344 35.90625 C 598.191406 35.847656 598.363281 35.851562 598.511719 35.925781 L 599.378906 39.207031 C 599.511719 39.714844 599.871094 40.113281 600.320312 40.324219 C 600.269531 40.492188 600.148438 40.636719 599.96875 40.707031 C 599.773438 40.785156 599.570312 40.75 599.414062 40.652344 Z M 598.113281 41.738281 C 598.105469 41.742188 598.101562 41.742188 598.09375 41.742188 C 598.066406 41.753906 598.046875 41.765625 598.015625 41.777344 C 598.015625 41.777344 598.015625 41.777344 598.011719 41.777344 C 597.75 41.851562 597.464844 41.742188 597.328125 41.515625 C 597.316406 41.503906 597.3125 41.492188 597.304688 41.480469 C 597.292969 41.464844 597.289062 41.445312 597.277344 41.421875 L 596.382812 39.207031 C 596.328125 39.0625 596.328125 38.898438 596.386719 38.746094 C 596.453125 38.605469 596.570312 38.488281 596.722656 38.425781 C 596.875 38.367188 597.054688 38.371094 597.203125 38.449219 L 598.152344 40.785156 C 598.222656 40.960938 598.324219 41.121094 598.441406 41.261719 C 598.417969 41.460938 598.296875 41.644531 598.113281 41.738281 Z M 577.613281 54.417969 C 577.21875 53.550781 576.503906 51.257812 577.855469 48.09375 C 579.628906 43.953125 583.933594 40.90625 583.976562 40.875 C 584.226562 40.703125 584.289062 40.351562 584.113281 40.105469 C 583.933594 39.855469 583.589844 39.792969 583.332031 39.972656 C 583.148438 40.097656 578.734375 43.226562 576.832031 47.660156 C 575.363281 51.082031 576.078125 53.65625 576.558594 54.777344 C 576.234375 54.875 575.945312 54.949219 575.691406 55 C 573.914062 55.359375 572.585938 55.195312 571.746094 54.511719 C 570.613281 53.582031 570.613281 51.890625 570.613281 51.292969 C 570.613281 50.871094 570.605469 50.179688 570.921875 49.203125 C 571.425781 47.632812 572.746094 45.320312 576.203125 42.191406 C 578.277344 40.308594 581.914062 38.074219 585.761719 35.703125 C 585.9375 35.597656 586.109375 35.492188 586.28125 35.382812 C 591.519531 32.15625 596.792969 28.859375 599.019531 25.882812 L 599.019531 27.433594 C 598.25 30.007812 596.460938 31.574219 594.386719 33.382812 C 592.777344 34.785156 591.113281 36.234375 589.71875 38.339844 C 589.550781 38.59375 589.625 38.9375 589.878906 39.101562 C 589.972656 39.164062 590.078125 39.195312 590.183594 39.195312 C 590.363281 39.195312 590.542969 39.109375 590.648438 38.945312 C 591.960938 36.972656 593.566406 35.570312 595.121094 34.214844 C 596.59375 32.929688 598.011719 31.691406 599.019531 30.085938 L 599.019531 33.554688 C 598.828125 33.6875 598.667969 33.863281 598.546875 34.070312 C 598.421875 34.285156 598.34375 34.519531 598.324219 34.757812 C 598.082031 34.75 597.84375 34.789062 597.617188 34.878906 C 597.1875 35.050781 596.855469 35.375 596.675781 35.792969 C 596.5 36.210938 596.492188 36.675781 596.664062 37.105469 L 596.742188 37.292969 C 596.59375 37.308594 596.449219 37.347656 596.304688 37.402344 C 595.882812 37.570312 595.546875 37.894531 595.363281 38.316406 C 595.1875 38.738281 595.179688 39.203125 595.351562 39.621094 L 596.191406 41.703125 C 594.757812 43.257812 593.355469 44.59375 591.925781 45.789062 C 586.898438 49.984375 581.113281 53.113281 577.613281 54.417969 Z M 570.613281 25.0625 C 571.601562 25.839844 573.183594 26.464844 575.101562 26.933594 C 575.105469 26.941406 575.117188 26.941406 575.121094 26.941406 C 575.160156 26.949219 575.207031 26.960938 575.246094 26.972656 C 575.246094 26.972656 575.246094 26.972656 575.25 26.972656 C 578.019531 27.636719 581.464844 27.980469 584.8125 27.980469 C 589.640625 27.980469 594.664062 27.265625 597.589844 25.910156 C 595.246094 28.507812 590.378906 31.550781 585.808594 34.367188 C 583.175781 34.367188 580.605469 34.308594 578.039062 33.726562 C 577.742188 33.65625 577.441406 33.84375 577.375 34.140625 C 577.304688 34.441406 577.492188 34.734375 577.792969 34.804688 C 579.863281 35.277344 581.980469 35.421875 584.039062 35.460938 C 580.578125 37.601562 577.398438 39.617188 575.457031 41.371094 C 572.910156 43.679688 571.445312 45.601562 570.613281 47.144531 Z M 584.8125 19.457031 C 593.617188 19.457031 599.019531 21.613281 599.019531 23.164062 C 599.019531 24.679688 593.804688 26.796875 585.28125 26.867188 C 585.125 26.875 584.96875 26.875 584.8125 26.875 C 581.03125 26.875 577.882812 26.476562 575.511719 25.894531 C 574.707031 25.402344 573.242188 24.222656 573.605469 23.550781 C 574.320312 22.230469 578.722656 21.375 584.8125 21.375 C 590.832031 21.375 593.933594 22.722656 593.933594 23.292969 C 593.933594 23.640625 592.789062 24.273438 590.542969 24.714844 C 590.765625 24.253906 590.8125 23.746094 590.480469 23.242188 C 589.894531 22.378906 588.3125 22.039062 584.8125 22.039062 C 582.617188 22.039062 578.898438 22.5 578.898438 24.210938 C 578.898438 26.257812 584.757812 26.316406 584.8125 26.316406 C 584.96875 26.316406 585.117188 26.316406 585.273438 26.308594 C 590.070312 26.253906 595.046875 25.300781 595.046875 23.292969 C 595.046875 21.214844 589.742188 20.269531 584.8125 20.269531 C 580.820312 20.269531 573.925781 20.628906 572.625 23.03125 C 572.242188 23.742188 572.46875 24.453125 572.914062 25.074219 C 571.417969 24.449219 570.613281 23.757812 570.613281 23.164062 C 570.613281 21.613281 576.011719 19.457031 584.8125 19.457031 Z M 570.222656 64.648438 C 569.75 63.269531 568.964844 60.570312 568.964844 57.980469 C 568.964844 56.445312 569.304688 54.667969 569.699219 53.117188 C 569.933594 54.074219 570.382812 54.828125 571.046875 55.367188 C 571.800781 55.980469 572.796875 56.289062 574.027344 56.289062 C 574.605469 56.289062 575.234375 56.222656 575.914062 56.085938 C 576.347656 55.996094 576.871094 55.847656 577.476562 55.636719 C 577.507812 55.625 577.535156 55.613281 577.570312 55.605469 C 581.152344 54.339844 587.332031 51.066406 592.644531 46.636719 C 594.0625 45.457031 595.449219 44.128906 596.867188 42.605469 C 597.050781 42.726562 597.261719 42.820312 597.476562 42.859375 C 597.109375 43.757812 596.539062 44.664062 595.769531 45.5625 C 595.570312 45.800781 595.597656 46.148438 595.832031 46.34375 C 595.9375 46.429688 596.066406 46.476562 596.191406 46.476562 C 596.347656 46.476562 596.511719 46.410156 596.617188 46.28125 C 597.632812 45.085938 598.34375 43.867188 598.730469 42.65625 C 599.050781 42.46875 599.296875 42.167969 599.429688 41.824219 C 599.535156 41.84375 599.640625 41.851562 599.746094 41.851562 C 599.957031 41.851562 600.175781 41.816406 600.382812 41.730469 C 600.953125 41.503906 601.34375 41.007812 601.4375 40.429688 C 601.449219 40.429688 601.460938 40.429688 601.472656 40.425781 L 601.476562 40.425781 C 601.921875 40.308594 602.289062 40.03125 602.523438 39.632812 C 602.601562 39.5 602.660156 39.363281 602.695312 39.21875 C 602.777344 38.9375 602.777344 38.632812 602.699219 38.339844 L 602.148438 36.238281 L 602.621094 35.625 C 604.046875 33.769531 605.652344 31.667969 606.171875 31.644531 C 606.707031 31.726562 606.5 34.003906 606.40625 35.101562 C 606.289062 36.394531 606.1875 37.519531 606.449219 38.199219 C 606.910156 39.394531 608.007812 40.152344 608.601562 40.484375 C 608.414062 41.714844 608.539062 42.960938 608.609375 43.453125 C 608.570312 43.519531 608.539062 43.585938 608.511719 43.652344 L 607.683594 42.894531 C 606.921875 42.203125 605.726562 42.246094 605.019531 42.992188 C 604.46875 43.574219 604.351562 44.394531 604.667969 45.074219 C 604.175781 45.179688 603.613281 45.40625 603.210938 45.871094 C 602.882812 46.257812 602.652344 46.761719 602.527344 47.359375 C 602.460938 47.6875 602.253906 47.964844 601.960938 48.109375 C 601.386719 48.394531 600.949219 48.746094 600.648438 49.148438 C 600.3125 49.601562 600.140625 50.207031 600.140625 50.894531 C 600.148438 51.386719 600.296875 51.878906 600.582031 52.308594 C 601.183594 53.238281 602.734375 55.527344 604.078125 56.6875 C 605.035156 57.519531 606.722656 58.421875 608.035156 59.0625 C 608.335938 59.898438 609.4375 63.089844 609.59375 65.464844 C 609.730469 67.617188 609.660156 70.179688 609.613281 71.265625 L 570.613281 71.265625 L 570.613281 67.019531 C 570.613281 66.203125 570.476562 65.40625 570.222656 64.648438 Z M 610.734375 71.265625 C 610.769531 70.140625 610.84375 67.59375 610.703125 65.390625 C 610.582031 63.46875 609.898438 61.128906 609.4375 59.722656 C 609.601562 59.800781 609.738281 59.855469 609.820312 59.894531 C 610.066406 60.152344 610.804688 60.921875 611.785156 61.925781 C 612.746094 62.910156 613.949219 64.125 615.144531 65.285156 C 614.78125 67.269531 614.6875 69.277344 614.875 71.265625 Z M 633.355469 68.835938 C 633.355469 69.839844 633.164062 70.765625 633.035156 71.265625 L 616 71.265625 C 615.828125 69.585938 615.867188 67.898438 616.117188 66.226562 C 617.679688 67.714844 619.125 69 619.910156 69.460938 C 621.3125 70.273438 623.382812 70.988281 625.578125 70.988281 C 626.65625 70.988281 627.757812 70.816406 628.828125 70.40625 C 630.449219 69.78125 631.796875 68.339844 632.902344 66.570312 C 633.125 67.21875 633.355469 68.074219 633.355469 68.835938 Z M 632.523438 65.003906 C 631.425781 67.035156 630.066406 68.738281 628.425781 69.371094 C 625.542969 70.476562 622.339844 69.597656 620.476562 68.503906 C 619.636719 68.007812 617.902344 66.421875 616.109375 64.675781 C 614.960938 63.558594 613.785156 62.378906 612.816406 61.394531 C 612.945312 60.503906 613.328125 59.773438 613.96875 59.179688 C 614.410156 59.328125 614.875 59.40625 615.367188 59.40625 C 615.488281 59.40625 615.609375 59.402344 615.734375 59.390625 L 616.773438 61.113281 C 616.878906 61.289062 617.0625 61.382812 617.25 61.382812 C 617.347656 61.382812 617.445312 61.355469 617.535156 61.304688 C 617.796875 61.144531 617.886719 60.808594 617.722656 60.546875 L 616.878906 59.140625 C 617.980469 58.75 618.875 57.929688 619.375 56.894531 C 619.992188 57.078125 621.3125 57.597656 623.113281 58.980469 C 623.457031 59.246094 623.777344 59.523438 624.070312 59.804688 C 624.085938 59.828125 624.109375 59.851562 624.132812 59.867188 C 625.988281 61.675781 626.800781 63.613281 626.8125 63.628906 C 626.894531 63.847656 627.109375 63.980469 627.324219 63.980469 C 627.398438 63.980469 627.464844 63.960938 627.535156 63.933594 C 627.820312 63.820312 627.953125 63.496094 627.84375 63.214844 C 627.804688 63.121094 626.996094 61.191406 625.128906 59.289062 C 625.445312 58.453125 625.738281 57.585938 626.011719 56.683594 C 628.753906 57.941406 631.609375 58.582031 634.503906 58.582031 C 634.707031 58.582031 634.902344 58.578125 635.101562 58.570312 C 634.5 60.535156 633.644531 62.9375 632.523438 65.003906 Z M 632.523438 65.003906 " fill-opacity="1" fill-rule="nonzero"/></g><path fill="rgb(46.269226%, 23.529053%, 0%)" d="M 595.78125 54.164062 C 595.941406 54.164062 596.105469 54.097656 596.214844 53.964844 C 597.667969 52.210938 598.957031 50.484375 600.082031 48.773438 C 602.605469 44.941406 604.320312 41.1875 605.28125 37.425781 C 605.359375 37.132812 605.175781 36.828125 604.882812 36.75 C 604.585938 36.675781 604.28125 36.855469 604.203125 37.152344 C 604.003906 37.933594 603.769531 38.714844 603.496094 39.496094 C 601.960938 43.996094 599.28125 48.523438 595.351562 53.257812 C 595.15625 53.496094 595.191406 53.84375 595.429688 54.039062 C 595.53125 54.125 595.660156 54.164062 595.78125 54.164062 Z M 595.78125 54.164062 " fill-opacity="1" fill-rule="nonzero"/><path fill="rgb(46.269226%, 23.529053%, 0%)" d="M 593.644531 68.121094 C 593.460938 68.363281 593.507812 68.707031 593.75 68.894531 C 593.851562 68.96875 593.972656 69.007812 594.089844 69.007812 C 594.257812 69.007812 594.425781 68.929688 594.53125 68.785156 C 596.109375 66.71875 598.183594 65.035156 600.699219 63.796875 C 600.96875 63.660156 601.082031 63.328125 600.949219 63.054688 C 600.808594 62.777344 600.476562 62.667969 600.203125 62.804688 C 597.535156 64.125 595.324219 65.910156 593.644531 68.121094 Z M 593.644531 68.121094 " fill-opacity="1" fill-rule="nonzero"/><path fill="rgb(46.269226%, 23.529053%, 0%)" d="M 594.289062 39.882812 C 594.53125 39.695312 594.574219 39.34375 594.378906 39.101562 C 594.191406 38.863281 593.839844 38.824219 593.601562 39.019531 C 592.027344 40.257812 590.667969 41.765625 589.558594 43.484375 C 589.390625 43.746094 589.46875 44.085938 589.722656 44.25 C 589.820312 44.3125 589.925781 44.339844 590.023438 44.339844 C 590.207031 44.339844 590.386719 44.25 590.492188 44.085938 C 591.539062 42.46875 592.816406 41.050781 594.289062 39.882812 Z M 594.289062 39.882812 " fill-opacity="1" fill-rule="nonzero"/><path fill="rgb(46.269226%, 23.529053%, 0%)" d="M 575.152344 70.46875 C 575.195312 70.46875 575.246094 70.460938 575.289062 70.449219 C 582.199219 68.644531 589.167969 65.21875 596.003906 60.269531 C 596.253906 60.09375 596.308594 59.746094 596.125 59.5 C 595.949219 59.253906 595.597656 59.195312 595.351562 59.375 C 588.621094 64.246094 581.78125 67.609375 575.007812 69.375 C 574.710938 69.453125 574.535156 69.757812 574.609375 70.058594 C 574.679688 70.300781 574.902344 70.46875 575.152344 70.46875 Z M 575.152344 70.46875 " fill-opacity="1" fill-rule="nonzero"/><g fill="rgb(46.269226%, 23.529053%, 0%)" fill-opacity="1"><g transform="translate(382.39819, 56.178282)"><g><path d="M 8.082031 2.378906 C 7.804688 1.660156 8.027344 -3.707031 8.46875 -7.195312 C 9.578125 -16.21875 10.792969 -20.480469 16.054688 -33.824219 C 16.996094 -36.257812 17.769531 -38.472656 17.769531 -38.75 C 17.769531 -38.96875 17.933594 -39.300781 18.046875 -39.414062 C 18.65625 -39.910156 21.753906 -40.355469 31.164062 -41.296875 C 32.824219 -41.40625 33.101562 -41.738281 32.382812 -42.402344 C 32.160156 -42.625 31.941406 -42.902344 31.941406 -43.066406 C 31.941406 -43.566406 31.21875 -43.785156 28.230469 -44.285156 C 24.964844 -44.839844 23.195312 -44.839844 19.320312 -44.394531 C 13.394531 -43.675781 6.753906 -41.960938 3.765625 -40.355469 C 2.324219 -39.578125 0.832031 -38.25 0.554688 -37.421875 C 0.277344 -36.757812 0.886719 -35.59375 1.550781 -35.539062 C 1.828125 -35.484375 1.992188 -35.261719 2.046875 -34.929688 C 2.101562 -34.652344 2.378906 -34.265625 2.65625 -34.15625 C 3.15625 -33.878906 3.488281 -34.042969 9.023438 -36.480469 C 9.910156 -36.867188 10.683594 -37.144531 10.738281 -37.144531 C 10.738281 -37.144531 10.351562 -36.035156 9.796875 -34.707031 C 8.027344 -30.222656 5.425781 -21.257812 4.429688 -16.164062 C 3.101562 -9.578125 3.042969 -2.769531 4.207031 -0.332031 C 4.871094 0.941406 6.253906 2.492188 6.863281 2.601562 C 8.136719 2.824219 8.246094 2.769531 8.082031 2.378906 Z M 13.617188 -36.921875 C 14.613281 -38.914062 14.667969 -38.636719 13.726562 -36.535156 C 13.285156 -35.539062 12.453125 -33.488281 11.847656 -31.886719 C 11.238281 -30.335938 10.351562 -27.789062 9.796875 -26.292969 C 9.300781 -24.742188 8.855469 -23.636719 8.855469 -23.804688 C 8.855469 -24.578125 12.34375 -34.210938 13.617188 -36.921875 Z M 8.636719 -23.027344 C 8.746094 -23.359375 8.800781 -23.414062 8.855469 -23.195312 C 8.855469 -22.972656 8.746094 -22.695312 8.636719 -22.472656 C 8.359375 -22.085938 8.359375 -22.417969 8.636719 -23.027344 Z M 7.582031 -19.152344 C 7.582031 -19.429688 7.640625 -19.484375 7.695312 -19.320312 C 7.75 -19.152344 7.75 -18.929688 7.695312 -18.875 C 7.582031 -18.820312 7.527344 -18.929688 7.582031 -19.152344 Z M 5.09375 -3.042969 C 4.980469 -2.933594 4.925781 -3.101562 4.925781 -3.320312 C 4.980469 -3.597656 5.039062 -3.652344 5.09375 -3.488281 C 5.148438 -3.320312 5.148438 -3.101562 5.09375 -3.042969 Z M 5.703125 -4.539062 C 5.703125 -2.65625 5.703125 -1.105469 5.644531 -1.105469 C 5.480469 -1.105469 5.3125 -4.207031 5.480469 -6.144531 C 5.703125 -10.074219 6.917969 -17.714844 7.25 -17.382812 C 7.25 -17.328125 7.195312 -16.660156 7.03125 -15.886719 C 6.253906 -12.621094 5.757812 -7.859375 5.703125 -4.539062 Z M 7.25 -13.394531 C 7.140625 -12.898438 6.976562 -11.292969 6.753906 -9.851562 C 6.585938 -8.414062 6.367188 -6.199219 6.253906 -4.925781 L 6.035156 -2.601562 L 6.144531 -5.3125 C 6.253906 -7.914062 6.976562 -13.949219 7.25 -14.226562 C 7.308594 -14.28125 7.308594 -13.894531 7.25 -13.394531 Z M 7.363281 -14.78125 C 7.308594 -15.5 8.582031 -20.480469 9.6875 -23.96875 C 11.238281 -28.949219 14.503906 -37.421875 15.277344 -38.472656 C 15.445312 -38.695312 15 -37.421875 14.28125 -35.703125 C 12.789062 -32.105469 10.792969 -26.679688 9.742188 -23.414062 C 9.355469 -22.199219 8.636719 -19.652344 8.191406 -17.769531 C 7.75 -15.886719 7.363281 -14.503906 7.363281 -14.78125 Z M 7.363281 -14.78125 "/></g></g></g><g fill="rgb(46.269226%, 23.529053%, 0%)" fill-opacity="1"><g transform="translate(396.953924, 56.178282)"><g><path d="M 11.402344 -24.632812 C 8.800781 -23.859375 6.53125 -22.085938 4.261719 -19.265625 C 0.332031 -14.390625 -1.164062 -7.859375 0.664062 -4.039062 C 1.328125 -2.710938 2.710938 -1.4375 4.707031 -0.277344 C 6.367188 0.664062 6.53125 0.664062 7.914062 0.609375 C 8.855469 0.554688 9.742188 0.386719 10.242188 0.109375 C 13.339844 -1.382812 18.488281 -8.914062 16.828125 -9.519531 C 16.605469 -9.632812 16.164062 -9.1875 15.554688 -8.246094 C 15 -7.472656 13.894531 -6.144531 13.0625 -5.257812 C 11.125 -3.320312 8.691406 -2.046875 6.753906 -1.882812 L 5.480469 -1.828125 L 5.039062 -2.824219 C 4.648438 -3.707031 4.59375 -4.097656 4.707031 -6.089844 C 4.816406 -8.136719 5.589844 -11.292969 5.921875 -11.070312 C 8.523438 -9.632812 10.851562 -10.019531 13.453125 -12.289062 C 16.441406 -14.945312 18.433594 -20.480469 17.050781 -22.472656 C 16.773438 -22.863281 16.496094 -23.195312 16.441406 -23.195312 C 16.386719 -23.195312 15.886719 -23.527344 15.332031 -24.023438 C 14.003906 -25.074219 13.175781 -25.1875 11.402344 -24.632812 Z M 1.828125 -9.519531 C 1.769531 -9.464844 1.714844 -9.578125 1.714844 -9.796875 C 1.714844 -10.019531 1.769531 -10.074219 1.828125 -9.910156 C 1.9375 -9.742188 1.882812 -9.578125 1.828125 -9.519531 Z M 1.9375 -10.738281 C 1.9375 -10.90625 2.046875 -11.238281 2.160156 -11.457031 C 2.269531 -11.734375 2.324219 -11.789062 2.324219 -11.570312 C 2.324219 -11.402344 2.214844 -11.070312 2.160156 -10.851562 C 1.992188 -10.574219 1.9375 -10.515625 1.9375 -10.738281 Z M 2.046875 -8.304688 C 2.214844 -9.578125 2.65625 -11.457031 3.101562 -12.511719 C 3.597656 -13.785156 3.597656 -13.285156 3.042969 -11.570312 C 2.769531 -10.683594 2.4375 -9.355469 2.269531 -8.636719 C 1.992188 -7.363281 1.9375 -7.308594 2.046875 -8.304688 Z M 3.101562 -9.300781 C 3.042969 -9.246094 2.988281 -9.355469 2.988281 -9.578125 C 2.988281 -9.851562 3.042969 -9.851562 3.101562 -9.6875 C 3.15625 -9.578125 3.15625 -9.355469 3.101562 -9.300781 Z M 3.984375 -12.398438 C 3.984375 -12.234375 3.820312 -11.625 3.597656 -11.015625 C 3.265625 -10.242188 3.210938 -10.128906 3.320312 -10.683594 C 3.488281 -11.515625 4.039062 -12.898438 3.984375 -12.398438 Z M 6.917969 -17.714844 C 7.25 -17.992188 7.25 -17.992188 7.03125 -17.660156 C 6.753906 -17.269531 6.585938 -17.160156 6.585938 -17.328125 C 6.585938 -17.382812 6.753906 -17.546875 6.917969 -17.714844 Z M 4.648438 -15.390625 C 4.539062 -15.113281 4.375 -14.945312 4.316406 -14.945312 C 4.261719 -14.945312 4.316406 -15.113281 4.429688 -15.390625 C 4.59375 -15.609375 4.707031 -15.777344 4.761719 -15.777344 C 4.816406 -15.777344 4.761719 -15.609375 4.648438 -15.390625 Z M 5.8125 -15.832031 C 5.371094 -15.113281 4.980469 -14.503906 4.925781 -14.503906 C 4.761719 -14.503906 5.976562 -16.605469 6.308594 -16.882812 C 6.476562 -16.996094 6.253906 -16.550781 5.8125 -15.832031 Z M 15.222656 -17.546875 C 15.222656 -17.4375 15.058594 -17.160156 14.890625 -16.9375 C 14.558594 -16.550781 14.558594 -16.550781 14.78125 -17.050781 C 15.113281 -17.714844 15.222656 -17.824219 15.222656 -17.546875 Z M 14.722656 -21.644531 C 14.945312 -21.367188 14.28125 -19.042969 13.617188 -17.660156 C 12.621094 -15.664062 11.015625 -13.949219 9.410156 -13.230469 C 8.246094 -12.675781 6.585938 -12.398438 6.585938 -12.789062 C 6.585938 -13.121094 8.359375 -15.832031 9.578125 -17.4375 C 11.292969 -19.539062 14.335938 -22.03125 14.722656 -21.644531 Z M 14.722656 -21.644531 "/></g></g></g><g fill="rgb(46.269226%, 23.529053%, 0%)" fill-opacity="1"><g transform="translate(415.715872, 56.178282)"><g><path d="M 24.300781 -31.164062 C 24.078125 -31.164062 23.359375 -32.050781 23.359375 -32.328125 C 23.304688 -32.714844 22.53125 -32.882812 22.03125 -32.550781 C 21.808594 -32.4375 20.535156 -30.886719 19.207031 -29.117188 C 14.78125 -23.25 10.90625 -19.152344 7.640625 -17.050781 C 7.03125 -16.660156 6.53125 -16.441406 6.476562 -16.550781 C 6.367188 -16.882812 7.417969 -20.648438 8.523438 -24.191406 C 10.960938 -31.609375 11.515625 -33.324219 12.953125 -36.921875 C 15.277344 -42.902344 15.5 -43.953125 14.667969 -44.671875 C 14.390625 -44.894531 14.117188 -45.003906 14.003906 -44.949219 C 13.894531 -44.894531 13.839844 -44.949219 13.839844 -45.058594 C 13.839844 -45.226562 13.785156 -45.28125 13.726562 -45.226562 C 13.617188 -45.113281 13.394531 -45.28125 13.230469 -45.503906 C 12.398438 -46.5 11.347656 -45.558594 9.355469 -41.960938 C 8.082031 -39.800781 7.140625 -37.585938 5.3125 -32.605469 C 2.878906 -26.183594 1.660156 -22.03125 0.773438 -17.328125 C -0.386719 -11.515625 0.109375 -4.039062 1.828125 -1.382812 C 2.601562 -0.222656 3.320312 0.222656 4.871094 0.441406 C 5.976562 0.554688 6.089844 0.554688 5.976562 0.167969 C 5.148438 -2.492188 4.484375 -7.085938 4.871094 -7.085938 C 4.980469 -7.085938 6.144531 -6.035156 7.472656 -4.707031 C 8.855469 -3.433594 10.683594 -1.769531 11.515625 -1.105469 C 13.394531 0.277344 16.496094 1.9375 17.824219 2.324219 C 19.097656 2.65625 20.371094 2.65625 20.925781 2.324219 C 21.476562 2.046875 22.472656 0.832031 22.472656 0.554688 C 22.472656 0.386719 22.140625 0.277344 21.753906 0.277344 C 20.261719 0.277344 16.328125 -2.101562 13.175781 -5.039062 C 11.183594 -6.808594 6.863281 -11.402344 6.863281 -11.734375 C 6.863281 -11.789062 7.417969 -12.011719 8.082031 -12.234375 C 9.632812 -12.789062 12.730469 -14.613281 14.503906 -16.054688 C 18.65625 -19.484375 23.859375 -26.015625 24.6875 -28.894531 C 24.964844 -29.78125 24.964844 -30.058594 24.742188 -30.554688 C 24.632812 -30.886719 24.410156 -31.164062 24.300781 -31.164062 Z M 3.929688 -20.09375 C 3.929688 -20.316406 3.984375 -20.371094 4.039062 -20.203125 C 4.152344 -20.039062 4.097656 -19.871094 4.039062 -19.816406 C 3.984375 -19.707031 3.929688 -19.871094 3.929688 -20.09375 Z M 2.546875 -4.429688 C 2.4375 -4.261719 2.214844 -6.644531 2.269531 -8.246094 C 2.269531 -9.6875 2.324219 -9.578125 2.492188 -7.195312 C 2.546875 -5.703125 2.601562 -4.429688 2.546875 -4.429688 Z M 2.769531 -3.433594 C 2.710938 -3.320312 2.710938 -3.433594 2.710938 -3.707031 C 2.710938 -3.984375 2.710938 -4.097656 2.769531 -3.984375 C 2.878906 -3.820312 2.878906 -3.597656 2.769531 -3.433594 Z M 2.878906 -15.222656 C 2.878906 -15.5 2.933594 -15.5 2.988281 -15.332031 C 3.042969 -15.222656 3.042969 -15 2.988281 -14.945312 C 2.933594 -14.890625 2.878906 -15 2.878906 -15.222656 Z M 3.210938 -4.207031 C 3.042969 -4.039062 2.878906 -6.199219 2.878906 -7.804688 C 2.933594 -9.355469 2.933594 -9.246094 3.101562 -6.863281 C 3.210938 -5.425781 3.210938 -4.207031 3.210938 -4.207031 Z M 3.210938 -15.886719 C 3.15625 -15.777344 3.101562 -15.886719 3.101562 -16.164062 C 3.101562 -16.441406 3.15625 -16.550781 3.210938 -16.441406 C 3.265625 -16.273438 3.265625 -16.054688 3.210938 -15.886719 Z M 3.433594 -17.050781 C 3.320312 -16.996094 3.320312 -17.105469 3.320312 -17.328125 C 3.320312 -17.601562 3.375 -17.660156 3.433594 -17.492188 C 3.488281 -17.328125 3.488281 -17.105469 3.433594 -17.050781 Z M 4.039062 -16.109375 C 3.929688 -15.445312 3.765625 -14.890625 3.652344 -14.78125 C 3.542969 -14.667969 3.707031 -15.832031 4.097656 -17.328125 C 4.375 -18.542969 4.375 -17.546875 4.039062 -16.109375 Z M 4.539062 -18.597656 C 4.316406 -18.046875 4.316406 -18.597656 4.539062 -19.320312 C 4.707031 -19.761719 4.707031 -19.761719 4.707031 -19.429688 C 4.707031 -19.207031 4.648438 -18.820312 4.539062 -18.597656 Z M 17.933594 0.71875 C 18.046875 0.71875 18.324219 0.832031 18.488281 0.941406 C 18.65625 1.050781 18.710938 1.105469 18.597656 1.105469 C 18.488281 1.105469 18.210938 1.050781 18.046875 0.941406 C 17.878906 0.832031 17.824219 0.71875 17.933594 0.71875 Z M 13.121094 -44.230469 C 13.175781 -44.230469 12.898438 -43.566406 12.453125 -42.734375 C 12.066406 -41.960938 11.292969 -40.300781 10.738281 -39.136719 C 10.242188 -37.917969 9.246094 -35.484375 8.523438 -33.65625 C 7.859375 -31.886719 7.308594 -30.5 7.308594 -30.667969 C 7.25 -31.664062 12.621094 -44.230469 13.121094 -44.230469 Z M 4.980469 -23.859375 C 4.980469 -24.136719 5.039062 -24.191406 5.09375 -24.023438 C 5.203125 -23.859375 5.148438 -23.691406 5.09375 -23.582031 C 5.039062 -23.527344 4.980469 -23.636719 4.980469 -23.859375 Z M 4.761719 -20.203125 C 4.761719 -20.980469 8.191406 -31.496094 9.851562 -35.648438 C 10.90625 -38.25 13.394531 -43.839844 13.671875 -44.117188 C 13.894531 -44.339844 13.507812 -43.453125 12.566406 -41.296875 C 10.628906 -37.144531 8.914062 -32.660156 6.917969 -26.738281 C 6.53125 -25.519531 5.867188 -23.472656 5.480469 -22.199219 C 5.09375 -20.925781 4.761719 -20.039062 4.761719 -20.203125 Z M 9.1875 -5.535156 C 8.914062 -5.867188 8.914062 -5.921875 9.246094 -5.644531 C 9.464844 -5.480469 9.632812 -5.3125 9.632812 -5.257812 C 9.632812 -5.09375 9.464844 -5.203125 9.1875 -5.535156 Z M 11.015625 -3.875 C 10.40625 -4.375 10.242188 -4.648438 10.574219 -4.375 C 10.90625 -4.152344 11.402344 -3.707031 11.734375 -3.433594 C 12.511719 -2.601562 12.179688 -2.769531 11.015625 -3.875 Z M 14.335938 -1.164062 C 13.671875 -1.605469 12.898438 -2.214844 12.675781 -2.492188 L 12.234375 -2.988281 L 12.789062 -2.546875 C 13.0625 -2.269531 13.839844 -1.714844 14.503906 -1.273438 C 15.167969 -0.832031 15.722656 -0.441406 15.722656 -0.386719 C 15.722656 -0.277344 15.664062 -0.332031 14.335938 -1.164062 Z M 17.660156 0.609375 C 17.660156 0.773438 17.660156 0.773438 16.71875 0.277344 C 16.328125 0.0546875 15.941406 -0.167969 15.941406 -0.222656 C 15.941406 -0.277344 16.328125 -0.167969 16.773438 0.109375 C 17.269531 0.332031 17.660156 0.554688 17.660156 0.609375 Z M 17.328125 -0.109375 C 17.660156 0.222656 17.328125 0.109375 16.441406 -0.441406 C 15.941406 -0.773438 15.5 -1.050781 15.5 -1.105469 C 15.5 -1.21875 16.9375 -0.386719 17.328125 -0.109375 Z M 13.617188 -2.546875 C 14.390625 -1.992188 15.113281 -1.4375 15.222656 -1.382812 C 15.332031 -1.273438 15.332031 -1.164062 15.277344 -1.164062 C 14.558594 -1.164062 6.253906 -9.023438 5.589844 -10.242188 C 5.480469 -10.574219 5.757812 -10.296875 6.253906 -9.742188 C 7.804688 -7.914062 12.179688 -3.652344 13.617188 -2.546875 Z M 22.085938 -30.222656 C 22.199219 -30.28125 22.140625 -30.113281 21.976562 -29.78125 C 21.753906 -29.503906 21.535156 -29.226562 21.476562 -29.226562 C 21.367188 -29.226562 21.867188 -30.058594 22.085938 -30.222656 Z M 20.757812 -28.230469 C 21.089844 -28.453125 21.089844 -28.453125 20.8125 -28.121094 C 20.535156 -27.789062 20.371094 -27.679688 20.371094 -27.84375 C 20.371094 -27.898438 20.535156 -28.066406 20.757812 -28.230469 Z M 20.09375 -27.34375 C 20.425781 -27.621094 20.480469 -27.621094 20.203125 -27.289062 C 19.929688 -26.957031 19.761719 -26.847656 19.761719 -27.011719 C 19.761719 -27.070312 19.929688 -27.234375 20.09375 -27.34375 Z M 15 -20.371094 C 15.222656 -20.59375 15.445312 -20.8125 15.5 -20.8125 C 15.554688 -20.8125 15.445312 -20.59375 15.222656 -20.371094 C 15 -20.148438 14.78125 -19.984375 14.722656 -19.984375 C 14.667969 -19.984375 14.78125 -20.148438 15 -20.371094 Z M 21.035156 -26.292969 C 20.09375 -24.855469 18.210938 -22.640625 16.605469 -20.925781 C 15.777344 -20.09375 14.722656 -19.042969 14.226562 -18.597656 C 13.726562 -18.101562 14.335938 -18.820312 15.609375 -20.148438 C 16.882812 -21.476562 18.597656 -23.472656 19.484375 -24.578125 C 21.367188 -27.011719 21.921875 -27.566406 21.035156 -26.292969 Z M 22.53125 -28.507812 C 22.417969 -28.285156 22.140625 -27.898438 21.976562 -27.679688 L 21.644531 -27.234375 L 21.808594 -27.679688 C 21.921875 -27.898438 22.199219 -28.285156 22.363281 -28.507812 L 22.695312 -28.949219 Z M 23.082031 -30.554688 C 21.476562 -27.898438 18.875 -24.410156 16.882812 -22.199219 C 16.386719 -21.699219 15.832031 -21.203125 15.722656 -21.089844 C 15.554688 -20.980469 16.109375 -21.699219 16.9375 -22.585938 C 18.710938 -24.632812 20.535156 -27.011719 22.140625 -29.503906 C 23.359375 -31.332031 24.023438 -32.105469 23.082031 -30.554688 Z M 23.082031 -30.554688 "/></g></g></g><g fill="rgb(46.269226%, 23.529053%, 0%)" fill-opacity="1"><g transform="translate(437.023693, 56.178282)"><g><path d="M 13.394531 -26.347656 C 12.953125 -26.625 12.179688 -27.125 11.679688 -27.457031 C 9.964844 -28.675781 7.75 -28.175781 5.535156 -26.128906 C 3.820312 -24.523438 2.824219 -22.53125 2.492188 -20.148438 C 2.214844 -17.660156 2.988281 -15.445312 5.480469 -11.847656 C 6.976562 -9.632812 7.363281 -8.523438 7.195312 -6.917969 C 6.976562 -4.59375 5.148438 -2.824219 2.710938 -2.492188 C 1.550781 -2.324219 1.496094 -2.324219 0.664062 -3.042969 C 0.167969 -3.433594 -0.386719 -3.984375 -0.554688 -4.261719 C -0.71875 -4.59375 -0.941406 -4.816406 -1.050781 -4.761719 C -1.164062 -4.761719 -1.328125 -4.871094 -1.4375 -5.039062 C -1.550781 -5.257812 -1.714844 -5.148438 -2.101562 -4.648438 C -2.378906 -4.316406 -2.65625 -3.875 -2.65625 -3.652344 C -2.65625 -2.65625 0.609375 -0.332031 3.042969 0.441406 C 3.652344 0.609375 4.648438 0.664062 5.867188 0.609375 C 8.855469 0.441406 10.90625 -0.71875 12.011719 -2.988281 C 12.511719 -4.039062 12.566406 -4.316406 12.511719 -5.703125 C 12.398438 -7.417969 12.011719 -8.191406 9.910156 -11.570312 C 9.132812 -12.730469 8.304688 -14.226562 8.082031 -14.890625 C 7.140625 -17.328125 7.914062 -20.703125 9.910156 -22.917969 C 10.628906 -23.691406 11.625 -24.410156 12.011719 -24.410156 C 12.121094 -24.410156 12.121094 -23.195312 12.011719 -21.753906 L 11.902344 -19.097656 L 12.566406 -18.820312 C 12.953125 -18.65625 13.175781 -18.488281 13.0625 -18.488281 C 12.953125 -18.488281 12.953125 -18.378906 13.121094 -18.265625 C 13.726562 -17.660156 14.835938 -19.097656 15.390625 -21.203125 C 15.664062 -22.308594 15.722656 -22.695312 15.5 -23.527344 C 15.167969 -24.742188 14.503906 -25.683594 13.394531 -26.347656 Z M 10.128906 -4.816406 C 10.296875 -5.203125 10.40625 -5.371094 10.40625 -5.203125 C 10.40625 -4.871094 9.796875 -3.707031 9.796875 -3.984375 C 9.796875 -4.039062 9.910156 -4.429688 10.128906 -4.816406 Z M 9.410156 -5.425781 C 9.6875 -6.753906 9.742188 -6.863281 9.796875 -6.035156 C 9.796875 -5.589844 9.632812 -5.09375 9.464844 -4.871094 C 9.246094 -4.484375 9.1875 -4.539062 9.410156 -5.425781 Z M 9.078125 -6.308594 C 9.132812 -6.144531 9.132812 -5.921875 9.078125 -5.757812 C 9.023438 -5.644531 8.96875 -5.757812 8.96875 -6.035156 C 8.96875 -6.308594 9.023438 -6.476562 9.078125 -6.308594 Z M 4.648438 -20.648438 C 4.59375 -20.59375 4.539062 -20.703125 4.539062 -20.925781 C 4.539062 -21.203125 4.59375 -21.203125 4.648438 -21.035156 C 4.707031 -20.925781 4.707031 -20.703125 4.648438 -20.648438 Z M 5.148438 -19.761719 C 5.148438 -19.539062 5.09375 -19.320312 4.980469 -19.265625 C 4.648438 -19.042969 5.09375 -21.144531 5.535156 -22.03125 C 5.8125 -22.53125 6.035156 -22.917969 6.089844 -22.917969 C 6.144531 -22.917969 5.921875 -22.308594 5.644531 -21.535156 C 5.371094 -20.757812 5.148438 -19.984375 5.148438 -19.761719 Z M 6.917969 -22.53125 C 6.644531 -21.867188 6.253906 -21.035156 6.089844 -20.59375 L 5.8125 -19.871094 L 5.921875 -20.59375 C 6.035156 -21.421875 6.585938 -22.585938 7.140625 -23.25 C 7.363281 -23.472656 7.25 -23.136719 6.917969 -22.53125 Z M 13.507812 -20.867188 C 13.453125 -20.8125 13.394531 -20.925781 13.394531 -21.144531 C 13.394531 -21.367188 13.453125 -21.421875 13.507812 -21.257812 C 13.5625 -21.144531 13.5625 -20.925781 13.507812 -20.867188 Z M 13.507812 -20.867188 "/></g></g></g><g fill="rgb(46.269226%, 23.529053%, 0%)" fill-opacity="1"><g transform="translate(452.686322, 56.178282)"><g><path d="M 2.933594 -32.382812 C 4.097656 -32.273438 5.09375 -32.160156 5.09375 -32.160156 C 5.09375 -32.105469 4.707031 -30.886719 4.207031 -29.339844 C 0.996094 -19.816406 -0.5 -11.070312 0.332031 -6.253906 C 0.832031 -3.375 2.160156 -1.660156 5.039062 -0.167969 C 6.699219 0.71875 7.695312 0.832031 7.859375 0.332031 C 7.914062 0.167969 7.527344 -0.109375 6.976562 -0.386719 C 5.757812 -0.886719 5.257812 -1.828125 4.925781 -4.261719 C 4.375 -8.246094 5.535156 -14.226562 9.578125 -27.898438 L 10.738281 -31.71875 L 14.117188 -31.71875 C 18.488281 -31.773438 19.265625 -31.886719 19.761719 -32.824219 C 19.984375 -33.214844 20.09375 -33.601562 20.039062 -33.65625 C 19.929688 -33.878906 15.664062 -34.488281 13.175781 -34.652344 L 11.570312 -34.761719 L 11.957031 -36.3125 C 12.179688 -37.144531 12.34375 -38.25 12.34375 -38.859375 C 12.398438 -39.800781 12.34375 -39.964844 11.789062 -40.355469 C 11.457031 -40.574219 10.960938 -41.019531 10.683594 -41.296875 C 10.074219 -41.847656 9.851562 -41.960938 9.410156 -41.628906 C 9.078125 -41.351562 7.804688 -38.804688 6.917969 -36.699219 C 6.367188 -35.207031 6.308594 -35.152344 5.703125 -35.261719 C 5.371094 -35.316406 4.207031 -35.425781 3.15625 -35.484375 C 1.164062 -35.648438 0.332031 -35.425781 0.332031 -34.820312 C 0.332031 -34.652344 0.109375 -34.320312 -0.109375 -34.097656 C -1.050781 -33.15625 -0.277344 -32.769531 2.933594 -32.382812 Z M 2.101562 -12.84375 C 2.046875 -12.789062 1.992188 -12.898438 1.992188 -13.121094 C 2.046875 -13.394531 2.046875 -13.453125 2.160156 -13.285156 C 2.214844 -13.121094 2.214844 -12.953125 2.101562 -12.84375 Z M 2.324219 -10.019531 C 2.269531 -9.851562 2.269531 -9.964844 2.269531 -10.296875 C 2.269531 -10.574219 2.269531 -10.683594 2.324219 -10.515625 C 2.378906 -10.40625 2.378906 -10.128906 2.324219 -10.019531 Z M 4.039062 -22.308594 C 4.097656 -22.695312 4.261719 -23.25 4.375 -23.472656 C 4.484375 -23.746094 4.484375 -23.636719 4.375 -23.136719 C 4.316406 -22.75 4.207031 -22.199219 4.097656 -21.976562 C 3.929688 -21.699219 3.929688 -21.808594 4.039062 -22.308594 Z M 3.707031 -21.144531 C 3.707031 -21.421875 3.765625 -21.476562 3.820312 -21.257812 C 3.875 -21.144531 3.875 -20.925781 3.820312 -20.867188 C 3.765625 -20.8125 3.707031 -20.925781 3.707031 -21.144531 Z M 3.488281 -20.316406 C 3.488281 -20.535156 3.542969 -20.59375 3.597656 -20.425781 C 3.652344 -20.316406 3.652344 -20.09375 3.597656 -20.039062 C 3.542969 -19.984375 3.488281 -20.09375 3.488281 -20.316406 Z M 3.265625 -19.484375 C 3.265625 -19.707031 3.320312 -19.761719 3.433594 -19.597656 C 3.488281 -19.429688 3.488281 -19.265625 3.375 -19.207031 C 3.320312 -19.097656 3.265625 -19.265625 3.265625 -19.484375 Z M 3.042969 -18.597656 C 3.101562 -18.875 3.15625 -18.929688 3.210938 -18.765625 C 3.265625 -18.597656 3.265625 -18.433594 3.15625 -18.324219 C 3.101562 -18.265625 3.042969 -18.378906 3.042969 -18.597656 Z M 2.878906 -17.546875 C 2.878906 -17.824219 2.933594 -17.878906 2.988281 -17.714844 C 3.042969 -17.546875 3.042969 -17.382812 2.988281 -17.269531 C 2.878906 -17.214844 2.824219 -17.328125 2.878906 -17.546875 Z M 2.65625 -16.496094 C 2.769531 -17.050781 2.769531 -17.105469 2.769531 -16.605469 C 2.824219 -16.328125 2.710938 -15.832031 2.65625 -15.554688 C 2.492188 -15.113281 2.4375 -15.113281 2.492188 -15.445312 C 2.492188 -15.664062 2.546875 -16.164062 2.65625 -16.496094 Z M 10.515625 -39.964844 C 10.738281 -40.1875 10.628906 -39.800781 9.796875 -37.476562 C 9.023438 -35.207031 8.746094 -34.652344 8.746094 -35.09375 C 8.746094 -35.316406 10.40625 -39.855469 10.515625 -39.964844 Z M 8.746094 -36.644531 C 8.855469 -36.8125 8.96875 -36.867188 8.96875 -36.757812 C 8.96875 -36.644531 8.855469 -36.425781 8.746094 -36.203125 C 8.636719 -36.035156 8.523438 -35.980469 8.523438 -36.09375 C 8.523438 -36.257812 8.636719 -36.480469 8.746094 -36.644531 Z M 7.140625 -29.671875 C 6.367188 -27.234375 4.375 -20.371094 3.765625 -17.878906 C 3.597656 -16.996094 3.210938 -15.058594 2.933594 -13.5625 C 2.65625 -12.011719 2.4375 -11.070312 2.4375 -11.457031 C 2.4375 -12.234375 3.101562 -16.164062 3.652344 -18.542969 C 4.648438 -22.695312 7.308594 -31.441406 7.695312 -31.886719 C 7.972656 -32.160156 7.972656 -32.050781 7.140625 -29.671875 Z M 6.863281 -31.386719 C 6.976562 -31.550781 7.03125 -31.609375 7.03125 -31.496094 C 7.03125 -31.386719 6.976562 -31.109375 6.863281 -30.945312 C 6.753906 -30.777344 6.644531 -30.722656 6.644531 -30.832031 C 6.644531 -30.945312 6.753906 -31.21875 6.863281 -31.386719 Z M 6.53125 -30.28125 C 6.585938 -30.222656 6.144531 -28.785156 5.589844 -27.011719 C 5.039062 -25.296875 4.539062 -23.96875 4.539062 -24.136719 C 4.539062 -24.46875 6.421875 -30.390625 6.53125 -30.28125 Z M 6.53125 -30.28125 "/></g></g></g><g fill="rgb(46.269226%, 23.529053%, 0%)" fill-opacity="1"><g transform="translate(461.984281, 56.178282)"><g><path d="M 7.75 -26.515625 C 7.472656 -26.40625 7.363281 -26.515625 7.363281 -26.679688 C 7.363281 -26.847656 7.195312 -26.902344 7.03125 -26.847656 C 6.863281 -26.792969 6.699219 -26.902344 6.585938 -27.179688 C 6.421875 -27.789062 5.867188 -28.011719 5.3125 -27.789062 C 3.929688 -27.289062 1.382812 -19.265625 0.5 -12.675781 C -0.5 -5.867188 0.886719 -1.882812 4.871094 0.167969 C 6.308594 0.886719 6.917969 0.773438 6.367188 -0.167969 C 5.589844 -1.605469 5.371094 -2.492188 5.257812 -4.761719 C 5.148438 -7.859375 5.371094 -9.300781 7.25 -17.160156 C 9.1875 -25.351562 9.1875 -25.464844 8.636719 -26.128906 C 8.359375 -26.460938 8.027344 -26.570312 7.75 -26.515625 Z M 4.761719 -22.363281 C 4.816406 -22.253906 4.816406 -22.03125 4.707031 -21.976562 C 4.648438 -21.921875 4.59375 -22.03125 4.59375 -22.253906 C 4.59375 -22.472656 4.648438 -22.53125 4.761719 -22.363281 Z M 3.875 -19.597656 C 3.929688 -19.984375 4.097656 -20.535156 4.207031 -20.757812 C 4.316406 -21.035156 4.316406 -20.980469 4.261719 -20.425781 C 4.152344 -20.039062 4.039062 -19.539062 3.929688 -19.265625 C 3.820312 -18.988281 3.765625 -19.097656 3.875 -19.597656 Z M 2.824219 -15.222656 C 3.042969 -16.441406 3.707031 -18.875 3.707031 -18.597656 C 3.765625 -18.433594 3.542969 -17.492188 3.320312 -16.441406 C 2.878906 -14.613281 2.546875 -13.839844 2.824219 -15.222656 Z M 2.65625 -14.058594 C 2.65625 -13.839844 2.65625 -13.5625 2.601562 -13.453125 C 2.546875 -13.285156 2.546875 -13.453125 2.546875 -13.785156 C 2.546875 -14.171875 2.601562 -14.28125 2.65625 -14.058594 Z M 1.992188 -9.300781 C 1.882812 -9.246094 1.882812 -9.355469 1.882812 -9.578125 C 1.882812 -9.851562 1.9375 -9.910156 1.992188 -9.742188 C 2.046875 -9.578125 2.046875 -9.410156 1.992188 -9.300781 Z M 2.269531 -12.34375 C 2.378906 -13.007812 2.4375 -13.0625 2.4375 -12.511719 C 2.4375 -12.179688 2.378906 -11.625 2.269531 -11.292969 C 2.046875 -10.40625 2.046875 -11.238281 2.269531 -12.34375 Z M 2.4375 -7.527344 C 2.378906 -7.363281 2.324219 -7.527344 2.324219 -7.914062 C 2.324219 -8.246094 2.378906 -8.359375 2.4375 -8.136719 C 2.492188 -7.972656 2.492188 -7.640625 2.4375 -7.527344 Z M 2.710938 -9.910156 C 2.546875 -8.636719 2.546875 -8.636719 2.492188 -9.464844 C 2.4375 -11.402344 3.984375 -18.324219 5.589844 -23.472656 C 5.976562 -24.800781 6.421875 -25.90625 6.53125 -25.90625 C 6.644531 -25.90625 6.644531 -25.851562 6.585938 -25.742188 C 6.199219 -25.074219 3.929688 -16.441406 3.210938 -12.953125 C 3.042969 -12.011719 2.824219 -10.628906 2.710938 -9.910156 Z M 3.875 -12.566406 C 3.820312 -12.453125 3.765625 -12.566406 3.765625 -12.84375 C 3.765625 -13.121094 3.820312 -13.285156 3.875 -13.121094 C 3.929688 -12.953125 3.929688 -12.730469 3.875 -12.566406 Z M 4.097656 -13.5625 C 4.039062 -13.453125 3.984375 -13.617188 3.984375 -13.839844 C 3.984375 -14.058594 4.039062 -14.117188 4.097656 -13.949219 C 4.152344 -13.785156 4.152344 -13.617188 4.097656 -13.5625 Z M 4.484375 -15.445312 C 4.429688 -15.390625 4.375 -15.5 4.375 -15.722656 C 4.429688 -15.941406 4.484375 -15.996094 4.539062 -15.832031 C 4.59375 -15.664062 4.59375 -15.5 4.484375 -15.445312 Z M 4.816406 -16.660156 C 4.648438 -16.21875 4.648438 -16.21875 4.648438 -16.550781 C 4.648438 -16.773438 4.707031 -17.214844 4.816406 -17.492188 C 4.925781 -17.933594 4.980469 -17.933594 4.980469 -17.601562 C 4.980469 -17.382812 4.871094 -16.9375 4.816406 -16.660156 Z M 5.148438 -18.15625 C 5.09375 -18.101562 5.039062 -18.210938 5.039062 -18.433594 C 5.039062 -18.710938 5.09375 -18.765625 5.148438 -18.597656 C 5.203125 -18.433594 5.203125 -18.265625 5.148438 -18.15625 Z M 5.371094 -19.042969 C 5.257812 -18.929688 5.257812 -19.097656 5.257812 -19.320312 C 5.257812 -19.539062 5.3125 -19.597656 5.371094 -19.429688 C 5.425781 -19.265625 5.425781 -19.097656 5.371094 -19.042969 Z M 6.421875 -22.75 C 5.976562 -21.421875 5.644531 -20.480469 5.644531 -20.59375 C 5.644531 -21.035156 6.976562 -25.574219 7.085938 -25.351562 C 7.085938 -25.242188 6.808594 -24.078125 6.421875 -22.75 Z M 10.738281 -36.257812 C 9.964844 -36.257812 7.914062 -34.984375 6.199219 -33.433594 C 5.203125 -32.550781 5.203125 -32.492188 5.480469 -31.886719 C 5.644531 -31.441406 5.867188 -31.277344 6.089844 -31.332031 C 6.308594 -31.386719 6.476562 -31.277344 6.476562 -31.164062 C 6.476562 -31.054688 6.699219 -31.109375 6.976562 -31.332031 C 7.25 -31.550781 7.308594 -31.609375 7.195312 -31.441406 C 6.917969 -31.109375 6.808594 -30.335938 7.03125 -30.113281 C 7.308594 -29.835938 7.914062 -30.058594 8.246094 -30.613281 C 8.855469 -31.609375 10.738281 -33.324219 11.679688 -33.765625 C 12.179688 -33.988281 12.621094 -34.320312 12.621094 -34.488281 C 12.621094 -34.761719 11.070312 -36.257812 10.738281 -36.257812 Z M 10.738281 -36.257812 "/></g></g></g><g fill="rgb(46.269226%, 23.529053%, 0%)" fill-opacity="1"><g transform="translate(470.894823, 56.178282)"><g><path d="M 13.230469 -43.953125 C 12.953125 -44.171875 12.453125 -44.617188 12.121094 -44.949219 C 11.625 -45.445312 11.457031 -45.503906 11.015625 -45.335938 C 10.738281 -45.226562 10.351562 -44.949219 10.183594 -44.726562 C 9.464844 -43.953125 8.246094 -41.738281 7.417969 -39.800781 C 5.589844 -35.59375 2.378906 -25.1875 1.273438 -20.09375 C 0.277344 -15.5 0.167969 -14.722656 0.167969 -10.183594 C 0.167969 -6.144531 0.222656 -5.589844 0.664062 -4.261719 C 1.496094 -1.496094 2.601562 -0.386719 5.039062 0.441406 C 6.585938 0.941406 7.417969 0.386719 6.308594 -0.441406 C 6.035156 -0.71875 5.535156 -1.496094 5.3125 -2.160156 C 4.871094 -3.320312 4.816406 -3.765625 4.816406 -7.308594 C 4.871094 -10.738281 4.925781 -11.570312 5.425781 -13.949219 C 6.367188 -18.378906 7.914062 -23.804688 10.851562 -32.769531 C 12.34375 -37.421875 13.617188 -41.683594 13.726562 -42.347656 C 13.785156 -43.398438 13.785156 -43.566406 13.230469 -43.953125 Z M 9.851562 -40.851562 C 10.019531 -41.183594 10.183594 -41.296875 10.183594 -41.183594 C 10.183594 -41.074219 10.019531 -40.742188 9.851562 -40.464844 C 9.6875 -40.1875 9.578125 -40.023438 9.578125 -40.132812 C 9.578125 -40.242188 9.6875 -40.574219 9.851562 -40.851562 Z M 9.355469 -39.632812 C 9.464844 -39.800781 9.578125 -39.855469 9.578125 -39.691406 C 9.578125 -39.578125 9.464844 -39.359375 9.355469 -39.191406 C 9.246094 -39.027344 9.132812 -38.96875 9.132812 -39.082031 C 9.132812 -39.191406 9.246094 -39.414062 9.355469 -39.632812 Z M 8.914062 -38.582031 C 9.023438 -38.75 9.132812 -38.804688 9.132812 -38.636719 C 9.132812 -38.527344 9.023438 -38.304688 8.914062 -38.140625 C 8.800781 -37.972656 8.746094 -37.917969 8.746094 -38.03125 C 8.746094 -38.140625 8.800781 -38.363281 8.914062 -38.582031 Z M 8.523438 -37.476562 C 8.636719 -37.695312 8.691406 -37.695312 8.691406 -37.585938 C 8.691406 -37.476562 8.636719 -37.253906 8.523438 -37.089844 C 8.414062 -36.921875 8.304688 -36.867188 8.304688 -36.976562 C 8.304688 -37.089844 8.414062 -37.308594 8.523438 -37.476562 Z M 7.804688 -35.59375 C 7.859375 -35.871094 8.027344 -36.257812 8.136719 -36.425781 C 8.246094 -36.644531 8.246094 -36.589844 8.191406 -36.257812 C 8.082031 -35.925781 7.972656 -35.539062 7.859375 -35.371094 C 7.695312 -35.152344 7.695312 -35.261719 7.804688 -35.59375 Z M 7.25 -34.042969 C 7.472656 -34.597656 7.640625 -34.929688 7.640625 -34.761719 C 7.640625 -34.597656 7.472656 -33.988281 7.25 -33.378906 C 7.03125 -32.824219 6.863281 -32.492188 6.863281 -32.660156 C 6.863281 -32.824219 7.03125 -33.433594 7.25 -34.042969 Z M 6.585938 -31.996094 C 6.699219 -32.21875 6.808594 -32.21875 6.808594 -32.105469 C 6.753906 -31.71875 6.421875 -31.054688 6.421875 -31.386719 C 6.421875 -31.550781 6.476562 -31.828125 6.585938 -31.996094 Z M 1.714844 -8.027344 C 1.660156 -7.695312 1.605469 -7.972656 1.605469 -8.582031 C 1.605469 -9.246094 1.660156 -9.519531 1.714844 -9.1875 C 1.769531 -8.855469 1.769531 -8.359375 1.714844 -8.027344 Z M 1.882812 -12.453125 C 1.828125 -12.234375 1.828125 -12.398438 1.828125 -12.789062 C 1.828125 -13.230469 1.828125 -13.394531 1.882812 -13.175781 C 1.9375 -13.007812 1.9375 -12.675781 1.882812 -12.453125 Z M 2.101562 -14.558594 C 2.160156 -14.390625 2.160156 -14.171875 2.101562 -14.003906 C 2.046875 -13.894531 1.992188 -14.003906 1.992188 -14.28125 C 1.992188 -14.558594 2.046875 -14.722656 2.101562 -14.558594 Z M 3.101562 -11.679688 C 2.988281 -10.628906 2.933594 -9.742188 2.878906 -9.6875 C 2.769531 -9.519531 2.824219 -11.902344 2.988281 -12.730469 C 3.15625 -13.285156 3.15625 -12.953125 3.101562 -11.679688 Z M 8.082031 -31.386719 C 7.363281 -29.226562 6.308594 -25.628906 5.644531 -23.359375 C 4.980469 -21.089844 4.152344 -17.992188 3.820312 -16.386719 C 3.488281 -14.835938 3.265625 -14.058594 3.320312 -14.722656 C 3.488281 -16.054688 4.648438 -21.035156 5.480469 -23.746094 C 6.585938 -27.511719 9.1875 -35.425781 9.246094 -35.371094 C 9.300781 -35.316406 8.746094 -33.488281 8.082031 -31.386719 Z M 10.296875 -37.808594 C 9.742188 -36.367188 9.355469 -35.59375 9.6875 -36.644531 C 10.019531 -37.753906 10.683594 -39.414062 10.738281 -39.359375 C 10.792969 -39.300781 10.574219 -38.636719 10.296875 -37.808594 Z M 11.457031 -40.851562 C 11.347656 -40.6875 11.238281 -40.632812 11.238281 -40.796875 C 11.238281 -40.90625 11.347656 -41.128906 11.457031 -41.296875 C 11.570312 -41.460938 11.679688 -41.515625 11.679688 -41.40625 C 11.679688 -41.296875 11.570312 -41.074219 11.457031 -40.851562 Z M 11.183594 -41.792969 C 9.851562 -38.75 8.246094 -34.488281 6.976562 -30.335938 C 3.265625 -18.65625 2.324219 -14.117188 2.378906 -8.359375 C 2.378906 -6.644531 2.324219 -5.203125 2.269531 -5.203125 C 2.214844 -5.203125 2.160156 -5.644531 2.160156 -6.199219 C 2.160156 -6.753906 2.101562 -7.417969 2.046875 -7.640625 C 1.882812 -8.523438 2.4375 -14.058594 2.933594 -16.71875 C 3.488281 -19.375 4.539062 -23.527344 5.644531 -27.070312 C 6.917969 -31.21875 8.304688 -35.484375 9.078125 -37.53125 C 10.019531 -39.964844 11.902344 -44.117188 12.011719 -43.953125 C 12.066406 -43.953125 11.679688 -42.957031 11.183594 -41.792969 Z M 11.183594 -41.792969 "/></g></g></g><g fill="rgb(80.389404%, 38.819885%, 0.389099%)" fill-opacity="1"><g transform="translate(218.844931, 46.975174)"><g><path d="M 5.9375 0.15625 C 4.925781 0.15625 3.945312 0 3 -0.3125 C 2.0625 -0.625 1.320312 -1.03125 0.78125 -1.53125 L 1.5 -3.03125 C 2.007812 -2.570312 2.664062 -2.195312 3.46875 -1.90625 C 4.269531 -1.625 5.09375 -1.484375 5.9375 -1.484375 C 7.050781 -1.484375 7.882812 -1.671875 8.4375 -2.046875 C 8.988281 -2.421875 9.265625 -2.925781 9.265625 -3.5625 C 9.265625 -4.019531 9.113281 -4.390625 8.8125 -4.671875 C 8.507812 -4.960938 8.140625 -5.1875 7.703125 -5.34375 C 7.265625 -5.5 6.640625 -5.671875 5.828125 -5.859375 C 4.816406 -6.109375 4 -6.351562 3.375 -6.59375 C 2.75 -6.84375 2.210938 -7.21875 1.765625 -7.71875 C 1.328125 -8.226562 1.109375 -8.910156 1.109375 -9.765625 C 1.109375 -10.484375 1.296875 -11.128906 1.671875 -11.703125 C 2.054688 -12.285156 2.632812 -12.75 3.40625 -13.09375 C 4.175781 -13.445312 5.128906 -13.625 6.265625 -13.625 C 7.066406 -13.625 7.847656 -13.519531 8.609375 -13.3125 C 9.378906 -13.101562 10.039062 -12.804688 10.59375 -12.421875 L 9.96875 -10.890625 C 9.394531 -11.242188 8.785156 -11.515625 8.140625 -11.703125 C 7.503906 -11.890625 6.878906 -11.984375 6.265625 -11.984375 C 5.179688 -11.984375 4.363281 -11.785156 3.8125 -11.390625 C 3.269531 -10.992188 3 -10.476562 3 -9.84375 C 3 -9.382812 3.148438 -9.007812 3.453125 -8.71875 C 3.765625 -8.4375 4.148438 -8.210938 4.609375 -8.046875 C 5.066406 -7.890625 5.6875 -7.722656 6.46875 -7.546875 C 7.476562 -7.296875 8.289062 -7.046875 8.90625 -6.796875 C 9.519531 -6.554688 10.046875 -6.1875 10.484375 -5.6875 C 10.929688 -5.1875 11.15625 -4.515625 11.15625 -3.671875 C 11.15625 -2.960938 10.960938 -2.316406 10.578125 -1.734375 C 10.191406 -1.148438 9.609375 -0.6875 8.828125 -0.34375 C 8.046875 -0.0078125 7.082031 0.15625 5.9375 0.15625 Z M 5.9375 0.15625 "/></g></g></g><g fill="rgb(80.389404%, 38.819885%, 0.389099%)" fill-opacity="1"><g transform="translate(240.316146, 46.975174)"><g><path d="M 7.75 -13.625 C 9.082031 -13.625 10.285156 -13.320312 11.359375 -12.71875 C 12.429688 -12.125 13.269531 -11.300781 13.875 -10.25 C 14.488281 -9.207031 14.796875 -8.039062 14.796875 -6.75 C 14.796875 -5.445312 14.492188 -4.269531 13.890625 -3.21875 C 13.285156 -2.164062 12.457031 -1.335938 11.40625 -0.734375 C 10.351562 -0.140625 9.171875 0.15625 7.859375 0.15625 C 6.546875 0.15625 5.363281 -0.144531 4.3125 -0.75 C 3.257812 -1.351562 2.429688 -2.179688 1.828125 -3.234375 C 1.222656 -4.296875 0.921875 -5.488281 0.921875 -6.8125 L 0.921875 -7.34375 L 12.84375 -7.34375 C 12.757812 -8.21875 12.484375 -9 12.015625 -9.6875 C 11.546875 -10.382812 10.9375 -10.925781 10.1875 -11.3125 C 9.4375 -11.707031 8.617188 -11.90625 7.734375 -11.90625 C 6.910156 -11.90625 6.132812 -11.773438 5.40625 -11.515625 C 4.675781 -11.253906 4.039062 -10.859375 3.5 -10.328125 L 2.34375 -11.65625 C 2.988281 -12.269531 3.773438 -12.75 4.703125 -13.09375 C 5.640625 -13.445312 6.65625 -13.625 7.75 -13.625 Z M 7.859375 -1.5 C 9.179688 -1.5 10.285156 -1.878906 11.171875 -2.640625 C 12.066406 -3.410156 12.613281 -4.4375 12.8125 -5.71875 L 2.90625 -5.71875 C 3.113281 -4.4375 3.660156 -3.410156 4.546875 -2.640625 C 5.441406 -1.878906 6.546875 -1.5 7.859375 -1.5 Z M 7.859375 -1.5 "/></g></g></g><g fill="rgb(80.389404%, 38.819885%, 0.389099%)" fill-opacity="1"><g transform="translate(265.557498, 46.975174)"><g><path d="M 2.015625 -13.46875 L 7.6875 -13.46875 C 9.113281 -13.46875 10.378906 -13.179688 11.484375 -12.609375 C 12.585938 -12.046875 13.441406 -11.253906 14.046875 -10.234375 C 14.660156 -9.222656 14.96875 -8.054688 14.96875 -6.734375 C 14.96875 -5.410156 14.660156 -4.238281 14.046875 -3.21875 C 13.441406 -2.195312 12.585938 -1.40625 11.484375 -0.84375 C 10.378906 -0.28125 9.113281 0 7.6875 0 L 2.015625 0 Z M 7.578125 -1.671875 C 8.671875 -1.671875 9.628906 -1.878906 10.453125 -2.296875 C 11.273438 -2.722656 11.910156 -3.316406 12.359375 -4.078125 C 12.816406 -4.847656 13.046875 -5.734375 13.046875 -6.734375 C 13.046875 -7.734375 12.816406 -8.613281 12.359375 -9.375 C 11.910156 -10.132812 11.273438 -10.726562 10.453125 -11.15625 C 9.628906 -11.582031 8.671875 -11.796875 7.578125 -11.796875 L 3.9375 -11.796875 L 3.9375 -1.671875 Z M 7.578125 -1.671875 "/></g></g></g><g fill="rgb(80.389404%, 38.819885%, 0.389099%)" fill-opacity="1"><g transform="translate(290.971967, 46.975174)"><g><path d="M 7.75 -13.625 C 9.082031 -13.625 10.285156 -13.320312 11.359375 -12.71875 C 12.429688 -12.125 13.269531 -11.300781 13.875 -10.25 C 14.488281 -9.207031 14.796875 -8.039062 14.796875 -6.75 C 14.796875 -5.445312 14.492188 -4.269531 13.890625 -3.21875 C 13.285156 -2.164062 12.457031 -1.335938 11.40625 -0.734375 C 10.351562 -0.140625 9.171875 0.15625 7.859375 0.15625 C 6.546875 0.15625 5.363281 -0.144531 4.3125 -0.75 C 3.257812 -1.351562 2.429688 -2.179688 1.828125 -3.234375 C 1.222656 -4.296875 0.921875 -5.488281 0.921875 -6.8125 L 0.921875 -7.34375 L 12.84375 -7.34375 C 12.757812 -8.21875 12.484375 -9 12.015625 -9.6875 C 11.546875 -10.382812 10.9375 -10.925781 10.1875 -11.3125 C 9.4375 -11.707031 8.617188 -11.90625 7.734375 -11.90625 C 6.910156 -11.90625 6.132812 -11.773438 5.40625 -11.515625 C 4.675781 -11.253906 4.039062 -10.859375 3.5 -10.328125 L 2.34375 -11.65625 C 2.988281 -12.269531 3.773438 -12.75 4.703125 -13.09375 C 5.640625 -13.445312 6.65625 -13.625 7.75 -13.625 Z M 7.859375 -1.5 C 9.179688 -1.5 10.285156 -1.878906 11.171875 -2.640625 C 12.066406 -3.410156 12.613281 -4.4375 12.8125 -5.71875 L 2.90625 -5.71875 C 3.113281 -4.4375 3.660156 -3.410156 4.546875 -2.640625 C 5.441406 -1.878906 6.546875 -1.5 7.859375 -1.5 Z M 7.859375 -1.5 "/></g></g></g><g fill="rgb(80.389404%, 38.819885%, 0.389099%)" fill-opacity="1"><g transform="translate(316.213319, 46.975174)"><g><path d="M 11.015625 0 L 8.109375 -4.140625 C 7.753906 -4.109375 7.472656 -4.09375 7.265625 -4.09375 L 3.9375 -4.09375 L 3.9375 0 L 2.015625 0 L 2.015625 -13.46875 L 7.265625 -13.46875 C 9.015625 -13.46875 10.390625 -13.050781 11.390625 -12.21875 C 12.390625 -11.382812 12.890625 -10.234375 12.890625 -8.765625 C 12.890625 -7.734375 12.628906 -6.847656 12.109375 -6.109375 C 11.597656 -5.378906 10.867188 -4.847656 9.921875 -4.515625 L 13.125 0 Z M 7.21875 -5.734375 C 8.4375 -5.734375 9.363281 -5.992188 10 -6.515625 C 10.644531 -7.046875 10.96875 -7.796875 10.96875 -8.765625 C 10.96875 -9.742188 10.644531 -10.492188 10 -11.015625 C 9.363281 -11.535156 8.4375 -11.796875 7.21875 -11.796875 L 3.9375 -11.796875 L 3.9375 -5.734375 Z M 7.21875 -5.734375 "/></g></g></g><g fill="rgb(80.389404%, 38.819885%, 0.389099%)" fill-opacity="1"><g transform="translate(339.723487, 46.975174)"><g><path d="M 7.75 -13.625 C 9.082031 -13.625 10.285156 -13.320312 11.359375 -12.71875 C 12.429688 -12.125 13.269531 -11.300781 13.875 -10.25 C 14.488281 -9.207031 14.796875 -8.039062 14.796875 -6.75 C 14.796875 -5.445312 14.492188 -4.269531 13.890625 -3.21875 C 13.285156 -2.164062 12.457031 -1.335938 11.40625 -0.734375 C 10.351562 -0.140625 9.171875 0.15625 7.859375 0.15625 C 6.546875 0.15625 5.363281 -0.144531 4.3125 -0.75 C 3.257812 -1.351562 2.429688 -2.179688 1.828125 -3.234375 C 1.222656 -4.296875 0.921875 -5.488281 0.921875 -6.8125 L 0.921875 -7.34375 L 12.84375 -7.34375 C 12.757812 -8.21875 12.484375 -9 12.015625 -9.6875 C 11.546875 -10.382812 10.9375 -10.925781 10.1875 -11.3125 C 9.4375 -11.707031 8.617188 -11.90625 7.734375 -11.90625 C 6.910156 -11.90625 6.132812 -11.773438 5.40625 -11.515625 C 4.675781 -11.253906 4.039062 -10.859375 3.5 -10.328125 L 2.34375 -11.65625 C 2.988281 -12.269531 3.773438 -12.75 4.703125 -13.09375 C 5.640625 -13.445312 6.65625 -13.625 7.75 -13.625 Z M 7.859375 -1.5 C 9.179688 -1.5 10.285156 -1.878906 11.171875 -2.640625 C 12.066406 -3.410156 12.613281 -4.4375 12.8125 -5.71875 L 2.90625 -5.71875 C 3.113281 -4.4375 3.660156 -3.410156 4.546875 -2.640625 C 5.441406 -1.878906 6.546875 -1.5 7.859375 -1.5 Z M 7.859375 -1.5 "/></g></g></g><g fill="rgb(80.389404%, 38.819885%, 0.389099%)" fill-opacity="1"><g transform="translate(364.964834, 46.975174)"><g><path d="M 6.40625 -5.984375 L 3.9375 -3.484375 L 3.9375 0 L 2.015625 0 L 2.015625 -13.46875 L 3.9375 -13.46875 L 3.9375 -5.9375 L 11.25 -13.46875 L 13.4375 -13.46875 L 7.6875 -7.40625 L 13.8125 0 L 11.5625 0 Z M 6.40625 -5.984375 "/></g></g></g></svg>